<svg width="44" height="30" viewBox="0 0 44 30" fill="none" xmlns="http://www.w3.org/2000/svg">
<path d="M42.1486 19.846C42.5093 19.846 42.8017 20.1382 42.8017 20.4986V28.3301C42.8017 28.6905 42.5093 28.9827 42.1486 28.9827H2.0959C1.73524 28.9827 1.44287 28.6905 1.44287 28.3301V20.4986C1.44287 20.1382 1.73524 19.846 2.0959 19.846C4.61967 19.846 6.66714 17.8003 6.66714 15.2777C6.66714 12.7562 4.61904 10.7094 2.0959 10.7094C1.73524 10.7094 1.44287 10.4172 1.44287 10.0568V2.22537C1.44287 1.86494 1.73524 1.57275 2.0959 1.57275H42.1486C42.5093 1.57275 42.8017 1.86494 42.8017 2.22537V10.0568C42.8017 10.4172 42.5093 10.7094 42.1486 10.7094C39.6244 10.7094 37.5774 12.7556 37.5774 15.2777C37.5774 17.801 39.6237 19.846 42.1486 19.846Z" fill="#F2694A" stroke="#681D06" stroke-width="1.14885"/>
<path fill-rule="evenodd" clip-rule="evenodd" d="M14.6549 12.9936C16.2411 12.9936 17.527 11.7153 17.527 10.1384C17.527 8.56152 16.2411 7.2832 14.6549 7.2832C13.0686 7.2832 11.7827 8.56152 11.7827 10.1384C11.7827 11.7153 13.0686 12.9936 14.6549 12.9936Z" stroke="white" stroke-width="1.14885"/>
<path fill-rule="evenodd" clip-rule="evenodd" d="M21.5474 23.2724C23.1337 23.2724 24.4196 21.9941 24.4196 20.4172C24.4196 18.8403 23.1337 17.562 21.5474 17.562C19.9612 17.562 18.6753 18.8403 18.6753 20.4172C18.6753 21.9941 19.9612 23.2724 21.5474 23.2724Z" stroke="white" stroke-width="1.14885"/>
<path d="M31.8874 4.94432V25.7212" stroke="white" stroke-width="1.14885" stroke-linecap="square" stroke-dasharray="1.15 2.3"/>
<path d="M12.3571 24.4144L23.8457 6.71215" stroke="white" stroke-width="1.14885" stroke-linecap="round"/>
</svg>
