<svg width="53" height="46" viewBox="0 0 53 46" fill="none" xmlns="http://www.w3.org/2000/svg">
<path d="M21.9723 31.7513C22.1287 31.9078 22.1288 32.1614 21.9723 32.3179L18.5732 35.717C18.4167 35.8735 18.1631 35.8735 18.0066 35.717L0.629899 18.3403C0.473428 18.1838 0.473405 17.9302 0.629848 17.7737L4.02901 14.3746C4.18545 14.2181 4.43912 14.2181 4.59559 14.3746C5.69051 15.4695 7.46671 15.4699 8.56164 14.375C9.65609 13.2805 9.65593 11.5036 8.56128 10.4089C8.40481 10.2524 8.40478 9.99878 8.56123 9.84234L11.9604 6.44318C12.1168 6.28673 12.3705 6.28676 12.527 6.44323L29.9037 23.8199C30.0601 23.9764 30.0602 24.2301 29.9037 24.3865L26.5045 27.7857C26.3481 27.9421 26.0944 27.9421 25.938 27.7856C24.8428 26.6905 23.0666 26.6905 21.9719 27.7852C20.8767 28.8805 20.8769 30.6559 21.9723 31.7513Z" fill="#F2694A" stroke="#B61D83" stroke-width="0.807948"/>
<path fill-rule="evenodd" clip-rule="evenodd" d="M13.0185 16.8496C13.7067 17.5378 14.8194 17.5408 15.5038 16.8564C16.1883 16.172 16.1852 15.0592 15.497 14.3711C14.8089 13.6829 13.6961 13.6798 13.0117 14.3643C12.3273 15.0487 12.3303 16.1614 13.0185 16.8496Z" stroke="white" stroke-width="0.807948"/>
<path fill-rule="evenodd" clip-rule="evenodd" d="M11.5478 24.301C12.236 24.9892 13.3487 24.9923 14.0331 24.3078C14.7176 23.6234 14.7145 22.5107 14.0263 21.8225C13.3382 21.1343 12.2254 21.1313 11.541 21.8157C10.8566 22.5001 10.8596 23.6129 11.5478 24.301Z" stroke="white" stroke-width="0.807948"/>
<path d="M23.989 20.8315L14.9709 29.8495" stroke="white" stroke-width="0.807948" stroke-linecap="square" stroke-dasharray="0.81 1.62"/>
<path d="M7.06466 20.8097L19.7324 18.1105" stroke="white" stroke-width="0.807948" stroke-linecap="round"/>
<path d="M27.3691 38.2704C27.5903 38.2704 27.7697 38.4497 27.7697 38.671V43.4781C27.7697 43.6994 27.5903 43.8787 27.3691 43.8787H2.79471C2.57343 43.8787 2.39404 43.6994 2.39404 43.4781V38.671C2.39404 38.4497 2.57343 38.2704 2.79471 38.2704C4.34317 38.2704 5.59939 37.0147 5.59939 35.4662C5.59939 33.9184 4.34278 32.662 2.79471 32.662C2.57343 32.662 2.39404 32.4827 2.39404 32.2614V27.4543C2.39404 27.2331 2.57343 27.0537 2.79471 27.0537H27.3691C27.5903 27.0537 27.7697 27.2331 27.7697 27.4543V32.2614C27.7697 32.4827 27.5903 32.662 27.3691 32.662C25.8203 32.662 24.5644 33.918 24.5644 35.4662C24.5644 37.0151 25.8199 38.2704 27.3691 38.2704Z" fill="#F2694A" stroke="#B61D83" stroke-width="0.807948"/>
<path fill-rule="evenodd" clip-rule="evenodd" d="M10.5002 34.0645C11.4735 34.0645 12.2624 33.2799 12.2624 32.3119C12.2624 31.344 11.4735 30.5593 10.5002 30.5593C9.527 30.5593 8.73804 31.344 8.73804 32.3119C8.73804 33.2799 9.527 34.0645 10.5002 34.0645Z" stroke="white" stroke-width="0.807948"/>
<path fill-rule="evenodd" clip-rule="evenodd" d="M14.7295 40.3734C15.7027 40.3734 16.4917 39.5887 16.4917 38.6208C16.4917 37.6528 15.7027 36.8682 14.7295 36.8682C13.7562 36.8682 12.9673 37.6528 12.9673 38.6208C12.9673 39.5887 13.7562 40.3734 14.7295 40.3734Z" stroke="white" stroke-width="0.807948"/>
<path d="M21.0729 29.1226V41.876" stroke="white" stroke-width="0.807948" stroke-linecap="square" stroke-dasharray="0.81 1.62"/>
<path d="M9.09048 41.0748L16.1393 30.2087" stroke="white" stroke-width="0.807948" stroke-linecap="round"/>
<path fill-rule="evenodd" clip-rule="evenodd" d="M29.5009 10.6677C29.6079 12.8443 29.6141 15.3605 30.9014 17.0694C31.0954 17.3281 30.8069 17.6776 30.5308 17.5072C28.6813 16.3555 27.302 14.8617 25.6627 13.4762C25.5159 13.3518 25.5259 13.1217 25.6876 13.0147L29.3169 10.5732C29.394 10.521 29.4972 10.5745 29.5009 10.6677Z" fill="#F7EBBF"/>
<path fill-rule="evenodd" clip-rule="evenodd" d="M39.1848 10.6677C39.0778 12.8443 39.0716 15.3605 37.7843 17.0694C37.589 17.3281 37.8788 17.6776 38.1549 17.5072C40.0044 16.3555 41.3837 14.8617 43.023 13.4762C43.1698 13.3518 43.1598 13.1217 42.9981 13.0147L39.3688 10.5732C39.2905 10.521 39.1885 10.5745 39.1848 10.6677Z" fill="#F7EBBF"/>
<path fill-rule="evenodd" clip-rule="evenodd" d="M49.0184 22.5553V40.8585C49.0184 43.0625 47.0308 44.8485 44.5794 44.8485H24.4839C22.0349 44.8485 20.0461 43.0625 20.0461 40.8585V22.5553H49.0184ZM49.0446 17.4321C50.164 17.4321 51.0694 18.2841 51.0694 19.3363V20.6274C51.0694 21.6796 50.164 22.5316 49.0446 22.5316H20.2316C19.1147 22.5316 18.2092 21.6796 18.2092 20.6274V19.3363C18.2092 18.2841 19.1147 17.4321 20.2316 17.4321H49.0446Z" fill="white"/>
<mask id="mask0_28_575" style="mask-type:alpha" maskUnits="userSpaceOnUse" x="18" y="17" width="34" height="28">
<path fill-rule="evenodd" clip-rule="evenodd" d="M20.2326 17.4329C19.1157 17.4329 18.209 18.2848 18.209 19.3371V20.6281C18.209 21.6791 19.1157 22.5323 20.2326 22.5323H49.0444C50.1637 22.5323 51.0704 21.6791 51.0704 20.6281V19.3371C51.0704 18.2848 50.1637 17.4329 49.0444 17.4329H20.2326ZM20.0472 22.5556V40.8588C20.0472 43.0615 22.0347 44.8475 24.4849 44.8475H44.5791C47.0318 44.8475 49.0181 43.0615 49.0181 40.8588V22.5556H20.0472Z" fill="white"/>
</mask>
<g mask="url(#mask0_28_575)">
<path fill-rule="evenodd" clip-rule="evenodd" d="M-289.836 1223.56H299.354V-278.875H-289.836V1223.56Z" fill="white"/>
<path fill-rule="evenodd" clip-rule="evenodd" d="M10.3535 52.1136H58.9262V10.1665H10.3535V52.1136Z" fill="white"/>
</g>
<mask id="mask1_28_575" style="mask-type:alpha" maskUnits="userSpaceOnUse" x="33" y="16" width="2" height="1">
<path fill-rule="evenodd" clip-rule="evenodd" d="M33.7757 16.9463C33.9797 16.9599 34.1849 16.9662 34.3914 16.9662C34.2309 16.9662 34.073 16.955 33.9163 16.9363C33.8702 16.94 33.823 16.9438 33.7757 16.9463Z" fill="white"/>
</mask>
<g mask="url(#mask1_28_575)">
<path fill-rule="evenodd" clip-rule="evenodd" d="M26.512 24.2321H41.656V9.67139H26.512V24.2321Z" fill="#74B7D8"/>
</g>
<mask id="mask2_28_575" style="mask-type:alpha" maskUnits="userSpaceOnUse" x="29" y="15" width="5" height="2">
<path fill-rule="evenodd" clip-rule="evenodd" d="M31.1975 16.5919C31.9686 16.8071 32.7721 16.9464 33.6017 16.9974C33.6489 16.9936 33.695 16.9862 33.741 16.9799C33.2298 16.9103 32.7422 16.7585 32.2957 16.5322C31.3094 16.2362 30.3778 15.8133 29.5271 15.2834C29.9811 15.8394 30.5507 16.2897 31.1975 16.5919Z" fill="white"/>
</mask>
<g mask="url(#mask2_28_575)">
<path fill-rule="evenodd" clip-rule="evenodd" d="M22.2622 24.2651H41.0057V8.01904H22.2622V24.2651Z" fill="#FFFFFD"/>
</g>
<mask id="mask3_28_575" style="mask-type:alpha" maskUnits="userSpaceOnUse" x="34" y="16" width="1" height="2">
<path fill-rule="evenodd" clip-rule="evenodd" d="M34.2868 16.98C34.4398 16.9999 34.5953 17.0161 34.7495 17.0285C34.8005 17.021 34.8503 17.0123 34.9013 17.0036C34.793 16.985 34.6898 16.9626 34.5866 16.9365C34.4858 16.9526 34.3876 16.9663 34.2868 16.98Z" fill="white"/>
</mask>
<g mask="url(#mask3_28_575)">
<path fill-rule="evenodd" clip-rule="evenodd" d="M27.0222 24.2933H42.1663V9.67163H27.0222V24.2933Z" fill="#74B7D8"/>
</g>
<mask id="mask4_28_575" style="mask-type:alpha" maskUnits="userSpaceOnUse" x="34" y="16" width="2" height="1">
<path fill-rule="evenodd" clip-rule="evenodd" d="M34.9668 16.9488C35.182 16.9625 35.3996 16.97 35.6198 16.97C35.4506 16.97 35.2815 16.9588 35.116 16.9364C35.065 16.9401 35.0153 16.9451 34.9668 16.9488Z" fill="white"/>
</mask>
<g mask="url(#mask4_28_575)">
<path fill-rule="evenodd" clip-rule="evenodd" d="M27.7017 24.2363H42.8843V9.67188H27.7017V24.2363Z" fill="#74B7D8"/>
</g>
<mask id="mask5_28_575" style="mask-type:alpha" maskUnits="userSpaceOnUse" x="34" y="16" width="2" height="1">
<path fill-rule="evenodd" clip-rule="evenodd" d="M34.7968 16.9599C34.8478 16.9636 34.8976 16.9686 34.9486 16.9735C34.9971 16.9686 35.0468 16.9636 35.0978 16.9599C35.0468 16.9524 34.9971 16.9449 34.9486 16.9362C34.8976 16.9449 34.8478 16.9524 34.7968 16.9599Z" fill="white"/>
</mask>
<g mask="url(#mask5_28_575)">
<path fill-rule="evenodd" clip-rule="evenodd" d="M27.532 24.2386H42.3626V9.67163H27.532V24.2386Z" fill="#74B7D8"/>
</g>
<mask id="mask6_28_575" style="mask-type:alpha" maskUnits="userSpaceOnUse" x="33" y="16" width="2" height="2">
<path fill-rule="evenodd" clip-rule="evenodd" d="M33.7758 17.0097C33.8231 17.0184 33.8704 17.0259 33.9164 17.0321C34.0893 17.0184 34.2609 17.0022 34.4313 16.9798C34.3318 16.9662 34.2311 16.9525 34.1316 16.9363C34.0146 16.9662 33.8952 16.991 33.7758 17.0097Z" fill="white"/>
</mask>
<g mask="url(#mask6_28_575)">
<path fill-rule="evenodd" clip-rule="evenodd" d="M26.5122 24.2983H41.6973V9.67163H26.5122V24.2983Z" fill="#74B7D8"/>
</g>
<mask id="mask7_28_575" style="mask-type:alpha" maskUnits="userSpaceOnUse" x="33" y="16" width="1" height="1">
<path fill-rule="evenodd" clip-rule="evenodd" d="M33.0978 16.9662C33.3017 16.9662 33.5082 16.9599 33.7109 16.9463C33.6649 16.9438 33.6164 16.94 33.5704 16.9363C33.4137 16.955 33.257 16.9662 33.0978 16.9662Z" fill="white"/>
</mask>
<g mask="url(#mask7_28_575)">
<path fill-rule="evenodd" clip-rule="evenodd" d="M25.8315 24.2321H40.9756V9.67139H25.8315V24.2321Z" fill="#74B7D8"/>
</g>
<mask id="mask8_28_575" style="mask-type:alpha" maskUnits="userSpaceOnUse" x="33" y="16" width="1" height="1">
<path fill-rule="evenodd" clip-rule="evenodd" d="M33.6066 16.9592C33.6526 16.9616 33.6999 16.9654 33.7459 16.9691C33.7932 16.9654 33.8404 16.9616 33.8852 16.9592C33.8404 16.9529 33.7932 16.9442 33.7459 16.9368C33.6999 16.9442 33.6551 16.9529 33.6066 16.9592Z" fill="white"/>
</mask>
<g mask="url(#mask8_28_575)">
<path fill-rule="evenodd" clip-rule="evenodd" d="M26.3413 24.2339H41.1495V9.67188H26.3413V24.2339Z" fill="#74B7D8"/>
</g>
<mask id="mask9_28_575" style="mask-type:alpha" maskUnits="userSpaceOnUse" x="34" y="16" width="1" height="1">
<path fill-rule="evenodd" clip-rule="evenodd" d="M34.1162 16.8643C34.2145 16.8805 34.3152 16.8954 34.416 16.9078C34.5155 16.8954 34.6137 16.8805 34.7145 16.8643C34.6125 16.8382 34.5142 16.8058 34.416 16.771C34.3165 16.8058 34.217 16.8382 34.1162 16.8643Z" fill="white"/>
</mask>
<g mask="url(#mask9_28_575)">
<path fill-rule="evenodd" clip-rule="evenodd" d="M26.8518 24.1726H41.9797V9.50488H26.8518V24.1726Z" fill="#74B7D8"/>
</g>
<path fill-rule="evenodd" clip-rule="evenodd" d="M31.7603 16.7279C31.8375 16.81 31.7467 16.9394 31.6459 16.8871C29.7479 15.8971 28.493 14.4494 26.9171 13.1422C26.8674 13.1011 26.8699 13.0215 26.9246 12.9855C26.9246 12.9855 27.6551 12.4101 28.0751 12.1307C28.5241 11.8321 29.5315 11.2516 29.5315 11.2516C29.5949 11.2094 29.677 11.2529 29.6808 11.3288C29.779 13.3362 30.3823 15.264 31.7603 16.7279Z" fill="#F69552"/>
<path fill-rule="evenodd" clip-rule="evenodd" d="M36.882 15.9814C36.8061 16.0635 35.3739 17.8771 37.2719 16.8871C39.1699 15.897 40.4261 14.4493 42.0007 13.1421C42.0517 13.1011 42.0479 13.0215 41.9932 12.9854C41.9932 12.9854 41.1103 12.2916 40.6174 12.0031C40.1134 11.7081 39.0026 11.235 39.0026 11.235C38.9391 11.1928 38.8571 11.2363 38.8533 11.3122C38.7563 13.3196 38.2601 14.5175 36.882 15.9814Z" fill="#F69552"/>
<path fill-rule="evenodd" clip-rule="evenodd" d="M25.9936 13.11C27.5445 14.7853 29.5744 15.9358 31.7932 16.4358C30.348 15.5316 29.3779 13.8786 29.3779 11.9918C29.3779 11.6311 29.4139 11.2717 29.4848 10.9197C28.1988 11.452 27.0259 12.1884 25.9936 13.11ZM34.3255 17.9604C30.7086 17.9604 27.2783 16.4318 24.9102 13.7664C24.5396 13.3523 24.5707 12.7304 24.9799 12.351C26.2709 11.1545 27.7671 10.2317 29.4251 9.60604C29.787 9.46798 30.19 9.54136 30.4798 9.79633C30.7733 10.0588 30.8927 10.4667 30.7832 10.8399C30.6763 11.213 30.6216 11.601 30.6216 11.9916C30.6216 14.1595 32.2832 15.9219 34.3255 15.9219C34.8939 15.9219 35.3553 16.3796 35.3553 16.9418C35.3553 17.5039 34.8939 17.9604 34.3255 17.9604Z" fill="#B61D83"/>
<path fill-rule="evenodd" clip-rule="evenodd" d="M39.1954 10.9198C39.2663 11.2731 39.3023 11.6313 39.3023 11.992C39.3023 13.8788 38.3322 15.533 36.8869 16.4359C39.1071 15.9359 41.1356 14.7855 42.6866 13.1101C41.653 12.1872 40.4802 11.4522 39.1954 10.9198ZM34.355 17.9606C33.7866 17.9606 33.3252 17.5041 33.3252 16.9419C33.3252 16.3797 33.7866 15.922 34.355 15.922C36.3973 15.922 38.059 14.1596 38.059 11.9917C38.059 11.6012 38.0042 11.2131 37.896 10.8375C37.7878 10.4669 37.9072 10.0589 38.1995 9.79774C38.4881 9.54277 38.891 9.46815 39.2555 9.6062C40.9121 10.2306 42.4072 11.1547 43.6994 12.3512C44.1074 12.7293 44.1397 13.3512 43.7703 13.7666C41.4022 16.432 37.9719 17.9606 34.355 17.9606Z" fill="#B61D83"/>
<path fill-rule="evenodd" clip-rule="evenodd" d="M49.1402 17.3428H47.4375C48.5047 17.3428 49.3703 18.196 49.3703 19.2482V20.538C49.3703 21.5902 48.5047 22.4434 47.4375 22.4434H49.1402C50.2049 22.4434 51.0705 21.5902 51.0705 20.538V19.2482C51.0705 18.196 50.2049 17.3428 49.1402 17.3428Z" fill="#F7EBBF"/>
<path fill-rule="evenodd" clip-rule="evenodd" d="M47.681 40.7693C47.681 42.972 45.6922 44.7593 43.2407 44.7593H45.1089C47.5591 44.7593 49.5466 42.972 49.5466 40.7693V22.4661H47.681V40.7693Z" fill="#F7EBBF"/>
<path fill-rule="evenodd" clip-rule="evenodd" d="M19.6601 17.3967H21.3628C20.2956 17.3967 19.43 18.2499 19.43 19.3022V20.592C19.43 21.6454 20.2956 22.4974 21.3628 22.4974H19.6601C18.5954 22.4974 17.7297 21.6454 17.7297 20.592V19.3022C17.7297 18.2499 18.5954 17.3967 19.6601 17.3967Z" fill="#F7EBBF"/>
<path fill-rule="evenodd" clip-rule="evenodd" d="M21.1186 40.8237C21.1186 43.0277 23.1073 44.8137 25.5576 44.8137H23.6907C21.2405 44.8137 19.2529 43.0277 19.2529 40.8237V22.5205H21.1186V40.8237Z" fill="#F7EBBF"/>
<mask id="mask10_28_575" style="mask-type:alpha" maskUnits="userSpaceOnUse" x="33" y="14" width="3" height="1">
<path fill-rule="evenodd" clip-rule="evenodd" d="M33.9459 14.5063C34.1312 14.5399 34.309 14.5909 34.4782 14.6568C34.6486 14.5909 34.8252 14.5399 35.0118 14.5063C34.8376 14.4752 34.6598 14.4566 34.4782 14.4566C34.2978 14.4566 34.12 14.4752 33.9459 14.5063Z" fill="white"/>
</mask>
<g mask="url(#mask10_28_575)">
<path fill-rule="evenodd" clip-rule="evenodd" d="M26.6819 21.9223H42.2762V7.19116H26.6819V21.9223Z" fill="#74B7D8"/>
</g>
<mask id="mask11_28_575" style="mask-type:alpha" maskUnits="userSpaceOnUse" x="33" y="19" width="3" height="1">
<path fill-rule="evenodd" clip-rule="evenodd" d="M33.9459 19.8964C34.12 19.9287 34.2978 19.9461 34.4782 19.9461C34.6598 19.9461 34.8376 19.9287 35.0118 19.8964C34.8252 19.8628 34.6486 19.8118 34.4782 19.7459C34.309 19.8118 34.1312 19.8628 33.9459 19.8964Z" fill="white"/>
</mask>
<g mask="url(#mask11_28_575)">
<path fill-rule="evenodd" clip-rule="evenodd" d="M26.6819 27.2116H42.2762V12.4805H26.6819V27.2116Z" fill="#74B7D8"/>
</g>
<mask id="mask12_28_575" style="mask-type:alpha" maskUnits="userSpaceOnUse" x="31" y="14" width="4" height="6">
<path fill-rule="evenodd" clip-rule="evenodd" d="M31.5676 17.2C31.5676 18.5657 32.5751 19.7012 33.9059 19.9438C34.0912 19.909 34.2678 19.8592 34.4382 19.7945C33.3798 19.3816 32.6298 18.3766 32.6298 17.2C32.6298 16.0234 33.3798 15.0172 34.4382 14.6068C34.2678 14.5409 34.0912 14.4899 33.9059 14.4563C32.5751 14.7001 31.5676 15.8344 31.5676 17.2Z" fill="white"/>
</mask>
<g mask="url(#mask12_28_575)">
<path fill-rule="evenodd" clip-rule="evenodd" d="M24.3003 27.2083H41.7018V7.19116H24.3003V27.2083Z" fill="#F69552"/>
</g>
<mask id="mask13_28_575" style="mask-type:alpha" maskUnits="userSpaceOnUse" x="34" y="14" width="4" height="6">
<path fill-rule="evenodd" clip-rule="evenodd" d="M34.3254 14.6068C35.3851 15.0172 36.1351 16.0234 36.1351 17.2C36.1351 18.3766 35.3851 19.3816 34.3254 19.7945C34.4958 19.8592 34.6712 19.909 34.8578 19.9438C36.1886 19.7012 37.1973 18.5657 37.1973 17.2C37.1973 15.8344 36.1886 14.7001 34.8578 14.4563C34.6712 14.4899 34.4958 14.5409 34.3254 14.6068Z" fill="white"/>
</mask>
<g mask="url(#mask13_28_575)">
<path fill-rule="evenodd" clip-rule="evenodd" d="M27.0591 27.2083H44.4606V7.19116H27.0591V27.2083Z" fill="#FBB94C"/>
</g>
<path fill-rule="evenodd" clip-rule="evenodd" d="M32.5869 17.2158C32.5869 18.3924 33.3369 19.3986 34.3953 19.8091C35.455 19.3986 36.2038 18.3924 36.2038 17.2158C36.2038 16.0392 35.455 15.033 34.3953 14.6226C33.3369 15.033 32.5869 16.0392 32.5869 17.2158Z" fill="#F69552"/>
<path fill-rule="evenodd" clip-rule="evenodd" d="M34.3373 14.5829C32.8709 14.5829 31.6781 15.7346 31.6781 17.15C31.6781 18.5667 32.8709 19.7172 34.3373 19.7172C35.8037 19.7172 36.9964 18.5667 36.9964 17.15C36.9964 15.7346 35.8037 14.5829 34.3373 14.5829ZM34.3375 20.9611C32.1858 20.9611 30.4346 19.2522 30.4346 17.1502C30.4346 15.0495 32.1858 13.3394 34.3375 13.3394C36.4892 13.3394 38.2404 15.0495 38.2404 17.1502C38.2404 19.2522 36.4892 20.9611 34.3375 20.9611Z" fill="#B61D83"/>
<mask id="mask14_28_575" style="mask-type:alpha" maskUnits="userSpaceOnUse" x="19" y="17" width="31" height="28">
<path fill-rule="evenodd" clip-rule="evenodd" d="M21.0284 17.4329C19.9936 17.4329 19.1553 18.2848 19.1553 19.3371V20.6281C19.1553 21.6791 19.9936 22.5323 21.0284 22.5323H47.6735C48.7083 22.5323 49.5466 21.6791 49.5466 20.6281V19.3371C49.5466 18.2848 48.7083 17.4329 47.6735 17.4329H21.0284ZM20.8567 22.5556V40.8588C20.8567 43.0615 22.6937 44.8475 24.9611 44.8475H43.5442C45.8115 44.8475 47.6498 43.0615 47.6498 40.8588V22.5556H20.8567Z" fill="white"/>
</mask>
<g mask="url(#mask14_28_575)">
<path fill-rule="evenodd" clip-rule="evenodd" d="M11.8914 52.1136H56.8111V10.1665H11.8914V52.1136Z" fill="#FBB94C"/>
</g>
<mask id="mask15_28_575" style="mask-type:alpha" maskUnits="userSpaceOnUse" x="28" y="17" width="13" height="29">
<path fill-rule="evenodd" clip-rule="evenodd" d="M28.5891 17.428H40.0603V45.1502H28.5891V17.428Z" fill="white"/>
</mask>
<g mask="url(#mask15_28_575)">
<path fill-rule="evenodd" clip-rule="evenodd" d="M21.3242 52.416H47.3251V10.1628H21.3242V52.416Z" fill="#F69552"/>
</g>
<path fill-rule="evenodd" clip-rule="evenodd" d="M18.7271 21.7575C18.2582 21.5149 17.9274 21.0398 17.9274 20.4764V19.0336C17.9274 18.2302 18.5816 17.5772 19.3838 17.5772H49.3946C50.1993 17.5772 50.8523 18.2302 50.8523 19.0336V20.4764C50.8523 20.949 50.6122 21.3495 50.2627 21.6157L18.7271 21.7575ZM49.5028 40.7608C49.5028 42.8367 47.7578 44.5257 45.6111 44.5257H23.5754C21.4299 44.5257 19.6836 42.8367 19.6836 40.7608V23.1778H49.3946C49.4319 23.1778 49.4668 23.1678 49.5028 23.1666V40.7608ZM49.3948 16.333H19.384C17.8953 16.333 16.6838 17.5432 16.6838 19.0332V20.476C16.6838 21.6314 17.4164 22.6115 18.44 22.9971V40.7605C18.44 43.5229 20.7435 45.7691 23.5755 45.7691H45.6113C48.4433 45.7691 50.7468 43.5229 50.7468 40.7605V22.8006C51.5503 22.3317 52.0963 21.471 52.0963 20.476V19.0332C52.0963 17.5432 50.8836 16.333 49.3948 16.333Z" fill="#B61D83"/>
</svg>
