<svg width="314" height="230" viewBox="0 0 314 230" fill="none" xmlns="http://www.w3.org/2000/svg">
<path fill-rule="evenodd" clip-rule="evenodd" d="M143.095 68.0281H144.008V56.1753H143.095V68.0281Z" fill="#E8E8E8"/>
<path fill-rule="evenodd" clip-rule="evenodd" d="M136.795 51.63C136.795 54.9022 139.451 57.5548 142.728 57.5548C146.006 57.5548 148.662 54.9022 148.662 51.63C148.662 50.4158 148.295 49.2876 147.668 48.348H137.789C137.162 49.2876 136.795 50.4158 136.795 51.63Z" fill="#E8E8E8"/>
<path fill-rule="evenodd" clip-rule="evenodd" d="M137.62 52.4536C137.62 55.271 139.907 57.5554 142.729 57.5554C145.551 57.5554 147.838 55.271 147.838 52.4536C147.838 51.408 147.522 50.4371 146.982 49.6281H138.476C137.936 50.4371 137.62 51.408 137.62 52.4536Z" fill="#A5192E"/>
<path fill-rule="evenodd" clip-rule="evenodd" d="M145.645 68.155H139.529C139.424 68.155 139.338 68.0689 139.338 67.9638V67.2175C139.338 67.1124 139.424 67.0264 139.529 67.0264H145.645C145.75 67.0264 145.837 67.1124 145.837 67.2175V67.9638C145.837 68.0689 145.75 68.155 145.645 68.155Z" fill="#E8E8E8"/>
<path fill-rule="evenodd" clip-rule="evenodd" d="M139.338 53.0449C138.969 53.0449 138.667 52.7436 138.667 52.3749V50.7445C138.667 50.3758 138.969 50.0745 139.338 50.0745C139.707 50.0745 140.009 50.3758 140.009 50.7445V52.3749C140.009 52.7436 139.707 53.0449 139.338 53.0449Z" fill="#DE0540"/>
<path fill-rule="evenodd" clip-rule="evenodd" d="M139.338 54.9312C138.969 54.9312 138.667 54.6299 138.667 54.2612C138.667 53.8924 138.969 53.5907 139.338 53.5907C139.707 53.5907 140.009 53.8924 140.009 54.2612C140.009 54.6299 139.707 54.9312 139.338 54.9312Z" fill="#DE0540"/>
<mask id="mask0_2065_3593" style="mask-type:alpha" maskUnits="userSpaceOnUse" x="35" y="23" width="250" height="181">
<path fill-rule="evenodd" clip-rule="evenodd" d="M35.9541 203.574H284.208V23.9584H35.9541V203.574Z" fill="white"/>
</mask>
<g mask="url(#mask0_2065_3593)">
<path fill-rule="evenodd" clip-rule="evenodd" d="M159.664 25.8998H160.357V23.9584H159.664V25.8998Z" fill="#75075F"/>
<path fill-rule="evenodd" clip-rule="evenodd" d="M159.664 37.5468H160.357V35.6053H159.664V37.5468Z" fill="#75075F"/>
<path fill-rule="evenodd" clip-rule="evenodd" d="M157.28 26.7235L156.308 25.0423L156.908 24.696L157.88 26.3777L157.28 26.7235Z" fill="#75075F"/>
<path fill-rule="evenodd" clip-rule="evenodd" d="M163.112 36.8091L162.14 35.1279L162.741 34.7816L163.713 36.4633L163.112 36.8091Z" fill="#75075F"/>
<path fill-rule="evenodd" clip-rule="evenodd" d="M155.627 28.6262L153.944 27.6557L154.29 27.056L155.974 28.0265L155.627 28.6262Z" fill="#75075F"/>
<path fill-rule="evenodd" clip-rule="evenodd" d="M165.729 34.4491L164.046 33.4782L164.392 32.8789L166.076 33.8494L165.729 34.4491Z" fill="#75075F"/>
<path fill-rule="evenodd" clip-rule="evenodd" d="M153.206 31.1003H155.15V30.4082H153.206V31.1003Z" fill="#75075F"/>
<path fill-rule="evenodd" clip-rule="evenodd" d="M164.87 31.1003H166.815V30.4082H164.87V31.1003Z" fill="#75075F"/>
<path fill-rule="evenodd" clip-rule="evenodd" d="M154.291 34.4491L153.944 33.8494L155.628 32.8789L155.974 33.4782L154.291 34.4491Z" fill="#75075F"/>
<path fill-rule="evenodd" clip-rule="evenodd" d="M164.392 28.6262L164.046 28.0265L165.729 27.056L166.076 27.6557L164.392 28.6262Z" fill="#75075F"/>
<path fill-rule="evenodd" clip-rule="evenodd" d="M156.908 36.8091L156.307 36.4633L157.279 34.7816L157.88 35.1279L156.908 36.8091Z" fill="#75075F"/>
<path fill-rule="evenodd" clip-rule="evenodd" d="M162.74 26.7235L162.139 26.3777L163.111 24.696L163.712 25.0423L162.74 26.7235Z" fill="#75075F"/>
</g>
<path fill-rule="evenodd" clip-rule="evenodd" d="M240.619 48.0384H241.232V46.3195H240.619V48.0384Z" fill="#75075F"/>
<path fill-rule="evenodd" clip-rule="evenodd" d="M240.619 58.3505H241.232V56.632H240.619V58.3505Z" fill="#75075F"/>
<path fill-rule="evenodd" clip-rule="evenodd" d="M238.507 48.7671L237.647 47.2787L238.178 46.9723L239.039 48.4607L238.507 48.7671Z" fill="#75075F"/>
<path fill-rule="evenodd" clip-rule="evenodd" d="M243.671 57.6978L242.811 56.2094L243.342 55.903L244.202 57.3914L243.671 57.6978Z" fill="#75075F"/>
<path fill-rule="evenodd" clip-rule="evenodd" d="M237.045 50.4521L235.555 49.593L235.862 49.062L237.352 49.9215L237.045 50.4521Z" fill="#75075F"/>
<path fill-rule="evenodd" clip-rule="evenodd" d="M245.988 55.6077L244.497 54.7483L244.804 54.2177L246.295 55.0771L245.988 55.6077Z" fill="#75075F"/>
<path fill-rule="evenodd" clip-rule="evenodd" d="M234.901 52.6418H236.622V52.0289H234.901V52.6418Z" fill="#75075F"/>
<path fill-rule="evenodd" clip-rule="evenodd" d="M245.228 52.6418H246.949V52.0289H245.228V52.6418Z" fill="#75075F"/>
<path fill-rule="evenodd" clip-rule="evenodd" d="M235.862 55.6077L235.555 55.0771L237.045 54.2177L237.352 54.7483L235.862 55.6077Z" fill="#75075F"/>
<path fill-rule="evenodd" clip-rule="evenodd" d="M244.804 50.4521L244.497 49.9215L245.988 49.062L246.295 49.593L244.804 50.4521Z" fill="#75075F"/>
<path fill-rule="evenodd" clip-rule="evenodd" d="M238.178 57.6978L237.647 57.3914L238.507 55.903L239.039 56.2094L238.178 57.6978Z" fill="#75075F"/>
<path fill-rule="evenodd" clip-rule="evenodd" d="M243.342 48.7671L242.811 48.4607L243.671 46.9723L244.202 47.2787L243.342 48.7671Z" fill="#75075F"/>
<path fill-rule="evenodd" clip-rule="evenodd" d="M51.8848 46.082C52.8831 46.4944 53.6827 47.2928 54.0952 48.2896C54.5086 47.2928 55.3078 46.4944 56.306 46.082C55.3078 45.6697 54.5086 44.8716 54.0952 43.8748C53.6827 44.8716 52.8831 45.6697 51.8848 46.082ZM54.4029 49.8361H53.7892C53.7892 47.9349 52.2396 46.3876 50.3357 46.3876V45.7748H50.359C52.2524 45.7621 53.7892 44.2199 53.7892 42.3263H54.4029C54.4029 44.2279 55.952 45.7748 57.8564 45.7748V46.3876H57.8326C55.9393 46.4008 54.4029 47.943 54.4029 49.8361Z" fill="#75075F"/>
<path fill-rule="evenodd" clip-rule="evenodd" d="M257.224 83.6159C258.222 84.0283 259.022 84.8267 259.435 85.8235C259.848 84.8267 260.647 84.0283 261.645 83.6159C260.647 83.2035 259.848 82.4055 259.435 81.4087C259.022 82.4055 258.222 83.2035 257.224 83.6159ZM259.742 87.3709H259.128C259.128 85.4697 257.578 83.9224 255.674 83.9224V83.3096H255.698C257.591 83.2969 259.128 81.7546 259.128 79.8611H259.742C259.742 81.7627 261.291 83.3096 263.195 83.3096V83.9224H263.172C261.278 83.9356 259.742 85.4778 259.742 87.3709Z" fill="#75075F"/>
<path fill-rule="evenodd" clip-rule="evenodd" d="M145.183 94.051C144.327 94.051 143.632 94.7452 143.632 95.5991C143.632 96.4531 144.327 97.1477 145.183 97.1477C146.038 97.1477 146.733 96.4531 146.733 95.5991C146.733 94.7452 146.038 94.051 145.183 94.051ZM145.182 97.7599C143.989 97.7599 143.018 96.7902 143.018 95.5985C143.018 94.4067 143.989 93.4375 145.182 93.4375C146.376 93.4375 147.346 94.4067 147.346 95.5985C147.346 96.7902 146.376 97.7599 145.182 97.7599Z" fill="#75075F"/>
<path fill-rule="evenodd" clip-rule="evenodd" d="M58.8921 129.188C58.0369 129.188 57.3413 129.882 57.3413 130.736C57.3413 131.59 58.0369 132.284 58.8921 132.284C59.7473 132.284 60.4425 131.59 60.4425 130.736C60.4425 129.882 59.7473 129.188 58.8921 129.188ZM58.8921 132.899C57.6986 132.899 56.7275 131.929 56.7275 130.737C56.7275 129.546 57.6986 128.576 58.8921 128.576C60.0855 128.576 61.0562 129.546 61.0562 130.737C61.0562 131.929 60.0855 132.899 58.8921 132.899Z" fill="#75075F"/>
<ellipse cx="205.323" cy="64.4448" rx="10.1037" ry="16.0191" fill="#F1F1F1"/>
<path fill-rule="evenodd" clip-rule="evenodd" d="M123.638 80.1444L109.262 70.2087C108.884 69.951 108.479 69.7213 108.043 69.5315C107.105 69.1221 106.128 68.9326 105.165 68.9335C104.974 68.9301 104.782 68.9352 104.587 68.9542L104.575 68.9555L104.536 68.9589L99.8079 69.4145C100.044 71.8565 98.269 74.0391 95.8201 74.3001C93.3555 74.5633 91.1443 72.7812 90.8807 70.3206L90.876 70.2748L85.0288 70.8381C84.9537 70.8453 84.8815 70.8605 84.8077 70.8707C84.7483 70.8792 84.6893 70.8868 84.6307 70.8974C84.5386 70.9135 84.4482 70.9326 84.3582 70.9533C82.8961 71.2572 81.5146 72.009 80.4485 73.2114C80.134 73.5665 79.8632 73.945 79.631 74.3387L70.77 89.3919L79.6073 95.7892L82.8231 92.164L85.6599 110.7H98.7524H106.693H106.696H111.839L110.687 86.3362L118.315 89.6644L123.638 80.1444Z" fill="#EE3E80" stroke="#75075F"/>
<path fill-rule="evenodd" clip-rule="evenodd" d="M78.9519 191.617H75.9198H75.9143L72.4345 193.513C72.145 193.67 71.9651 193.973 71.9651 194.302C71.9651 194.799 72.3683 195.202 72.8661 195.202H81.9775V191.909V191.617H78.9519Z" fill="#333333" stroke="#75075F"/>
<path fill-rule="evenodd" clip-rule="evenodd" d="M117.004 146.356C117.004 146.11 116.978 145.87 116.938 145.636L116.942 145.635L111.614 115.266L111.774 112.023L111.839 110.699H106.698H106.693H98.7524H85.6595L85.7215 111.954L85.89 115.386L82.0422 144.882L82.0417 144.882L75.9759 191.036C75.973 191.051 75.9683 191.065 75.9658 191.08C75.9331 191.26 75.9199 191.44 75.9199 191.617H78.952H81.9777V191.909L90.2135 146.356V146.356V146.355L94.8902 120.486H102.773L108.677 146.72L106.512 191.469L106.516 191.469C106.513 191.519 106.508 191.567 106.508 191.617H108.518H112.572L112.582 191.623L116.984 146.765L116.983 146.765C116.996 146.63 117.004 146.494 117.004 146.356Z" fill="#333333"/>
<path d="M117.004 146.356C117.004 146.11 116.978 145.87 116.938 145.636L116.942 145.635L111.614 115.266L111.774 112.023L111.839 110.699H106.698H106.693H98.7524H85.6595L85.7215 111.954L85.89 115.386L82.0422 144.882L82.0417 144.882L75.9759 191.036C75.973 191.051 75.9683 191.065 75.9658 191.08C75.9331 191.26 75.9199 191.44 75.9199 191.617H78.952H81.9777V191.909L90.2135 146.356V146.356V146.355L94.8902 120.486H102.773L108.677 146.72L106.512 191.469L106.516 191.469C106.513 191.519 106.508 191.567 106.508 191.617H108.518H112.572L112.582 191.623L116.984 146.765L116.983 146.765C116.996 146.63 117.004 146.494 117.004 146.356" stroke="#75075F"/>
<path fill-rule="evenodd" clip-rule="evenodd" d="M85.7181 55.8148L85.994 58.3916C86.185 60.1805 87.7931 61.476 89.585 61.2849L89.9093 61.2502L89.417 56.6489C88.5991 56.7362 87.847 56.3077 87.482 55.6267C87.3666 55.411 87.2889 55.1711 87.2613 54.913C87.1463 53.8395 87.9247 52.8762 88.9998 52.7613C90.0748 52.6469 91.0395 53.4242 91.1545 54.4977L91.2114 55.0304L91.3625 56.4412L91.8603 61.0972C91.9919 62.3232 92.5407 63.4022 93.3483 64.2134C93.8441 64.7118 94.4366 65.1089 95.0931 65.3751C95.7344 65.6349 96.4356 65.7675 97.1626 65.751C97.3095 65.748 97.4567 65.7421 97.6057 65.7264L99.395 65.5357L102.76 65.1767C104.244 65.0182 105.294 63.6527 105.064 62.18L104.658 59.5749L104.564 58.9701L104.076 55.8428L95.5511 56.7523C94.3648 56.8786 93.3004 56.0272 93.1608 54.8469L92.3314 47.0955C93.4464 48.074 94.948 48.6067 96.5366 48.4372L102.53 47.7977C102.809 48.3953 103.012 49.0395 103.118 49.7222L103.292 50.8343L103.378 51.3827C105.389 50.7991 106.755 48.8483 106.525 46.6966C106.372 45.2676 105.548 44.0763 104.401 43.3914C104.11 41.7504 102.816 40.5057 101.226 40.2277C100.943 40.1594 100.644 40.1349 100.338 40.1675L100.14 40.1887C100.138 40.1887 100.137 40.1887 100.135 40.1891L96.9852 40.5252L96.6605 40.5599C96.2068 40.6082 95.7926 40.771 95.4433 41.0151C95.2591 41.1439 95.094 41.2965 94.9497 41.4665C94.4102 40.9168 93.6348 40.6087 92.8089 40.6968C91.5709 40.8286 90.6299 41.8055 90.4941 42.9909C88.2782 43.3685 86.4902 44.8344 85.6294 46.7767C85.1821 47.7863 84.9805 48.9212 85.1066 50.0981L85.7181 55.8148Z" fill="#F1F1F1" stroke="#75075F"/>
<path fill-rule="evenodd" clip-rule="evenodd" d="M108.519 191.617H106.509V195.202H115.62C116.118 195.202 116.521 194.799 116.521 194.302C116.521 193.973 116.341 193.67 116.052 193.513L112.582 191.623L112.572 191.617H108.519Z" fill="#333333" stroke="#75075F"/>
<path fill-rule="evenodd" clip-rule="evenodd" d="M70.4134 89.9967L54.653 78.8451L52.8984 77.6021L51.7109 76.7617L51.7084 76.7642C51.4274 76.5655 51.0989 76.4337 50.7483 76.387V76.3853L45.7699 75.7246V75.7267C45.7627 75.7259 45.7559 75.7255 45.7491 75.7246C45.5152 75.6954 45.2746 75.695 45.031 75.7255C45.0055 75.7289 44.9809 75.7293 44.9554 75.7331C43.3876 75.973 42.3109 77.4364 42.5511 79.0023C42.7497 80.2983 43.7896 81.2557 45.031 81.4117C45.2648 81.4409 45.5051 81.4413 45.7491 81.4108C45.7741 81.4074 45.7992 81.4066 45.8246 81.4032L49.6801 80.8137L68.3617 100.414C68.3698 100.422 68.3762 100.432 68.3842 100.44C70.2491 102.396 73.3487 102.473 75.3078 100.611C75.4101 100.514 75.5038 100.412 75.5959 100.308L75.5976 100.309L75.6401 100.262C75.6465 100.255 75.6528 100.247 75.6588 100.241L79.6076 95.788L70.7699 89.3907L70.4134 89.9967Z" fill="#F1F1F1" stroke="#75075F"/>
<path fill-rule="evenodd" clip-rule="evenodd" d="M104.564 58.9705L104.658 59.5752C104.658 59.5744 104.658 59.5731 104.658 59.5723L104.564 58.9705Z" fill="#F092A8"/>
<path fill-rule="evenodd" clip-rule="evenodd" d="M103.292 50.8355L103.118 49.723C103.011 49.0407 102.808 48.3965 102.53 47.7989L96.5364 48.4384C94.9474 48.608 93.4462 48.0752 92.3308 47.0967L93.1601 54.8481C93.2998 56.0284 94.3642 56.8798 95.5509 56.7531L104.074 55.8436L103.378 51.3839L103.292 50.8355Z" fill="#F1F1F1" stroke="#75075F"/>
<path fill-rule="evenodd" clip-rule="evenodd" d="M99.8047 69.3674L99.3947 65.5353L97.605 65.7265C97.4564 65.7421 97.3092 65.7476 97.1623 65.751C96.4353 65.7676 95.7341 65.6345 95.0928 65.3751C94.4363 65.109 93.8438 64.7119 93.348 64.2135C92.5404 63.4019 91.9912 62.3229 91.86 61.0972L91.3618 56.4413L91.2111 55.03L91.1542 54.4977C91.0392 53.4238 90.0745 52.6465 88.9994 52.7614C87.9244 52.8758 87.146 53.8391 87.261 54.913C87.2886 55.1707 87.3663 55.411 87.4817 55.6267C87.8467 56.3078 88.5988 56.7358 89.4154 56.649H89.4162L89.909 61.2502L90.2612 64.5428H90.2625L90.8754 70.2739L90.8805 70.3192V70.3197C91.1436 72.7803 93.3548 74.562 95.8194 74.2992C98.2683 74.0381 100.043 71.8555 99.8073 69.4136C99.806 69.3979 99.8064 69.3831 99.8047 69.3674Z" fill="#F1F1F1"/>
<path d="M99.8047 69.3674V69.3674L99.3947 65.5353L97.605 65.7265C97.4564 65.7421 97.3092 65.7476 97.1623 65.751C96.4353 65.7676 95.7341 65.6345 95.0928 65.3751C94.4363 65.109 93.8438 64.7119 93.348 64.2135C92.5404 63.4019 91.9912 62.3229 91.86 61.0972L91.3618 56.4413L91.2111 55.03L91.1542 54.4977C91.0392 53.4238 90.0745 52.6465 88.9994 52.7614C87.9244 52.8758 87.146 53.8391 87.261 54.913C87.2886 55.1707 87.3663 55.411 87.4817 55.6267C87.8467 56.3078 88.5988 56.7358 89.4154 56.649H89.4162L89.909 61.2502L90.2612 64.5428H90.2625L90.8754 70.2739L90.8805 70.3192V70.3197C91.1436 72.7803 93.3548 74.562 95.8194 74.2992C98.2683 74.0381 100.043 71.8555 99.8073 69.4136C99.806 69.3979 99.8064 69.3831 99.8047 69.3674" stroke="#75075F"/>
<path fill-rule="evenodd" clip-rule="evenodd" d="M143.339 58.5073C143.06 58.4856 142.787 58.5068 142.526 58.5611V58.5594L137.61 59.5867L137.611 59.5884C137.002 59.7159 136.482 60.102 136.18 60.6348L136.176 60.6331L135.459 61.8981L134.4 63.7684L124.195 80.5291L123.638 80.1434L118.315 89.6638L123.801 92.0549L123.813 92.06L123.859 92.0799L123.86 92.0782C123.994 92.1367 124.131 92.1918 124.273 92.2393C126.839 93.092 129.611 91.7065 130.466 89.1442C130.47 89.1328 130.472 89.1213 130.475 89.1099L139.563 63.9671L142.894 64.2261C144.475 64.3486 145.857 63.1683 145.98 61.5887C146.103 60.0096 144.92 58.6302 143.339 58.5073Z" fill="#F1F1F1"/>
<path d="M143.339 58.5073C143.06 58.4856 142.787 58.5068 142.526 58.5611V58.5594L137.61 59.5867L137.611 59.5884C137.002 59.7159 136.482 60.102 136.18 60.6348L136.176 60.6331L135.459 61.8981L134.4 63.7684L124.195 80.5291L123.638 80.1434L118.315 89.6638L123.801 92.0549L123.813 92.06L123.859 92.0799L123.86 92.0782C123.994 92.1367 124.131 92.1918 124.273 92.2393C126.839 93.092 129.611 91.7065 130.466 89.1442C130.47 89.1328 130.472 89.1213 130.475 89.1099L139.563 63.9671L142.894 64.2261C144.475 64.3486 145.857 63.1683 145.98 61.5887C146.103 60.0096 144.92 58.6302 143.339 58.5073" stroke="#75075F"/>
<path fill-rule="evenodd" clip-rule="evenodd" d="M211.955 76.1762L208.406 75.9978L211.955 76.1762Z" fill="#F092A8"/>
<path fill-rule="evenodd" clip-rule="evenodd" d="M200.487 75.6002L199.308 75.5409L200.487 75.6002Z" fill="#F092A8"/>
<path fill-rule="evenodd" clip-rule="evenodd" d="M237.927 126.939L237.997 126.897L240.692 125.268L244.078 130.854C244.364 131.326 244.213 131.94 243.74 132.226C243.434 132.411 243.052 132.419 242.738 132.246L240.345 130.926L240.344 130.925L237.927 126.939Z" fill="#333333" stroke="#75075F"/>
<path fill-rule="evenodd" clip-rule="evenodd" d="M153.1 79.54V80.6296C152.981 80.6199 152.862 80.6114 152.741 80.6114C152.62 80.6114 152.5 80.6199 152.382 80.6296V79.7261L153.1 79.54Z" fill="#E8E8E8"/>
<path fill-rule="evenodd" clip-rule="evenodd" d="M152.381 72.0133C152.498 72.0273 152.617 72.0362 152.738 72.0362H152.742C152.863 72.0362 152.982 72.0273 153.099 72.0133V74.9355L152.381 74.8808V72.0133Z" fill="#E8E8E8"/>
<path fill-rule="evenodd" clip-rule="evenodd" d="M152.739 72.0361C152.618 72.0361 152.499 72.0272 152.382 72.0132C150.869 71.8365 149.691 70.554 149.691 68.9927V64.1643H155.79V68.9927C155.79 70.554 154.613 71.8365 153.099 72.0132C152.982 72.0272 152.864 72.0361 152.743 72.0361H152.739Z" fill="#FACE86"/>
<path fill-rule="evenodd" clip-rule="evenodd" d="M149.691 64.1631H155.79V59.0863H149.691V64.1631Z" fill="#E8E8E8"/>
<path fill-rule="evenodd" clip-rule="evenodd" d="M153.099 80.6304C154.151 80.7181 155.096 81.1822 155.79 81.8938H149.691C150.386 81.1822 151.33 80.7181 152.382 80.6304C152.5 80.6207 152.619 80.6122 152.74 80.6122C152.862 80.6122 152.981 80.6207 153.099 80.6304Z" fill="#E8E8E8"/>
<path fill-rule="evenodd" clip-rule="evenodd" d="M152.228 79.7661C150.884 80.114 149.513 79.3088 149.164 77.9675C148.816 76.6261 149.622 75.2564 150.965 74.9084C151.242 74.8364 151.519 74.816 151.789 74.8368L151.789 74.8343L152.382 74.8796L153.099 74.9347L156.084 75.1627L156.085 75.1708C156.21 75.1805 156.332 75.2017 156.451 75.2365L156.453 75.2305L159.657 76.1748L158.279 79.9386L155.793 78.8422L153.099 79.5402L152.382 79.7263L152.228 79.7661Z" fill="#F1F1F1" stroke="#75075F"/>
<path fill-rule="evenodd" clip-rule="evenodd" d="M212.165 115.037C211.907 115.12 211.633 115.165 211.347 115.159C209.959 115.133 208.856 113.988 208.882 112.603C208.908 111.217 210.054 110.115 211.442 110.141L213.091 110.172L214.797 110.205L215.684 108.948L216.174 108.254L219.297 110.771L217.036 113.229L217.03 113.224C216.823 113.449 216.561 113.618 216.264 113.714L216.266 113.722L214.905 114.159L212.165 115.04L212.165 115.037Z" fill="#F1F1F1" stroke="#75075F"/>
<path fill-rule="evenodd" clip-rule="evenodd" d="M203.713 79.6756C205.857 80.0702 207.916 78.6543 208.312 76.5123L208.407 75.9978L209.219 71.5979L210.488 64.7229L210.841 64.7877C211.816 64.9674 212.752 64.3237 212.931 63.3502C213.111 62.3763 212.467 61.4418 211.491 61.2625L211.138 61.1977C208.792 60.7658 206.651 59.5817 205.041 57.8246C203.309 55.937 201.1 54.5681 198.66 53.848L196.387 62.9637C195.576 66.2143 197.679 69.4742 200.978 70.0811L201.451 70.1684L200.544 75.0828C200.512 75.2562 200.496 75.4282 200.487 75.5995C200.388 77.546 201.741 79.3128 203.713 79.6756Z" stroke="#75075F"/>
<path fill-rule="evenodd" clip-rule="evenodd" d="M179.101 81.9022L190.233 78.0044L196.653 75.7565C197.212 75.562 197.815 75.4645 198.445 75.4959L199.308 75.5391L200.487 75.5989C200.387 77.545 201.741 79.3123 203.712 79.6751C205.857 80.0696 207.916 78.6533 208.311 76.5113L208.406 75.9968L211.955 76.1753L215.777 76.3677C215.92 76.3749 216.06 76.3956 216.196 76.4223C216.796 76.5266 217.386 76.7499 217.93 77.1009C218.104 77.2132 218.263 77.3378 218.416 77.4674L218.419 77.4632L221.318 79.9179L233.446 90.1863C234.768 91.309 235.04 93.2733 234.021 94.7172C233.935 94.8393 233.84 94.9516 233.742 95.0588L233.745 95.0613L219.298 110.77L216.174 108.252L216.173 108.251L222.724 98.9671L226.443 93.6967L218.975 88.875L216.226 87.0997L210.11 107.067L194.719 106.293L193.436 106.229L193.487 93.7781C192.123 93.5526 190.973 92.7402 190.283 91.6226C189.804 90.8479 189.543 89.9274 189.592 88.9488C189.622 88.3686 189.76 87.8215 189.98 87.3192L189.976 87.3167L190.298 86.581L179.888 88.7738C179.215 88.9132 178.494 88.8564 177.818 88.558L158.278 79.9391L159.658 76.174L179.101 81.9022Z" fill="#F26649" stroke="#75075F"/>
<path fill-rule="evenodd" clip-rule="evenodd" d="M218.419 77.4636L218.417 77.4678C218.263 77.3382 218.104 77.2136 217.93 77.1017C217.386 76.7503 216.796 76.527 216.196 76.4227C216.06 76.396 215.921 76.3753 215.777 76.3681L211.955 76.1757L208.407 75.9972L209.218 71.5973L210.487 64.7227L210.841 64.7876C211.815 64.9668 212.751 64.3231 212.931 63.3496C213.111 62.3761 212.466 61.4416 211.491 61.2619L211.138 61.1971C208.792 60.7652 206.651 59.5811 205.04 57.8244C203.309 55.9368 201.1 54.5675 198.659 53.8474L196.387 62.9631C195.576 66.2137 197.679 69.4736 200.978 70.0809L201.451 70.1678L200.544 75.0827C200.512 75.256 200.496 75.4276 200.487 75.5993L199.308 75.5395L198.445 75.4963C197.816 75.4649 197.212 75.5624 196.654 75.7595L196.654 75.7569L190.233 78.0048C190.231 77.6323 190.243 77.2339 190.276 76.7978C190.668 71.6299 194.502 71.9698 194.894 66.8019C194.945 66.1387 194.904 65.553 194.8 65.0262C194.421 64.3286 194.1 63.5945 193.85 62.8325L193.846 62.8283C193.805 62.6961 193.763 62.5677 193.725 62.4359C193.327 61.0915 193.139 59.6625 193.192 58.1885C193.454 50.8359 199.638 45.0861 207.004 45.3476C214.367 45.6095 220.126 51.7843 219.863 59.1365C219.811 60.6105 219.522 62.0226 219.028 63.3356C218.982 63.4644 218.931 63.5971 218.876 63.7259C218.573 64.465 218.205 65.1707 217.777 65.8356C217.631 66.3535 217.549 66.9388 217.552 67.6076C217.575 72.7903 221.427 72.7233 221.45 77.9061C221.454 78.6791 221.404 79.3373 221.318 79.9183L218.419 77.4636Z" fill="#F1F1F1" stroke="#75075F"/>
<path fill-rule="evenodd" clip-rule="evenodd" d="M190.825 115.286C190.96 112.604 191.624 109.981 192.761 107.558C193.756 105.41 193.437 106.23 193.437 106.23L194.72 106.295L210.11 107.069C210.11 107.069 212.013 107.234 212.792 109.755C212.895 109.892 212.994 110.031 213.091 110.172L211.443 110.141C210.055 110.114 208.909 111.217 208.883 112.602C208.856 113.988 209.96 115.132 211.348 115.159C211.633 115.164 211.907 115.12 212.165 115.037L214.906 114.158C215.209 115.348 215.341 116.588 215.278 117.842L215.097 121.422C215.091 121.55 215.075 121.674 215.059 121.798L212.793 139.902L237.997 126.898L237.928 126.94L240.345 130.926L210.006 150.446C209.971 150.464 209.941 150.487 209.908 150.508C207.99 151.667 205.493 151.055 204.332 149.139C203.894 148.418 203.709 147.615 203.75 146.832L204.805 125.93L200.364 125.707L199.326 146.296L204.147 191.729C204.156 191.812 204.16 191.894 204.16 191.976H199.493L199.458 191.996L191.261 147.14L191.264 147.14C191.227 146.934 191.205 146.724 191.2 146.51H191.196L190.572 120.567C190.574 120.442 190.571 120.317 190.577 120.19L190.825 115.286Z" fill="#2D0D2D" stroke="#75075F"/>
<path fill-rule="evenodd" clip-rule="evenodd" d="M190.825 115.286C190.96 112.604 191.624 109.981 192.761 107.558C193.756 105.41 193.437 106.23 193.437 106.23L194.72 106.295L210.11 107.069C210.11 107.069 212.013 107.234 212.792 109.755C212.895 109.892 212.994 110.031 213.091 110.172L211.443 110.141C210.055 110.114 208.909 111.217 208.883 112.602C208.856 113.988 209.96 115.132 211.348 115.159C211.633 115.164 211.907 115.12 212.165 115.037L214.906 114.158C215.209 115.348 215.341 116.588 215.278 117.842L215.097 121.422C215.091 121.55 215.075 121.674 215.059 121.798L212.793 139.902L237.997 126.898L237.928 126.94L240.345 130.926L210.006 150.446C209.971 150.464 209.941 150.487 209.908 150.508C207.99 151.667 205.493 151.055 204.332 149.139C203.894 148.418 203.709 147.615 203.75 146.832L204.805 125.93L200.364 125.707L199.326 146.296L204.147 191.729C204.156 191.812 204.16 191.894 204.16 191.976H199.493L199.458 191.996L191.261 147.14L191.264 147.14C191.227 146.934 191.205 146.724 191.2 146.51H191.196L190.572 120.567C190.574 120.442 190.571 120.317 190.577 120.19L190.825 115.286Z" fill="#333333" stroke="#75075F"/>
<path d="M256.74 159.204C256.605 156.987 254.513 155.557 252.176 155.557C249.838 155.557 247.653 156.987 247.612 159.204" stroke="#404040" stroke-width="0.5"/>
<path fill-rule="evenodd" clip-rule="evenodd" d="M237.571 194.487H265.868V158.361H237.571V194.487Z" fill="#C2977C"/>
<mask id="mask1_2065_3593" style="mask-type:alpha" maskUnits="userSpaceOnUse" x="237" y="158" width="29" height="37">
<path fill-rule="evenodd" clip-rule="evenodd" d="M237.571 194.487H265.868V158.361H237.571V194.487Z" fill="white"/>
</mask>
<g mask="url(#mask1_2065_3593)">
<path fill-rule="evenodd" clip-rule="evenodd" d="M260.982 192.197L254.859 188.475L263.143 173.788L269.266 177.511L260.982 192.197Z" fill="#FA6400"/>
<path fill-rule="evenodd" clip-rule="evenodd" d="M237.571 182.321V198.176H239.84L249.4 181.076L241.11 175.991L237.571 182.321Z" fill="#5CB79F"/>
<path fill-rule="evenodd" clip-rule="evenodd" d="M252.13 193.274L260.003 198.019H265.346L266.385 196.193L254.533 189.05L252.13 193.274Z" fill="#DF3378"/>
<path fill-rule="evenodd" clip-rule="evenodd" d="M256.367 184.33L250.462 180.75L252.442 177.249L258.347 180.829L256.367 184.33Z" fill="#B71277"/>
<path fill-rule="evenodd" clip-rule="evenodd" d="M261.684 192.593L275.787 200.93L305.359 197.39L269.958 177.879L261.684 192.593Z" fill="#F75F75"/>
<path fill-rule="evenodd" clip-rule="evenodd" d="M237.571 172.943L249.763 180.396L252.433 175.636L237.571 166.55V172.943Z" fill="#DF3378"/>
<path fill-rule="evenodd" clip-rule="evenodd" d="M237.571 179.625L238.054 179.925L240.453 175.579L237.571 173.788V179.625Z" fill="#F75F75"/>
<path fill-rule="evenodd" clip-rule="evenodd" d="M250.031 195.659L244.092 192.05L250.134 181.341L256.073 184.95L250.031 195.659Z" fill="#F5B554"/>
</g>
<path fill-rule="evenodd" clip-rule="evenodd" d="M261.143 167.287C260.886 167.331 260.573 167.41 259.617 167.41C258.573 167.41 257.762 167.102 257.762 165.603L257.762 163.747C257.762 162.248 258.573 161.94 259.617 161.94C260.573 161.94 260.886 162.019 261.143 162.063C261.264 162.081 261.304 162.125 261.304 162.248V162.813C261.304 162.91 261.232 162.989 261.143 162.989H259.505C259.039 162.989 258.87 163.165 258.87 163.747V164.1H261.047C261.135 164.1 261.208 164.179 261.208 164.276V164.911C261.208 165.008 261.135 165.087 261.047 165.087H258.87L258.87 165.603C258.87 166.185 259.039 166.361 259.505 166.361H261.143C261.231 166.361 261.304 166.44 261.304 166.537V167.102C261.304 167.225 261.263 167.269 261.143 167.287Z" fill="#222222"/>
<path fill-rule="evenodd" clip-rule="evenodd" d="M251.495 162.396L250.744 167.242C250.728 167.331 250.667 167.411 250.59 167.411H250.513C250.443 167.411 250.405 167.349 250.405 167.278V167.242L251.156 162.396C251.172 162.308 251.233 162.228 251.31 162.228H251.387C251.456 162.228 251.495 162.29 251.495 162.361V162.396Z" fill="#222222"/>
<path fill-rule="evenodd" clip-rule="evenodd" d="M249.587 162.377L248.912 166.703C248.837 167.253 248.597 167.411 248.167 167.411H247.72C247.348 167.411 247.149 167.218 247.034 166.711L246.38 164.537C246.363 164.458 246.363 164.441 246.33 164.441C246.297 164.441 246.289 164.458 246.272 164.537L245.619 166.711C245.503 167.218 245.304 167.411 244.932 167.411H244.485C244.055 167.411 243.815 167.253 243.741 166.703L243.048 162.377V162.35C243.048 162.272 243.114 162.228 243.189 162.228H244.066C244.132 162.228 244.198 162.289 244.206 162.385L244.717 166.222C244.725 166.3 244.725 166.353 244.758 166.353C244.791 166.353 244.791 166.3 244.808 166.222L245.519 163.864C245.569 163.654 245.685 163.47 246.041 163.47H246.612C246.967 163.47 247.083 163.654 247.133 163.864L247.844 166.222C247.861 166.3 247.861 166.353 247.894 166.353C247.927 166.353 247.927 166.3 247.935 166.222L248.429 162.385C248.437 162.289 248.504 162.228 248.57 162.228H249.447C249.521 162.228 249.587 162.272 249.587 162.35V162.377Z" fill="#222222"/>
<path fill-rule="evenodd" clip-rule="evenodd" d="M256.558 162.228H256.461C256.38 162.228 256.323 162.308 256.307 162.396L255.572 166.968C255.564 167.004 255.523 167.039 255.515 167.039C255.514 167.039 255.513 167.039 255.512 167.038V167.038C255.509 167.038 255.508 167.037 255.506 167.036C255.482 167.031 255.474 167.008 255.467 166.977L254.143 162.502C254.094 162.352 253.989 162.228 253.778 162.228C253.767 162.228 253.756 162.229 253.745 162.229V162.228C253.74 162.228 253.735 162.229 253.73 162.23V162.228C253.569 162.247 253.384 162.361 253.332 162.658L252.585 167.242V167.278C252.585 167.349 252.625 167.411 252.698 167.411H252.779C252.86 167.411 252.925 167.331 252.941 167.242L253.689 162.658C253.696 162.621 253.714 162.603 253.73 162.599V162.6C253.732 162.6 253.735 162.598 253.737 162.598C253.74 162.598 253.743 162.599 253.745 162.6V162.601C253.775 162.605 253.803 162.629 253.81 162.662L255.134 167.128C255.199 167.348 255.304 167.41 255.506 167.411C255.506 167.411 255.507 167.411 255.507 167.411C255.509 167.411 255.51 167.41 255.512 167.41V167.411C255.713 167.408 255.889 167.249 255.937 166.968L256.672 162.396V162.361C256.672 162.29 256.64 162.228 256.558 162.228Z" fill="#222222"/>
<path fill-rule="evenodd" clip-rule="evenodd" d="M204.159 191.975L204.159 195.202H197.62C197.068 195.202 196.62 194.755 196.62 194.202C196.62 193.845 196.812 193.514 197.122 193.336L199.457 191.995L199.492 191.975H204.159Z" fill="#333333" stroke="#75075F"/>
<path fill-rule="evenodd" clip-rule="evenodd" d="M151.271 68.3632C151 68.3632 150.78 68.0949 150.78 67.7665V66.3149C150.78 65.9865 151 65.7178 151.271 65.7178C151.541 65.7178 151.762 65.9865 151.762 66.3149V67.7665C151.762 68.0949 151.541 68.3632 151.271 68.3632Z" fill="#F9E3BD"/>
<path fill-rule="evenodd" clip-rule="evenodd" d="M151.271 70.0428C151 70.0428 150.78 69.7741 150.78 69.4461C150.78 69.1176 151 68.8494 151.271 68.8494C151.541 68.8494 151.762 69.1176 151.762 69.4461C151.762 69.7741 151.541 70.0428 151.271 70.0428Z" fill="#F9E3BD"/>
<path d="M42 195.122H277.321" stroke="#72246C" stroke-width="1.417" stroke-linecap="round" stroke-linejoin="round"/>
</svg>
