<svg xmlns="http://www.w3.org/2000/svg" xmlns:xlink="http://www.w3.org/1999/xlink" width="90" zoomAndPan="magnify" viewBox="0 0 67.5 67.499996" height="90" preserveAspectRatio="xMidYMid meet" version="1.0"><defs><clipPath id="id1"><path d="M 2 1.65625 L 67.003906 1.65625 L 67.003906 52 L 2 52 Z M 2 1.65625 " clip-rule="nonzero"/></clipPath><clipPath id="id2"><path d="M 2 1.65625 L 67.003906 1.65625 L 67.003906 52 L 2 52 Z M 2 1.65625 " clip-rule="nonzero"/></clipPath><clipPath id="id3"><path d="M 0 24 L 62 24 L 62 66.15625 L 0 66.15625 Z M 0 24 " clip-rule="nonzero"/></clipPath><clipPath id="id4"><path d="M 0 24 L 62 24 L 62 66.15625 L 0 66.15625 Z M 0 24 " clip-rule="nonzero"/></clipPath></defs><g clip-path="url(#id1)"><path fill="#5271ff" d="M 66.429688 28.269531 L 26.957031 51.117188 L 26.886719 50.933594 C 26.464844 49.894531 25.339844 49.195312 24.015625 49.152344 C 22.578125 49.109375 21.1875 49.875 20.628906 51.023438 L 20.5 51.285156 L 2.59375 29.632812 L 2.953125 29.632812 C 4.433594 29.691406 5.824219 28.882812 6.277344 27.710938 C 6.726562 26.539062 6.085938 25.246094 4.734375 24.714844 L 4.464844 24.609375 L 43.839844 1.867188 L 43.785156 2.191406 C 43.566406 3.398438 44.457031 4.542969 45.816406 4.792969 C 46.582031 4.921875 47.308594 4.800781 47.996094 4.433594 C 48.703125 4.089844 49.171875 3.542969 49.40625 2.792969 L 49.5 2.453125 L 67.335938 24.019531 L 66.976562 24.019531 C 66.199219 23.980469 65.496094 24.1875 64.867188 24.644531 C 64.34375 25 64.039062 25.492188 63.960938 26.121094 C 63.894531 27.109375 64.789062 28.007812 66.046875 28.210938 Z M 66.429688 28.269531 " fill-opacity="1" fill-rule="nonzero"/></g><path fill="#5ce1e6" d="M 59.210938 24.984375 C 59.660156 24.65625 60.164062 24.476562 60.71875 24.445312 L 61.078125 24.417969 L 46.882812 7.273438 L 46.765625 7.535156 C 46.519531 8.03125 46.152344 8.40625 45.65625 8.652344 C 45.050781 8.972656 44.414062 9.074219 43.742188 8.960938 C 42.703125 8.761719 41.945312 7.953125 41.96875 7.039062 L 41.96875 6.722656 L 10.347656 24.996094 L 10.652344 25.148438 C 11.648438 25.648438 12.085938 26.617188 11.726562 27.554688 C 11.367188 28.492188 10.34375 29.128906 9.195312 29.199219 L 8.835938 29.222656 L 23.109375 46.5 L 23.242188 46.292969 C 23.5625 45.84375 23.972656 45.5 24.464844 45.257812 C 24.960938 45.015625 25.480469 44.90625 26.03125 44.925781 C 26.519531 44.917969 26.976562 45.035156 27.402344 45.277344 C 27.828125 45.519531 28.164062 45.851562 28.410156 46.277344 L 28.496094 46.445312 L 60.273438 28.054688 L 59.871094 27.933594 C 58.964844 27.667969 58.371094 26.96875 58.433594 26.238281 C 58.507812 25.703125 58.765625 25.285156 59.210938 24.984375 Z M 14.140625 28.949219 L 14.226562 29.101562 Z M 23.003906 39.730469 L 22.902344 39.597656 L 23 39.75 Z M 26.03125 43.390625 L 25.929688 43.257812 C 25.929688 43.25 25.929688 43.246094 25.929688 43.238281 Z M 44.28125 10.355469 L 44.378906 10.488281 L 44.378906 10.519531 L 44.28125 10.367188 Z M 44.800781 19.148438 L 44.890625 19.261719 C 44.890625 19.261719 44.890625 19.261719 44.855469 19.289062 L 43.519531 20.042969 L 46.332031 23.542969 C 46.332031 23.542969 46.332031 23.574219 46.285156 23.589844 L 46.160156 23.660156 C 46.117188 23.6875 46.097656 23.679688 46.078125 23.660156 L 43.277344 20.191406 L 41.953125 20.9375 C 41.917969 20.960938 41.890625 20.9375 41.863281 20.917969 L 41.789062 20.808594 C 41.796875 20.800781 41.808594 20.792969 41.820312 20.789062 L 44.714844 19.148438 C 44.777344 19.105469 44.800781 19.136719 44.808594 19.148438 Z M 41.292969 21.308594 L 38.78125 22.730469 L 40.027344 24.277344 L 42.179688 23.050781 C 42.226562 23.023438 42.25 23.050781 42.265625 23.050781 L 42.351562 23.15625 C 42.351562 23.15625 42.351562 23.179688 42.324219 23.191406 L 40.136719 24.425781 L 41.46875 26.082031 L 43.980469 24.671875 C 44.035156 24.640625 44.050781 24.671875 44.066406 24.671875 L 44.144531 24.78125 C 44.144531 24.78125 44.144531 24.78125 44.113281 24.804688 L 41.410156 26.339844 C 41.355469 26.371094 41.351562 26.371094 41.320312 26.339844 L 38.40625 22.734375 C 38.40625 22.734375 38.40625 22.734375 38.445312 22.703125 L 41.144531 21.171875 C 41.160156 21.167969 41.171875 21.167969 41.183594 21.171875 C 41.203125 21.175781 41.21875 21.183594 41.230469 21.199219 L 41.316406 21.308594 C 41.316406 21.308594 41.324219 21.289062 41.300781 21.304688 Z M 40.40625 26.910156 C 40.398438 26.921875 40.390625 26.925781 40.378906 26.933594 L 40.164062 27.050781 C 40.109375 27.082031 40.054688 27.089844 39.996094 27.078125 L 36.15625 26.59375 L 37.652344 28.453125 C 37.644531 28.472656 37.628906 28.488281 37.609375 28.496094 L 37.472656 28.578125 C 37.433594 28.59375 37.414062 28.601562 37.386719 28.578125 L 34.515625 24.96875 L 34.515625 24.941406 C 34.515625 24.941406 34.515625 24.917969 34.550781 24.898438 L 34.671875 24.828125 C 34.691406 24.816406 34.707031 24.8125 34.730469 24.8125 C 34.753906 24.8125 34.769531 24.820312 34.785156 24.839844 L 36.164062 26.558594 L 37.082031 23.503906 C 37.097656 23.460938 37.125 23.429688 37.167969 23.410156 L 37.355469 23.300781 C 37.371094 23.285156 37.386719 23.285156 37.402344 23.300781 L 36.429688 26.410156 Z M 33.660156 26.21875 C 33.660156 26.21875 33.660156 26.253906 33.582031 26.242188 C 32.945312 26.175781 32.347656 26.296875 31.785156 26.605469 C 31.210938 26.894531 30.839844 27.351562 30.679688 27.976562 C 30.519531 28.566406 30.640625 29.09375 31.035156 29.554688 C 31.457031 30.054688 31.988281 30.335938 32.632812 30.40625 C 33.3125 30.511719 33.953125 30.390625 34.546875 30.042969 C 35.058594 29.753906 35.417969 29.332031 35.625 28.773438 C 35.632812 28.75 35.648438 28.730469 35.671875 28.722656 L 35.898438 28.761719 C 35.898438 28.761719 35.898438 28.761719 35.898438 28.785156 C 35.695312 29.429688 35.292969 29.902344 34.691406 30.203125 C 34.019531 30.589844 33.300781 30.726562 32.535156 30.613281 C 31.808594 30.554688 31.210938 30.242188 30.742188 29.679688 C 30.542969 29.441406 30.410156 29.167969 30.347656 28.859375 C 30.28125 28.554688 30.292969 28.25 30.382812 27.949219 C 30.582031 27.261719 31 26.761719 31.632812 26.4375 C 32.148438 26.152344 32.703125 26.015625 33.292969 26.027344 C 33.410156 26.027344 33.523438 26.027344 33.652344 26.027344 C 33.6875 26.027344 33.699219 26.027344 33.703125 26.0625 Z M 31.058594 32.191406 C 31.046875 32.203125 31.035156 32.210938 31.023438 32.21875 L 30.878906 32.300781 C 30.835938 32.328125 30.820312 32.324219 30.792969 32.300781 L 27.882812 28.664062 L 28.0625 28.554688 C 28.078125 28.550781 28.089844 28.550781 28.105469 28.554688 C 28.113281 28.550781 28.125 28.550781 28.132812 28.550781 Z M 24.421875 41.453125 L 24.328125 41.320312 L 24.421875 41.472656 Z M 24.207031 30.960938 C 24.183594 30.960938 24.15625 30.988281 24.113281 30.9375 L 24.039062 30.839844 C 24.046875 30.828125 24.058594 30.820312 24.070312 30.8125 L 26.972656 29.175781 C 27.023438 29.144531 27.042969 29.175781 27.058594 29.175781 L 27.140625 29.289062 C 27.140625 29.289062 27.140625 29.289062 27.109375 29.316406 L 25.769531 30.074219 L 28.582031 33.601562 C 28.582031 33.601562 28.582031 33.617188 28.535156 33.636719 L 28.417969 33.703125 C 28.402344 33.707031 28.382812 33.707031 28.367188 33.703125 C 28.351562 33.703125 28.339844 33.695312 28.328125 33.683594 L 25.53125 30.214844 Z M 46.355469 12.84375 C 46.355469 12.835938 46.355469 12.832031 46.355469 12.824219 L 46.449219 12.976562 Z M 50.832031 18.21875 L 50.921875 18.375 Z M 56.84375 25.546875 L 56.746094 25.414062 L 56.84375 25.566406 Z M 56.84375 25.546875 " fill-opacity="1" fill-rule="nonzero"/><g clip-path="url(#id2)"><path fill="#004aad" d="M 48.492188 15.847656 C 48.457031 15.808594 48.441406 15.761719 48.441406 15.710938 L 48.441406 15.679688 C 48.457031 15.605469 48.496094 15.546875 48.5625 15.507812 C 48.695312 15.425781 48.816406 15.445312 48.921875 15.558594 L 49.476562 16.222656 C 49.511719 16.269531 49.527344 16.324219 49.519531 16.382812 C 49.503906 16.460938 49.460938 16.515625 49.394531 16.554688 C 49.351562 16.582031 49.300781 16.597656 49.246094 16.597656 C 49.160156 16.597656 49.089844 16.566406 49.035156 16.503906 Z M 54.925781 23.628906 C 54.980469 23.691406 55.050781 23.722656 55.136719 23.722656 C 55.191406 23.722656 55.242188 23.710938 55.289062 23.679688 C 55.355469 23.640625 55.394531 23.578125 55.40625 23.503906 C 55.40625 23.503906 55.40625 23.480469 55.40625 23.46875 C 55.40625 23.417969 55.390625 23.375 55.355469 23.335938 L 54.808594 22.671875 C 54.699219 22.566406 54.582031 22.546875 54.449219 22.621094 C 54.386719 22.660156 54.347656 22.710938 54.332031 22.78125 L 54.332031 22.816406 C 54.328125 22.871094 54.34375 22.914062 54.378906 22.953125 Z M 56.535156 25.574219 C 56.589844 25.636719 56.660156 25.664062 56.746094 25.664062 C 56.800781 25.664062 56.847656 25.652344 56.894531 25.625 C 56.964844 25.582031 57.003906 25.523438 57.019531 25.445312 L 57.019531 25.417969 C 57.019531 25.367188 57.003906 25.324219 56.972656 25.289062 L 56.425781 24.625 C 56.316406 24.519531 56.199219 24.503906 56.066406 24.578125 C 56 24.617188 55.960938 24.675781 55.945312 24.75 C 55.945312 24.75 55.945312 24.773438 55.945312 24.78125 C 55.945312 24.832031 55.960938 24.878906 55.996094 24.917969 Z M 53.503906 21.910156 C 53.5625 21.972656 53.632812 22.003906 53.714844 22.003906 C 53.769531 22.003906 53.820312 21.988281 53.867188 21.960938 C 53.933594 21.917969 53.972656 21.863281 53.984375 21.785156 C 53.988281 21.777344 53.988281 21.765625 53.984375 21.753906 C 53.984375 21.703125 53.96875 21.660156 53.933594 21.621094 L 53.390625 20.957031 C 53.28125 20.851562 53.164062 20.835938 53.03125 20.910156 C 52.964844 20.949219 52.925781 21.007812 52.910156 21.082031 C 52.910156 21.082031 52.910156 21.105469 52.910156 21.117188 C 52.910156 21.167969 52.925781 21.210938 52.960938 21.25 Z M 52.027344 20.125 C 52.082031 20.1875 52.152344 20.214844 52.238281 20.214844 C 52.292969 20.214844 52.34375 20.199219 52.390625 20.175781 C 52.453125 20.136719 52.496094 20.078125 52.511719 20.003906 C 52.511719 20.003906 52.511719 19.980469 52.511719 19.96875 C 52.511719 19.921875 52.496094 19.875 52.464844 19.839844 L 51.914062 19.175781 C 51.808594 19.0625 51.691406 19.042969 51.554688 19.125 C 51.488281 19.164062 51.449219 19.222656 51.433594 19.300781 L 51.433594 19.332031 C 51.433594 19.382812 51.453125 19.425781 51.484375 19.464844 Z M 50.589844 18.402344 C 50.648438 18.464844 50.71875 18.496094 50.800781 18.492188 C 50.855469 18.492188 50.90625 18.480469 50.953125 18.453125 C 51.019531 18.417969 51.058594 18.359375 51.070312 18.285156 C 51.074219 18.273438 51.074219 18.261719 51.070312 18.25 C 51.070312 18.199219 51.054688 18.152344 51.023438 18.113281 L 50.476562 17.453125 C 50.367188 17.34375 50.25 17.328125 50.117188 17.40625 C 50.050781 17.445312 50.007812 17.5 49.996094 17.578125 C 49.996094 17.578125 49.996094 17.597656 49.996094 17.609375 C 49.996094 17.660156 50.011719 17.707031 50.046875 17.742188 Z M 22.574219 38.808594 C 22.46875 38.703125 22.347656 38.6875 22.214844 38.761719 C 22.148438 38.800781 22.109375 38.859375 22.09375 38.933594 C 22.09375 38.933594 22.09375 38.957031 22.09375 38.964844 C 22.09375 39.015625 22.113281 39.0625 22.144531 39.101562 L 22.695312 39.761719 C 22.75 39.824219 22.820312 39.855469 22.90625 39.851562 C 22.960938 39.855469 23.011719 39.84375 23.054688 39.8125 C 23.121094 39.773438 23.160156 39.714844 23.175781 39.640625 C 23.175781 39.628906 23.175781 39.617188 23.175781 39.609375 C 23.171875 39.558594 23.15625 39.511719 23.125 39.476562 Z M 15.214844 29.898438 C 15.109375 29.789062 14.988281 29.773438 14.855469 29.851562 C 14.789062 29.890625 14.746094 29.949219 14.734375 30.027344 L 14.734375 30.054688 C 14.734375 30.105469 14.75 30.152344 14.785156 30.1875 L 15.332031 30.851562 C 15.386719 30.914062 15.457031 30.945312 15.542969 30.941406 C 15.59375 30.941406 15.644531 30.929688 15.691406 30.902344 C 15.757812 30.863281 15.796875 30.808594 15.816406 30.734375 L 15.816406 30.714844 C 15.816406 30.664062 15.800781 30.617188 15.765625 30.578125 Z M 13.78125 28.191406 C 13.671875 28.082031 13.554688 28.066406 13.421875 28.144531 C 13.355469 28.183594 13.3125 28.242188 13.300781 28.316406 C 13.300781 28.316406 13.300781 28.339844 13.300781 28.351562 C 13.300781 28.398438 13.316406 28.445312 13.347656 28.484375 L 13.894531 29.140625 C 13.949219 29.207031 14.023438 29.238281 14.109375 29.238281 C 14.164062 29.238281 14.214844 29.222656 14.261719 29.195312 C 14.324219 29.160156 14.363281 29.105469 14.378906 29.03125 C 14.390625 28.96875 14.375 28.910156 14.335938 28.863281 Z M 21.097656 37.023438 C 20.992188 36.90625 20.871094 36.890625 20.738281 36.972656 C 20.671875 37.011719 20.628906 37.070312 20.617188 37.144531 L 20.617188 37.175781 C 20.613281 37.226562 20.632812 37.273438 20.667969 37.3125 L 21.207031 37.96875 C 21.3125 38.082031 21.433594 38.101562 21.566406 38.023438 C 21.632812 37.980469 21.675781 37.925781 21.6875 37.847656 L 21.6875 37.820312 C 21.691406 37.765625 21.675781 37.722656 21.640625 37.683594 Z M 17.230469 32.335938 L 16.6875 31.683594 C 16.578125 31.582031 16.457031 31.566406 16.328125 31.636719 C 16.261719 31.679688 16.222656 31.734375 16.207031 31.8125 C 16.207031 31.8125 16.207031 31.832031 16.207031 31.84375 C 16.207031 31.894531 16.222656 31.9375 16.257812 31.976562 L 16.804688 32.640625 C 16.859375 32.703125 16.933594 32.734375 17.015625 32.734375 C 17.070312 32.734375 17.121094 32.722656 17.167969 32.691406 C 17.234375 32.652344 17.273438 32.59375 17.285156 32.519531 C 17.289062 32.507812 17.289062 32.496094 17.285156 32.484375 C 17.285156 32.433594 17.269531 32.390625 17.234375 32.351562 Z M 19.675781 35.285156 C 19.566406 35.175781 19.449219 35.160156 19.316406 35.238281 C 19.25 35.273438 19.210938 35.332031 19.195312 35.40625 C 19.195312 35.40625 19.195312 35.433594 19.195312 35.441406 C 19.195312 35.492188 19.210938 35.539062 19.246094 35.578125 L 19.789062 36.234375 C 19.894531 36.347656 20.015625 36.367188 20.148438 36.285156 C 20.214844 36.25 20.253906 36.195312 20.269531 36.121094 C 20.277344 36.058594 20.261719 36.007812 20.226562 35.957031 Z M 18.652344 34.070312 L 18.109375 33.40625 C 18 33.296875 17.882812 33.28125 17.75 33.355469 C 17.683594 33.394531 17.644531 33.453125 17.625 33.527344 L 17.625 33.5625 C 17.625 33.613281 17.644531 33.65625 17.675781 33.695312 L 18.222656 34.359375 C 18.277344 34.421875 18.347656 34.453125 18.433594 34.453125 C 18.488281 34.453125 18.539062 34.4375 18.585938 34.40625 C 18.652344 34.367188 18.691406 34.308594 18.707031 34.230469 L 18.707031 34.203125 C 18.707031 34.152344 18.691406 34.109375 18.660156 34.074219 Z M 28.34375 28.394531 C 28.222656 28.238281 28.078125 28.210938 27.910156 28.316406 L 27.769531 28.402344 C 27.679688 28.445312 27.625 28.511719 27.605469 28.609375 C 27.601562 28.628906 27.601562 28.648438 27.605469 28.671875 C 27.605469 28.742188 27.632812 28.808594 27.679688 28.863281 L 30.578125 32.46875 C 30.640625 32.550781 30.726562 32.589844 30.828125 32.589844 C 30.890625 32.589844 30.949219 32.574219 31.003906 32.542969 L 31.144531 32.464844 C 31.238281 32.417969 31.296875 32.34375 31.316406 32.242188 C 31.332031 32.152344 31.3125 32.070312 31.253906 32.003906 Z M 40.652344 26.835938 C 40.617188 26.707031 40.535156 26.636719 40.40625 26.621094 L 36.78125 26.191406 L 37.65625 23.390625 C 37.660156 23.363281 37.660156 23.332031 37.65625 23.304688 C 37.660156 23.207031 37.621094 23.132812 37.542969 23.078125 C 37.433594 23 37.320312 23 37.210938 23.078125 L 37.023438 23.183594 C 36.921875 23.238281 36.851562 23.320312 36.8125 23.425781 L 36.027344 26.003906 L 34.953125 24.679688 C 34.828125 24.523438 34.679688 24.492188 34.507812 24.585938 L 34.382812 24.65625 C 34.292969 24.707031 34.234375 24.78125 34.214844 24.878906 C 34.214844 24.878906 34.214844 24.910156 34.214844 24.925781 C 34.214844 25.003906 34.242188 25.074219 34.292969 25.132812 L 37.164062 28.738281 C 37.226562 28.820312 37.3125 28.859375 37.414062 28.863281 C 37.476562 28.863281 37.535156 28.847656 37.589844 28.816406 L 37.730469 28.734375 C 37.816406 28.6875 37.875 28.613281 37.902344 28.515625 C 37.902344 28.515625 37.902344 28.480469 37.902344 28.464844 C 37.902344 28.390625 37.878906 28.328125 37.832031 28.269531 L 36.753906 26.949219 L 39.976562 27.347656 C 40.09375 27.367188 40.207031 27.347656 40.308594 27.289062 L 40.523438 27.171875 C 40.625 27.117188 40.679688 27.03125 40.683594 26.914062 C 40.683594 26.890625 40.683594 26.867188 40.683594 26.847656 Z M 43.921875 20.125 L 45 19.535156 C 45.089844 19.492188 45.144531 19.417969 45.164062 19.320312 C 45.164062 19.320312 45.164062 19.292969 45.164062 19.277344 C 45.164062 19.203125 45.140625 19.136719 45.09375 19.078125 L 45.019531 18.988281 C 44.898438 18.832031 44.757812 18.808594 44.589844 18.914062 L 41.691406 20.550781 C 41.605469 20.59375 41.550781 20.664062 41.535156 20.757812 C 41.53125 20.777344 41.53125 20.800781 41.535156 20.820312 C 41.535156 20.890625 41.558594 20.957031 41.605469 21.011719 L 41.667969 21.089844 C 41.71875 21.160156 41.785156 21.203125 41.871094 21.21875 C 41.953125 21.234375 42.03125 21.21875 42.105469 21.171875 L 43.207031 20.527344 L 45.859375 23.816406 C 45.917969 23.902344 46.003906 23.945312 46.109375 23.941406 C 46.171875 23.941406 46.230469 23.925781 46.285156 23.894531 L 46.40625 23.828125 C 46.5 23.777344 46.5625 23.703125 46.589844 23.601562 C 46.601562 23.511719 46.582031 23.433594 46.523438 23.363281 Z M 44.355469 24.585938 L 44.28125 24.5 C 44.164062 24.34375 44.023438 24.320312 43.859375 24.425781 L 41.554688 25.726562 L 40.566406 24.5 L 42.472656 23.417969 C 42.5625 23.367188 42.617188 23.296875 42.640625 23.199219 C 42.640625 23.199219 42.640625 23.171875 42.640625 23.152344 C 42.636719 23.078125 42.613281 23.015625 42.566406 22.957031 L 42.492188 22.867188 C 42.371094 22.714844 42.230469 22.6875 42.066406 22.792969 L 40.089844 23.910156 L 39.191406 22.789062 L 41.425781 21.527344 C 41.515625 21.480469 41.570312 21.410156 41.589844 21.308594 C 41.59375 21.292969 41.59375 21.277344 41.589844 21.261719 C 41.589844 21.1875 41.566406 21.125 41.519531 21.070312 L 41.445312 20.980469 C 41.324219 20.828125 41.183594 20.800781 41.019531 20.902344 L 38.316406 22.433594 C 38.230469 22.476562 38.171875 22.546875 38.148438 22.644531 C 38.148438 22.644531 38.148438 22.675781 38.148438 22.691406 C 38.152344 22.765625 38.175781 22.832031 38.226562 22.890625 L 41.125 26.496094 C 41.1875 26.582031 41.269531 26.621094 41.375 26.617188 C 41.4375 26.617188 41.496094 26.601562 41.550781 26.570312 L 44.253906 25.042969 C 44.34375 24.996094 44.398438 24.925781 44.417969 24.828125 C 44.433594 24.742188 44.414062 24.667969 44.359375 24.597656 Z M 46.027344 12.042969 C 45.917969 11.9375 45.796875 11.921875 45.667969 12 C 45.601562 12.039062 45.558594 12.097656 45.546875 12.175781 L 45.546875 12.203125 C 45.546875 12.253906 45.5625 12.300781 45.59375 12.339844 L 46.140625 13 C 46.199219 13.0625 46.269531 13.09375 46.351562 13.089844 C 46.40625 13.09375 46.457031 13.082031 46.503906 13.050781 C 46.570312 13.011719 46.609375 12.957031 46.625 12.878906 C 46.628906 12.871094 46.628906 12.863281 46.625 12.855469 C 46.625 12.808594 46.609375 12.761719 46.574219 12.722656 L 46.027344 12.058594 Z M 64.035156 26.105469 C 63.972656 27.042969 64.835938 27.910156 66.046875 28.101562 L 66.695312 28.203125 L 26.890625 51.246094 L 26.785156 50.96875 C 26.378906 49.964844 25.285156 49.289062 24 49.242188 C 22.589844 49.195312 21.242188 49.964844 20.699219 51.046875 L 20.507812 51.4375 L 2.398438 29.542969 L 2.96875 29.566406 C 4.402344 29.621094 5.769531 28.84375 6.199219 27.699219 C 6.625 26.558594 6.011719 25.332031 4.703125 24.816406 L 4.257812 24.640625 L 4.425781 24.546875 L 43.964844 1.691406 L 43.875 2.203125 C 43.664062 3.367188 44.527344 4.460938 45.832031 4.703125 C 46.578125 4.835938 47.285156 4.722656 47.953125 4.363281 C 48.628906 4.03125 49.082031 3.5 49.304688 2.777344 L 49.445312 2.273438 L 49.554688 2.40625 L 67.519531 24.125 L 66.945312 24.105469 C 66.1875 24.066406 65.503906 24.269531 64.890625 24.714844 C 64.394531 25.054688 64.109375 25.523438 64.035156 26.125 Z M 63.503906 26.105469 C 63.59375 25.359375 63.953125 24.773438 64.578125 24.359375 C 65.140625 23.9375 65.773438 23.699219 66.46875 23.636719 L 49.664062 3.339844 C 49.34375 3.980469 48.867188 4.460938 48.230469 4.78125 C 47.4375 5.203125 46.601562 5.339844 45.71875 5.1875 C 44.339844 4.925781 43.355469 3.875 43.324219 2.664062 L 5.359375 24.585938 C 6.632812 25.269531 7.1875 26.589844 6.710938 27.832031 C 6.265625 29.007812 4.949219 29.886719 3.480469 30.015625 L 20.421875 50.511719 C 20.828125 49.953125 21.339844 49.519531 21.957031 49.210938 C 22.570312 48.898438 23.222656 48.75 23.910156 48.757812 L 24.046875 48.757812 C 24.6875 48.75 25.285156 48.902344 25.84375 49.214844 C 26.402344 49.527344 26.84375 49.960938 27.171875 50.511719 L 65.351562 28.441406 C 64.183594 28.050781 63.429688 27.109375 63.503906 26.105469 Z M 47.617188 14.785156 C 47.671875 14.851562 47.742188 14.882812 47.828125 14.878906 C 47.882812 14.882812 47.933594 14.867188 47.976562 14.835938 C 48.042969 14.800781 48.082031 14.746094 48.097656 14.671875 C 48.109375 14.609375 48.09375 14.550781 48.054688 14.5 L 47.511719 13.839844 C 47.40625 13.722656 47.285156 13.707031 47.152344 13.789062 C 47.085938 13.824219 47.046875 13.882812 47.03125 13.957031 C 47.03125 13.957031 47.03125 13.984375 47.03125 13.992188 C 47.03125 14.042969 47.050781 14.089844 47.082031 14.125 Z M 46.746094 6.707031 L 61.597656 24.664062 L 61.023438 24.640625 C 60.421875 24.613281 59.875 24.773438 59.386719 25.125 C 59.007812 25.378906 58.785156 25.730469 58.707031 26.183594 C 58.707031 26.191406 58.707031 26.199219 58.707031 26.207031 C 58.707031 26.21875 58.707031 26.230469 58.707031 26.242188 C 58.707031 26.269531 58.707031 26.300781 58.707031 26.328125 C 58.707031 27.046875 59.378906 27.675781 60.308594 27.824219 L 60.953125 27.929688 L 60.734375 28.058594 L 28.351562 46.785156 L 28.238281 46.511719 C 28.035156 46.082031 27.730469 45.742188 27.328125 45.492188 C 26.925781 45.242188 26.488281 45.121094 26.011719 45.128906 C 25.472656 45.101562 24.964844 45.214844 24.488281 45.476562 C 24.015625 45.734375 23.640625 46.101562 23.371094 46.570312 L 23.183594 46.960938 L 8.308594 28.980469 L 8.882812 29.003906 C 10.035156 29.046875 11.121094 28.421875 11.46875 27.515625 C 11.542969 27.328125 11.578125 27.128906 11.582031 26.925781 C 11.5625 26.53125 11.433594 26.179688 11.195312 25.867188 C 10.957031 25.554688 10.652344 25.339844 10.277344 25.21875 L 9.832031 25.046875 L 42.359375 6.238281 L 42.261719 6.757812 C 42.246094 6.847656 42.234375 6.9375 42.238281 7.03125 C 42.25 7.242188 42.296875 7.449219 42.378906 7.644531 C 42.460938 7.839844 42.578125 8.019531 42.722656 8.175781 C 42.867188 8.332031 43.035156 8.457031 43.222656 8.554688 C 43.410156 8.652344 43.613281 8.714844 43.824219 8.742188 C 44.417969 8.847656 44.980469 8.757812 45.511719 8.472656 C 46.054688 8.207031 46.414062 7.785156 46.589844 7.207031 Z M 46.945312 7.757812 C 46.671875 8.25 46.285156 8.621094 45.78125 8.875 C 45.121094 9.222656 44.425781 9.335938 43.691406 9.210938 C 43.4375 9.175781 43.195312 9.097656 42.964844 8.984375 C 42.738281 8.867188 42.535156 8.714844 42.355469 8.53125 C 42.175781 8.347656 42.027344 8.140625 41.917969 7.910156 C 41.804688 7.675781 41.734375 7.433594 41.703125 7.175781 L 10.910156 24.980469 C 11.269531 25.167969 11.554688 25.4375 11.773438 25.78125 C 11.988281 26.125 12.101562 26.503906 12.109375 26.910156 C 12.113281 27.167969 12.074219 27.414062 11.984375 27.652344 C 11.625 28.617188 10.589844 29.324219 9.390625 29.457031 L 23.105469 46.046875 C 23.445312 45.601562 23.863281 45.253906 24.363281 45.011719 C 24.867188 44.765625 25.394531 44.648438 25.953125 44.65625 L 26.0625 44.65625 C 26.582031 44.652344 27.070312 44.777344 27.527344 45.027344 C 27.984375 45.277344 28.351562 45.625 28.628906 46.066406 L 59.625 28.140625 C 58.746094 27.8125 58.167969 27.101562 58.167969 26.335938 C 58.167969 26.300781 58.167969 26.265625 58.167969 26.230469 C 58.25 25.613281 58.546875 25.132812 59.054688 24.785156 C 59.5 24.464844 59.992188 24.273438 60.535156 24.210938 Z M 44.714844 11.28125 C 44.773438 11.34375 44.84375 11.375 44.929688 11.371094 C 44.980469 11.375 45.03125 11.359375 45.078125 11.332031 C 45.144531 11.292969 45.183594 11.238281 45.199219 11.164062 C 45.199219 11.152344 45.199219 11.144531 45.199219 11.132812 C 45.195312 11.082031 45.179688 11.039062 45.148438 11 L 44.601562 10.332031 C 44.492188 10.226562 44.375 10.210938 44.242188 10.285156 C 44.175781 10.324219 44.136719 10.382812 44.121094 10.460938 C 44.121094 10.460938 44.121094 10.480469 44.121094 10.492188 C 44.121094 10.542969 44.136719 10.585938 44.171875 10.625 Z M 23.996094 40.527344 C 23.890625 40.414062 23.769531 40.398438 23.636719 40.476562 C 23.570312 40.519531 23.53125 40.578125 23.515625 40.652344 L 23.515625 40.683594 C 23.515625 40.734375 23.53125 40.777344 23.566406 40.816406 L 24.109375 41.480469 C 24.167969 41.542969 24.238281 41.574219 24.324219 41.570312 C 24.378906 41.570312 24.425781 41.558594 24.472656 41.53125 C 24.539062 41.492188 24.582031 41.433594 24.59375 41.355469 C 24.597656 41.351562 24.597656 41.34375 24.59375 41.335938 C 24.59375 41.285156 24.578125 41.242188 24.546875 41.203125 Z M 26.179688 30.160156 L 27.253906 29.5625 C 27.34375 29.515625 27.398438 29.445312 27.417969 29.34375 C 27.421875 29.328125 27.421875 29.3125 27.417969 29.292969 C 27.417969 29.222656 27.394531 29.15625 27.347656 29.101562 L 27.273438 29.007812 C 27.152344 28.855469 27.011719 28.832031 26.847656 28.9375 L 23.949219 30.574219 C 23.859375 30.621094 23.804688 30.691406 23.785156 30.792969 C 23.785156 30.792969 23.785156 30.824219 23.785156 30.839844 C 23.785156 30.914062 23.8125 30.976562 23.855469 31.03125 L 23.921875 31.113281 C 24.039062 31.269531 24.183594 31.296875 24.355469 31.199219 L 25.480469 30.5625 L 28.132812 33.855469 C 28.195312 33.9375 28.277344 33.976562 28.382812 33.980469 C 28.445312 33.976562 28.507812 33.960938 28.566406 33.929688 L 28.679688 33.859375 C 28.777344 33.8125 28.835938 33.738281 28.863281 33.632812 C 28.878906 33.542969 28.859375 33.464844 28.800781 33.394531 Z M 25.621094 42.472656 C 25.515625 42.363281 25.394531 42.347656 25.261719 42.425781 C 25.195312 42.464844 25.15625 42.519531 25.140625 42.597656 C 25.140625 42.597656 25.140625 42.621094 25.140625 42.628906 C 25.140625 42.679688 25.160156 42.726562 25.191406 42.761719 L 25.738281 43.421875 C 25.84375 43.535156 25.960938 43.554688 26.09375 43.472656 C 26.160156 43.4375 26.199219 43.382812 26.214844 43.308594 C 26.226562 43.246094 26.210938 43.1875 26.171875 43.140625 Z M 36.136719 28.628906 C 36.085938 28.554688 36.015625 28.515625 35.929688 28.507812 L 35.746094 28.480469 L 35.667969 28.480469 C 35.515625 28.480469 35.414062 28.550781 35.359375 28.695312 C 35.179688 29.195312 34.859375 29.574219 34.398438 29.832031 C 33.855469 30.144531 33.273438 30.253906 32.65625 30.15625 C 32.074219 30.097656 31.597656 29.847656 31.21875 29.398438 C 30.988281 29.128906 30.867188 28.8125 30.859375 28.453125 C 30.863281 28.320312 30.878906 28.191406 30.910156 28.0625 C 31.0625 27.511719 31.386719 27.113281 31.894531 26.859375 C 32.40625 26.574219 32.949219 26.460938 33.53125 26.519531 C 33.613281 26.539062 33.6875 26.523438 33.757812 26.480469 C 33.828125 26.433594 33.871094 26.371094 33.890625 26.289062 L 33.929688 26.132812 C 33.929688 26.109375 33.929688 26.089844 33.929688 26.066406 C 33.929688 26.007812 33.914062 25.949219 33.878906 25.902344 C 33.820312 25.820312 33.742188 25.777344 33.640625 25.769531 C 32.875 25.691406 32.160156 25.84375 31.488281 26.226562 C 30.789062 26.582031 30.328125 27.144531 30.109375 27.902344 C 30.054688 28.097656 30.027344 28.300781 30.027344 28.503906 C 30.03125 29.023438 30.203125 29.480469 30.539062 29.875 C 31.046875 30.492188 31.695312 30.835938 32.488281 30.910156 C 32.660156 30.933594 32.832031 30.945312 33.007812 30.945312 C 33.648438 30.945312 34.246094 30.785156 34.800781 30.464844 C 35.46875 30.125 35.914062 29.597656 36.136719 28.878906 C 36.164062 28.792969 36.152344 28.710938 36.101562 28.632812 Z M 36.136719 28.628906 " fill-opacity="1" fill-rule="nonzero"/></g><g clip-path="url(#id3)"><path fill="#5271ff" d="M 58.8125 56.429688 L 12.519531 66.015625 L 12.519531 65.824219 C 12.609375 64.710938 11.90625 63.703125 10.726562 63.265625 C 10.054688 63.027344 9.371094 62.972656 8.667969 63.101562 C 7.96875 63.230469 7.347656 63.527344 6.804688 63.984375 L 6.566406 64.195312 L 0.109375 38.230469 L 0.441406 38.355469 C 1.117188 38.617188 1.808594 38.675781 2.519531 38.535156 C 3.226562 38.390625 3.84375 38.070312 4.367188 37.566406 C 4.597656 37.351562 4.777344 37.101562 4.898438 36.8125 C 5.023438 36.519531 5.085938 36.21875 5.082031 35.902344 C 5.078125 35.585938 5.007812 35.285156 4.875 35 C 4.746094 34.710938 4.5625 34.464844 4.324219 34.257812 L 4.125 34.078125 L 50.25 24.515625 L 50.050781 24.808594 C 49.867188 25.050781 49.746094 25.320312 49.683594 25.617188 C 49.617188 25.910156 49.617188 26.207031 49.683594 26.503906 C 49.746094 26.800781 49.867188 27.070312 50.046875 27.3125 C 50.226562 27.554688 50.449219 27.75 50.714844 27.894531 C 51.390625 28.261719 52.109375 28.371094 52.867188 28.226562 C 53.675781 28.105469 54.351562 27.730469 54.886719 27.109375 L 55.125 26.816406 L 61.554688 52.695312 L 61.222656 52.570312 C 60.496094 52.292969 59.761719 52.277344 59.019531 52.519531 C 58.382812 52.699219 57.886719 53.070312 57.53125 53.636719 C 57.023438 54.554688 57.425781 55.679688 58.476562 56.257812 Z M 58.8125 56.429688 " fill-opacity="1" fill-rule="nonzero"/></g><path fill="#5ce1e6" d="M 50.554688 30.550781 L 50.332031 30.753906 C 49.894531 31.144531 49.382812 31.386719 48.804688 31.476562 C 48.144531 31.597656 47.519531 31.5 46.925781 31.183594 C 46.726562 31.074219 46.558594 30.929688 46.414062 30.753906 C 46.269531 30.574219 46.164062 30.378906 46.097656 30.160156 C 46.03125 29.941406 46.007812 29.71875 46.027344 29.492188 C 46.046875 29.261719 46.105469 29.046875 46.210938 28.84375 L 46.371094 28.511719 L 9.316406 36.195312 L 9.515625 36.429688 C 9.679688 36.613281 9.800781 36.820312 9.882812 37.050781 C 9.964844 37.28125 10 37.519531 9.988281 37.761719 C 9.976562 38.007812 9.917969 38.238281 9.8125 38.460938 C 9.707031 38.683594 9.566406 38.875 9.382812 39.039062 C 8.976562 39.429688 8.5 39.699219 7.953125 39.839844 C 7.40625 39.984375 6.859375 39.984375 6.3125 39.839844 L 6.019531 39.757812 L 11.171875 60.488281 L 11.386719 60.332031 C 11.847656 60.007812 12.359375 59.804688 12.917969 59.722656 C 13.476562 59.644531 14.023438 59.695312 14.554688 59.882812 C 14.992188 60.015625 15.351562 60.261719 15.632812 60.625 C 15.914062 60.988281 16.0625 61.398438 16.082031 61.859375 L 16.082031 62.089844 L 53.304688 54.378906 L 52.984375 54.136719 C 52.824219 54.03125 52.683594 53.898438 52.574219 53.742188 C 52.460938 53.582031 52.378906 53.410156 52.332031 53.222656 C 52.28125 53.035156 52.269531 52.84375 52.289062 52.652344 C 52.3125 52.457031 52.367188 52.277344 52.457031 52.105469 C 52.761719 51.609375 53.195312 51.28125 53.757812 51.125 C 54.292969 50.953125 54.835938 50.933594 55.382812 51.070312 L 55.671875 51.144531 Z M 11.765625 44.554688 C 11.765625 44.554688 11.761719 44.574219 11.765625 44.554688 Z M 12.484375 47.402344 Z M 12.289062 46.621094 C 12.289062 46.621094 12.277344 46.640625 12.28125 46.621094 Z M 13.566406 51.738281 Z M 14.601562 55.917969 L 14.460938 55.363281 Z M 15.1875 58.277344 Z M 14.992188 57.5 C 14.992188 57.5 14.976562 57.515625 14.980469 57.5 Z M 39.828125 41.964844 L 39.828125 41.835938 C 39.828125 41.835938 39.828125 41.835938 39.871094 41.835938 L 43.25 41.167969 C 43.308594 41.167969 43.3125 41.167969 43.320312 41.203125 L 43.34375 41.304688 C 43.351562 41.3125 43.351562 41.320312 43.34375 41.328125 C 43.34375 41.328125 43.34375 41.347656 43.296875 41.355469 L 41.746094 41.660156 L 42.710938 45.832031 C 42.710938 45.832031 42.679688 45.859375 42.640625 45.863281 L 42.472656 45.898438 C 42.472656 45.898438 42.441406 45.898438 42.433594 45.863281 L 41.460938 41.71875 L 39.917969 42.019531 C 39.832031 42.011719 39.824219 41.992188 39.816406 41.964844 Z M 39.109375 42.15625 L 36.195312 42.734375 L 36.621094 44.582031 L 39.15625 44.078125 C 39.214844 44.078125 39.21875 44.078125 39.222656 44.109375 L 39.246094 44.246094 C 39.234375 44.257812 39.21875 44.265625 39.199219 44.265625 L 36.664062 44.78125 L 37.125 46.753906 L 40.042969 46.175781 C 40.105469 46.175781 40.109375 46.175781 40.113281 46.207031 L 40.136719 46.304688 C 40.136719 46.304688 40.136719 46.328125 40.136719 46.332031 C 40.136719 46.332031 40.136719 46.332031 40.09375 46.332031 L 36.953125 46.953125 L 36.914062 46.953125 C 36.914062 46.953125 36.882812 46.953125 36.875 46.921875 L 35.871094 42.59375 C 35.871094 42.59375 35.871094 42.574219 35.921875 42.570312 L 39.066406 41.945312 L 39.097656 41.945312 C 39.121094 41.941406 39.132812 41.953125 39.136719 41.976562 L 39.160156 42.113281 C 39.148438 42.136719 39.132812 42.148438 39.109375 42.15625 Z M 35.765625 47.175781 C 35.765625 47.175781 35.765625 47.175781 35.71875 47.195312 L 35.472656 47.246094 C 35.414062 47.253906 35.363281 47.246094 35.3125 47.222656 L 32.046875 45.589844 L 32.554688 47.804688 C 32.554688 47.804688 32.554688 47.804688 32.492188 47.832031 L 32.308594 47.871094 C 32.308594 47.871094 32.273438 47.871094 32.269531 47.835938 L 31.265625 43.554688 L 31.089844 43.59375 L 31.265625 43.515625 C 31.285156 43.5 31.304688 43.492188 31.328125 43.488281 L 31.46875 43.460938 C 31.527344 43.460938 31.546875 43.460938 31.554688 43.5 L 32.039062 45.554688 L 34.285156 42.945312 C 34.320312 42.910156 34.363281 42.886719 34.410156 42.878906 L 34.636719 42.835938 C 34.664062 42.835938 34.667969 42.835938 34.664062 42.855469 L 32.371094 45.5 Z M 29.929688 44.476562 C 29.929688 44.476562 29.898438 44.511719 29.839844 44.476562 C 29.261719 44.21875 28.664062 44.15625 28.042969 44.285156 C 27.378906 44.390625 26.835938 44.707031 26.414062 45.238281 C 26.011719 45.703125 25.882812 46.238281 26.023438 46.839844 C 26.171875 47.449219 26.53125 47.882812 27.101562 48.140625 C 27.707031 48.449219 28.339844 48.53125 29.007812 48.390625 C 29.617188 48.261719 30.132812 47.96875 30.558594 47.511719 C 30.578125 47.488281 30.601562 47.480469 30.632812 47.480469 L 30.816406 47.578125 C 30.816406 47.578125 30.816406 47.578125 30.816406 47.601562 C 30.351562 48.144531 29.769531 48.472656 29.066406 48.585938 C 28.324219 48.75 27.613281 48.660156 26.933594 48.320312 C 26.300781 48.035156 25.902344 47.554688 25.742188 46.878906 C 25.59375 46.226562 25.738281 45.644531 26.175781 45.140625 C 26.652344 44.5625 27.261719 44.210938 28 44.082031 C 28.238281 44.039062 28.476562 44.015625 28.71875 44.015625 C 29.175781 44.011719 29.613281 44.105469 30.027344 44.296875 C 30.050781 44.296875 30.0625 44.296875 30.054688 44.339844 Z M 24.871094 49.335938 C 24.855469 49.347656 24.835938 49.359375 24.816406 49.363281 L 24.625 49.394531 C 24.625 49.394531 24.589844 49.394531 24.585938 49.367188 L 23.582031 45.039062 C 23.582031 45.039062 23.609375 45.039062 23.625 45.039062 L 23.796875 45.003906 L 23.828125 45.003906 C 23.851562 45 23.863281 45.011719 23.867188 45.035156 Z M 22.617188 45.367188 C 22.621094 45.375 22.621094 45.382812 22.617188 45.394531 C 22.605469 45.402344 22.589844 45.410156 22.570312 45.414062 L 21.023438 45.722656 L 21.988281 49.890625 C 21.988281 49.910156 21.941406 49.917969 21.914062 49.921875 L 21.746094 49.953125 C 21.746094 49.953125 21.714844 49.953125 21.707031 49.921875 L 20.738281 45.773438 L 19.195312 46.082031 C 19.144531 46.082031 19.128906 46.082031 19.125 46.039062 L 19.125 45.910156 C 19.125 45.910156 19.148438 45.910156 19.167969 45.910156 L 22.542969 45.246094 C 22.601562 45.246094 22.609375 45.246094 22.609375 45.273438 Z M 50.71875 48.433594 Z M 48.949219 41.390625 C 48.949219 41.390625 48.949219 41.40625 48.949219 41.390625 Z M 49.664062 44.234375 Z M 47.347656 34.910156 C 47.347656 34.910156 47.351562 34.925781 47.355469 34.910156 Z M 47.347656 34.910156 " fill-opacity="1" fill-rule="nonzero"/><g clip-path="url(#id4)"><path fill="#004aad" d="M 14.660156 56.183594 C 14.636719 56.1875 14.613281 56.1875 14.589844 56.183594 C 14.460938 56.1875 14.375 56.128906 14.335938 56.003906 L 14.140625 55.214844 C 14.136719 55.199219 14.136719 55.183594 14.140625 55.167969 C 14.144531 55.03125 14.21875 54.953125 14.351562 54.929688 C 14.425781 54.914062 14.496094 54.921875 14.5625 54.960938 C 14.617188 54.992188 14.652344 55.039062 14.667969 55.101562 L 14.867188 55.894531 C 14.871094 55.910156 14.871094 55.929688 14.867188 55.949219 C 14.859375 56.082031 14.789062 56.160156 14.660156 56.183594 Z M 15.4375 58.226562 L 15.242188 57.433594 C 15.1875 57.277344 15.085938 57.21875 14.925781 57.261719 C 14.847656 57.277344 14.785156 57.320312 14.742188 57.390625 C 14.722656 57.425781 14.714844 57.460938 14.714844 57.5 C 14.710938 57.515625 14.710938 57.53125 14.714844 57.550781 L 14.910156 58.34375 C 14.925781 58.40625 14.960938 58.453125 15.019531 58.484375 C 15.0625 58.507812 15.109375 58.523438 15.15625 58.523438 L 15.222656 58.523438 C 15.300781 58.507812 15.363281 58.46875 15.410156 58.398438 C 15.425781 58.363281 15.4375 58.328125 15.4375 58.289062 C 15.441406 58.273438 15.441406 58.253906 15.4375 58.238281 Z M 31.082031 47.515625 C 31.058594 47.429688 31.003906 47.367188 30.921875 47.332031 L 30.757812 47.246094 L 30.734375 47.246094 C 30.59375 47.199219 30.476562 47.230469 30.375 47.34375 C 29.988281 47.757812 29.515625 48.023438 28.960938 48.140625 C 28.359375 48.273438 27.78125 48.203125 27.234375 47.921875 C 26.742188 47.695312 26.429688 47.320312 26.300781 46.792969 C 26.273438 46.671875 26.261719 46.554688 26.261719 46.429688 C 26.269531 46.046875 26.394531 45.710938 26.640625 45.417969 C 27.019531 44.945312 27.511719 44.660156 28.109375 44.566406 C 28.671875 44.445312 29.214844 44.503906 29.742188 44.734375 C 29.8125 44.777344 29.886719 44.792969 29.964844 44.777344 C 30.046875 44.761719 30.109375 44.71875 30.15625 44.652344 L 30.261719 44.515625 C 30.300781 44.464844 30.324219 44.402344 30.324219 44.335938 C 30.324219 44.3125 30.324219 44.289062 30.324219 44.265625 C 30.292969 44.171875 30.234375 44.105469 30.144531 44.066406 C 29.441406 43.75 28.714844 43.671875 27.960938 43.832031 C 27.164062 43.96875 26.503906 44.347656 25.980469 44.96875 C 25.617188 45.394531 25.433594 45.882812 25.425781 46.441406 C 25.425781 46.617188 25.445312 46.789062 25.484375 46.960938 C 25.667969 47.714844 26.109375 48.25 26.8125 48.566406 C 27.296875 48.8125 27.8125 48.929688 28.355469 48.925781 C 28.613281 48.925781 28.871094 48.898438 29.125 48.847656 C 29.890625 48.722656 30.523438 48.359375 31.027344 47.765625 C 31.097656 47.691406 31.117188 47.605469 31.09375 47.503906 Z M 14.324219 53.984375 C 14.34375 53.953125 14.351562 53.917969 14.355469 53.882812 C 14.355469 53.863281 14.355469 53.847656 14.355469 53.832031 L 14.140625 53.039062 C 14.125 52.976562 14.089844 52.929688 14.035156 52.898438 C 13.964844 52.859375 13.894531 52.851562 13.820312 52.867188 C 13.6875 52.890625 13.617188 52.96875 13.609375 53.105469 C 13.605469 53.121094 13.605469 53.136719 13.609375 53.152344 L 13.804688 53.945312 C 13.84375 54.070312 13.929688 54.132812 14.058594 54.125 C 14.082031 54.128906 14.105469 54.128906 14.128906 54.125 C 14.214844 54.109375 14.28125 54.0625 14.324219 53.984375 Z M 22.878906 45.332031 L 22.855469 45.226562 C 22.835938 45.140625 22.792969 45.074219 22.714844 45.027344 C 22.640625 44.976562 22.558594 44.964844 22.476562 44.988281 L 19.09375 45.65625 C 19 45.671875 18.929688 45.71875 18.875 45.796875 C 18.84375 45.84375 18.828125 45.898438 18.828125 45.957031 C 18.824219 45.980469 18.824219 46.007812 18.828125 46.035156 L 18.851562 46.128906 C 18.867188 46.214844 18.914062 46.285156 18.992188 46.332031 C 19.066406 46.382812 19.148438 46.398438 19.234375 46.378906 L 20.523438 46.117188 L 21.433594 50.011719 C 21.46875 50.175781 21.570312 50.253906 21.734375 50.253906 L 21.816406 50.253906 L 21.953125 50.226562 C 22.058594 50.210938 22.140625 50.164062 22.203125 50.078125 C 22.234375 50.027344 22.246094 49.976562 22.25 49.917969 C 22.25 49.894531 22.25 49.867188 22.25 49.84375 L 21.34375 45.96875 L 22.628906 45.714844 C 22.722656 45.695312 22.792969 45.648438 22.847656 45.574219 C 22.875 45.527344 22.890625 45.476562 22.890625 45.421875 C 22.894531 45.398438 22.894531 45.375 22.890625 45.347656 Z M 25.132812 49.265625 L 24.128906 44.96875 C 24.109375 44.882812 24.0625 44.816406 23.988281 44.769531 C 23.910156 44.726562 23.832031 44.714844 23.746094 44.738281 L 23.574219 44.773438 C 23.480469 44.785156 23.40625 44.832031 23.355469 44.914062 C 23.324219 44.960938 23.308594 45.015625 23.308594 45.070312 C 23.304688 45.097656 23.304688 45.125 23.308594 45.152344 L 24.3125 49.441406 C 24.34375 49.609375 24.445312 49.691406 24.613281 49.683594 L 24.691406 49.683594 L 24.859375 49.648438 C 24.957031 49.632812 25.03125 49.585938 25.085938 49.507812 C 25.117188 49.460938 25.132812 49.410156 25.128906 49.351562 C 25.132812 49.328125 25.132812 49.304688 25.128906 49.28125 Z M 13.308594 49.6875 C 13.3125 49.671875 13.3125 49.65625 13.308594 49.640625 L 13.113281 48.847656 C 13.09375 48.785156 13.058594 48.738281 13.003906 48.707031 C 12.84375 48.617188 12.710938 48.652344 12.609375 48.804688 C 12.589844 48.835938 12.582031 48.875 12.582031 48.914062 C 12.578125 48.929688 12.578125 48.945312 12.582031 48.960938 L 12.777344 49.757812 C 12.816406 49.882812 12.902344 49.945312 13.035156 49.9375 C 13.054688 49.941406 13.078125 49.941406 13.097656 49.9375 C 13.246094 49.910156 13.316406 49.820312 13.308594 49.667969 Z M 11.699219 43.195312 C 11.699219 43.179688 11.699219 43.164062 11.699219 43.148438 L 11.5 42.355469 C 11.484375 42.292969 11.449219 42.246094 11.394531 42.214844 C 11.328125 42.179688 11.257812 42.167969 11.183594 42.1875 C 11.046875 42.210938 10.976562 42.289062 10.96875 42.425781 C 10.96875 42.441406 10.96875 42.457031 10.96875 42.472656 L 11.167969 43.265625 C 11.207031 43.390625 11.292969 43.449219 11.421875 43.445312 C 11.445312 43.449219 11.46875 43.449219 11.492188 43.445312 C 11.628906 43.417969 11.699219 43.332031 11.699219 43.1875 Z M 11.183594 41.132812 C 11.1875 41.117188 11.1875 41.101562 11.183594 41.085938 L 10.988281 40.292969 C 10.9375 40.132812 10.832031 40.074219 10.667969 40.121094 C 10.535156 40.144531 10.464844 40.226562 10.457031 40.363281 C 10.457031 40.378906 10.457031 40.394531 10.457031 40.410156 L 10.65625 41.203125 C 10.671875 41.261719 10.707031 41.308594 10.761719 41.34375 C 10.804688 41.367188 10.855469 41.382812 10.90625 41.382812 C 10.929688 41.386719 10.949219 41.386719 10.972656 41.382812 C 11.117188 41.359375 11.1875 41.273438 11.183594 41.125 Z M 35.871094 46.941406 L 32.800781 45.429688 L 34.863281 43.046875 C 34.910156 42.992188 34.933594 42.929688 34.933594 42.855469 C 34.933594 42.800781 34.917969 42.75 34.890625 42.703125 C 34.8125 42.589844 34.707031 42.546875 34.574219 42.578125 L 34.351562 42.621094 C 34.246094 42.644531 34.15625 42.695312 34.082031 42.773438 L 32.171875 44.988281 L 31.8125 43.449219 C 31.792969 43.359375 31.742188 43.289062 31.664062 43.238281 C 31.582031 43.191406 31.5 43.179688 31.410156 43.207031 L 31.269531 43.234375 C 31.171875 43.25 31.09375 43.296875 31.035156 43.378906 C 31.007812 43.429688 30.992188 43.488281 30.992188 43.546875 C 30.988281 43.574219 30.988281 43.597656 30.992188 43.625 L 31.992188 47.910156 C 32.027344 48.074219 32.125 48.15625 32.292969 48.152344 L 32.375 48.152344 L 32.527344 48.121094 C 32.628906 48.109375 32.710938 48.0625 32.765625 47.976562 C 32.796875 47.925781 32.8125 47.875 32.8125 47.816406 C 32.816406 47.789062 32.816406 47.765625 32.8125 47.738281 L 32.441406 46.097656 L 35.195312 47.476562 C 35.300781 47.527344 35.410156 47.542969 35.527344 47.523438 L 35.773438 47.472656 C 35.917969 47.457031 36.003906 47.378906 36.03125 47.238281 C 36.035156 47.21875 36.035156 47.195312 36.03125 47.175781 C 36.027344 47.0625 35.972656 46.988281 35.871094 46.941406 Z M 12.1875 45.46875 C 12.207031 45.433594 12.21875 45.398438 12.21875 45.355469 C 12.21875 45.339844 12.21875 45.320312 12.21875 45.300781 L 12.023438 44.507812 C 11.96875 44.355469 11.863281 44.300781 11.710938 44.339844 C 11.628906 44.351562 11.570312 44.394531 11.527344 44.460938 C 11.503906 44.496094 11.496094 44.535156 11.492188 44.574219 C 11.492188 44.589844 11.492188 44.609375 11.492188 44.625 L 11.691406 45.421875 C 11.730469 45.542969 11.816406 45.601562 11.941406 45.597656 C 11.964844 45.601562 11.984375 45.601562 12.003906 45.597656 C 12.09375 45.582031 12.15625 45.53125 12.199219 45.449219 Z M 13.8125 51.753906 C 13.8125 51.738281 13.8125 51.722656 13.8125 51.707031 L 13.613281 50.914062 C 13.5625 50.753906 13.457031 50.695312 13.296875 50.742188 C 13.214844 50.757812 13.152344 50.804688 13.113281 50.875 C 13.09375 50.90625 13.085938 50.941406 13.082031 50.980469 C 13.082031 50.996094 13.082031 51.011719 13.082031 51.027344 L 13.28125 51.824219 C 13.296875 51.882812 13.332031 51.929688 13.390625 51.964844 C 13.433594 51.988281 13.480469 52.003906 13.53125 52.003906 C 13.554688 52.007812 13.578125 52.007812 13.601562 52.003906 C 13.757812 51.984375 13.832031 51.894531 13.824219 51.734375 Z M 12.703125 47.507812 C 12.722656 47.476562 12.730469 47.441406 12.730469 47.402344 C 12.734375 47.382812 12.734375 47.367188 12.730469 47.351562 L 12.535156 46.558594 C 12.484375 46.398438 12.378906 46.34375 12.21875 46.382812 C 12.140625 46.402344 12.078125 46.445312 12.035156 46.515625 C 12.015625 46.546875 12.007812 46.582031 12.007812 46.621094 C 12.003906 46.640625 12.003906 46.65625 12.007812 46.671875 L 12.199219 47.46875 C 12.242188 47.589844 12.324219 47.648438 12.449219 47.644531 C 12.472656 47.648438 12.496094 47.648438 12.519531 47.644531 C 12.601562 47.625 12.660156 47.582031 12.703125 47.507812 Z M 50.976562 48.441406 C 50.980469 48.425781 50.980469 48.410156 50.976562 48.394531 L 50.78125 47.597656 C 50.722656 47.449219 50.617188 47.394531 50.464844 47.4375 C 50.402344 47.457031 50.351562 47.488281 50.308594 47.539062 C 50.277344 47.578125 50.261719 47.621094 50.261719 47.671875 C 50.257812 47.6875 50.257812 47.707031 50.261719 47.722656 L 50.457031 48.515625 C 50.476562 48.578125 50.511719 48.625 50.566406 48.65625 C 50.609375 48.683594 50.65625 48.695312 50.710938 48.695312 C 50.730469 48.699219 50.753906 48.699219 50.777344 48.695312 C 50.921875 48.671875 50.992188 48.585938 50.988281 48.441406 Z M 51.550781 50.722656 L 51.351562 49.929688 C 51.335938 49.867188 51.300781 49.820312 51.242188 49.789062 C 51.175781 49.75 51.105469 49.738281 51.03125 49.757812 C 50.898438 49.78125 50.828125 49.863281 50.820312 49.996094 C 50.820312 50.011719 50.820312 50.027344 50.820312 50.042969 L 51.019531 50.839844 C 51.058594 50.957031 51.144531 51.015625 51.273438 51.011719 C 51.292969 51.015625 51.316406 51.015625 51.335938 51.011719 C 51.417969 50.992188 51.480469 50.949219 51.519531 50.878906 C 51.539062 50.847656 51.546875 50.8125 51.546875 50.777344 C 51.550781 50.761719 51.550781 50.742188 51.546875 50.726562 Z M 50.472656 46.394531 C 50.472656 46.378906 50.472656 46.363281 50.472656 46.34375 L 50.273438 45.550781 C 50.257812 45.488281 50.222656 45.441406 50.164062 45.410156 C 50.097656 45.371094 50.027344 45.363281 49.957031 45.382812 C 49.878906 45.398438 49.816406 45.441406 49.773438 45.507812 C 49.753906 45.542969 49.746094 45.578125 49.742188 45.617188 C 49.742188 45.632812 49.742188 45.648438 49.742188 45.667969 L 49.941406 46.460938 C 49.980469 46.585938 50.0625 46.648438 50.195312 46.640625 C 50.21875 46.644531 50.238281 46.644531 50.261719 46.640625 C 50.410156 46.617188 50.480469 46.527344 50.476562 46.378906 Z M 49.910156 44.359375 C 49.925781 44.328125 49.9375 44.292969 49.9375 44.253906 C 49.941406 44.234375 49.941406 44.21875 49.9375 44.203125 L 49.742188 43.410156 C 49.6875 43.277344 49.589844 43.21875 49.449219 43.234375 C 49.304688 43.253906 49.226562 43.335938 49.210938 43.476562 C 49.207031 43.492188 49.207031 43.507812 49.210938 43.523438 L 49.40625 44.320312 C 49.445312 44.441406 49.527344 44.5 49.65625 44.5 C 49.679688 44.5 49.703125 44.5 49.726562 44.5 C 49.8125 44.476562 49.875 44.421875 49.914062 44.34375 Z M 50.742188 30.15625 L 56.050781 51.535156 L 55.5625 51.339844 C 54.996094 51.128906 54.425781 51.117188 53.851562 51.304688 C 53.359375 51.4375 52.980469 51.722656 52.707031 52.15625 C 52.597656 52.351562 52.542969 52.558594 52.542969 52.78125 C 52.542969 52.90625 52.5625 53.023438 52.597656 53.140625 C 52.738281 53.589844 53.015625 53.917969 53.433594 54.128906 L 53.984375 54.429688 L 53.742188 54.476562 L 15.789062 62.34375 L 15.8125 62.035156 C 15.8125 61.988281 15.8125 61.9375 15.8125 61.890625 C 15.792969 61.46875 15.65625 61.089844 15.402344 60.753906 C 15.144531 60.417969 14.816406 60.1875 14.414062 60.0625 C 13.890625 59.882812 13.355469 59.84375 12.808594 59.949219 C 12.265625 60.050781 11.78125 60.285156 11.359375 60.648438 L 11 60.953125 L 10.964844 60.808594 L 5.644531 39.371094 L 6.140625 39.566406 C 6.664062 39.757812 7.199219 39.796875 7.746094 39.683594 C 8.292969 39.570312 8.765625 39.324219 9.171875 38.9375 C 9.527344 38.589844 9.710938 38.164062 9.722656 37.664062 L 9.722656 37.617188 C 9.699219 37.128906 9.503906 36.726562 9.140625 36.402344 L 8.820312 36.097656 L 8.988281 36.066406 L 46.921875 28.191406 L 46.597656 28.667969 C 46.390625 28.957031 46.285156 29.28125 46.28125 29.636719 C 46.28125 29.75 46.292969 29.859375 46.316406 29.96875 C 46.421875 30.4375 46.6875 30.785156 47.101562 31.019531 C 47.625 31.300781 48.179688 31.386719 48.765625 31.273438 C 49.398438 31.179688 49.921875 30.890625 50.339844 30.402344 L 50.699219 29.972656 Z M 52.679688 54.21875 C 52.242188 53.847656 52.019531 53.375 52.007812 52.800781 C 52.007812 52.5 52.082031 52.222656 52.226562 51.964844 C 52.5625 51.410156 53.042969 51.039062 53.664062 50.855469 C 54.199219 50.683594 54.742188 50.652344 55.292969 50.765625 L 50.40625 31.054688 C 49.945312 31.425781 49.429688 31.660156 48.847656 31.753906 C 48.125 31.886719 47.441406 31.78125 46.792969 31.4375 C 46.472656 31.257812 46.222656 31.007812 46.035156 30.691406 C 45.847656 30.375 45.753906 30.035156 45.75 29.664062 C 45.75 29.402344 45.796875 29.148438 45.894531 28.90625 L 9.832031 36.371094 C 10.121094 36.742188 10.265625 37.167969 10.269531 37.640625 C 10.257812 38.261719 10.03125 38.789062 9.59375 39.226562 C 9.167969 39.636719 8.675781 39.921875 8.109375 40.082031 C 7.546875 40.242188 6.976562 40.261719 6.402344 40.132812 L 11.351562 60.039062 C 11.992188 59.621094 12.691406 59.414062 13.453125 59.417969 C 13.871094 59.414062 14.273438 59.484375 14.664062 59.628906 C 15.132812 59.777344 15.523438 60.046875 15.832031 60.429688 C 16.144531 60.816406 16.320312 61.257812 16.363281 61.75 Z M 61.691406 52.832031 L 61.199219 52.644531 C 60.488281 52.375 59.769531 52.359375 59.046875 52.597656 C 58.429688 52.773438 57.953125 53.136719 57.609375 53.679688 C 57.386719 54.078125 57.339844 54.496094 57.464844 54.933594 C 57.648438 55.496094 58 55.910156 58.523438 56.179688 L 59.074219 56.476562 L 58.832031 56.523438 L 12.441406 66.128906 L 12.464844 65.816406 C 12.550781 64.734375 11.867188 63.773438 10.726562 63.347656 C 10.070312 63.117188 9.398438 63.066406 8.714844 63.195312 C 8.03125 63.324219 7.425781 63.617188 6.898438 64.070312 L 6.539062 64.375 L 6.503906 64.230469 L 0.015625 38.09375 L 0.503906 38.289062 C 1.15625 38.53125 1.828125 38.585938 2.511719 38.445312 C 3.195312 38.300781 3.789062 37.988281 4.296875 37.503906 C 4.757812 37.050781 4.984375 36.496094 4.980469 35.847656 C 4.957031 35.238281 4.714844 34.726562 4.261719 34.320312 L 3.9375 34.023438 L 50.449219 24.382812 L 50.125 24.859375 C 49.761719 25.351562 49.644531 25.898438 49.765625 26.5 C 49.898438 27.09375 50.230469 27.535156 50.757812 27.832031 C 51.417969 28.1875 52.113281 28.292969 52.84375 28.152344 C 53.632812 28.035156 54.289062 27.675781 54.816406 27.070312 L 55.171875 26.640625 L 55.214844 26.8125 Z M 57.136719 53.476562 C 57.550781 52.808594 58.132812 52.367188 58.882812 52.152344 C 59.5625 51.929688 60.25 51.898438 60.949219 52.058594 L 54.882812 27.695312 C 54.316406 28.183594 53.664062 28.488281 52.925781 28.605469 C 52.054688 28.769531 51.230469 28.636719 50.449219 28.214844 C 50.183594 28.070312 49.953125 27.878906 49.753906 27.644531 C 49.558594 27.410156 49.414062 27.144531 49.316406 26.855469 C 49.21875 26.566406 49.179688 26.265625 49.195312 25.960938 C 49.210938 25.652344 49.28125 25.363281 49.40625 25.082031 L 4.949219 34.292969 C 5.15625 34.542969 5.308594 34.828125 5.40625 35.136719 C 5.503906 35.449219 5.542969 35.765625 5.519531 36.089844 C 5.5 36.417969 5.417969 36.726562 5.277344 37.019531 C 5.136719 37.316406 4.945312 37.574219 4.707031 37.792969 C 4.183594 38.296875 3.570312 38.644531 2.871094 38.835938 C 2.171875 39.027344 1.46875 39.042969 0.761719 38.875 L 6.859375 63.46875 C 7.648438 62.925781 8.519531 62.65625 9.472656 62.65625 C 9.976562 62.652344 10.464844 62.738281 10.9375 62.910156 C 12.171875 63.375 12.949219 64.355469 12.992188 65.527344 L 57.742188 56.261719 C 57.53125 56.105469 57.355469 55.917969 57.214844 55.699219 C 57.070312 55.480469 56.972656 55.242188 56.914062 54.984375 C 56.859375 54.730469 56.847656 54.472656 56.886719 54.210938 C 56.921875 53.953125 57.003906 53.707031 57.128906 53.476562 Z M 47.804688 35.808594 C 47.824219 35.773438 47.835938 35.738281 47.835938 35.699219 C 47.839844 35.683594 47.839844 35.664062 47.835938 35.648438 L 47.636719 34.855469 C 47.621094 34.792969 47.585938 34.746094 47.53125 34.714844 C 47.464844 34.675781 47.394531 34.667969 47.320312 34.6875 C 47.242188 34.703125 47.183594 34.746094 47.140625 34.8125 C 47.121094 34.84375 47.109375 34.882812 47.109375 34.921875 C 47.105469 34.9375 47.105469 34.953125 47.109375 34.96875 L 47.308594 35.769531 C 47.347656 35.890625 47.433594 35.949219 47.5625 35.945312 C 47.582031 35.949219 47.601562 35.949219 47.625 35.945312 C 47.699219 35.917969 47.753906 35.867188 47.789062 35.796875 Z M 49.417969 42.296875 C 49.4375 42.261719 49.445312 42.226562 49.445312 42.1875 C 49.449219 42.167969 49.449219 42.152344 49.445312 42.136719 L 49.25 41.339844 C 49.195312 41.1875 49.09375 41.128906 48.9375 41.167969 C 48.855469 41.183594 48.796875 41.222656 48.753906 41.292969 C 48.730469 41.328125 48.722656 41.363281 48.722656 41.402344 C 48.71875 41.421875 48.71875 41.441406 48.722656 41.457031 L 48.917969 42.25 C 48.9375 42.316406 48.972656 42.363281 49.03125 42.390625 C 49.070312 42.417969 49.117188 42.429688 49.167969 42.433594 C 49.1875 42.4375 49.210938 42.4375 49.230469 42.433594 C 49.308594 42.40625 49.363281 42.355469 49.398438 42.285156 Z M 43.566406 41.117188 C 43.546875 41.03125 43.496094 40.964844 43.421875 40.917969 C 43.347656 40.875 43.269531 40.863281 43.183594 40.886719 L 39.804688 41.550781 C 39.710938 41.566406 39.636719 41.613281 39.585938 41.691406 C 39.554688 41.742188 39.539062 41.792969 39.539062 41.851562 C 39.535156 41.878906 39.535156 41.902344 39.539062 41.929688 L 39.558594 42.023438 C 39.578125 42.113281 39.625 42.183594 39.699219 42.230469 C 39.777344 42.277344 39.859375 42.289062 39.949219 42.265625 L 41.230469 42.011719 L 42.128906 45.90625 C 42.160156 46.074219 42.261719 46.15625 42.429688 46.148438 L 42.507812 46.148438 L 42.652344 46.117188 C 42.753906 46.101562 42.835938 46.054688 42.894531 45.96875 C 42.925781 45.921875 42.941406 45.871094 42.941406 45.816406 C 42.945312 45.789062 42.945312 45.765625 42.941406 45.738281 L 42.035156 41.863281 L 43.316406 41.609375 C 43.410156 41.59375 43.484375 41.546875 43.539062 41.46875 C 43.585938 41.394531 43.597656 41.316406 43.574219 41.230469 Z M 40.390625 46.132812 C 40.371094 46.046875 40.324219 45.980469 40.25 45.933594 C 40.171875 45.886719 40.09375 45.875 40.007812 45.898438 L 37.34375 46.425781 L 37.003906 44.984375 L 39.269531 44.539062 C 39.363281 44.523438 39.433594 44.476562 39.488281 44.398438 C 39.519531 44.347656 39.535156 44.292969 39.535156 44.234375 C 39.539062 44.210938 39.539062 44.183594 39.535156 44.160156 L 39.507812 44.054688 C 39.492188 43.96875 39.445312 43.902344 39.371094 43.851562 C 39.296875 43.804688 39.214844 43.792969 39.128906 43.816406 L 36.851562 44.269531 L 36.542969 42.953125 L 39.191406 42.429688 C 39.28125 42.410156 39.355469 42.363281 39.410156 42.289062 C 39.4375 42.238281 39.453125 42.1875 39.457031 42.128906 C 39.460938 42.101562 39.460938 42.074219 39.457031 42.050781 L 39.429688 41.945312 C 39.414062 41.859375 39.367188 41.789062 39.292969 41.742188 C 39.214844 41.695312 39.136719 41.683594 39.050781 41.707031 L 35.898438 42.332031 C 35.808594 42.347656 35.734375 42.394531 35.675781 42.472656 C 35.648438 42.519531 35.632812 42.574219 35.628906 42.628906 C 35.628906 42.65625 35.628906 42.683594 35.628906 42.710938 L 36.636719 47.003906 C 36.667969 47.167969 36.769531 47.25 36.9375 47.246094 L 37.019531 47.246094 L 40.167969 46.625 C 40.261719 46.613281 40.335938 46.566406 40.390625 46.484375 C 40.433594 46.410156 40.445312 46.332031 40.425781 46.246094 Z M 47.320312 33.621094 C 47.324219 33.605469 47.324219 33.589844 47.320312 33.574219 L 47.125 32.78125 C 47.066406 32.628906 46.960938 32.574219 46.804688 32.613281 C 46.726562 32.628906 46.664062 32.675781 46.621094 32.746094 C 46.601562 32.777344 46.59375 32.8125 46.59375 32.851562 C 46.589844 32.867188 46.589844 32.882812 46.59375 32.902344 L 46.789062 33.695312 C 46.832031 33.820312 46.914062 33.878906 47.046875 33.875 C 47.066406 33.878906 47.085938 33.878906 47.105469 33.875 C 47.238281 33.84375 47.304688 33.757812 47.308594 33.621094 Z M 48.367188 37.832031 C 48.367188 37.816406 48.367188 37.800781 48.367188 37.785156 L 48.167969 36.988281 C 48.117188 36.828125 48.007812 36.769531 47.84375 36.816406 C 47.714844 36.84375 47.644531 36.921875 47.636719 37.058594 C 47.636719 37.074219 47.636719 37.089844 47.636719 37.105469 L 47.835938 37.898438 C 47.851562 37.960938 47.886719 38.007812 47.941406 38.039062 C 47.988281 38.066406 48.035156 38.078125 48.085938 38.078125 C 48.109375 38.082031 48.132812 38.082031 48.15625 38.078125 C 48.285156 38.046875 48.351562 37.964844 48.351562 37.832031 Z M 48.878906 39.894531 C 48.882812 39.878906 48.882812 39.863281 48.878906 39.847656 L 48.683594 39.054688 C 48.667969 38.988281 48.628906 38.941406 48.574219 38.914062 C 48.511719 38.875 48.445312 38.867188 48.375 38.882812 C 48.238281 38.90625 48.167969 38.984375 48.160156 39.121094 C 48.160156 39.136719 48.160156 39.152344 48.160156 39.167969 L 48.359375 39.960938 C 48.398438 40.085938 48.484375 40.144531 48.613281 40.140625 C 48.636719 40.144531 48.660156 40.144531 48.683594 40.140625 C 48.804688 40.105469 48.863281 40.023438 48.863281 39.894531 Z M 48.878906 39.894531 " fill-opacity="1" fill-rule="nonzero"/></g></svg>