<svg width="47" height="47" viewBox="0 0 47 47" fill="none" xmlns="http://www.w3.org/2000/svg">
<path d="M19.3588 13.3768C17.5187 18.9181 6.63477 21.6647 6.63477 32.3516C6.63477 40.7842 14.4546 45.603 23.4977 45.603H23.7417C32.7848 45.603 40.6046 40.7842 40.6046 32.3516C40.6046 21.7358 29.865 18.9548 27.9187 13.4871L27.5945 10.1819L27.695 10.1195C28.4197 8.76498 30.7031 6.26766 31.367 4.25702C33.5313 -2.30233 21.7614 3.68084 14.9969 2.3167C14.3395 2.18485 18.0861 6.46505 19.6846 10.1819L19.3588 13.3768Z" fill="#00B495"/>
<path d="M23.7411 46.3358H23.4971C18.7648 46.3358 14.4086 45.054 11.2302 42.7277C7.73571 40.1696 5.88916 36.5815 5.88916 32.35C5.88916 29.2334 6.76866 26.4843 8.57712 23.9463C10.1327 21.763 12.1713 20.0281 13.9701 18.4969C16.1141 16.6717 17.9696 15.0926 18.6253 13.2194L18.9236 10.2961C18.0271 8.28708 16.4821 6.07906 15.451 4.60384C15.0895 4.0868 14.7774 3.64088 14.565 3.30684C14.3081 2.90247 13.9887 2.39981 14.3073 1.92432C14.4888 1.65341 14.8107 1.52715 15.1454 1.59508C17.6461 2.09933 20.9923 1.52315 23.9445 1.0141C27.6457 0.376385 30.5688 -0.127074 31.8301 1.30659C32.4623 2.02501 32.5426 3.0639 32.0749 4.48157C31.6169 5.86888 30.5226 7.36727 29.5579 8.68985C29.0716 9.35633 28.6112 9.98766 28.3672 10.4344L28.6509 13.3233C29.3383 15.1517 31.1621 16.7044 33.2689 18.4977C35.0676 20.0289 37.1055 21.7638 38.6618 23.9471C40.4703 26.4851 41.3498 29.2342 41.3498 32.3508C41.3498 36.5815 39.5032 40.1704 36.0087 42.7285C32.8295 45.0548 28.4734 46.3358 23.7411 46.3358ZM16.2965 3.22373C16.4213 3.40353 16.5518 3.58973 16.6775 3.77034C17.7726 5.33586 19.4278 7.70131 20.3706 9.89336C20.4192 10.0068 20.4387 10.1307 20.4257 10.2538L20.0998 13.4487C20.0942 13.5015 20.0836 13.5534 20.0666 13.6038C19.3054 15.8965 17.1865 17.7002 14.9436 19.6093C11.398 22.6277 7.37905 26.048 7.37905 32.3508C7.37905 36.0988 9.01809 39.2794 12.1186 41.5489C15.0417 43.689 19.0825 44.8678 23.4971 44.8678H23.7411C28.1556 44.8678 32.1965 43.689 35.1195 41.5489C38.22 39.2794 39.8591 36.098 39.8591 32.3508C39.8591 26.048 35.8401 22.6277 32.2945 19.6093C30.0913 17.7337 28.0097 15.962 27.2145 13.7292C27.195 13.6733 27.1821 13.6158 27.1756 13.5566L26.8513 10.2514C26.827 10.002 26.9332 9.7591 27.1294 9.60567C27.4212 9.10221 27.8541 8.50924 28.3477 7.83317C29.2045 6.65923 30.2713 5.1976 30.6571 4.02846C30.8557 3.42751 31.0243 2.63556 30.7041 2.27115C29.9949 1.46482 26.9162 1.99545 24.2007 2.46294C21.6343 2.90407 18.7818 3.39554 16.2965 3.22373Z" fill="#0D5155"/>
<path d="M24.6237 11.2176C24.5289 11.2176 24.4316 11.1992 24.3384 11.1616C23.9582 11.0066 23.7783 10.5767 23.9355 10.2019L26.4079 4.32419C26.5651 3.94939 27.0012 3.77118 27.3814 3.92701C27.7616 4.08205 27.9415 4.51198 27.7843 4.88678L25.3119 10.7645C25.1928 11.0474 24.9156 11.2176 24.6237 11.2176Z" fill="#0D5155"/>
<path d="M22.273 11.148C21.9098 11.148 21.5912 10.8859 21.5369 10.5207L21.0579 7.31533C20.9979 6.91416 21.2792 6.54096 21.6861 6.48182C22.093 6.42269 22.4715 6.69999 22.5315 7.10116L23.0106 10.3065C23.0706 10.7077 22.7893 11.0809 22.3824 11.14C22.3451 11.1456 22.3086 11.148 22.273 11.148Z" fill="#0D5155"/>
<path d="M29.0131 34.4075C29.0131 31.0918 26.2019 30.3678 24.3643 30.0985V24.1968C25.6369 24.3822 26.7191 25.0359 27.2314 25.9669C27.4275 26.3233 27.8798 26.456 28.2414 26.2626C28.6029 26.0692 28.7375 25.6233 28.5413 25.2669C27.7777 23.878 26.1857 22.923 24.3643 22.7168V21.2696C24.3643 20.8636 24.0303 20.5352 23.6193 20.5352C23.2084 20.5352 22.8744 20.8644 22.8744 21.2696V22.7168C20.2513 23.0141 18.2256 24.8545 18.2256 27.0753C18.2256 29.4 19.7892 30.8441 22.8744 31.3747V37.2852C21.5677 37.091 20.4466 36.3941 19.9627 35.432C19.7803 35.0683 19.3329 34.9197 18.9649 35.0995C18.596 35.2793 18.4453 35.7205 18.6276 36.0833C19.3637 37.5497 20.9849 38.555 22.8744 38.7668V40.2132C22.8744 40.6192 23.2084 40.9476 23.6193 40.9476C24.0303 40.9476 24.3643 40.6184 24.3643 40.2132V38.766C26.9866 38.4679 29.0131 36.6275 29.0131 34.4075ZM19.7155 27.0737C19.7155 25.6481 21.0773 24.4581 22.8744 24.196V29.8795C19.7155 29.257 19.7155 27.6923 19.7155 27.0737ZM24.3643 37.2852V31.5921C26.7053 31.9972 27.5232 32.762 27.5232 34.4075C27.5232 35.8323 26.1614 37.0231 24.3643 37.2852Z" fill="#F5F5F5"/>
<path d="M33.9389 39.4534C33.7379 39.4534 33.5369 39.3735 33.3902 39.216C33.1121 38.9172 33.1316 38.4529 33.4348 38.178C34.9976 36.7627 35.9622 35.0285 36.3027 33.0235C36.3707 32.6231 36.7542 32.353 37.1603 32.4201C37.5664 32.4873 37.8404 32.8653 37.7723 33.2656C37.3816 35.5688 36.2305 37.6417 34.4431 39.26C34.2997 39.3895 34.1189 39.4534 33.9389 39.4534Z" fill="#0D5155"/>
<path d="M23.7776 14.2612C21.0354 14.2612 18.9756 13.2692 18.8476 13.2061C18.0905 12.8328 17.7832 11.9247 18.1626 11.1781C18.5395 10.4339 19.4563 10.1301 20.2134 10.4994C20.271 10.5266 23.712 12.1365 27.0233 10.5026C27.7812 10.1309 28.702 10.4323 29.0798 11.1789C29.4583 11.9255 29.1519 12.8336 28.394 13.2069C26.7874 13.9974 25.1913 14.2612 23.7776 14.2612Z" fill="#00B495"/>
<path d="M23.777 14.9935C20.8962 14.9935 18.7489 13.977 18.5138 13.8611C17.3903 13.3073 16.9331 11.9552 17.4949 10.8476C18.0534 9.74557 19.4201 9.29246 20.5419 9.83907C20.5671 9.85105 23.7276 11.3039 26.6887 9.84386C27.8138 9.29166 29.1846 9.74237 29.7455 10.8484C30.3072 11.956 29.8501 13.3073 28.7266 13.8611C27.201 14.6131 25.536 14.9935 23.777 14.9935ZM19.5327 11.0769C19.2425 11.0769 18.9645 11.2344 18.8275 11.5045C18.633 11.8881 18.791 12.3556 19.1793 12.5474C19.2604 12.5873 21.1937 13.5247 23.7762 13.5247C25.3018 13.5247 26.743 13.1955 28.0594 12.5474C28.4477 12.3556 28.6058 11.8881 28.4112 11.5053C28.2175 11.1225 27.7425 10.9675 27.3534 11.1584C26.1172 11.7682 24.8746 11.972 23.7681 11.972C21.6233 11.972 19.9883 11.208 19.8862 11.1592C19.7727 11.1033 19.6519 11.0769 19.5327 11.0769Z" fill="#0D5155"/>
</svg>
