<svg xmlns="http://www.w3.org/2000/svg" xmlns:xlink="http://www.w3.org/1999/xlink" width="90" zoomAndPan="magnify" viewBox="0 0 67.5 67.499996" height="90" preserveAspectRatio="xMidYMid meet" version="1.0"><defs><clipPath id="id1"><path d="M 0 0.675781 L 66 0.675781 L 66 66.675781 L 0 66.675781 Z M 0 0.675781 " clip-rule="nonzero"/></clipPath></defs><path fill="#009986" d="M 49.59375 57.582031 C 49.742188 56.027344 49.820312 54.441406 49.820312 52.828125 C 49.820312 34.113281 39.476562 18.941406 26.71875 18.941406 C 13.957031 18.941406 3.613281 34.113281 3.613281 52.828125 C 3.613281 54.441406 3.691406 56.027344 3.839844 57.582031 Z M 49.59375 57.582031 " fill-opacity="1" fill-rule="nonzero"/><path fill="#009986" d="M 8.625 54.253906 L 3.867188 54.253906 C 3.496094 54.253906 3.136719 54.328125 2.796875 54.46875 C 2.453125 54.609375 2.148438 54.8125 1.886719 55.074219 C 1.625 55.335938 1.425781 55.640625 1.28125 55.980469 C 1.140625 56.324219 1.070312 56.679688 1.070312 57.050781 C 1.070312 57.421875 1.140625 57.777344 1.28125 58.121094 C 1.425781 58.464844 1.625 58.765625 1.886719 59.027344 C 2.152344 59.292969 2.453125 59.492188 2.796875 59.636719 C 3.136719 59.777344 3.496094 59.847656 3.867188 59.847656 L 49.570312 59.847656 C 49.941406 59.847656 50.296875 59.777344 50.640625 59.636719 C 50.980469 59.492188 51.285156 59.292969 51.546875 59.027344 C 51.808594 58.765625 52.011719 58.464844 52.152344 58.121094 C 52.296875 57.777344 52.367188 57.421875 52.367188 57.050781 C 52.367188 56.679688 52.296875 56.324219 52.152344 55.980469 C 52.011719 55.636719 51.808594 55.335938 51.546875 55.074219 C 51.285156 54.8125 50.984375 54.609375 50.640625 54.46875 C 50.296875 54.324219 49.941406 54.253906 49.570312 54.253906 L 44.808594 54.253906 " fill-opacity="1" fill-rule="nonzero"/><path fill="#ffa12e" d="M 33.03125 39.738281 C 32.28125 39.085938 31.03125 38.53125 29.199219 38.039062 L 28.210938 37.816406 L 28.210938 33.261719 C 28.59375 33.398438 28.953125 33.578125 29.292969 33.808594 C 30.003906 34.242188 30.429688 34.871094 30.578125 35.6875 L 30.742188 36.609375 L 34.660156 35.539062 L 34.382812 34.683594 C 33.886719 33.058594 32.9375 31.761719 31.53125 30.800781 C 30.523438 30.125 29.414062 29.710938 28.210938 29.550781 L 28.210938 26.371094 L 25.316406 26.371094 L 25.316406 29.574219 C 24.035156 29.75 22.867188 30.207031 21.804688 30.945312 C 20.324219 31.996094 19.574219 33.542969 19.574219 35.539062 C 19.546875 36.332031 19.691406 37.089844 20.007812 37.8125 C 20.324219 38.539062 20.78125 39.160156 21.378906 39.679688 C 22.234375 40.429688 23.503906 41.003906 25.144531 41.386719 L 25.316406 41.429688 L 25.316406 46.632812 C 25.21875 46.605469 25.121094 46.574219 25.027344 46.539062 C 24.40625 46.316406 23.867188 45.96875 23.414062 45.492188 C 22.941406 44.976562 22.609375 44.382812 22.417969 43.710938 L 22.191406 42.972656 L 18.339844 43.734375 L 18.652344 44.65625 C 19.789062 48.027344 22.027344 49.988281 25.316406 50.5 L 25.316406 53.136719 L 28.210938 53.136719 L 28.210938 50.597656 C 30.007812 50.460938 31.484375 49.964844 32.605469 49.117188 C 33.40625 48.542969 34.027344 47.816406 34.464844 46.9375 C 34.90625 46.054688 35.117188 45.121094 35.09375 44.136719 C 35.113281 43.285156 34.945312 42.46875 34.582031 41.695312 C 34.21875 40.921875 33.703125 40.269531 33.03125 39.738281 Z M 24.050781 36.484375 C 23.746094 36.277344 23.597656 35.859375 23.597656 35.203125 C 23.585938 34.886719 23.65625 34.59375 23.8125 34.320312 C 23.96875 34.046875 24.183594 33.835938 24.457031 33.6875 C 24.730469 33.515625 25.015625 33.378906 25.316406 33.269531 L 25.316406 37.078125 C 24.871094 36.929688 24.449219 36.734375 24.050781 36.484375 Z M 30.0625 46.191406 C 29.503906 46.570312 28.886719 46.789062 28.210938 46.839844 L 28.210938 42.15625 L 28.324219 42.183594 C 30.90625 42.765625 30.90625 43.941406 30.90625 44.382812 C 30.925781 44.734375 30.859375 45.070312 30.710938 45.390625 C 30.5625 45.710938 30.34375 45.976562 30.0625 46.191406 Z M 30.0625 46.191406 " fill-opacity="1" fill-rule="nonzero"/><path fill="#009986" d="M 23.441406 18.132812 L 30.652344 18.144531 L 36.679688 5.746094 C 34.304688 4.359375 30.777344 3.464844 26.832031 3.425781 C 26.792969 3.425781 26.757812 3.425781 26.722656 3.425781 C 26.683594 3.425781 26.648438 3.425781 26.613281 3.425781 C 22.664062 3.453125 19.136719 4.335938 16.753906 5.714844 Z M 23.441406 18.132812 " fill-opacity="1" fill-rule="nonzero"/><path fill="#00bea7" d="M 30.429688 1.625 C 29.292969 1.46875 27.925781 2.820312 26.707031 2.820312 C 25.488281 2.816406 24.132812 1.460938 22.996094 1.613281 C 22.128906 1.726562 21.566406 2.613281 20.914062 3.210938 L 24.753906 15.734375 L 29.105469 15.742188 L 32.519531 3.238281 C 31.863281 2.636719 31.300781 1.746094 30.429688 1.625 Z M 30.429688 1.625 " fill-opacity="1" fill-rule="nonzero"/><path fill="#f9820b" d="M 35.398438 19.71875 C 35.300781 19.90625 35.171875 20.070312 35.011719 20.210938 C 34.851562 20.347656 34.671875 20.457031 34.472656 20.527344 C 34.277344 20.601562 34.070312 20.636719 33.859375 20.632812 C 33.644531 20.628906 33.441406 20.585938 33.246094 20.507812 C 31.152344 19.660156 28.972656 19.230469 26.714844 19.21875 C 24.453125 19.207031 22.273438 19.609375 20.167969 20.429688 C 19.972656 20.507812 19.765625 20.546875 19.554688 20.550781 C 19.34375 20.550781 19.136719 20.511719 18.9375 20.4375 C 18.742188 20.363281 18.5625 20.253906 18.40625 20.113281 C 18.246094 19.972656 18.121094 19.804688 18.023438 19.617188 C 17.914062 19.402344 17.855469 19.179688 17.839844 18.9375 C 17.828125 18.699219 17.863281 18.46875 17.945312 18.246094 C 18.03125 18.019531 18.15625 17.824219 18.324219 17.652344 C 18.488281 17.480469 18.683594 17.351562 18.90625 17.261719 C 21.421875 16.277344 24.03125 15.792969 26.734375 15.808594 C 29.4375 15.824219 32.039062 16.339844 34.542969 17.351562 C 34.765625 17.445312 34.957031 17.578125 35.121094 17.75 C 35.289062 17.921875 35.410156 18.121094 35.492188 18.347656 C 35.574219 18.574219 35.605469 18.804688 35.589844 19.042969 C 35.574219 19.28125 35.507812 19.507812 35.398438 19.71875 Z M 35.398438 19.71875 " fill-opacity="1" fill-rule="nonzero"/><path fill="#fc8f1a" d="M 33.46875 16.941406 C 28.632812 15.574219 24.796875 15.550781 19.945312 16.863281 C 19.734375 16.917969 19.519531 16.933594 19.300781 16.90625 C 19.082031 16.878906 18.875 16.8125 18.683594 16.707031 C 18.492188 16.601562 18.324219 16.460938 18.1875 16.292969 C 18.046875 16.121094 17.945312 15.929688 17.882812 15.722656 C 17.8125 15.5 17.789062 15.273438 17.8125 15.039062 C 17.835938 14.808594 17.90625 14.589844 18.019531 14.386719 C 18.132812 14.183594 18.28125 14.011719 18.464844 13.867188 C 18.648438 13.722656 18.851562 13.621094 19.074219 13.5625 C 24.515625 12.097656 28.953125 12.125 34.375 13.652344 C 34.601562 13.714844 34.804688 13.816406 34.984375 13.964844 C 35.167969 14.109375 35.3125 14.285156 35.425781 14.488281 C 35.535156 14.695312 35.601562 14.914062 35.621094 15.144531 C 35.644531 15.375 35.617188 15.601562 35.546875 15.824219 C 35.480469 16.035156 35.375 16.222656 35.234375 16.390625 C 35.09375 16.558594 34.925781 16.695312 34.730469 16.800781 C 34.539062 16.902344 34.332031 16.96875 34.113281 16.992188 C 33.894531 17.015625 33.679688 17 33.46875 16.941406 Z M 33.46875 16.941406 " fill-opacity="1" fill-rule="nonzero"/><path fill="#f9820b" d="M 50.535156 56.125 L 63.453125 56.125 C 63.664062 56.125 63.84375 56.199219 63.996094 56.347656 C 64.144531 56.5 64.21875 56.679688 64.21875 56.890625 L 64.21875 59.191406 C 64.21875 59.402344 64.144531 59.582031 63.996094 59.734375 C 63.84375 59.882812 63.664062 59.957031 63.453125 59.957031 L 50.535156 59.957031 C 50.324219 59.957031 50.144531 59.882812 49.996094 59.734375 C 49.84375 59.582031 49.769531 59.402344 49.769531 59.191406 L 49.769531 56.890625 C 49.769531 56.679688 49.84375 56.5 49.996094 56.347656 C 50.144531 56.199219 50.324219 56.125 50.535156 56.125 Z M 50.535156 56.125 " fill-opacity="1" fill-rule="nonzero"/><path fill="#fc8f1a" d="M 49.066406 52.242188 L 61.984375 52.242188 C 62.195312 52.242188 62.375 52.316406 62.523438 52.464844 C 62.675781 52.613281 62.75 52.796875 62.75 53.007812 L 62.75 55.308594 C 62.75 55.519531 62.675781 55.699219 62.523438 55.847656 C 62.375 56 62.195312 56.074219 61.984375 56.074219 L 49.066406 56.074219 C 48.855469 56.074219 48.675781 56 48.523438 55.847656 C 48.375 55.699219 48.300781 55.519531 48.300781 55.308594 L 48.300781 53.007812 C 48.300781 52.796875 48.375 52.613281 48.523438 52.464844 C 48.675781 52.316406 48.855469 52.242188 49.066406 52.242188 Z M 49.066406 52.242188 " fill-opacity="1" fill-rule="nonzero"/><path fill="#f9820b" d="M 51.515625 48.355469 L 64.433594 48.355469 C 64.644531 48.355469 64.824219 48.433594 64.976562 48.582031 C 65.125 48.730469 65.199219 48.910156 65.199219 49.125 L 65.199219 51.421875 C 65.199219 51.636719 65.125 51.816406 64.976562 51.964844 C 64.824219 52.113281 64.644531 52.191406 64.433594 52.191406 L 51.515625 52.191406 C 51.304688 52.191406 51.125 52.113281 50.976562 51.964844 C 50.824219 51.816406 50.75 51.636719 50.75 51.421875 L 50.75 49.125 C 50.75 48.910156 50.824219 48.730469 50.976562 48.582031 C 51.125 48.433594 51.304688 48.355469 51.515625 48.355469 Z M 51.515625 48.355469 " fill-opacity="1" fill-rule="nonzero"/><path fill="#fc8f1a" d="M 49.066406 44.472656 L 61.984375 44.472656 C 62.195312 44.472656 62.375 44.546875 62.523438 44.699219 C 62.675781 44.847656 62.75 45.027344 62.75 45.238281 L 62.75 47.539062 C 62.75 47.75 62.675781 47.929688 62.523438 48.082031 C 62.375 48.230469 62.195312 48.304688 61.984375 48.304688 L 49.066406 48.304688 C 48.855469 48.304688 48.675781 48.230469 48.523438 48.082031 C 48.375 47.929688 48.300781 47.75 48.300781 47.539062 L 48.300781 45.238281 C 48.300781 45.027344 48.375 44.847656 48.523438 44.699219 C 48.675781 44.546875 48.855469 44.472656 49.066406 44.472656 Z M 49.066406 44.472656 " fill-opacity="1" fill-rule="nonzero"/><path fill="#f9820b" d="M 47.597656 40.589844 L 60.511719 40.589844 C 60.722656 40.589844 60.90625 40.664062 61.054688 40.8125 C 61.203125 40.964844 61.28125 41.144531 61.28125 41.355469 L 61.28125 43.65625 C 61.28125 43.867188 61.203125 44.046875 61.054688 44.199219 C 60.90625 44.347656 60.722656 44.421875 60.511719 44.421875 L 47.597656 44.421875 C 47.382812 44.421875 47.203125 44.347656 47.054688 44.199219 C 46.902344 44.046875 46.828125 43.867188 46.828125 43.65625 L 46.828125 41.355469 C 46.828125 41.144531 46.902344 40.964844 47.054688 40.8125 C 47.203125 40.664062 47.382812 40.589844 47.597656 40.589844 Z M 47.597656 40.589844 " fill-opacity="1" fill-rule="nonzero"/><path fill="#fc8f1a" d="M 50.046875 36.703125 L 62.964844 36.703125 C 63.175781 36.703125 63.355469 36.78125 63.503906 36.929688 C 63.65625 37.078125 63.730469 37.261719 63.730469 37.472656 L 63.730469 39.769531 C 63.730469 39.984375 63.65625 40.164062 63.503906 40.3125 C 63.355469 40.464844 63.175781 40.539062 62.964844 40.539062 L 50.046875 40.539062 C 49.835938 40.539062 49.652344 40.464844 49.503906 40.3125 C 49.355469 40.164062 49.28125 39.984375 49.28125 39.769531 L 49.28125 37.472656 C 49.28125 37.261719 49.355469 37.078125 49.503906 36.929688 C 49.652344 36.78125 49.835938 36.703125 50.046875 36.703125 Z M 50.046875 36.703125 " fill-opacity="1" fill-rule="nonzero"/><path fill="#ffa12e" d="M 40.816406 62.027344 L 53.734375 62.027344 C 53.945312 62.027344 54.125 62.101562 54.273438 62.25 C 54.425781 62.402344 54.5 62.582031 54.5 62.792969 L 54.5 65.09375 C 54.5 65.304688 54.425781 65.484375 54.273438 65.636719 C 54.125 65.785156 53.945312 65.859375 53.734375 65.859375 L 40.816406 65.859375 C 40.605469 65.859375 40.425781 65.785156 40.273438 65.636719 C 40.125 65.484375 40.050781 65.304688 40.050781 65.09375 L 40.050781 62.792969 C 40.050781 62.582031 40.125 62.402344 40.273438 62.25 C 40.425781 62.101562 40.605469 62.027344 40.816406 62.027344 Z M 40.816406 62.027344 " fill-opacity="1" fill-rule="nonzero"/><path fill="#ffbe55" d="M 39.835938 58.144531 L 52.753906 58.144531 C 52.964844 58.144531 53.144531 58.21875 53.292969 58.367188 C 53.445312 58.519531 53.519531 58.699219 53.519531 58.910156 L 53.519531 61.210938 C 53.519531 61.421875 53.445312 61.601562 53.292969 61.75 C 53.144531 61.902344 52.964844 61.976562 52.753906 61.976562 L 39.835938 61.976562 C 39.625 61.976562 39.445312 61.902344 39.292969 61.75 C 39.144531 61.601562 39.070312 61.421875 39.070312 61.210938 L 39.070312 58.910156 C 39.070312 58.699219 39.144531 58.519531 39.292969 58.367188 C 39.445312 58.21875 39.625 58.144531 39.835938 58.144531 Z M 39.835938 58.144531 " fill-opacity="1" fill-rule="nonzero"/><path fill="#ffa12e" d="M 43.265625 54.257812 L 56.183594 54.257812 C 56.394531 54.257812 56.574219 54.335938 56.726562 54.484375 C 56.875 54.632812 56.949219 54.8125 56.949219 55.027344 L 56.949219 57.324219 C 56.949219 57.539062 56.875 57.71875 56.726562 57.867188 C 56.574219 58.015625 56.394531 58.09375 56.183594 58.09375 L 43.265625 58.09375 C 43.054688 58.09375 42.875 58.015625 42.726562 57.867188 C 42.574219 57.71875 42.5 57.539062 42.5 57.324219 L 42.5 55.027344 C 42.5 54.8125 42.574219 54.632812 42.726562 54.484375 C 42.875 54.335938 43.054688 54.257812 43.265625 54.257812 Z M 43.265625 54.257812 " fill-opacity="1" fill-rule="nonzero"/><path fill="#ffbe55" d="M 40.328125 50.375 L 53.242188 50.375 C 53.453125 50.375 53.636719 50.449219 53.785156 50.601562 C 53.933594 50.75 54.007812 50.929688 54.007812 51.140625 L 54.007812 53.441406 C 54.007812 53.652344 53.933594 53.835938 53.785156 53.984375 C 53.636719 54.132812 53.453125 54.207031 53.242188 54.207031 L 40.328125 54.207031 C 40.113281 54.207031 39.933594 54.132812 39.785156 53.984375 C 39.632812 53.835938 39.558594 53.652344 39.558594 53.441406 L 39.558594 51.140625 C 39.558594 50.929688 39.632812 50.75 39.785156 50.601562 C 39.933594 50.449219 40.113281 50.375 40.328125 50.375 Z M 40.328125 50.375 " fill-opacity="1" fill-rule="nonzero"/><path fill="#ffa12e" d="M 42.285156 46.492188 L 55.203125 46.492188 C 55.414062 46.492188 55.59375 46.566406 55.746094 46.714844 C 55.894531 46.867188 55.96875 47.046875 55.96875 47.257812 L 55.96875 49.558594 C 55.96875 49.769531 55.894531 49.949219 55.746094 50.101562 C 55.59375 50.25 55.414062 50.324219 55.203125 50.324219 L 42.285156 50.324219 C 42.074219 50.324219 41.894531 50.25 41.746094 50.101562 C 41.59375 49.949219 41.519531 49.769531 41.519531 49.558594 L 41.519531 47.257812 C 41.519531 47.046875 41.59375 46.867188 41.746094 46.714844 C 41.894531 46.566406 42.074219 46.492188 42.285156 46.492188 Z M 42.285156 46.492188 " fill-opacity="1" fill-rule="nonzero"/><path fill="#ffbe55" d="M 38.855469 42.609375 L 51.773438 42.609375 C 51.984375 42.609375 52.164062 42.683594 52.316406 42.832031 C 52.464844 42.980469 52.539062 43.164062 52.539062 43.375 L 52.539062 45.671875 C 52.539062 45.886719 52.464844 46.066406 52.316406 46.214844 C 52.164062 46.367188 51.984375 46.441406 51.773438 46.441406 L 38.855469 46.441406 C 38.644531 46.441406 38.464844 46.367188 38.3125 46.214844 C 38.164062 46.066406 38.089844 45.886719 38.089844 45.671875 L 38.089844 43.375 C 38.089844 43.164062 38.164062 42.980469 38.3125 42.832031 C 38.464844 42.683594 38.644531 42.609375 38.855469 42.609375 Z M 38.855469 42.609375 " fill-opacity="1" fill-rule="nonzero"/><path fill="#000000" d="M 33.542969 39.117188 C 32.683594 38.371094 31.363281 37.777344 29.394531 37.25 L 29.007812 37.164062 L 29.007812 34.625 C 29.417969 34.929688 29.667969 35.332031 29.753906 35.832031 L 29.917969 36.753906 L 30.9375 37.398438 L 34.859375 36.332031 L 35.417969 35.289062 L 35.140625 34.429688 C 34.585938 32.625 33.53125 31.1875 31.96875 30.121094 C 31.0625 29.515625 30.078125 29.097656 29.007812 28.871094 L 29.007812 26.371094 L 28.191406 25.554688 L 25.296875 25.554688 L 24.480469 26.371094 L 24.480469 28.894531 C 23.332031 29.144531 22.277344 29.605469 21.316406 30.28125 C 19.605469 31.492188 18.738281 33.261719 18.738281 35.539062 C 18.710938 36.449219 18.878906 37.320312 19.246094 38.152344 C 19.609375 38.984375 20.136719 39.699219 20.820312 40.296875 C 21.699219 41.0625 22.929688 41.65625 24.480469 42.070312 L 24.480469 45.351562 C 24.300781 45.226562 24.136719 45.085938 23.984375 44.925781 C 23.601562 44.507812 23.332031 44.019531 23.179688 43.472656 L 22.953125 42.734375 L 22.015625 42.171875 L 18.164062 42.933594 L 17.546875 43.996094 L 17.859375 44.917969 C 19.019531 48.355469 21.242188 50.457031 24.480469 51.175781 L 24.480469 53.132812 L 25.296875 53.953125 L 28.191406 53.953125 L 29.011719 53.132812 L 29.011719 51.332031 C 30.503906 51.167969 31.859375 50.648438 33.078125 49.769531 C 33.984375 49.121094 34.683594 48.296875 35.183594 47.300781 C 35.679688 46.304688 35.917969 45.25 35.890625 44.136719 C 35.914062 43.164062 35.71875 42.234375 35.308594 41.351562 C 34.894531 40.46875 34.304688 39.722656 33.542969 39.117188 Z M 32.09375 48.46875 C 31.105469 49.214844 29.769531 49.660156 28.132812 49.785156 L 27.375 50.597656 L 27.375 52.320312 L 26.113281 52.320312 L 26.113281 50.5 L 25.425781 49.691406 C 22.417969 49.222656 20.453125 47.492188 19.410156 44.394531 L 19.394531 44.355469 L 21.609375 43.917969 L 21.617188 43.949219 C 21.847656 44.746094 22.242188 45.445312 22.804688 46.054688 C 23.347656 46.621094 23.988281 47.039062 24.726562 47.304688 C 24.835938 47.34375 24.949219 47.382812 25.058594 47.417969 L 26.113281 46.632812 L 26.113281 41.429688 L 25.496094 40.636719 L 25.3125 40.59375 C 23.800781 40.238281 22.652344 39.726562 21.898438 39.066406 C 21.386719 38.625 21 38.097656 20.730469 37.476562 C 20.464844 36.859375 20.34375 36.214844 20.371094 35.539062 C 20.371094 33.796875 20.988281 32.511719 22.257812 31.613281 C 23.214844 30.949219 24.265625 30.539062 25.417969 30.382812 L 26.113281 29.574219 L 26.113281 27.1875 L 27.375 27.1875 L 27.375 29.554688 L 28.078125 30.363281 C 29.15625 30.503906 30.152344 30.875 31.058594 31.476562 C 32.304688 32.335938 33.148438 33.488281 33.589844 34.9375 L 33.601562 34.980469 L 31.375 35.585938 L 31.367188 35.546875 C 31.179688 34.5 30.632812 33.695312 29.734375 33.128906 C 29.335938 32.863281 28.914062 32.648438 28.464844 32.492188 L 27.378906 33.261719 L 27.378906 37.816406 L 28.015625 38.613281 L 28.992188 38.832031 C 30.660156 39.28125 31.835938 39.792969 32.480469 40.355469 L 32.5 40.371094 C 33.070312 40.828125 33.511719 41.386719 33.824219 42.046875 C 34.132812 42.710938 34.277344 43.40625 34.261719 44.136719 C 34.285156 44.996094 34.105469 45.808594 33.722656 46.574219 C 33.335938 47.339844 32.792969 47.972656 32.09375 48.46875 Z M 32.09375 48.46875 " fill-opacity="1" fill-rule="nonzero"/><path fill="#000000" d="M 24.003906 32.996094 C 23.609375 33.222656 23.300781 33.53125 23.078125 33.925781 C 22.855469 34.324219 22.75 34.746094 22.761719 35.203125 C 22.761719 35.550781 22.761719 36.609375 23.574219 37.160156 C 24.027344 37.449219 24.511719 37.679688 25.023438 37.847656 L 26.113281 37.078125 L 26.113281 33.269531 L 25.023438 32.5 C 24.664062 32.628906 24.324219 32.792969 24.003906 32.996094 Z M 24.480469 35.785156 C 24.410156 35.597656 24.382812 35.402344 24.394531 35.203125 C 24.390625 35.050781 24.417969 34.90625 24.480469 34.765625 Z M 24.480469 35.785156 " fill-opacity="1" fill-rule="nonzero"/><path fill="#000000" d="M 28.492188 41.390625 L 28.390625 41.363281 L 27.375 42.15625 L 27.375 46.84375 L 28.292969 47.652344 C 29.113281 47.582031 29.859375 47.3125 30.535156 46.84375 L 30.542969 46.835938 C 30.925781 46.546875 31.222656 46.1875 31.425781 45.753906 C 31.632812 45.320312 31.722656 44.863281 31.703125 44.382812 C 31.703125 42.878906 30.625 41.871094 28.492188 41.390625 Z M 29.546875 45.542969 C 29.382812 45.660156 29.203125 45.753906 29.007812 45.824219 L 29.007812 43.242188 C 30.070312 43.652344 30.070312 44.148438 30.070312 44.382812 C 30.109375 44.867188 29.9375 45.253906 29.546875 45.542969 Z M 29.546875 45.542969 " fill-opacity="1" fill-rule="nonzero"/><g clip-path="url(#id1)"><path fill="#000000" d="M 64.433594 47.539062 L 63.566406 47.539062 L 63.566406 45.238281 C 63.566406 45.039062 63.527344 44.847656 63.457031 44.660156 C 63.382812 44.472656 63.277344 44.308594 63.140625 44.160156 C 63.003906 44.015625 62.847656 43.898438 62.664062 43.8125 C 62.484375 43.726562 62.296875 43.675781 62.097656 43.660156 L 62.097656 41.355469 L 62.960938 41.355469 C 63.171875 41.355469 63.375 41.3125 63.570312 41.234375 C 63.761719 41.152344 63.933594 41.039062 64.082031 40.890625 C 64.230469 40.742188 64.34375 40.570312 64.425781 40.375 C 64.503906 40.183594 64.546875 39.980469 64.546875 39.769531 L 64.546875 37.472656 C 64.546875 37.261719 64.503906 37.058594 64.425781 36.867188 C 64.34375 36.671875 64.230469 36.5 64.082031 36.351562 C 63.933594 36.203125 63.761719 36.089844 63.570312 36.007812 C 63.375 35.929688 63.171875 35.886719 62.960938 35.886719 L 50.046875 35.886719 C 49.835938 35.886719 49.632812 35.929688 49.441406 36.007812 C 49.246094 36.089844 49.074219 36.203125 48.925781 36.351562 C 48.777344 36.5 48.664062 36.671875 48.585938 36.867188 C 48.503906 37.058594 48.464844 37.261719 48.464844 37.472656 L 48.464844 38.375 C 47.367188 34.820312 45.785156 31.496094 43.710938 28.40625 C 41.394531 25.007812 38.679688 22.398438 35.71875 20.65625 C 35.875 20.488281 36.007812 20.300781 36.113281 20.097656 C 36.242188 19.847656 36.332031 19.585938 36.375 19.308594 C 36.414062 19.03125 36.414062 18.753906 36.363281 18.480469 C 36.3125 18.203125 36.21875 17.941406 36.082031 17.699219 C 35.945312 17.453125 35.773438 17.238281 35.5625 17.050781 C 35.921875 16.742188 36.171875 16.363281 36.316406 15.914062 C 36.421875 15.585938 36.460938 15.25 36.429688 14.910156 C 36.398438 14.566406 36.300781 14.242188 36.140625 13.941406 C 35.976562 13.636719 35.761719 13.378906 35.492188 13.164062 C 35.222656 12.949219 34.921875 12.796875 34.589844 12.703125 C 34.472656 12.667969 34.355469 12.640625 34.234375 12.609375 L 37.394531 6.105469 L 37.074219 5.042969 C 35.875 4.363281 34.609375 3.84375 33.277344 3.488281 L 33.289062 3.453125 L 33.054688 2.636719 C 32.90625 2.5 32.753906 2.339844 32.597656 2.171875 C 32.089844 1.625 31.457031 0.941406 30.523438 0.816406 C 29.679688 0.699219 28.894531 1.09375 28.132812 1.472656 C 27.617188 1.734375 27.082031 2 26.691406 2 C 26.304688 2 25.769531 1.730469 25.253906 1.46875 C 24.496094 1.085938 23.714844 0.6875 22.871094 0.800781 C 21.9375 0.925781 21.304688 1.601562 20.796875 2.148438 C 20.640625 2.316406 20.492188 2.472656 20.347656 2.605469 L 20.117188 3.445312 L 20.125 3.46875 C 18.792969 3.820312 17.527344 4.332031 16.328125 5.007812 L 16.015625 6.101562 L 19.441406 12.460938 C 19.246094 12.511719 19.054688 12.558594 18.855469 12.609375 C 18.402344 12.730469 18.015625 12.960938 17.6875 13.296875 C 17.363281 13.632812 17.148438 14.027344 17.042969 14.484375 C 16.9375 14.941406 16.957031 15.390625 17.105469 15.835938 C 17.25 16.28125 17.5 16.65625 17.855469 16.964844 C 17.550781 17.234375 17.324219 17.5625 17.175781 17.941406 C 16.914062 18.640625 16.949219 19.320312 17.289062 19.984375 C 17.40625 20.21875 17.558594 20.429688 17.742188 20.613281 C 14.753906 22.359375 12.019531 24.980469 9.6875 28.402344 C 5.230469 34.9375 2.777344 43.609375 2.777344 52.824219 C 2.777344 53.082031 2.785156 53.335938 2.789062 53.59375 C 2.375 53.71875 1.996094 53.914062 1.652344 54.179688 C 1.308594 54.441406 1.019531 54.753906 0.789062 55.121094 C 0.558594 55.488281 0.398438 55.882812 0.308594 56.304688 C 0.21875 56.730469 0.207031 57.15625 0.269531 57.585938 C 0.335938 58.011719 0.472656 58.417969 0.679688 58.796875 C 0.890625 59.175781 1.160156 59.503906 1.488281 59.789062 C 1.816406 60.070312 2.183594 60.285156 2.585938 60.4375 C 2.992188 60.589844 3.414062 60.664062 3.847656 60.664062 L 38.253906 60.664062 L 38.253906 61.210938 C 38.253906 61.53125 38.34375 61.824219 38.523438 62.09375 C 38.703125 62.359375 38.941406 62.554688 39.238281 62.675781 C 39.234375 62.714844 39.234375 62.753906 39.234375 62.792969 L 39.234375 65.09375 C 39.234375 65.304688 39.273438 65.503906 39.355469 65.699219 C 39.433594 65.894531 39.550781 66.0625 39.699219 66.210938 C 39.847656 66.359375 40.015625 66.476562 40.210938 66.554688 C 40.40625 66.636719 40.605469 66.675781 40.816406 66.675781 L 53.734375 66.675781 C 53.941406 66.675781 54.144531 66.636719 54.339844 66.554688 C 54.53125 66.476562 54.703125 66.359375 54.851562 66.210938 C 55 66.0625 55.113281 65.894531 55.195312 65.699219 C 55.277344 65.503906 55.316406 65.304688 55.316406 65.09375 L 55.316406 62.792969 C 55.316406 62.472656 55.226562 62.179688 55.046875 61.910156 C 54.867188 61.644531 54.628906 61.449219 54.328125 61.328125 C 54.332031 61.289062 54.335938 61.25 54.335938 61.210938 L 54.335938 60.773438 L 63.453125 60.773438 C 63.664062 60.773438 63.863281 60.734375 64.058594 60.652344 C 64.253906 60.574219 64.421875 60.457031 64.570312 60.308594 C 64.71875 60.160156 64.835938 59.992188 64.914062 59.796875 C 64.996094 59.601562 65.035156 59.402344 65.035156 59.191406 L 65.035156 56.890625 C 65.035156 56.691406 65 56.5 64.925781 56.3125 C 64.851562 56.125 64.746094 55.960938 64.609375 55.8125 C 64.476562 55.667969 64.316406 55.550781 64.136719 55.464844 C 63.957031 55.378906 63.765625 55.328125 63.566406 55.3125 L 63.566406 53.007812 L 64.433594 53.007812 C 64.644531 53.007812 64.84375 52.964844 65.039062 52.886719 C 65.234375 52.804688 65.402344 52.691406 65.550781 52.542969 C 65.699219 52.394531 65.816406 52.222656 65.894531 52.027344 C 65.976562 51.835938 66.015625 51.632812 66.015625 51.421875 L 66.015625 49.125 C 66.015625 48.914062 65.976562 48.710938 65.894531 48.519531 C 65.816406 48.324219 65.699219 48.152344 65.550781 48.003906 C 65.402344 47.855469 65.234375 47.742188 65.039062 47.660156 C 64.84375 47.582031 64.644531 47.539062 64.433594 47.539062 Z M 50.097656 37.523438 L 62.914062 37.523438 L 62.914062 39.71875 L 50.097656 39.71875 Z M 55.203125 45.675781 L 53.355469 45.675781 L 53.355469 45.289062 L 61.933594 45.289062 L 61.933594 47.488281 L 56.785156 47.488281 L 56.785156 47.257812 C 56.785156 47.046875 56.746094 46.84375 56.664062 46.652344 C 56.585938 46.457031 56.46875 46.285156 56.320312 46.136719 C 56.171875 45.992188 56.003906 45.875 55.808594 45.796875 C 55.613281 45.714844 55.414062 45.675781 55.203125 45.675781 Z M 56.183594 53.441406 L 54.828125 53.441406 L 54.828125 53.058594 L 61.933594 53.058594 L 61.933594 55.253906 L 57.765625 55.253906 L 57.765625 55.023438 C 57.765625 54.8125 57.726562 54.613281 57.644531 54.417969 C 57.566406 54.226562 57.449219 54.054688 57.300781 53.90625 C 57.152344 53.757812 56.980469 53.644531 56.789062 53.5625 C 56.59375 53.484375 56.394531 53.441406 56.183594 53.441406 Z M 42.335938 49.507812 L 42.335938 47.308594 L 55.152344 47.308594 L 55.152344 49.507812 Z M 53.191406 51.191406 L 53.191406 53.390625 L 40.375 53.390625 L 40.375 51.191406 Z M 38.90625 45.621094 L 38.90625 43.425781 L 51.722656 43.425781 L 51.722656 45.621094 Z M 47.644531 41.40625 L 60.460938 41.40625 L 60.460938 43.601562 L 53.355469 43.601562 L 53.355469 43.371094 C 53.355469 43.164062 53.316406 42.960938 53.234375 42.765625 C 53.15625 42.574219 53.039062 42.402344 52.890625 42.253906 C 52.742188 42.105469 52.570312 41.988281 52.378906 41.910156 C 52.183594 41.828125 51.984375 41.789062 51.773438 41.789062 L 47.648438 41.789062 Z M 32.847656 5.0625 C 33.792969 5.320312 34.707031 5.664062 35.585938 6.09375 L 32.617188 12.203125 C 32.066406 12.078125 31.523438 11.976562 30.988281 11.886719 Z M 21.988281 3.265625 C 22.371094 2.855469 22.730469 2.46875 23.085938 2.421875 C 23.429688 2.375 23.980469 2.65625 24.511719 2.925781 C 25.164062 3.257812 25.90625 3.632812 26.683594 3.636719 L 26.6875 3.636719 C 27.464844 3.636719 28.207031 3.261719 28.863281 2.933594 C 29.402344 2.664062 29.957031 2.386719 30.296875 2.433594 C 30.65625 2.484375 31.015625 2.871094 31.398438 3.285156 C 31.460938 3.347656 31.523438 3.414062 31.585938 3.480469 L 29.355469 11.65625 C 27.679688 11.472656 26.003906 11.457031 24.328125 11.609375 L 21.824219 3.4375 C 21.878906 3.382812 21.933594 3.324219 21.988281 3.265625 Z M 17.84375 6.050781 C 18.730469 5.621094 19.648438 5.28125 20.601562 5.027344 L 22.675781 11.804688 C 22.15625 11.882812 21.625 11.972656 21.089844 12.082031 Z M 18.722656 14.625 C 18.847656 14.398438 19.03125 14.253906 19.28125 14.191406 C 24.566406 12.765625 28.875 12.792969 34.148438 14.277344 C 34.394531 14.34375 34.578125 14.492188 34.699219 14.71875 C 34.882812 15.0625 34.851562 15.386719 34.609375 15.6875 C 34.367188 15.992188 34.058594 16.09375 33.683594 15.992188 C 28.734375 14.59375 24.691406 14.570312 19.722656 15.910156 C 19.347656 16.007812 19.039062 15.902344 18.800781 15.597656 C 18.5625 15.289062 18.535156 14.964844 18.722656 14.625 Z M 34.664062 19.339844 C 34.558594 19.542969 34.398438 19.683594 34.183594 19.761719 C 33.96875 19.839844 33.753906 19.835938 33.542969 19.75 C 31.351562 18.863281 29.074219 18.414062 26.707031 18.402344 L 26.601562 18.402344 C 24.273438 18.398438 22.023438 18.824219 19.855469 19.671875 C 19.644531 19.753906 19.429688 19.757812 19.21875 19.675781 C 19.003906 19.59375 18.84375 19.449219 18.742188 19.246094 C 18.621094 19.011719 18.609375 18.769531 18.703125 18.523438 C 18.792969 18.28125 18.957031 18.117188 19.195312 18.023438 C 21.613281 17.074219 24.121094 16.609375 26.71875 16.625 C 29.316406 16.640625 31.820312 17.136719 34.226562 18.109375 C 34.464844 18.207031 34.625 18.375 34.710938 18.617188 C 34.804688 18.867188 34.785156 19.105469 34.664062 19.339844 Z M 38.253906 58.910156 L 38.253906 59.03125 L 3.847656 59.03125 C 3.585938 59.03125 3.332031 58.980469 3.089844 58.882812 C 2.847656 58.78125 2.632812 58.636719 2.445312 58.453125 C 2.261719 58.265625 2.117188 58.050781 2.019531 57.808594 C 1.917969 57.566406 1.867188 57.3125 1.867188 57.050781 C 1.867188 56.789062 1.917969 56.535156 2.019531 56.292969 C 2.117188 56.050781 2.261719 55.835938 2.445312 55.652344 C 2.632812 55.464844 2.847656 55.324219 3.089844 55.222656 C 3.332031 55.121094 3.585938 55.070312 3.847656 55.070312 L 8.605469 55.070312 L 8.605469 53.4375 L 4.417969 53.4375 C 4.414062 53.234375 4.410156 53.03125 4.410156 52.828125 C 4.410156 38.121094 10.917969 25.625 19.878906 21.339844 C 20.078125 21.3125 20.269531 21.261719 20.457031 21.191406 C 22.433594 20.417969 24.480469 20.035156 26.597656 20.035156 L 26.699219 20.035156 C 28.851562 20.046875 30.925781 20.457031 32.925781 21.261719 C 33.183594 21.367188 33.453125 21.429688 33.730469 21.445312 C 39.785156 24.441406 44.691406 31.191406 47.1875 39.828125 C 46.839844 39.917969 46.558594 40.109375 46.339844 40.390625 C 46.121094 40.675781 46.011719 40.996094 46.007812 41.355469 L 46.007812 41.789062 L 38.855469 41.789062 C 38.644531 41.789062 38.445312 41.832031 38.25 41.910156 C 38.054688 41.992188 37.886719 42.105469 37.738281 42.253906 C 37.589844 42.402344 37.472656 42.574219 37.394531 42.769531 C 37.3125 42.960938 37.273438 43.164062 37.273438 43.375 L 37.273438 45.675781 C 37.273438 45.886719 37.3125 46.085938 37.394531 46.28125 C 37.472656 46.472656 37.589844 46.644531 37.738281 46.792969 C 37.886719 46.941406 38.054688 47.058594 38.25 47.136719 C 38.445312 47.21875 38.644531 47.257812 38.855469 47.257812 L 40.703125 47.257812 L 40.703125 49.558594 L 40.328125 49.558594 C 40.117188 49.558594 39.914062 49.601562 39.71875 49.679688 C 39.527344 49.761719 39.355469 49.875 39.207031 50.023438 C 39.058594 50.171875 38.945312 50.34375 38.863281 50.539062 C 38.785156 50.730469 38.742188 50.933594 38.742188 51.144531 L 38.742188 53.441406 C 38.742188 53.652344 38.785156 53.855469 38.863281 54.046875 C 38.945312 54.242188 39.058594 54.414062 39.207031 54.5625 C 39.355469 54.710938 39.527344 54.824219 39.71875 54.90625 C 39.914062 54.984375 40.117188 55.027344 40.328125 55.027344 L 41.683594 55.027344 L 41.683594 57.328125 L 39.835938 57.328125 C 39.625 57.328125 39.425781 57.367188 39.230469 57.449219 C 39.039062 57.527344 38.867188 57.644531 38.71875 57.792969 C 38.570312 57.941406 38.453125 58.109375 38.375 58.304688 C 38.292969 58.5 38.253906 58.699219 38.253906 58.910156 Z M 39.886719 61.160156 L 39.886719 58.960938 L 52.703125 58.960938 L 52.703125 61.160156 Z M 53.683594 65.042969 L 40.867188 65.042969 L 40.867188 62.84375 L 53.683594 62.84375 Z M 43.316406 57.273438 L 43.316406 55.078125 L 56.132812 55.078125 L 56.132812 57.273438 Z M 63.402344 59.140625 L 54.335938 59.140625 L 54.335938 58.910156 L 56.183594 58.910156 C 56.394531 58.910156 56.59375 58.867188 56.789062 58.789062 C 56.984375 58.707031 57.152344 58.59375 57.300781 58.445312 C 57.449219 58.296875 57.566406 58.125 57.644531 57.929688 C 57.726562 57.738281 57.765625 57.535156 57.765625 57.324219 L 57.765625 56.941406 L 63.402344 56.941406 Z M 64.382812 51.371094 L 54.828125 51.371094 L 54.828125 51.140625 L 55.203125 51.140625 C 55.414062 51.140625 55.613281 51.101562 55.808594 51.019531 C 56.003906 50.941406 56.175781 50.824219 56.324219 50.675781 C 56.472656 50.527344 56.585938 50.355469 56.664062 50.164062 C 56.746094 49.96875 56.785156 49.765625 56.785156 49.558594 L 56.785156 49.171875 L 64.382812 49.171875 Z M 64.382812 51.371094 " fill-opacity="1" fill-rule="nonzero"/></g></svg>