<svg xmlns="http://www.w3.org/2000/svg" xmlns:xlink="http://www.w3.org/1999/xlink" width="90" zoomAndPan="magnify" viewBox="0 0 67.5 67.499996" height="90" preserveAspectRatio="xMidYMid meet" version="1.0"><defs><clipPath id="id1"><path d="M 25 3.066406 L 41 3.066406 L 41 20 L 25 20 Z M 25 3.066406 " clip-rule="nonzero"/></clipPath></defs><path fill="#df8666" d="M 37.570312 45.167969 C 37.566406 46.027344 36.933594 50.535156 37.273438 50.460938 C 37.613281 50.386719 40.804688 50.164062 40.761719 49.671875 C 40.722656 49.183594 41.226562 45.941406 41.074219 45.398438 C 40.925781 44.859375 37.574219 44.304688 37.570312 45.167969 Z M 37.570312 45.167969 " fill-opacity="1" fill-rule="nonzero"/><path fill="#231f20" d="M 37.265625 50.53125 C 37.234375 50.53125 37.207031 50.519531 37.183594 50.492188 C 37.011719 50.304688 37.136719 48.964844 37.34375 46.945312 C 37.425781 46.144531 37.5 45.453125 37.5 45.167969 C 37.5 44.832031 37.90625 44.648438 38.644531 44.648438 C 39.546875 44.648438 41.027344 44.964844 41.144531 45.382812 C 41.238281 45.71875 41.09375 46.988281 40.96875 48.109375 C 40.890625 48.8125 40.816406 49.476562 40.832031 49.667969 C 40.863281 50.042969 39.703125 50.25 37.820312 50.460938 C 37.5625 50.492188 37.355469 50.515625 37.289062 50.527344 C 37.28125 50.53125 37.269531 50.53125 37.265625 50.53125 Z M 38.644531 44.789062 C 38.339844 44.789062 37.640625 44.824219 37.636719 45.167969 C 37.636719 45.460938 37.566406 46.15625 37.484375 46.960938 C 37.359375 48.160156 37.152344 50.15625 37.277344 50.390625 C 37.367188 50.375 37.554688 50.351562 37.804688 50.324219 C 38.527344 50.242188 40.722656 49.996094 40.695312 49.679688 C 40.675781 49.476562 40.75 48.835938 40.832031 48.09375 C 40.949219 47.039062 41.097656 45.730469 41.007812 45.417969 C 40.9375 45.160156 39.699219 44.789062 38.644531 44.789062 Z M 38.644531 44.789062 " fill-opacity="1" fill-rule="nonzero"/><path fill="#e467a2" d="M 43.785156 50.070312 C 43.175781 49.84375 40.605469 49.609375 40.300781 48.824219 C 40.042969 48.902344 39.773438 48.953125 39.496094 48.960938 C 38.699219 48.980469 37.910156 48.8125 37.121094 48.664062 C 36.863281 50.03125 36.648438 51.292969 36.707031 51.53125 C 36.839844 52.085938 45.015625 52.199219 45.019531 51.421875 C 45.019531 50.640625 44.363281 50.308594 43.785156 50.070312 Z M 43.785156 50.070312 " fill-opacity="1" fill-rule="nonzero"/><path fill="#231f20" d="M 40.917969 52.046875 C 40.75 52.046875 36.757812 52.042969 36.640625 51.546875 C 36.621094 51.46875 36.5625 51.226562 37.054688 48.648438 C 37.0625 48.613281 37.097656 48.585938 37.136719 48.59375 L 37.351562 48.636719 C 38.054688 48.769531 38.78125 48.910156 39.496094 48.890625 C 39.746094 48.882812 40.003906 48.839844 40.28125 48.757812 C 40.316406 48.746094 40.351562 48.765625 40.367188 48.796875 C 40.570312 49.332031 41.992188 49.613281 42.933594 49.800781 C 43.308594 49.875 43.636719 49.941406 43.808594 50.003906 C 44.472656 50.277344 45.085938 50.640625 45.085938 51.421875 C 45.085938 51.984375 42.171875 52.046875 40.917969 52.046875 Z M 37.179688 48.742188 C 36.789062 50.792969 36.742188 51.382812 36.773438 51.515625 C 36.847656 51.699219 38.566406 51.910156 40.917969 51.910156 C 43.535156 51.910156 44.949219 51.65625 44.949219 51.421875 C 44.949219 50.6875 44.335938 50.371094 43.757812 50.136719 C 43.597656 50.074219 43.277344 50.011719 42.90625 49.9375 C 41.910156 49.738281 40.5625 49.472656 40.261719 48.90625 C 39.996094 48.984375 39.746094 49.023438 39.496094 49.027344 C 38.765625 49.046875 38.035156 48.90625 37.328125 48.773438 Z M 37.179688 48.742188 " fill-opacity="1" fill-rule="nonzero"/><path fill="#446b9c" d="M 43.785156 50.070312 C 43.351562 49.910156 41.929688 49.746094 41.035156 49.378906 C 41.03125 49.207031 41.070312 49.019531 41.089844 48.859375 C 41.117188 48.621094 41.300781 48.144531 41 48.023438 C 40.636719 47.875 40.21875 48.566406 40.039062 48.796875 C 39.550781 49.417969 39.023438 49.964844 38.210938 50.101562 C 38.105469 50.121094 36.832031 50.300781 36.84375 50.207031 C 36.734375 50.882812 36.671875 51.390625 36.707031 51.53125 C 36.839844 52.089844 45.015625 52.199219 45.019531 51.421875 C 45.019531 50.640625 44.363281 50.308594 43.785156 50.070312 Z M 43.785156 50.070312 " fill-opacity="1" fill-rule="nonzero"/><path fill="#231f20" d="M 40.917969 52.046875 C 40.75 52.046875 36.757812 52.042969 36.640625 51.546875 C 36.617188 51.457031 36.609375 51.222656 36.777344 50.195312 C 36.78125 50.160156 36.816406 50.132812 36.855469 50.140625 C 36.871094 50.140625 36.886719 50.148438 36.894531 50.160156 C 36.90625 50.164062 36.929688 50.164062 36.972656 50.164062 C 37.289062 50.164062 38.105469 50.046875 38.199219 50.03125 C 38.945312 49.90625 39.453125 49.429688 39.984375 48.753906 C 40.011719 48.722656 40.042969 48.675781 40.082031 48.625 C 40.28125 48.351562 40.582031 47.933594 40.894531 47.933594 C 40.9375 47.933594 40.984375 47.941406 41.023438 47.957031 C 41.316406 48.078125 41.242188 48.4375 41.1875 48.699219 C 41.175781 48.761719 41.164062 48.820312 41.15625 48.867188 C 41.152344 48.917969 41.144531 48.96875 41.136719 49.023438 C 41.121094 49.128906 41.105469 49.234375 41.101562 49.332031 C 41.640625 49.542969 42.355469 49.6875 42.933594 49.800781 C 43.308594 49.875 43.636719 49.941406 43.808594 50.003906 C 44.472656 50.277344 45.085938 50.640625 45.085938 51.421875 C 45.085938 51.984375 42.171875 52.046875 40.917969 52.046875 Z M 36.898438 50.300781 C 36.761719 51.160156 36.753906 51.4375 36.773438 51.515625 C 36.847656 51.699219 38.566406 51.910156 40.917969 51.910156 C 43.535156 51.910156 44.949219 51.65625 44.949219 51.421875 C 44.949219 50.6875 44.335938 50.371094 43.757812 50.136719 C 43.597656 50.074219 43.277344 50.011719 42.90625 49.9375 C 42.308594 49.816406 41.5625 49.667969 41.007812 49.445312 C 40.980469 49.433594 40.964844 49.410156 40.964844 49.382812 C 40.964844 49.257812 40.980469 49.128906 41 49.003906 C 41.007812 48.953125 41.015625 48.902344 41.019531 48.851562 C 41.027344 48.800781 41.039062 48.738281 41.054688 48.667969 C 41.109375 48.390625 41.144531 48.15625 40.972656 48.085938 C 40.722656 47.984375 40.382812 48.441406 40.191406 48.707031 C 40.15625 48.757812 40.121094 48.804688 40.09375 48.839844 C 39.648438 49.40625 39.101562 50.019531 38.222656 50.171875 C 38.128906 50.1875 37.296875 50.304688 36.972656 50.304688 C 36.945312 50.304688 36.921875 50.300781 36.898438 50.300781 Z M 36.898438 50.300781 " fill-opacity="1" fill-rule="nonzero"/><path fill="#231f20" d="M 37.527344 49.78125 C 37.523438 49.78125 37.519531 49.78125 37.515625 49.78125 C 37.480469 49.777344 37.453125 49.742188 37.457031 49.703125 L 37.566406 48.75 C 37.570312 48.714844 37.605469 48.6875 37.640625 48.691406 C 37.679688 48.695312 37.707031 48.730469 37.703125 48.765625 L 37.59375 49.71875 C 37.589844 49.753906 37.558594 49.78125 37.527344 49.78125 Z M 37.527344 49.78125 " fill-opacity="1" fill-rule="nonzero"/><path fill="#231f20" d="M 38.546875 49.765625 C 38.507812 49.765625 38.476562 49.734375 38.480469 49.695312 L 38.5 48.90625 C 38.503906 48.871094 38.539062 48.84375 38.574219 48.839844 C 38.613281 48.839844 38.640625 48.875 38.640625 48.910156 L 38.617188 49.699219 C 38.617188 49.734375 38.585938 49.765625 38.546875 49.765625 Z M 38.546875 49.765625 " fill-opacity="1" fill-rule="nonzero"/><path fill="#231f20" d="M 39.105469 49.433594 C 39.066406 49.433594 39.035156 49.40625 39.035156 49.367188 L 39.015625 48.96875 C 39.011719 48.933594 39.042969 48.898438 39.078125 48.898438 C 39.117188 48.894531 39.148438 48.925781 39.152344 48.964844 L 39.171875 49.359375 C 39.175781 49.398438 39.144531 49.429688 39.109375 49.433594 C 39.105469 49.433594 39.105469 49.433594 39.105469 49.433594 Z M 39.105469 49.433594 " fill-opacity="1" fill-rule="nonzero"/><path fill="#e467a2" d="M 32.277344 31.117188 C 32.277344 31.117188 41.433594 30.558594 42.296875 34.019531 C 42.875 36.039062 42.050781 46 41.769531 46.984375 C 41.488281 47.96875 35.515625 47.054688 35.765625 45.355469 C 36.015625 43.652344 36.117188 37.984375 35.75 37.625 C 35.386719 37.261719 25.546875 37.320312 24.453125 36.441406 C 23.363281 35.5625 23.734375 31.78125 23.734375 31.78125 Z M 32.277344 31.117188 " fill-opacity="1" fill-rule="nonzero"/><path fill="#231f20" d="M 40.433594 47.457031 C 39.054688 47.457031 36.722656 46.972656 35.9375 46.0625 C 35.742188 45.835938 35.660156 45.59375 35.695312 45.34375 C 35.964844 43.523438 36.019531 37.988281 35.703125 37.671875 C 35.558594 37.550781 33.773438 37.464844 32.050781 37.378906 C 28.949219 37.230469 25.09375 37.042969 24.410156 36.496094 C 23.300781 35.601562 23.652344 31.933594 23.667969 31.777344 L 23.671875 31.71875 L 32.273438 31.050781 C 32.28125 31.050781 32.835938 31.015625 33.671875 31.015625 C 36.640625 31.015625 41.71875 31.402344 42.363281 34 C 42.957031 36.082031 42.097656 46.089844 41.835938 47.003906 C 41.730469 47.378906 41.015625 47.457031 40.433594 47.457031 Z M 23.800781 31.847656 C 23.757812 32.324219 23.519531 35.597656 24.5 36.386719 C 25.144531 36.90625 29.140625 37.101562 32.054688 37.242188 C 34.410156 37.355469 35.644531 37.421875 35.800781 37.574219 C 36.203125 37.972656 36.066406 43.785156 35.832031 45.367188 C 35.800781 45.570312 35.871094 45.777344 36.042969 45.972656 C 36.726562 46.765625 38.90625 47.320312 40.433594 47.320312 C 41.164062 47.320312 41.640625 47.1875 41.703125 46.964844 C 41.964844 46.058594 42.820312 36.105469 42.230469 34.039062 C 41.582031 31.433594 36.027344 31.152344 33.671875 31.152344 C 32.839844 31.152344 32.289062 31.1875 32.28125 31.1875 Z M 23.800781 31.847656 " fill-opacity="1" fill-rule="nonzero"/><path fill="#446b9c" d="M 50.5625 40.277344 C 50.25 39.539062 49.847656 39.050781 49.125 38.59375 C 48.160156 37.90625 46.78125 37.949219 47.636719 36.488281 C 47.875 36.074219 49.054688 34.859375 48.113281 34.570312 C 47.492188 34.382812 47.136719 35.375 46.507812 35.246094 C 46.070312 35.140625 45.640625 33.617188 45.097656 33.949219 C 44.691406 34.167969 45.179688 35.050781 44.703125 35.324219 C 44.296875 35.542969 43.59375 34.894531 43.117188 35.167969 C 42.441406 35.554688 43.4375 36.257812 43.703125 36.5625 C 44.59375 37.574219 44.058594 37.789062 43.277344 38.644531 C 41.101562 41.027344 39.589844 44.222656 39.269531 47.445312 C 39.082031 49.355469 39.253906 50.851562 41.078125 51.867188 C 42.417969 52.582031 43.820312 52.011719 45.148438 51.566406 C 46.949219 50.847656 48.167969 50.195312 49.476562 48.65625 C 50.566406 47.351562 50.941406 46.164062 51.175781 44.453125 C 51.320312 42.988281 51.191406 41.691406 50.5625 40.277344 Z M 50.5625 40.277344 " fill-opacity="1" fill-rule="nonzero"/><path fill="#231f20" d="M 42.46875 52.273438 C 41.949219 52.273438 41.480469 52.160156 41.042969 51.929688 C 39.238281 50.921875 39 49.464844 39.203125 47.441406 C 39.515625 44.28125 40.980469 41.058594 43.226562 38.597656 C 43.34375 38.46875 43.453125 38.355469 43.554688 38.25 C 44.128906 37.664062 44.367188 37.421875 43.652344 36.609375 C 43.605469 36.554688 43.53125 36.484375 43.449219 36.40625 C 43.167969 36.140625 42.78125 35.777344 42.820312 35.453125 C 42.835938 35.3125 42.925781 35.195312 43.082031 35.105469 C 43.171875 35.054688 43.273438 35.027344 43.390625 35.027344 C 43.589844 35.027344 43.800781 35.101562 44.003906 35.175781 C 44.269531 35.269531 44.519531 35.34375 44.671875 35.265625 C 44.878906 35.144531 44.867188 34.871094 44.855469 34.585938 C 44.84375 34.304688 44.832031 34.015625 45.0625 33.890625 C 45.121094 33.851562 45.1875 33.832031 45.253906 33.832031 C 45.546875 33.832031 45.789062 34.214844 46.019531 34.585938 C 46.191406 34.859375 46.371094 35.140625 46.523438 35.179688 C 46.554688 35.1875 46.585938 35.191406 46.617188 35.191406 C 46.847656 35.191406 47.042969 35.023438 47.25 34.847656 C 47.464844 34.664062 47.683594 34.476562 47.953125 34.476562 C 48.011719 34.476562 48.074219 34.488281 48.132812 34.503906 C 48.335938 34.566406 48.46875 34.679688 48.519531 34.832031 C 48.648438 35.226562 48.222656 35.796875 47.910156 36.214844 C 47.820312 36.339844 47.738281 36.445312 47.695312 36.523438 C 47.46875 36.910156 47.390625 37.207031 47.460938 37.429688 C 47.558594 37.734375 47.921875 37.898438 48.339844 38.09375 C 48.605469 38.210938 48.902344 38.347656 49.164062 38.535156 C 49.878906 38.988281 50.300781 39.484375 50.625 40.25 C 51.210938 41.566406 51.402344 42.863281 51.242188 44.460938 C 51.015625 46.117188 50.664062 47.339844 49.527344 48.699219 C 48.238281 50.222656 47.046875 50.882812 45.171875 51.628906 L 44.886719 51.726562 C 44.097656 51.996094 43.285156 52.273438 42.46875 52.273438 Z M 43.390625 35.167969 C 43.300781 35.167969 43.222656 35.1875 43.152344 35.226562 C 43.03125 35.296875 42.96875 35.375 42.957031 35.46875 C 42.925781 35.726562 43.296875 36.074219 43.542969 36.304688 C 43.628906 36.386719 43.703125 36.457031 43.753906 36.515625 C 44.558594 37.425781 44.238281 37.753906 43.65625 38.347656 C 43.554688 38.449219 43.445312 38.5625 43.328125 38.691406 C 41.101562 41.128906 39.648438 44.324219 39.339844 47.453125 C 39.144531 49.421875 39.371094 50.839844 41.109375 51.808594 C 41.527344 52.027344 41.972656 52.136719 42.46875 52.136719 C 43.261719 52.136719 44.066406 51.863281 44.84375 51.597656 L 45.125 51.5 C 46.976562 50.761719 48.148438 50.109375 49.421875 48.609375 C 50.535156 47.277344 50.882812 46.074219 51.105469 44.445312 C 51.261719 42.875 51.074219 41.597656 50.5 40.308594 C 50.179688 39.558594 49.785156 39.09375 49.089844 38.652344 C 48.832031 38.46875 48.554688 38.34375 48.285156 38.21875 C 47.832031 38.011719 47.445312 37.835938 47.328125 37.472656 C 47.246094 37.207031 47.324219 36.882812 47.574219 36.453125 C 47.625 36.371094 47.707031 36.261719 47.800781 36.132812 C 48.078125 35.761719 48.492188 35.199219 48.386719 34.875 C 48.351562 34.765625 48.253906 34.6875 48.09375 34.636719 C 48.046875 34.625 48 34.617188 47.953125 34.617188 C 47.734375 34.617188 47.542969 34.78125 47.339844 34.953125 C 47.125 35.136719 46.898438 35.328125 46.617188 35.328125 C 46.578125 35.328125 46.535156 35.324219 46.492188 35.316406 C 46.28125 35.265625 46.097656 34.96875 45.902344 34.660156 C 45.703125 34.335938 45.472656 33.972656 45.253906 33.972656 C 45.214844 33.972656 45.171875 33.984375 45.132812 34.007812 C 44.972656 34.09375 44.984375 34.320312 44.992188 34.578125 C 45.007812 34.878906 45.023438 35.222656 44.738281 35.386719 C 44.667969 35.421875 44.59375 35.441406 44.503906 35.441406 C 44.335938 35.441406 44.152344 35.375 43.957031 35.304688 C 43.765625 35.238281 43.566406 35.167969 43.390625 35.167969 Z M 43.390625 35.167969 " fill-opacity="1" fill-rule="nonzero"/><path fill="#446b9c" d="M 51.171875 44.453125 C 50.941406 46.164062 50.566406 47.351562 49.472656 48.652344 C 48.167969 50.195312 46.949219 50.84375 45.148438 51.566406 C 43.820312 52.011719 42.417969 52.578125 41.078125 51.867188 C 39.253906 50.851562 39.082031 49.355469 39.269531 47.445312 C 39.589844 44.222656 41.101562 41.027344 43.277344 38.644531 C 44.058594 37.785156 44.597656 37.574219 43.703125 36.5625 C 43.4375 36.257812 42.441406 35.550781 43.117188 35.167969 C 43.59375 34.894531 44.296875 35.542969 44.703125 35.324219 C 45.179688 35.050781 44.691406 34.167969 45.097656 33.949219 C 45.640625 33.617188 46.070312 35.140625 46.507812 35.246094 C 47.136719 35.375 47.492188 34.382812 48.113281 34.570312 C 48.148438 34.582031 48.183594 34.59375 48.214844 34.609375 C 48.964844 34.953125 47.867188 36.09375 47.636719 36.488281 C 46.777344 37.949219 48.160156 37.90625 49.125 38.59375 C 49.851562 39.050781 50.25 39.539062 50.5625 40.277344 C 51.191406 41.691406 51.320312 42.988281 51.171875 44.453125 Z M 51.171875 44.453125 " fill-opacity="1" fill-rule="nonzero"/><path fill="#231f20" d="M 42.46875 52.273438 C 41.949219 52.273438 41.480469 52.160156 41.042969 51.929688 C 39.238281 50.921875 39 49.464844 39.203125 47.4375 C 39.515625 44.28125 40.980469 41.058594 43.226562 38.597656 C 43.34375 38.46875 43.453125 38.355469 43.554688 38.25 C 44.128906 37.664062 44.367188 37.421875 43.652344 36.609375 C 43.601562 36.554688 43.53125 36.484375 43.445312 36.40625 C 43.164062 36.140625 42.78125 35.777344 42.820312 35.449219 C 42.835938 35.3125 42.925781 35.195312 43.082031 35.105469 C 43.175781 35.054688 43.277344 35.027344 43.394531 35.027344 C 43.59375 35.027344 43.800781 35.101562 44.003906 35.175781 C 44.269531 35.269531 44.519531 35.34375 44.671875 35.265625 C 44.878906 35.144531 44.867188 34.871094 44.855469 34.585938 C 44.84375 34.304688 44.832031 34.011719 45.066406 33.890625 C 45.125 33.851562 45.1875 33.832031 45.253906 33.832031 C 45.550781 33.832031 45.789062 34.214844 46.019531 34.585938 C 46.191406 34.859375 46.371094 35.140625 46.523438 35.179688 C 46.550781 35.1875 46.585938 35.191406 46.617188 35.191406 C 46.851562 35.191406 47.046875 35.023438 47.253906 34.847656 C 47.464844 34.664062 47.683594 34.476562 47.953125 34.476562 C 48.011719 34.476562 48.074219 34.488281 48.132812 34.503906 C 48.175781 34.519531 48.210938 34.53125 48.246094 34.546875 C 48.394531 34.617188 48.492188 34.722656 48.527344 34.863281 C 48.625 35.253906 48.210938 35.8125 47.910156 36.21875 C 47.820312 36.339844 47.738281 36.445312 47.695312 36.523438 C 47.46875 36.910156 47.390625 37.207031 47.460938 37.429688 C 47.558594 37.734375 47.921875 37.898438 48.34375 38.09375 C 48.605469 38.210938 48.902344 38.347656 49.164062 38.535156 C 49.878906 38.988281 50.300781 39.484375 50.625 40.25 C 51.210938 41.5625 51.402344 42.863281 51.242188 44.460938 C 51.015625 46.117188 50.664062 47.339844 49.527344 48.699219 C 48.238281 50.21875 47.050781 50.878906 45.171875 51.632812 C 45.074219 51.664062 44.980469 51.695312 44.882812 51.730469 C 44.097656 51.996094 43.28125 52.273438 42.46875 52.273438 Z M 43.394531 35.167969 C 43.300781 35.167969 43.222656 35.1875 43.152344 35.226562 C 43.03125 35.296875 42.96875 35.375 42.957031 35.46875 C 42.925781 35.722656 43.296875 36.074219 43.542969 36.304688 C 43.628906 36.386719 43.703125 36.457031 43.753906 36.515625 C 44.558594 37.425781 44.238281 37.753906 43.65625 38.347656 C 43.554688 38.449219 43.445312 38.5625 43.328125 38.691406 C 41.101562 41.128906 39.648438 44.324219 39.339844 47.453125 C 39.144531 49.421875 39.371094 50.835938 41.109375 51.808594 C 41.527344 52.027344 41.972656 52.136719 42.46875 52.136719 C 43.257812 52.136719 44.0625 51.863281 44.839844 51.597656 C 44.933594 51.566406 45.03125 51.53125 45.125 51.5 C 46.976562 50.757812 48.152344 50.109375 49.421875 48.609375 C 50.535156 47.277344 50.882812 46.074219 51.105469 44.445312 C 51.261719 42.875 51.074219 41.597656 50.496094 40.308594 C 50.179688 39.558594 49.785156 39.09375 49.089844 38.652344 C 48.832031 38.46875 48.554688 38.34375 48.285156 38.21875 C 47.832031 38.011719 47.445312 37.835938 47.328125 37.472656 C 47.246094 37.207031 47.324219 36.882812 47.578125 36.453125 C 47.625 36.371094 47.707031 36.261719 47.800781 36.132812 C 48.070312 35.773438 48.476562 35.226562 48.390625 34.898438 C 48.367188 34.800781 48.300781 34.726562 48.183594 34.671875 C 48.15625 34.660156 48.128906 34.648438 48.09375 34.636719 C 47.820312 34.554688 47.585938 34.742188 47.34375 34.953125 C 47.125 35.136719 46.902344 35.328125 46.617188 35.328125 C 46.578125 35.328125 46.535156 35.324219 46.492188 35.316406 C 46.28125 35.261719 46.097656 34.96875 45.902344 34.660156 C 45.703125 34.335938 45.472656 33.972656 45.253906 33.972656 C 45.214844 33.972656 45.175781 33.984375 45.132812 34.007812 C 44.972656 34.09375 44.984375 34.320312 44.992188 34.578125 C 45.007812 34.878906 45.023438 35.222656 44.738281 35.386719 C 44.667969 35.421875 44.59375 35.4375 44.507812 35.4375 C 44.335938 35.4375 44.152344 35.375 43.957031 35.304688 C 43.765625 35.238281 43.566406 35.167969 43.394531 35.167969 Z M 43.394531 35.167969 " fill-opacity="1" fill-rule="nonzero"/><path fill="#231f20" d="M 44.128906 37.566406 C 44.113281 38.089844 45.078125 38.289062 45.429688 38.351562 C 46.261719 38.503906 47.007812 38.367188 47.597656 37.75 C 47.691406 37.652344 47.542969 37.503906 47.449219 37.601562 C 46.992188 38.085938 46.480469 38.230469 45.820312 38.195312 C 45.414062 38.171875 44.378906 38.070312 44.238281 37.554688 C 44.222656 37.492188 44.128906 37.503906 44.128906 37.566406 Z M 44.128906 37.566406 " fill-opacity="1" fill-rule="nonzero"/><path fill="#231f20" d="M 44.035156 37.875 C 44.210938 38.480469 45.210938 38.5625 45.726562 38.554688 C 46.402344 38.546875 47.070312 38.070312 47.484375 37.558594 C 47.589844 37.425781 47.398438 37.234375 47.292969 37.371094 C 46.972656 37.773438 46.535156 38.09375 46.050781 38.257812 C 45.5 38.445312 44.480469 38.34375 44.121094 37.839844 C 44.09375 37.796875 44.019531 37.820312 44.035156 37.875 Z M 44.035156 37.875 " fill-opacity="1" fill-rule="nonzero"/><path fill="#231f20" d="M 43.625 43.425781 C 43.621094 43.425781 43.617188 43.425781 43.613281 43.425781 C 43.578125 43.417969 43.550781 43.382812 43.558594 43.34375 C 43.777344 41.933594 44.085938 40.890625 44.554688 39.96875 C 44.832031 39.417969 45.492188 38.683594 45.703125 38.453125 C 44.910156 38.078125 44.71875 37.820312 44.320312 36.695312 C 44.308594 36.660156 44.328125 36.621094 44.363281 36.605469 C 44.402344 36.59375 44.441406 36.613281 44.453125 36.648438 C 44.855469 37.792969 45.011719 37.984375 45.847656 38.367188 C 45.867188 38.375 45.882812 38.394531 45.886719 38.417969 C 45.890625 38.4375 45.882812 38.460938 45.867188 38.476562 C 45.859375 38.488281 44.996094 39.402344 44.679688 40.03125 C 44.21875 40.941406 43.914062 41.96875 43.695312 43.367188 C 43.6875 43.402344 43.660156 43.425781 43.625 43.425781 Z M 43.625 43.425781 " fill-opacity="1" fill-rule="nonzero"/><path fill="#231f20" d="M 48.515625 43.292969 C 48.515625 43.292969 48.511719 43.292969 48.507812 43.292969 C 48.46875 43.285156 48.441406 43.25 48.449219 43.214844 C 48.613281 42.207031 48.066406 40.714844 47.464844 39.820312 C 46.851562 38.902344 46.632812 38.605469 46.097656 38.425781 C 46.074219 38.417969 46.054688 38.398438 46.050781 38.375 C 46.042969 38.351562 46.050781 38.328125 46.070312 38.308594 C 46.601562 37.792969 46.902344 37.453125 46.871094 36.492188 C 46.867188 36.457031 46.898438 36.421875 46.9375 36.421875 C 46.976562 36.417969 47.007812 36.449219 47.007812 36.488281 C 47.039062 37.453125 46.742188 37.84375 46.246094 38.332031 C 46.75 38.53125 46.988281 38.855469 47.582031 39.742188 C 48.195312 40.65625 48.753906 42.191406 48.585938 43.234375 C 48.582031 43.269531 48.550781 43.292969 48.515625 43.292969 Z M 48.515625 43.292969 " fill-opacity="1" fill-rule="nonzero"/><path fill="#231f20" d="M 48.214844 34.609375 C 48.214844 35.269531 47.507812 35.554688 46.953125 35.625 C 46.765625 35.660156 46.609375 35.710938 46.453125 35.832031 C 46.261719 35.972656 46.140625 36.179688 45.898438 36.25 C 45.5 36.355469 45.171875 36.109375 44.824219 35.953125 C 44.460938 35.816406 43.011719 35.878906 43.117188 35.167969 C 43.59375 34.894531 44.296875 35.542969 44.703125 35.324219 C 45.179688 35.050781 44.691406 34.167969 45.097656 33.949219 C 45.640625 33.617188 46.070312 35.140625 46.507812 35.246094 C 47.136719 35.375 47.492188 34.382812 48.113281 34.570312 C 48.148438 34.582031 48.183594 34.59375 48.214844 34.609375 Z M 48.214844 34.609375 " fill-opacity="1" fill-rule="nonzero"/><path fill="#5ba2ad" d="M 1.347656 30.660156 C 0.03125 30.511719 0.175781 31.539062 0.105469 32.640625 C 0.105469 33.375 0.398438 34.839844 1.347656 33.960938 Z M 1.347656 30.660156 " fill-opacity="1" fill-rule="nonzero"/><path fill="#231f20" d="M 0.8125 34.304688 C 0.175781 34.304688 0.0351562 33.101562 0.0351562 32.640625 C 0.0429688 32.5 0.0507812 32.363281 0.0546875 32.230469 C 0.0898438 31.378906 0.125 30.574219 1.113281 30.574219 C 1.1875 30.574219 1.269531 30.578125 1.355469 30.589844 L 1.417969 30.597656 L 1.417969 33.992188 L 1.394531 34.011719 C 1.1875 34.207031 0.992188 34.304688 0.8125 34.304688 Z M 1.113281 30.714844 C 0.257812 30.714844 0.230469 31.386719 0.191406 32.234375 C 0.1875 32.367188 0.183594 32.507812 0.171875 32.644531 C 0.171875 33.273438 0.371094 34.164062 0.8125 34.164062 C 0.949219 34.164062 1.105469 34.085938 1.277344 33.929688 L 1.277344 30.722656 C 1.21875 30.714844 1.164062 30.714844 1.113281 30.714844 Z M 1.113281 30.714844 " fill-opacity="1" fill-rule="nonzero"/><path fill="#e467a2" d="M 15.027344 43.054688 C 17.015625 43.078125 18.648438 42.628906 18.75 40.605469 C 18.847656 38.746094 18.945312 34.28125 18.945312 32.421875 C 18.945312 30.445312 19.1875 27.800781 17.46875 26.398438 C 15.808594 25.042969 6.046875 25.261719 3.734375 25.539062 C 1.421875 25.816406 1.1875 29.636719 1.1875 29.636719 C 1.1875 29.636719 1.15625 38.707031 1.328125 40.214844 C 1.53125 41.988281 2.214844 42.671875 3.59375 42.671875 C 6.425781 42.671875 13.039062 43.03125 15.027344 43.054688 Z M 15.027344 43.054688 " fill-opacity="1" fill-rule="nonzero"/><path fill="#231f20" d="M 15.171875 43.125 C 15.121094 43.125 15.074219 43.125 15.027344 43.121094 C 14.199219 43.113281 12.609375 43.046875 10.765625 42.96875 C 8.179688 42.863281 5.25 42.742188 3.59375 42.742188 C 2.160156 42.742188 1.460938 41.988281 1.261719 40.222656 C 1.089844 38.726562 1.117188 29.726562 1.117188 29.636719 C 1.128906 29.472656 1.382812 25.75 3.726562 25.46875 C 4.5625 25.367188 6.550781 25.261719 8.9375 25.261719 C 11.117188 25.261719 16.316406 25.367188 17.511719 26.34375 C 19.070312 27.617188 19.042969 29.917969 19.019531 31.765625 C 19.015625 31.988281 19.011719 32.210938 19.011719 32.421875 C 19.011719 34.289062 18.914062 38.765625 18.816406 40.609375 C 18.707031 42.863281 16.683594 43.125 15.171875 43.125 Z M 8.9375 25.398438 C 6.558594 25.398438 4.574219 25.507812 3.742188 25.605469 C 1.515625 25.875 1.257812 29.601562 1.257812 29.640625 C 1.257812 29.726562 1.230469 38.71875 1.398438 40.207031 C 1.59375 41.910156 2.230469 42.601562 3.59375 42.601562 C 5.253906 42.601562 8.1875 42.726562 10.773438 42.832031 C 12.613281 42.910156 14.203125 42.972656 15.027344 42.984375 C 15.074219 42.984375 15.121094 42.984375 15.171875 42.984375 C 17.515625 42.984375 18.597656 42.25 18.679688 40.605469 C 18.777344 38.757812 18.875 34.289062 18.875 32.421875 C 18.875 32.210938 18.878906 31.988281 18.878906 31.761719 C 18.902344 29.945312 18.933594 27.679688 17.425781 26.449219 C 16.605469 25.78125 13.511719 25.398438 8.9375 25.398438 Z M 8.9375 25.398438 " fill-opacity="1" fill-rule="nonzero"/><path fill="#5ba2ad" d="M 1.148438 30.148438 C 1.136719 30.359375 1.125 30.574219 1.117188 30.792969 C 3.8125 30.640625 7.332031 30.886719 10.03125 30.90625 C 13.007812 30.929688 15.980469 31.082031 18.957031 31.117188 C 18.957031 30.90625 18.953125 30.691406 18.949219 30.476562 C 15.976562 30.4375 13.007812 30.273438 10.03125 30.265625 C 7.34375 30.257812 3.835938 30.003906 1.148438 30.148438 Z M 1.148438 30.148438 " fill-opacity="1" fill-rule="nonzero"/><path fill="#231f20" d="M 19.023438 31.1875 L 18.953125 31.1875 C 17.546875 31.171875 16.113281 31.128906 14.730469 31.085938 C 13.191406 31.035156 11.597656 30.988281 10.03125 30.976562 C 9.085938 30.96875 8.050781 30.933594 6.960938 30.898438 C 5.679688 30.855469 4.355469 30.8125 3.109375 30.8125 C 2.355469 30.8125 1.703125 30.828125 1.121094 30.859375 L 1.042969 30.867188 L 1.046875 30.789062 C 1.054688 30.570312 1.066406 30.355469 1.082031 30.144531 L 1.085938 30.082031 L 1.144531 30.078125 C 1.703125 30.046875 2.320312 30.035156 3.035156 30.035156 C 4.242188 30.035156 5.53125 30.078125 6.777344 30.117188 C 7.9375 30.15625 9.03125 30.191406 10.03125 30.195312 C 11.675781 30.199219 13.34375 30.253906 14.960938 30.304688 C 16.265625 30.347656 17.621094 30.390625 18.949219 30.40625 L 19.015625 30.40625 L 19.019531 30.472656 C 19.023438 30.691406 19.023438 30.90625 19.023438 31.117188 Z M 3.109375 30.671875 C 4.359375 30.671875 5.683594 30.71875 6.964844 30.761719 C 8.054688 30.796875 9.089844 30.832031 10.035156 30.839844 C 11.601562 30.847656 13.195312 30.898438 14.734375 30.945312 C 16.09375 30.988281 17.5 31.03125 18.886719 31.046875 C 18.886719 30.882812 18.886719 30.710938 18.882812 30.542969 C 17.570312 30.527344 16.242188 30.484375 14.957031 30.441406 C 13.34375 30.390625 11.675781 30.339844 10.03125 30.335938 C 9.03125 30.332031 7.933594 30.296875 6.773438 30.257812 C 5.527344 30.214844 4.242188 30.171875 3.035156 30.171875 C 2.351562 30.171875 1.753906 30.1875 1.214844 30.214844 C 1.203125 30.378906 1.195312 30.546875 1.1875 30.71875 C 1.753906 30.6875 2.386719 30.671875 3.109375 30.671875 Z M 3.109375 30.671875 " fill-opacity="1" fill-rule="nonzero"/><path fill="#df8666" d="M 51.148438 26.851562 C 50.804688 26.644531 49.550781 26.761719 49.257812 26.03125 C 49.070312 25.558594 48.179688 25.984375 47.316406 26.039062 C 46.359375 26.097656 45.523438 25.625 45.523438 24.710938 C 45.523438 23.707031 46.324219 23.007812 47.277344 22.949219 C 49.152344 22.835938 51.257812 22.808594 52.921875 23.808594 C 54.863281 24.976562 53.097656 28.019531 51.148438 26.851562 Z M 51.148438 26.851562 " fill-opacity="1" fill-rule="nonzero"/><path fill="#231f20" d="M 52.035156 27.183594 C 51.726562 27.183594 51.414062 27.089844 51.113281 26.910156 C 51.015625 26.851562 50.820312 26.820312 50.589844 26.78125 C 50.09375 26.703125 49.410156 26.589844 49.195312 26.054688 C 49.148438 25.933594 49.035156 25.878906 48.835938 25.878906 C 48.652344 25.878906 48.414062 25.929688 48.160156 25.980469 C 47.902344 26.03125 47.609375 26.089844 47.320312 26.105469 C 46.792969 26.140625 46.304688 26.011719 45.964844 25.757812 C 45.628906 25.503906 45.453125 25.140625 45.453125 24.710938 C 45.453125 23.714844 46.21875 22.945312 47.273438 22.878906 C 47.695312 22.855469 48.25 22.824219 48.820312 22.824219 C 50.59375 22.824219 51.90625 23.117188 52.957031 23.75 C 53.6875 24.1875 53.988281 24.933594 53.761719 25.746094 C 53.53125 26.578125 52.804688 27.183594 52.035156 27.183594 Z M 48.835938 25.742188 C 49.09375 25.742188 49.253906 25.828125 49.324219 26.003906 C 49.507812 26.464844 50.121094 26.566406 50.613281 26.644531 C 50.855469 26.683594 51.0625 26.71875 51.183594 26.789062 C 51.464844 26.960938 51.75 27.042969 52.035156 27.042969 C 52.839844 27.042969 53.445312 26.371094 53.628906 25.710938 C 53.835938 24.960938 53.558594 24.273438 52.886719 23.867188 C 51.859375 23.25 50.566406 22.964844 48.820312 22.964844 C 48.253906 22.964844 47.703125 22.992188 47.28125 23.019531 C 46.300781 23.078125 45.589844 23.789062 45.589844 24.710938 C 45.589844 25.097656 45.75 25.417969 46.046875 25.644531 C 46.363281 25.882812 46.820312 26 47.3125 25.96875 C 47.589844 25.953125 47.867188 25.894531 48.132812 25.84375 C 48.394531 25.789062 48.640625 25.742188 48.835938 25.742188 Z M 48.835938 25.742188 " fill-opacity="1" fill-rule="nonzero"/><path fill="#5ba2ad" d="M 36.15625 27.199219 C 33.246094 26.023438 29.933594 22.351562 30.308594 20.207031 C 30.6875 18.0625 32.214844 17.007812 34.554688 17.773438 C 36.890625 18.539062 37.128906 22.078125 39.324219 22.605469 C 40.554688 22.898438 41.886719 22.832031 43.140625 22.769531 C 43.855469 22.734375 44.566406 22.683594 45.28125 22.621094 C 45.882812 22.566406 46.519531 22.4375 47.128906 22.445312 C 47.445312 22.449219 47.558594 22.761719 47.929688 22.695312 C 48.179688 22.652344 48.375 22.511719 48.597656 22.710938 C 48.742188 22.839844 48.792969 23.054688 48.839844 23.238281 C 48.960938 23.695312 48.976562 24.183594 48.957031 24.65625 C 48.929688 25.324219 48.871094 26.53125 48.285156 26.992188 C 47.496094 27.617188 39.644531 28.605469 36.15625 27.199219 Z M 36.15625 27.199219 " fill-opacity="1" fill-rule="nonzero"/><path fill="#231f20" d="M 41.308594 27.984375 C 39.765625 27.984375 37.609375 27.859375 36.128906 27.261719 C 33.28125 26.113281 29.851562 22.410156 30.242188 20.195312 C 30.550781 18.453125 31.601562 17.457031 33.128906 17.457031 C 33.578125 17.457031 34.0625 17.539062 34.574219 17.707031 C 35.769531 18.097656 36.421875 19.1875 37.050781 20.242188 C 37.679688 21.289062 38.269531 22.28125 39.339844 22.535156 C 39.960938 22.683594 40.652344 22.753906 41.519531 22.753906 C 42.054688 22.753906 42.59375 22.726562 43.117188 22.703125 L 43.136719 22.703125 C 43.773438 22.671875 44.449219 22.621094 45.273438 22.550781 C 45.484375 22.53125 45.703125 22.503906 45.917969 22.476562 C 46.296875 22.425781 46.691406 22.375 47.070312 22.375 L 47.128906 22.375 C 47.289062 22.375 47.40625 22.449219 47.507812 22.515625 C 47.628906 22.589844 47.738281 22.660156 47.917969 22.628906 C 47.976562 22.617188 48.03125 22.601562 48.085938 22.585938 C 48.171875 22.5625 48.257812 22.535156 48.34375 22.535156 C 48.453125 22.535156 48.550781 22.578125 48.640625 22.65625 C 48.796875 22.796875 48.851562 23.007812 48.902344 23.195312 L 48.90625 23.21875 C 49.011719 23.621094 49.050781 24.078125 49.027344 24.660156 C 49 25.324219 48.945312 26.558594 48.328125 27.046875 C 47.792969 27.46875 44.449219 27.984375 41.308594 27.984375 Z M 33.128906 17.59375 C 31.675781 17.59375 30.671875 18.550781 30.378906 20.21875 C 29.996094 22.378906 33.378906 26.003906 36.179688 27.132812 C 37.640625 27.722656 39.777344 27.847656 41.308594 27.847656 C 44.609375 27.847656 47.789062 27.296875 48.242188 26.9375 C 48.8125 26.488281 48.863281 25.25 48.890625 24.652344 C 48.914062 24.085938 48.875 23.644531 48.773438 23.253906 L 48.769531 23.234375 C 48.722656 23.0625 48.671875 22.871094 48.550781 22.761719 C 48.484375 22.703125 48.421875 22.675781 48.34375 22.675781 C 48.277344 22.675781 48.203125 22.695312 48.125 22.71875 C 48.066406 22.734375 48.007812 22.753906 47.941406 22.765625 C 47.902344 22.773438 47.867188 22.773438 47.832031 22.773438 C 47.660156 22.773438 47.542969 22.699219 47.4375 22.632812 C 47.339844 22.574219 47.25 22.515625 47.125 22.511719 L 47.070312 22.511719 C 46.699219 22.511719 46.3125 22.5625 45.9375 22.613281 C 45.722656 22.640625 45.5 22.667969 45.285156 22.6875 C 44.460938 22.761719 43.78125 22.808594 43.144531 22.839844 L 43.125 22.839844 C 42.601562 22.867188 42.058594 22.894531 41.519531 22.894531 C 40.640625 22.894531 39.9375 22.824219 39.308594 22.671875 C 38.183594 22.402344 37.574219 21.386719 36.933594 20.3125 C 36.316406 19.28125 35.675781 18.214844 34.53125 17.839844 C 34.035156 17.675781 33.5625 17.59375 33.128906 17.59375 Z M 33.128906 17.59375 " fill-opacity="1" fill-rule="nonzero"/><path fill="#e467a2" d="M 55.546875 23.53125 C 58.621094 22.0625 60.234375 32.921875 54.667969 30.132812 Z M 55.546875 23.53125 " fill-opacity="1" fill-rule="nonzero"/><path fill="#231f20" d="M 56.308594 30.664062 L 56.308594 30.523438 C 56.964844 30.523438 57.472656 30.230469 57.816406 29.652344 C 58.121094 29.140625 58.285156 28.433594 58.285156 27.601562 C 58.285156 25.648438 57.355469 23.460938 56.117188 23.460938 L 56.117188 23.324219 C 57.476562 23.324219 58.421875 25.578125 58.421875 27.601562 C 58.421875 28.457031 58.253906 29.191406 57.9375 29.722656 C 57.570312 30.339844 57.007812 30.664062 56.308594 30.664062 Z M 56.308594 30.664062 " fill-opacity="1" fill-rule="nonzero"/><path fill="#231f20" d="M 56.925781 45.148438 C 58.722656 44.984375 60.539062 45.261719 62.152344 46.09375 C 64.105469 47.105469 66.417969 50.09375 66.734375 52.316406 C 67.359375 56.734375 64.964844 61.515625 60.71875 63.015625 C 56.332031 64.566406 51.289062 63.140625 49.039062 59 C 44.847656 51.277344 50.855469 45.710938 56.925781 45.148438 Z M 56.925781 45.148438 " fill-opacity="1" fill-rule="nonzero"/><path fill="#231f20" d="M 57.175781 63.695312 C 53.628906 63.695312 50.5625 61.953125 48.976562 59.03125 C 46.835938 55.082031 47.535156 52.09375 48.5 50.28125 C 50.003906 47.457031 53.308594 45.414062 56.921875 45.082031 C 57.253906 45.050781 57.585938 45.035156 57.914062 45.035156 C 59.464844 45.035156 60.902344 45.371094 62.183594 46.03125 C 64.25 47.101562 66.496094 50.152344 66.800781 52.308594 C 67.464844 56.992188 64.859375 61.625 60.738281 63.082031 C 59.585938 63.488281 58.386719 63.695312 57.175781 63.695312 Z M 57.914062 45.171875 C 57.589844 45.171875 57.261719 45.1875 56.933594 45.21875 C 53.367188 45.546875 50.105469 47.5625 48.621094 50.347656 C 47.671875 52.128906 46.984375 55.070312 49.101562 58.964844 C 50.660156 61.839844 53.679688 63.558594 57.175781 63.558594 C 58.371094 63.558594 59.554688 63.351562 60.695312 62.949219 C 64.75 61.515625 67.316406 56.949219 66.664062 52.328125 C 66.363281 50.207031 64.15625 47.207031 62.121094 46.15625 C 60.859375 45.503906 59.445312 45.171875 57.914062 45.171875 Z M 57.914062 45.171875 " fill-opacity="1" fill-rule="nonzero"/><path fill="#446b9c" d="M 57.082031 49.738281 C 57.984375 49.652344 58.894531 49.792969 59.703125 50.210938 C 60.6875 50.71875 61.847656 52.21875 62.003906 53.335938 C 62.320312 55.554688 61.117188 57.953125 58.984375 58.707031 C 56.78125 59.488281 54.25 58.773438 53.121094 56.691406 C 51.015625 52.8125 54.03125 50.019531 57.082031 49.738281 Z M 57.082031 49.738281 " fill-opacity="1" fill-rule="nonzero"/><path fill="#231f20" d="M 57.207031 59.085938 C 55.410156 59.085938 53.863281 58.203125 53.058594 56.726562 C 51.976562 54.726562 52.328125 53.214844 52.816406 52.296875 C 53.578125 50.871094 55.25 49.835938 57.074219 49.667969 C 57.242188 49.652344 57.410156 49.644531 57.578125 49.644531 C 58.363281 49.644531 59.089844 49.816406 59.734375 50.148438 C 60.78125 50.691406 61.917969 52.234375 62.074219 53.328125 C 62.410156 55.695312 61.089844 58.039062 59.007812 58.773438 C 58.425781 58.980469 57.816406 59.085938 57.207031 59.085938 Z M 57.578125 49.785156 C 57.414062 49.785156 57.25 49.792969 57.085938 49.804688 C 55.308594 49.972656 53.679688 50.976562 52.941406 52.363281 C 52.46875 53.25 52.125 54.714844 53.179688 56.660156 C 53.957031 58.089844 55.464844 58.945312 57.207031 58.945312 C 57.800781 58.945312 58.394531 58.84375 58.960938 58.644531 C 60.984375 57.929688 62.261719 55.652344 61.9375 53.347656 C 61.785156 52.289062 60.6875 50.796875 59.671875 50.273438 C 59.042969 49.949219 58.339844 49.785156 57.578125 49.785156 Z M 57.578125 49.785156 " fill-opacity="1" fill-rule="nonzero"/><path fill="#231f20" d="M 20.828125 45.148438 C 22.625 44.984375 24.441406 45.261719 26.054688 46.09375 C 28.007812 47.105469 30.320312 50.09375 30.636719 52.316406 C 31.261719 56.734375 28.867188 61.515625 24.621094 63.015625 C 20.234375 64.566406 15.191406 63.140625 12.941406 59 C 8.75 51.277344 14.757812 45.710938 20.828125 45.148438 Z M 20.828125 45.148438 " fill-opacity="1" fill-rule="nonzero"/><path fill="#231f20" d="M 21.078125 63.695312 C 17.53125 63.695312 14.464844 61.953125 12.882812 59.03125 C 10.738281 55.082031 11.4375 52.09375 12.402344 50.28125 C 13.90625 47.457031 17.210938 45.414062 20.824219 45.082031 C 21.15625 45.050781 21.488281 45.035156 21.816406 45.035156 C 23.371094 45.035156 24.804688 45.371094 26.085938 46.03125 C 28.152344 47.101562 30.398438 50.152344 30.703125 52.308594 C 31.367188 56.992188 28.761719 61.625 24.644531 63.082031 C 23.488281 63.488281 22.289062 63.695312 21.078125 63.695312 Z M 21.816406 45.171875 C 21.492188 45.171875 21.164062 45.1875 20.835938 45.21875 C 17.269531 45.546875 14.007812 47.5625 12.523438 50.347656 C 11.574219 52.128906 10.886719 55.070312 13.003906 58.964844 C 14.5625 61.839844 17.582031 63.558594 21.078125 63.558594 C 22.273438 63.558594 23.457031 63.351562 24.597656 62.949219 C 28.65625 61.515625 31.222656 56.949219 30.566406 52.328125 C 30.265625 50.207031 28.058594 47.207031 26.023438 46.15625 C 24.761719 45.503906 23.347656 45.171875 21.816406 45.171875 Z M 21.816406 45.171875 " fill-opacity="1" fill-rule="nonzero"/><path fill="#446b9c" d="M 20.984375 49.738281 C 21.886719 49.652344 22.796875 49.792969 23.605469 50.210938 C 24.589844 50.71875 25.75 52.21875 25.90625 53.335938 C 26.222656 55.554688 25.019531 57.953125 22.886719 58.707031 C 20.683594 59.488281 18.152344 58.773438 17.023438 56.691406 C 14.917969 52.8125 17.9375 50.019531 20.984375 49.738281 Z M 20.984375 49.738281 " fill-opacity="1" fill-rule="nonzero"/><path fill="#231f20" d="M 21.109375 59.085938 C 19.3125 59.085938 17.765625 58.203125 16.960938 56.726562 C 15.878906 54.726562 16.234375 53.214844 16.722656 52.296875 C 17.480469 50.871094 19.152344 49.835938 20.976562 49.667969 C 21.144531 49.652344 21.3125 49.644531 21.480469 49.644531 C 22.265625 49.644531 22.992188 49.816406 23.640625 50.148438 C 24.6875 50.691406 25.820312 52.234375 25.976562 53.328125 C 26.3125 55.695312 24.992188 58.039062 22.910156 58.773438 C 22.328125 58.980469 21.722656 59.085938 21.109375 59.085938 Z M 21.480469 49.785156 C 21.320312 49.785156 21.152344 49.792969 20.988281 49.804688 C 19.210938 49.972656 17.582031 50.976562 16.84375 52.363281 C 16.371094 53.25 16.03125 54.714844 17.082031 56.660156 C 17.863281 58.089844 19.367188 58.945312 21.109375 58.945312 C 21.707031 58.945312 22.296875 58.84375 22.863281 58.644531 C 24.886719 57.929688 26.164062 55.652344 25.839844 53.347656 C 25.691406 52.289062 24.589844 50.796875 23.574219 50.273438 C 22.949219 49.949219 22.242188 49.785156 21.480469 49.785156 Z M 21.480469 49.785156 " fill-opacity="1" fill-rule="nonzero"/><path fill="#e467a2" d="M 21.042969 51.492188 C 21.601562 51.441406 22.167969 51.527344 22.671875 51.785156 C 23.28125 52.101562 24 53.035156 24.101562 53.726562 C 24.296875 55.105469 23.546875 56.59375 22.222656 57.0625 C 20.855469 57.546875 19.285156 57.101562 18.582031 55.808594 C 17.277344 53.402344 19.148438 51.667969 21.042969 51.492188 Z M 21.042969 51.492188 " fill-opacity="1" fill-rule="nonzero"/><path fill="#231f20" d="M 21.121094 57.320312 C 19.996094 57.320312 19.027344 56.769531 18.523438 55.84375 C 17.84375 54.59375 18.066406 53.644531 18.371094 53.070312 C 18.847656 52.175781 19.894531 51.527344 21.035156 51.421875 C 21.640625 51.367188 22.210938 51.46875 22.703125 51.722656 C 23.359375 52.0625 24.070312 53.03125 24.167969 53.71875 C 24.378906 55.199219 23.550781 56.667969 22.246094 57.128906 C 21.882812 57.257812 21.503906 57.320312 21.121094 57.320312 Z M 21.351562 51.546875 C 21.25 51.546875 21.148438 51.550781 21.050781 51.5625 C 19.953125 51.664062 18.949219 52.28125 18.496094 53.136719 C 18.078125 53.917969 18.128906 54.828125 18.644531 55.777344 C 19.121094 56.65625 20.046875 57.183594 21.121094 57.183594 C 21.488281 57.183594 21.851562 57.121094 22.203125 56.996094 C 23.445312 56.558594 24.230469 55.15625 24.03125 53.738281 C 23.941406 53.101562 23.253906 52.164062 22.640625 51.847656 C 22.253906 51.648438 21.820312 51.546875 21.351562 51.546875 Z M 21.351562 51.546875 " fill-opacity="1" fill-rule="nonzero"/><path fill="#e467a2" d="M 57.140625 51.492188 C 57.699219 51.441406 58.265625 51.527344 58.769531 51.785156 C 59.378906 52.101562 60.097656 53.035156 60.195312 53.726562 C 60.390625 55.105469 59.644531 56.59375 58.320312 57.0625 C 56.953125 57.546875 55.382812 57.101562 54.679688 55.808594 C 53.375 53.402344 55.246094 51.667969 57.140625 51.492188 Z M 57.140625 51.492188 " fill-opacity="1" fill-rule="nonzero"/><path fill="#231f20" d="M 57.21875 57.320312 C 56.09375 57.320312 55.121094 56.769531 54.621094 55.84375 C 53.941406 54.59375 54.164062 53.644531 54.46875 53.070312 C 54.945312 52.175781 55.992188 51.527344 57.132812 51.421875 C 57.738281 51.367188 58.308594 51.46875 58.800781 51.722656 C 59.457031 52.0625 60.167969 53.03125 60.265625 53.71875 C 60.476562 55.199219 59.648438 56.667969 58.34375 57.128906 C 57.980469 57.257812 57.601562 57.320312 57.21875 57.320312 Z M 57.449219 51.546875 C 57.347656 51.546875 57.246094 51.550781 57.144531 51.5625 C 56.050781 51.664062 55.046875 52.28125 54.59375 53.136719 C 54.175781 53.917969 54.226562 54.828125 54.742188 55.777344 C 55.21875 56.65625 56.144531 57.183594 57.21875 57.183594 C 57.585938 57.183594 57.949219 57.121094 58.296875 56.996094 C 59.542969 56.558594 60.328125 55.15625 60.128906 53.738281 C 60.039062 53.101562 59.347656 52.164062 58.738281 51.847656 C 58.351562 51.648438 57.917969 51.546875 57.449219 51.546875 Z M 57.449219 51.546875 " fill-opacity="1" fill-rule="nonzero"/><path fill="#5ba2ad" d="M 57.238281 43.691406 C 52.402344 43.542969 48.964844 45.15625 47.648438 48.386719 C 46.902344 50.210938 46.378906 50.847656 44.328125 50.996094 C 42.867188 51.140625 39.472656 51.617188 36.835938 50.589844 C 34.199219 49.707031 34.492188 42.664062 32.589844 41.046875 C 30.683594 39.433594 25.851562 39.726562 20.433594 41.046875 C 19.480469 41.28125 18.566406 41.722656 17.710938 42.304688 C 15.433594 42.273438 13.15625 42.332031 10.882812 42.25 C 8.441406 42.164062 5.996094 41.972656 3.558594 42.195312 C 2.332031 42.308594 2.324219 44.238281 3.558594 44.125 C 5.785156 43.921875 8.015625 44.070312 10.242188 44.15625 C 11.128906 45.261719 12.105469 46.332031 13.128906 47.34375 C 11.894531 49.382812 11.269531 51.269531 11.546875 51.910156 C 12.175781 53.378906 21.167969 51.617188 22.777344 52.351562 C 24.09375 53.085938 24.570312 55.234375 25.59375 55.96875 C 26.324219 56.410156 44.382812 56.363281 50.386719 56.070312 C 52 55.921875 53.128906 51.925781 57.082031 49.738281 C 59.621094 48.332031 63.640625 49.457031 64.351562 47.894531 C 65.066406 46.332031 62.070312 43.835938 57.238281 43.691406 Z M 11.945312 44.203125 C 13.128906 44.222656 14.3125 44.214844 15.496094 44.214844 C 14.886719 44.859375 14.335938 45.550781 13.84375 46.246094 C 13.1875 45.585938 12.546875 44.902344 11.945312 44.203125 Z M 11.945312 44.203125 " fill-opacity="1" fill-rule="nonzero"/><path fill="#231f20" d="M 36.625 56.363281 C 34.160156 56.363281 26.078125 56.339844 25.558594 56.027344 C 25.078125 55.683594 24.726562 55.0625 24.355469 54.40625 C 23.910156 53.617188 23.449219 52.804688 22.742188 52.410156 C 22.480469 52.292969 21.972656 52.230469 21.199219 52.230469 C 20.28125 52.230469 19.121094 52.3125 17.890625 52.398438 C 16.597656 52.488281 15.257812 52.582031 14.144531 52.582031 C 12.515625 52.582031 11.671875 52.378906 11.480469 51.9375 C 11.191406 51.261719 11.847656 49.339844 13.042969 47.351562 C 12.011719 46.332031 11.058594 45.28125 10.207031 44.222656 C 9.867188 44.210938 9.527344 44.195312 9.183594 44.179688 C 8.144531 44.136719 7.070312 44.089844 6.011719 44.089844 C 5.113281 44.089844 4.3125 44.125 3.5625 44.191406 C 2.90625 44.253906 2.589844 43.773438 2.566406 43.300781 C 2.542969 42.765625 2.875 42.1875 3.550781 42.128906 C 4.324219 42.054688 5.152344 42.023438 6.082031 42.023438 C 7.207031 42.023438 8.351562 42.074219 9.457031 42.121094 C 9.933594 42.144531 10.410156 42.164062 10.886719 42.179688 C 12 42.222656 13.125 42.226562 14.078125 42.226562 C 14.402344 42.226562 14.726562 42.226562 15.050781 42.226562 C 15.378906 42.226562 15.703125 42.222656 16.027344 42.222656 C 16.691406 42.222656 17.203125 42.226562 17.691406 42.234375 C 18.59375 41.621094 19.511719 41.199219 20.417969 40.980469 C 23.382812 40.257812 26.054688 39.875 28.140625 39.875 C 30.246094 39.875 31.757812 40.25 32.632812 40.996094 C 33.492188 41.722656 33.902344 43.488281 34.335938 45.359375 C 34.871094 47.660156 35.425781 50.042969 36.859375 50.523438 C 37.949219 50.949219 39.308594 51.164062 40.902344 51.164062 C 42.09375 51.164062 43.160156 51.046875 43.941406 50.964844 C 44.078125 50.949219 44.207031 50.9375 44.324219 50.925781 C 46.304688 50.785156 46.824219 50.222656 47.582031 48.359375 C 48.886719 45.167969 52.332031 43.472656 57.238281 43.621094 C 60.894531 43.730469 63.425781 45.175781 64.226562 46.472656 C 64.546875 46.988281 64.613281 47.492188 64.414062 47.921875 C 64.023438 48.78125 62.714844 48.863281 61.195312 48.957031 C 59.84375 49.042969 58.308594 49.136719 57.113281 49.796875 C 54.9375 51.003906 53.644531 52.730469 52.605469 54.117188 C 51.789062 55.210938 51.144531 56.070312 50.394531 56.136719 C 47.636719 56.273438 42.105469 56.363281 36.625 56.363281 Z M 21.199219 52.09375 C 21.996094 52.09375 22.519531 52.15625 22.804688 52.285156 C 23.550781 52.703125 24.019531 53.53125 24.476562 54.335938 C 24.839844 54.980469 25.183594 55.589844 25.632812 55.914062 C 25.949219 56.101562 30.265625 56.226562 36.625 56.226562 C 42.101562 56.226562 47.632812 56.136719 50.382812 56 C 51.070312 55.9375 51.699219 55.097656 52.492188 54.035156 C 53.539062 52.636719 54.84375 50.894531 57.046875 49.675781 C 58.269531 49 59.820312 48.902344 61.1875 48.816406 C 62.660156 48.726562 63.933594 48.644531 64.289062 47.863281 C 64.464844 47.476562 64.402344 47.019531 64.109375 46.546875 C 63.324219 45.28125 60.839844 43.867188 57.234375 43.757812 C 52.390625 43.609375 48.992188 45.277344 47.710938 48.414062 C 46.9375 50.304688 46.371094 50.917969 44.335938 51.0625 C 44.222656 51.074219 44.09375 51.089844 43.953125 51.105469 C 43.171875 51.1875 42.097656 51.300781 40.902344 51.300781 C 39.292969 51.300781 37.914062 51.082031 36.8125 50.652344 C 35.308594 50.152344 34.746094 47.730469 34.203125 45.390625 C 33.773438 43.542969 33.367188 41.800781 32.542969 41.101562 C 31.695312 40.378906 30.210938 40.015625 28.144531 40.015625 C 26.066406 40.015625 23.40625 40.394531 20.449219 41.117188 C 19.554688 41.332031 18.648438 41.753906 17.75 42.359375 C 17.738281 42.367188 17.726562 42.371094 17.710938 42.371094 C 17.21875 42.367188 16.699219 42.363281 16.027344 42.363281 C 15.703125 42.363281 15.378906 42.363281 15.054688 42.363281 C 14.726562 42.367188 14.402344 42.367188 14.078125 42.367188 C 13.121094 42.367188 11.996094 42.359375 10.878906 42.320312 C 10.402344 42.304688 9.925781 42.28125 9.449219 42.261719 C 8.347656 42.210938 7.203125 42.160156 6.082031 42.160156 C 5.15625 42.160156 4.332031 42.195312 3.566406 42.265625 C 2.972656 42.320312 2.683594 42.824219 2.707031 43.296875 C 2.722656 43.667969 2.960938 44.109375 3.550781 44.054688 C 4.304688 43.988281 5.109375 43.953125 6.011719 43.953125 C 7.074219 43.953125 8.148438 44 9.191406 44.042969 C 9.542969 44.058594 9.894531 44.074219 10.246094 44.085938 C 10.265625 44.085938 10.285156 44.097656 10.296875 44.113281 C 11.160156 45.1875 12.128906 46.257812 13.179688 47.292969 C 13.199219 47.316406 13.207031 47.351562 13.1875 47.378906 C 12.015625 49.3125 11.335938 51.25 11.609375 51.882812 C 11.773438 52.261719 12.601562 52.445312 14.144531 52.445312 C 15.253906 52.445312 16.589844 52.351562 17.882812 52.261719 C 19.113281 52.175781 20.277344 52.09375 21.199219 52.09375 Z M 13.84375 46.316406 C 13.828125 46.316406 13.808594 46.308594 13.796875 46.296875 C 13.121094 45.617188 12.480469 44.929688 11.890625 44.246094 C 11.875 44.226562 11.871094 44.199219 11.878906 44.171875 C 11.890625 44.148438 11.921875 44.132812 11.945312 44.132812 C 12.75 44.144531 13.546875 44.148438 14.292969 44.148438 L 15.496094 44.148438 C 15.523438 44.148438 15.546875 44.164062 15.558594 44.1875 C 15.570312 44.214844 15.5625 44.242188 15.546875 44.265625 C 14.96875 44.875 14.414062 45.554688 13.902344 46.285156 C 13.890625 46.304688 13.871094 46.3125 13.851562 46.316406 C 13.851562 46.316406 13.847656 46.316406 13.84375 46.316406 Z M 12.097656 44.273438 C 12.636719 44.894531 13.222656 45.519531 13.835938 46.140625 C 14.308594 45.476562 14.8125 44.851562 15.335938 44.285156 L 14.292969 44.285156 C 13.59375 44.285156 12.851562 44.285156 12.097656 44.273438 Z M 12.097656 44.273438 " fill-opacity="1" fill-rule="nonzero"/><path fill="#446b9c" d="M 18.316406 41.878906 C 20.578125 42.253906 31.640625 42.417969 32.9375 42.355469 C 34.230469 42.292969 35.644531 39.859375 34.265625 38.605469 C 32.21875 36.742188 19.074219 37.183594 17.746094 38.160156 C 16.605469 38.945312 16.050781 41.503906 18.316406 41.878906 Z M 18.316406 41.878906 " fill-opacity="1" fill-rule="nonzero"/><path fill="#231f20" d="M 31.878906 42.4375 C 28.703125 42.4375 20.253906 42.269531 18.304688 41.949219 C 17.449219 41.808594 16.890625 41.332031 16.730469 40.609375 C 16.535156 39.730469 16.972656 38.605469 17.707031 38.105469 C 18.433594 37.570312 22.355469 37.25 25.726562 37.25 C 27.40625 37.25 32.980469 37.34375 34.3125 38.554688 C 34.898438 39.085938 35.058594 39.890625 34.75 40.753906 C 34.417969 41.671875 33.640625 42.390625 32.9375 42.425781 C 32.761719 42.433594 32.394531 42.4375 31.878906 42.4375 Z M 25.726562 37.386719 C 21.90625 37.386719 18.417969 37.753906 17.785156 38.21875 C 17.105469 38.683594 16.6875 39.765625 16.867188 40.578125 C 16.96875 41.046875 17.308594 41.644531 18.324219 41.8125 C 20.269531 42.132812 28.707031 42.300781 31.878906 42.300781 C 32.394531 42.300781 32.757812 42.292969 32.933594 42.285156 C 33.582031 42.253906 34.308594 41.574219 34.617188 40.707031 C 34.90625 39.898438 34.761719 39.152344 34.21875 38.65625 C 33.347656 37.863281 30.171875 37.386719 25.726562 37.386719 Z M 25.726562 37.386719 " fill-opacity="1" fill-rule="nonzero"/><path fill="#e467a2" d="M 53.496094 31.308594 C 54.082031 30.28125 55.097656 31.371094 55.839844 31.308594 C 56.582031 31.246094 56.570312 22.5 55.109375 22.207031 C 54.664062 22.097656 53.675781 22.261719 52.625 22.71875 C 52.304688 21.9375 51.96875 21.15625 51.613281 20.386719 C 51.203125 19.496094 50.792969 18.5 50.003906 17.875 C 49.53125 17.5 48.886719 17.46875 48.289062 17.40625 C 48.199219 16.585938 47.976562 15.808594 47.710938 15.410156 C 47.519531 15.117188 47.273438 14.957031 46.988281 15.011719 C 45.683594 15.246094 45.597656 17.644531 45.785156 18.601562 C 45.933594 19.355469 46.667969 20.8125 47.652344 20.144531 C 48.160156 19.800781 48.34375 18.957031 48.328125 18.054688 C 49.015625 18.140625 49.652344 18.234375 50.097656 18.898438 C 50.628906 19.695312 51.011719 20.578125 51.394531 21.457031 C 51.617188 21.96875 51.832031 22.484375 52.042969 23.003906 C 50.503906 23.835938 49.019531 25.308594 49.09375 27.5 C 49.234375 31.472656 50.601562 34.589844 50.566406 38.699219 C 50.535156 42.808594 49.425781 46.378906 48.226562 49.714844 C 47.023438 53.050781 57.082031 49.738281 58.914062 45.597656 C 60.75 41.460938 52.910156 32.335938 53.496094 31.308594 Z M 53.496094 31.308594 " fill-opacity="1" fill-rule="nonzero"/><path fill="#231f20" d="M 49.511719 51.152344 C 48.851562 51.152344 48.410156 50.996094 48.195312 50.691406 C 48.023438 50.441406 48.011719 50.105469 48.160156 49.691406 C 49.273438 46.601562 50.464844 42.949219 50.5 38.699219 C 50.515625 36.515625 50.128906 34.578125 49.757812 32.707031 C 49.429688 31.0625 49.089844 29.363281 49.027344 27.503906 C 48.941406 25.023438 50.800781 23.609375 51.957031 22.972656 C 51.722656 22.40625 51.523438 21.929688 51.328125 21.484375 C 50.957031 20.621094 50.570312 19.726562 50.039062 18.9375 C 49.617188 18.308594 49.003906 18.207031 48.398438 18.132812 C 48.398438 18.761719 48.300781 19.789062 47.691406 20.203125 C 47.511719 20.324219 47.332031 20.382812 47.152344 20.382812 C 46.339844 20.382812 45.828125 19.167969 45.71875 18.613281 C 45.566406 17.84375 45.605469 16.324219 46.160156 15.507812 C 46.375 15.191406 46.648438 15 46.976562 14.941406 C 47.277344 14.886719 47.546875 15.035156 47.769531 15.371094 C 48.035156 15.773438 48.257812 16.527344 48.351562 17.34375 L 48.46875 17.355469 C 49.023438 17.410156 49.601562 17.46875 50.046875 17.820312 C 50.785156 18.40625 51.1875 19.285156 51.578125 20.140625 L 51.679688 20.359375 C 51.996094 21.046875 52.316406 21.789062 52.664062 22.628906 C 53.429688 22.300781 54.214844 22.105469 54.777344 22.105469 C 54.914062 22.105469 55.03125 22.117188 55.125 22.140625 C 56.257812 22.367188 56.492188 26.988281 56.359375 29.296875 C 56.285156 30.65625 56.109375 31.355469 55.847656 31.378906 C 55.570312 31.402344 55.261719 31.277344 54.964844 31.15625 C 54.699219 31.046875 54.421875 30.933594 54.175781 30.933594 C 53.914062 30.933594 53.714844 31.0625 53.558594 31.34375 C 53.375 31.660156 54.230469 33.066406 55.21875 34.695312 C 57.199219 37.957031 60.195312 42.882812 58.980469 45.625 C 57.675781 48.570312 52.15625 51.152344 49.511719 51.152344 Z M 48.257812 17.976562 L 48.339844 17.988281 C 48.964844 18.0625 49.679688 18.148438 50.15625 18.859375 C 50.691406 19.660156 51.078125 20.558594 51.457031 21.425781 C 51.65625 21.890625 51.863281 22.382812 52.109375 22.976562 L 52.132812 23.035156 L 52.078125 23.066406 C 50.953125 23.671875 49.078125 25.054688 49.164062 27.5 C 49.230469 29.347656 49.566406 31.042969 49.894531 32.679688 C 50.269531 34.558594 50.65625 36.503906 50.636719 38.699219 C 50.601562 42.972656 49.40625 46.636719 48.289062 49.738281 C 48.15625 50.109375 48.164062 50.402344 48.308594 50.609375 C 48.492188 50.871094 48.910156 51.011719 49.511719 51.011719 C 52.121094 51.011719 57.566406 48.46875 58.851562 45.570312 C 60.039062 42.894531 57.066406 38.003906 55.097656 34.765625 C 53.859375 32.726562 53.222656 31.648438 53.4375 31.273438 C 53.621094 30.953125 53.863281 30.796875 54.175781 30.796875 C 54.449219 30.796875 54.738281 30.914062 55.019531 31.027344 C 55.3125 31.148438 55.589844 31.261719 55.835938 31.238281 C 55.929688 31.230469 56.136719 30.8125 56.222656 29.289062 C 56.378906 26.550781 56.015625 22.460938 55.09375 22.277344 C 55.007812 22.253906 54.902344 22.246094 54.777344 22.246094 C 54.226562 22.246094 53.414062 22.449219 52.652344 22.785156 L 52.589844 22.8125 L 52.5625 22.746094 C 52.207031 21.882812 51.875 21.121094 51.550781 20.417969 L 51.453125 20.195312 C 51.070312 19.359375 50.675781 18.492188 49.960938 17.929688 C 49.546875 17.601562 48.992188 17.546875 48.453125 17.492188 L 48.226562 17.46875 L 48.21875 17.414062 C 48.132812 16.609375 47.910156 15.835938 47.652344 15.449219 C 47.464844 15.160156 47.242188 15.035156 47 15.078125 C 46.710938 15.132812 46.46875 15.300781 46.277344 15.585938 C 45.742188 16.371094 45.707031 17.839844 45.855469 18.585938 C 45.96875 19.164062 46.464844 20.246094 47.152344 20.246094 C 47.304688 20.246094 47.457031 20.191406 47.613281 20.085938 C 48.195312 19.695312 48.269531 18.644531 48.261719 18.054688 Z M 48.257812 17.976562 " fill-opacity="1" fill-rule="nonzero"/><path fill="#df8666" d="M 35.628906 46.28125 C 35.71875 47.183594 35.546875 51.972656 35.890625 51.859375 C 36.238281 51.746094 39.5625 51.164062 39.464844 50.65625 C 39.367188 50.148438 39.546875 46.691406 39.332031 46.144531 C 39.113281 45.59375 35.542969 45.375 35.628906 46.28125 Z M 35.628906 46.28125 " fill-opacity="1" fill-rule="nonzero"/><path fill="#231f20" d="M 35.878906 51.933594 C 35.648438 51.929688 35.59375 51.191406 35.589844 48.167969 C 35.589844 47.320312 35.589844 46.585938 35.5625 46.289062 C 35.550781 46.175781 35.585938 46.070312 35.667969 45.984375 C 35.980469 45.632812 36.910156 45.597656 37.292969 45.597656 C 38.210938 45.597656 39.261719 45.78125 39.394531 46.117188 C 39.53125 46.457031 39.519531 47.804688 39.507812 48.992188 C 39.5 49.738281 39.496094 50.445312 39.535156 50.644531 C 39.605469 51.03125 38.414062 51.375 36.464844 51.796875 C 36.195312 51.855469 35.984375 51.902344 35.914062 51.925781 C 35.90625 51.929688 35.886719 51.933594 35.878906 51.933594 Z M 37.292969 45.734375 C 36.53125 45.734375 35.960938 45.863281 35.769531 46.074219 C 35.714844 46.136719 35.691406 46.199219 35.699219 46.273438 C 35.730469 46.578125 35.730469 47.316406 35.730469 48.167969 C 35.730469 49.445312 35.730469 51.570312 35.890625 51.789062 C 35.976562 51.761719 36.171875 51.71875 36.4375 51.664062 C 37.183594 51.5 39.460938 51.003906 39.398438 50.667969 C 39.355469 50.457031 39.363281 49.777344 39.371094 48.992188 C 39.378906 47.875 39.390625 46.484375 39.265625 46.167969 C 39.175781 45.9375 38.253906 45.734375 37.292969 45.734375 Z M 37.292969 45.734375 " fill-opacity="1" fill-rule="nonzero"/><path fill="#e467a2" d="M 42.675781 50.742188 C 42.011719 50.570312 39.292969 50.605469 38.890625 49.8125 C 38.625 49.925781 38.351562 50.007812 38.058594 50.046875 C 37.226562 50.152344 36.382812 50.0625 35.539062 49.992188 C 35.414062 51.453125 35.328125 52.800781 35.414062 53.042969 C 35.613281 53.613281 44.195312 52.84375 44.113281 52.023438 C 44.027344 51.207031 43.308594 50.929688 42.675781 50.742188 Z M 42.675781 50.742188 " fill-opacity="1" fill-rule="nonzero"/><path fill="#231f20" d="M 36.773438 53.308594 C 35.433594 53.308594 35.375 53.140625 35.351562 53.066406 C 35.320312 52.984375 35.234375 52.738281 35.472656 49.984375 C 35.476562 49.949219 35.507812 49.917969 35.546875 49.921875 L 35.777344 49.941406 C 36.253906 49.984375 36.746094 50.027344 37.226562 50.027344 C 37.527344 50.027344 37.796875 50.007812 38.050781 49.976562 C 38.316406 49.941406 38.582031 49.867188 38.863281 49.75 C 38.894531 49.738281 38.933594 49.75 38.949219 49.78125 C 39.226562 50.320312 40.746094 50.464844 41.753906 50.558594 C 42.15625 50.59375 42.503906 50.628906 42.691406 50.675781 C 43.417969 50.890625 44.097656 51.199219 44.183594 52.019531 C 44.1875 52.078125 44.164062 52.136719 44.117188 52.191406 C 43.542969 52.828125 38.886719 53.308594 36.773438 53.308594 Z M 35.605469 50.066406 C 35.417969 52.261719 35.433594 52.886719 35.480469 53.019531 C 35.484375 53.027344 35.5625 53.171875 36.773438 53.171875 C 39.078125 53.171875 43.523438 52.640625 44.011719 52.097656 C 44.035156 52.074219 44.046875 52.050781 44.042969 52.03125 C 43.964844 51.257812 43.285156 50.996094 42.65625 50.808594 C 42.480469 50.765625 42.136719 50.734375 41.738281 50.695312 C 40.675781 50.597656 39.230469 50.460938 38.859375 49.902344 C 38.589844 50.011719 38.328125 50.082031 38.070312 50.113281 C 37.808594 50.148438 37.53125 50.164062 37.226562 50.164062 C 36.742188 50.164062 36.246094 50.121094 35.765625 50.082031 Z M 35.605469 50.066406 " fill-opacity="1" fill-rule="nonzero"/><path fill="#446b9c" d="M 42.675781 50.742188 C 42.203125 50.621094 40.695312 50.601562 39.714844 50.320312 C 39.695312 50.136719 39.714844 49.9375 39.71875 49.765625 C 39.71875 49.515625 39.863281 48.996094 39.53125 48.898438 C 39.136719 48.785156 38.777344 49.554688 38.609375 49.816406 C 38.167969 50.519531 37.671875 51.148438 36.835938 51.382812 C 36.730469 51.410156 35.410156 51.738281 35.417969 51.640625 C 35.375 52.363281 35.363281 52.898438 35.414062 53.042969 C 35.613281 53.613281 44.195312 52.84375 44.113281 52.023438 C 44.027344 51.207031 43.308594 50.929688 42.675781 50.742188 Z M 42.675781 50.742188 " fill-opacity="1" fill-rule="nonzero"/><path fill="#231f20" d="M 36.773438 53.308594 C 35.433594 53.308594 35.375 53.140625 35.351562 53.066406 C 35.332031 53.015625 35.277344 52.855469 35.347656 51.636719 C 35.351562 51.597656 35.382812 51.570312 35.421875 51.574219 C 35.4375 51.574219 35.453125 51.582031 35.464844 51.589844 C 35.464844 51.589844 35.46875 51.589844 35.476562 51.589844 C 35.71875 51.589844 36.703125 51.347656 36.816406 51.316406 C 37.589844 51.101562 38.070312 50.546875 38.550781 49.78125 C 38.578125 49.742188 38.605469 49.691406 38.640625 49.632812 C 38.824219 49.308594 39.109375 48.820312 39.453125 48.820312 C 39.484375 48.820312 39.519531 48.824219 39.550781 48.832031 C 39.871094 48.925781 39.828125 49.308594 39.800781 49.585938 C 39.792969 49.65625 39.789062 49.714844 39.785156 49.769531 C 39.785156 49.820312 39.785156 49.878906 39.78125 49.933594 C 39.777344 50.046875 39.773438 50.160156 39.78125 50.265625 C 40.367188 50.429688 41.132812 50.5 41.753906 50.558594 C 42.15625 50.59375 42.503906 50.628906 42.691406 50.675781 C 43.417969 50.890625 44.097656 51.199219 44.179688 52.019531 C 44.1875 52.078125 44.164062 52.136719 44.113281 52.191406 C 43.542969 52.828125 38.886719 53.308594 36.773438 53.308594 Z M 35.480469 51.730469 C 35.429688 52.644531 35.453125 52.9375 35.480469 53.019531 C 35.484375 53.027344 35.5625 53.171875 36.773438 53.171875 C 39.078125 53.171875 43.523438 52.640625 44.011719 52.097656 C 44.035156 52.074219 44.046875 52.050781 44.042969 52.03125 C 43.964844 51.257812 43.285156 50.996094 42.65625 50.808594 C 42.480469 50.765625 42.136719 50.730469 41.738281 50.695312 C 41.097656 50.636719 40.300781 50.5625 39.699219 50.386719 C 39.671875 50.378906 39.652344 50.355469 39.648438 50.328125 C 39.632812 50.195312 39.636719 50.0625 39.644531 49.929688 C 39.644531 49.875 39.648438 49.820312 39.648438 49.765625 C 39.648438 49.710938 39.65625 49.644531 39.664062 49.574219 C 39.695312 49.273438 39.703125 49.023438 39.515625 48.964844 C 39.234375 48.886719 38.933594 49.402344 38.757812 49.703125 C 38.726562 49.761719 38.695312 49.8125 38.667969 49.855469 C 38.265625 50.492188 37.757812 51.195312 36.855469 51.449219 C 36.789062 51.46875 35.761719 51.726562 35.480469 51.730469 Z M 35.480469 51.730469 " fill-opacity="1" fill-rule="nonzero"/><path fill="#231f20" d="M 36.074219 51.117188 C 36.035156 51.117188 36.007812 51.085938 36.007812 51.046875 L 36.019531 50.039062 C 36.019531 50 36.046875 49.96875 36.085938 49.96875 C 36.125 49.96875 36.15625 50 36.15625 50.039062 L 36.144531 51.050781 C 36.144531 51.085938 36.113281 51.117188 36.074219 51.117188 Z M 36.074219 51.117188 " fill-opacity="1" fill-rule="nonzero"/><path fill="#231f20" d="M 37.144531 50.988281 C 37.109375 50.988281 37.078125 50.960938 37.078125 50.925781 L 37.015625 50.097656 C 37.011719 50.058594 37.042969 50.027344 37.082031 50.023438 C 37.117188 50.019531 37.152344 50.050781 37.152344 50.089844 L 37.214844 50.914062 C 37.21875 50.953125 37.1875 50.988281 37.152344 50.988281 C 37.148438 50.988281 37.148438 50.988281 37.144531 50.988281 Z M 37.144531 50.988281 " fill-opacity="1" fill-rule="nonzero"/><path fill="#231f20" d="M 37.691406 50.582031 C 37.660156 50.582031 37.628906 50.554688 37.625 50.523438 L 37.558594 50.109375 C 37.554688 50.070312 37.578125 50.035156 37.617188 50.027344 C 37.65625 50.023438 37.691406 50.050781 37.695312 50.085938 L 37.761719 50.5 C 37.765625 50.539062 37.742188 50.574219 37.703125 50.578125 C 37.699219 50.582031 37.695312 50.582031 37.691406 50.582031 Z M 37.691406 50.582031 " fill-opacity="1" fill-rule="nonzero"/><path fill="#e467a2" d="M 30.789062 32.226562 C 30.789062 32.226562 40.105469 31.65625 40.984375 35.175781 C 41.570312 37.230469 40.734375 47.371094 40.449219 48.371094 C 40.164062 49.375 34.644531 49.761719 34.316406 48.460938 C 33.984375 47.160156 34.695312 39.214844 34.324219 38.847656 C 33.949219 38.480469 25.722656 40.644531 22.828125 37.640625 C 21.835938 36.613281 22.09375 32.902344 22.09375 32.902344 Z M 30.789062 32.226562 " fill-opacity="1" fill-rule="nonzero"/><path fill="#231f20" d="M 36.957031 49.359375 C 36.375 49.359375 34.457031 49.292969 34.246094 48.476562 C 34.078125 47.816406 34.171875 45.523438 34.265625 43.308594 C 34.34375 41.417969 34.4375 39.0625 34.273438 38.894531 C 34.273438 38.894531 34.238281 38.871094 34.074219 38.871094 C 33.800781 38.871094 33.308594 38.929688 32.683594 39.007812 C 31.550781 39.144531 29.996094 39.328125 28.402344 39.328125 C 25.71875 39.328125 23.828125 38.777344 22.777344 37.691406 C 21.777344 36.652344 22.015625 33.050781 22.027344 32.898438 L 22.03125 32.835938 L 30.785156 32.15625 C 30.789062 32.15625 31.355469 32.121094 32.207031 32.121094 C 35.226562 32.121094 40.394531 32.515625 41.054688 35.160156 C 41.65625 37.277344 40.78125 47.464844 40.515625 48.390625 C 40.34375 48.996094 38.570312 49.359375 36.957031 49.359375 Z M 34.074219 38.734375 C 34.238281 38.734375 34.328125 38.753906 34.371094 38.796875 C 34.570312 38.992188 34.511719 40.640625 34.402344 43.3125 C 34.3125 45.519531 34.21875 47.804688 34.382812 48.441406 C 34.503906 48.921875 35.492188 49.21875 36.957031 49.21875 C 38.648438 49.21875 40.25 48.8125 40.382812 48.351562 C 40.648438 47.429688 41.519531 37.300781 40.917969 35.195312 C 40.257812 32.546875 34.605469 32.261719 32.207031 32.261719 C 31.359375 32.261719 30.800781 32.292969 30.792969 32.296875 L 22.160156 32.964844 C 22.132812 33.445312 21.988281 36.671875 22.878906 37.59375 C 23.898438 38.652344 25.757812 39.191406 28.402344 39.191406 C 29.988281 39.191406 31.535156 39.003906 32.667969 38.867188 C 33.296875 38.792969 33.792969 38.734375 34.074219 38.734375 Z M 34.074219 38.734375 " fill-opacity="1" fill-rule="nonzero"/><path fill="#df8666" d="M 54.230469 27.148438 C 54.246094 26.59375 54.003906 26.035156 53.390625 25.664062 C 51.722656 24.664062 49.621094 24.691406 47.746094 24.804688 C 46.789062 24.863281 45.988281 25.5625 45.988281 26.566406 C 45.988281 27.480469 46.828125 27.953125 47.785156 27.894531 C 48.648438 27.839844 49.539062 27.417969 49.726562 27.886719 C 50.019531 28.617188 51.273438 28.5 51.617188 28.707031 C 52.050781 28.96875 52.476562 29.019531 52.851562 28.925781 C 52.851562 29.085938 52.894531 29.238281 53.039062 29.320312 C 53.230469 29.425781 53.425781 29.253906 53.558594 29.132812 C 54.054688 28.667969 54.230469 27.804688 54.230469 27.160156 C 54.230469 27.15625 54.230469 27.152344 54.230469 27.148438 Z M 54.230469 27.148438 " fill-opacity="1" fill-rule="nonzero"/><path fill="#231f20" d="M 53.164062 29.421875 C 53.109375 29.421875 53.054688 29.410156 53.007812 29.382812 C 52.878906 29.308594 52.804688 29.1875 52.789062 29.011719 C 52.386719 29.085938 51.972656 29 51.582031 28.765625 C 51.480469 28.707031 51.285156 28.675781 51.058594 28.636719 C 50.558594 28.558594 49.875 28.445312 49.664062 27.910156 C 49.613281 27.789062 49.503906 27.734375 49.304688 27.734375 C 49.121094 27.734375 48.882812 27.785156 48.628906 27.835938 C 48.371094 27.886719 48.078125 27.945312 47.789062 27.960938 C 47.734375 27.964844 47.679688 27.96875 47.628906 27.96875 C 46.605469 27.96875 45.921875 27.402344 45.921875 26.566406 C 45.921875 25.570312 46.6875 24.800781 47.742188 24.734375 C 48.164062 24.710938 48.71875 24.679688 49.289062 24.679688 C 51.0625 24.679688 52.375 24.972656 53.425781 25.605469 C 54.007812 25.953125 54.316406 26.5 54.300781 27.144531 C 54.300781 27.148438 54.300781 27.15625 54.300781 27.160156 C 54.300781 27.824219 54.117188 28.703125 53.605469 29.183594 C 53.480469 29.296875 53.332031 29.421875 53.164062 29.421875 Z M 52.851562 28.859375 C 52.867188 28.859375 52.882812 28.863281 52.894531 28.871094 C 52.914062 28.886719 52.921875 28.90625 52.921875 28.925781 C 52.921875 29.09375 52.972656 29.203125 53.074219 29.261719 C 53.21875 29.339844 53.410156 29.175781 53.511719 29.082031 C 53.988281 28.632812 54.160156 27.796875 54.164062 27.160156 C 54.179688 26.554688 53.894531 26.046875 53.355469 25.722656 C 52.328125 25.105469 51.035156 24.820312 49.289062 24.820312 C 48.722656 24.820312 48.167969 24.847656 47.75 24.875 C 46.769531 24.933594 46.058594 25.644531 46.058594 26.566406 C 46.058594 27.4375 46.847656 27.828125 47.628906 27.828125 C 47.679688 27.828125 47.730469 27.828125 47.78125 27.824219 C 48.058594 27.808594 48.335938 27.753906 48.601562 27.699219 C 48.863281 27.648438 49.105469 27.597656 49.304688 27.597656 C 49.5625 27.597656 49.722656 27.683594 49.792969 27.859375 C 49.976562 28.324219 50.589844 28.421875 51.082031 28.5 C 51.324219 28.539062 51.53125 28.574219 51.652344 28.648438 C 52.039062 28.878906 52.449219 28.953125 52.835938 28.859375 C 52.84375 28.859375 52.847656 28.859375 52.851562 28.859375 Z M 52.851562 28.859375 " fill-opacity="1" fill-rule="nonzero"/><path fill="#446b9c" d="M 21.789062 36.335938 C 21.789062 36.335938 22.0625 37.410156 22.445312 37.527344 C 22.828125 37.640625 28.050781 37.128906 31.132812 36.050781 C 34.210938 34.976562 37.4375 33.152344 37.300781 31.390625 " fill-opacity="1" fill-rule="nonzero"/><path fill="#231f20" d="M 22.671875 37.609375 C 22.546875 37.609375 22.464844 37.605469 22.425781 37.59375 C 22.019531 37.46875 21.75 36.46875 21.722656 36.355469 L 21.855469 36.320312 C 21.929688 36.609375 22.183594 37.375 22.464844 37.460938 C 22.785156 37.558594 28.015625 37.066406 31.109375 35.988281 C 34.019531 34.972656 37.367188 33.160156 37.230469 31.398438 L 37.367188 31.386719 C 37.511719 33.226562 34.113281 35.085938 31.15625 36.117188 C 28.371094 37.089844 23.820312 37.609375 22.671875 37.609375 Z M 22.671875 37.609375 " fill-opacity="1" fill-rule="nonzero"/><path fill="#446b9c" d="M 37.300781 31.390625 C 37.261719 28.75 37.550781 15.238281 30.4375 15.226562 C 22.363281 15.214844 20.609375 35.261719 21.394531 36.347656 C 22.183594 37.429688 37.339844 34.03125 37.300781 31.390625 Z M 37.300781 31.390625 " fill-opacity="1" fill-rule="nonzero"/><path fill="#231f20" d="M 22.378906 36.625 C 21.792969 36.625 21.453125 36.546875 21.339844 36.386719 C 20.808594 35.65625 21.386719 26.082031 24.492188 19.96875 C 26.113281 16.777344 28.109375 15.160156 30.425781 15.160156 C 33.339844 15.164062 35.367188 17.375 36.453125 21.738281 C 37.324219 25.226562 37.351562 29.203125 37.363281 30.902344 C 37.363281 31.089844 37.367188 31.253906 37.367188 31.390625 C 37.371094 31.664062 37.226562 31.949219 36.9375 32.246094 C 34.839844 34.378906 25.519531 36.625 22.378906 36.625 Z M 30.4375 15.296875 C 28.164062 15.296875 26.210938 16.890625 24.617188 20.03125 C 21.609375 25.949219 20.945312 35.605469 21.453125 36.304688 C 21.5 36.371094 21.683594 36.484375 22.378906 36.484375 C 25.5 36.484375 34.761719 34.261719 36.839844 32.148438 C 37.101562 31.878906 37.234375 31.625 37.230469 31.390625 C 37.226562 31.257812 37.226562 31.09375 37.226562 30.902344 C 37.214844 29.207031 37.1875 25.242188 36.320312 21.773438 C 35.25 17.480469 33.269531 15.300781 30.4375 15.296875 Z M 30.4375 15.296875 " fill-opacity="1" fill-rule="nonzero"/><path fill="#5ba2ad" d="M 47.332031 28.917969 C 47.019531 29.097656 47.101562 29.367188 46.804688 29.566406 C 46.140625 30.023438 45.488281 30.011719 44.714844 30.101562 C 43.371094 30.261719 42.011719 30.332031 40.65625 30.296875 C 39.542969 30.265625 38.332031 30.207031 37.28125 29.78125 C 34.703125 28.738281 30.226562 26.753906 29.097656 23.746094 C 27.96875 20.738281 29.964844 19.214844 31.6875 19.308594 C 33.40625 19.398438 35.804688 23.03125 38.324219 24.234375 C 39.039062 24.578125 40.15625 24.402344 40.914062 24.371094 C 42.21875 24.320312 43.519531 24.214844 44.820312 24.101562 C 45.351562 24.054688 46.125 23.820312 46.550781 24.242188 C 46.683594 24.371094 46.765625 24.460938 46.960938 24.453125 C 47.15625 24.449219 47.65625 24.121094 47.828125 24.152344 C 48.863281 24.355469 48.269531 28.707031 47.972656 28.9375 C 47.910156 28.984375 47.398438 28.878906 47.332031 28.917969 Z M 47.332031 28.917969 " fill-opacity="1" fill-rule="nonzero"/><path fill="#231f20" d="M 41.359375 30.375 C 41.125 30.375 40.886719 30.371094 40.65625 30.363281 C 39.507812 30.332031 38.296875 30.269531 37.257812 29.847656 C 34.246094 28.625 30.121094 26.671875 29.035156 23.769531 C 28.40625 22.101562 28.773438 21.035156 29.191406 20.429688 C 29.699219 19.691406 30.597656 19.234375 31.539062 19.234375 C 31.589844 19.234375 31.640625 19.234375 31.691406 19.238281 C 32.632812 19.289062 33.769531 20.371094 34.976562 21.515625 C 36.0625 22.546875 37.1875 23.613281 38.355469 24.171875 C 38.640625 24.308594 39.015625 24.375 39.53125 24.375 C 39.832031 24.375 40.132812 24.351562 40.421875 24.332031 C 40.59375 24.320312 40.757812 24.308594 40.910156 24.300781 C 42.230469 24.25 43.5625 24.140625 44.8125 24.03125 C 44.917969 24.023438 45.035156 24.003906 45.160156 23.988281 C 45.375 23.957031 45.59375 23.921875 45.8125 23.921875 C 46.160156 23.921875 46.417969 24.011719 46.601562 24.191406 L 46.613281 24.203125 C 46.730469 24.320312 46.796875 24.386719 46.941406 24.386719 L 46.957031 24.386719 C 47.035156 24.382812 47.195312 24.308594 47.335938 24.246094 C 47.539062 24.148438 47.734375 24.066406 47.84375 24.085938 C 48.089844 24.132812 48.269531 24.382812 48.371094 24.824219 C 48.675781 26.117188 48.28125 28.789062 48.015625 28.992188 C 47.992188 29.011719 47.957031 29.019531 47.894531 29.019531 C 47.828125 29.019531 47.726562 29.007812 47.632812 28.996094 C 47.542969 28.988281 47.453125 28.976562 47.394531 28.976562 C 47.367188 28.976562 47.359375 28.980469 47.359375 28.980469 C 47.222656 29.058594 47.175781 29.160156 47.121094 29.273438 C 47.066406 29.386719 47.003906 29.515625 46.84375 29.625 C 46.273438 30.015625 45.699219 30.074219 45.09375 30.132812 C 44.972656 30.144531 44.851562 30.15625 44.722656 30.171875 C 43.582031 30.304688 42.449219 30.375 41.359375 30.375 Z M 31.539062 19.371094 C 30.644531 19.371094 29.789062 19.808594 29.304688 20.507812 C 28.90625 21.085938 28.558594 22.109375 29.164062 23.722656 C 30.230469 26.570312 34.324219 28.507812 37.308594 29.71875 C 38.328125 30.128906 39.523438 30.195312 40.660156 30.226562 C 41.964844 30.261719 43.328125 30.195312 44.707031 30.035156 C 44.835938 30.019531 44.960938 30.007812 45.082031 29.992188 C 45.695312 29.933594 46.222656 29.882812 46.765625 29.511719 C 46.894531 29.421875 46.941406 29.320312 46.996094 29.214844 C 47.054688 29.089844 47.117188 28.960938 47.296875 28.859375 C 47.347656 28.828125 47.480469 28.839844 47.648438 28.859375 C 47.738281 28.871094 47.832031 28.878906 47.894531 28.878906 C 47.929688 28.878906 47.941406 28.875 47.941406 28.875 C 48.125 28.730469 48.539062 26.121094 48.234375 24.851562 C 48.144531 24.46875 48.003906 24.257812 47.816406 24.222656 C 47.742188 24.207031 47.554688 24.296875 47.394531 24.371094 C 47.226562 24.449219 47.066406 24.519531 46.964844 24.523438 L 46.941406 24.523438 C 46.738281 24.523438 46.640625 24.425781 46.515625 24.300781 L 46.503906 24.289062 C 46.347656 24.132812 46.128906 24.0625 45.8125 24.0625 C 45.605469 24.0625 45.386719 24.09375 45.179688 24.125 C 45.054688 24.144531 44.9375 24.160156 44.824219 24.167969 C 43.574219 24.277344 42.238281 24.390625 40.914062 24.441406 C 40.765625 24.445312 40.601562 24.457031 40.429688 24.46875 C 40.140625 24.492188 39.835938 24.511719 39.53125 24.511719 C 38.996094 24.511719 38.601562 24.445312 38.296875 24.296875 C 37.109375 23.730469 35.976562 22.65625 34.882812 21.617188 C 33.695312 20.488281 32.574219 19.425781 31.683594 19.375 C 31.632812 19.375 31.585938 19.371094 31.539062 19.371094 Z M 31.539062 19.371094 " fill-opacity="1" fill-rule="nonzero"/><g clip-path="url(#id1)"><path fill="#e467a2" d="M 26.855469 14.46875 C 27.910156 15.863281 37.863281 19.972656 39.15625 19.703125 C 40.453125 19.433594 40.476562 17.160156 39.96875 16.976562 C 40.621094 13.847656 40.894531 9.582031 40.453125 7.691406 C 40.011719 5.800781 38.109375 4.683594 36.132812 4.023438 C 33.347656 3.066406 29.460938 3.605469 27.386719 5.710938 C 24.929688 8.203125 25.800781 13.074219 26.855469 14.46875 Z M 26.855469 14.46875 " fill-opacity="1" fill-rule="nonzero"/><path fill="#231f20" d="M 39.011719 19.785156 C 37.226562 19.785156 27.871094 15.921875 26.800781 14.507812 C 25.746094 13.113281 24.835938 8.199219 27.335938 5.660156 C 28.671875 4.304688 30.878906 3.496094 33.242188 3.496094 C 34.269531 3.496094 35.277344 3.65625 36.152344 3.957031 C 38.671875 4.796875 40.140625 6.046875 40.519531 7.675781 C 40.941406 9.484375 40.730469 13.628906 40.046875 16.9375 C 40.289062 17.089844 40.371094 17.605469 40.339844 18.050781 C 40.289062 18.773438 39.953125 19.609375 39.171875 19.769531 C 39.125 19.78125 39.074219 19.785156 39.011719 19.785156 Z M 33.242188 3.636719 C 30.914062 3.636719 28.746094 4.429688 27.433594 5.757812 C 24.984375 8.246094 25.878906 13.058594 26.910156 14.425781 C 27.925781 15.769531 37.308594 19.644531 39.011719 19.644531 C 39.0625 19.644531 39.109375 19.640625 39.144531 19.636719 C 39.851562 19.488281 40.152344 18.714844 40.199219 18.039062 C 40.238281 17.488281 40.101562 17.097656 39.945312 17.042969 L 39.890625 17.019531 L 39.902344 16.960938 C 40.589844 13.660156 40.804688 9.507812 40.382812 7.707031 C 40.015625 6.128906 38.578125 4.914062 36.109375 4.085938 C 35.246094 3.792969 34.253906 3.636719 33.242188 3.636719 Z M 33.242188 3.636719 " fill-opacity="1" fill-rule="nonzero"/></g><path fill="#446b9c" d="M 35.113281 12.832031 C 33.496094 10.949219 32.21875 8.308594 33.390625 7.867188 C 34.179688 7.570312 40.039062 10.207031 40.792969 10.527344 C 41.550781 10.847656 40.363281 15.078125 39.96875 16.976562 C 38.511719 16.207031 37.207031 15.265625 35.113281 12.832031 Z M 35.113281 12.832031 " fill-opacity="1" fill-rule="nonzero"/><path fill="#231f20" d="M 40.015625 17.082031 L 39.9375 17.039062 C 38.46875 16.257812 37.140625 15.292969 35.0625 12.875 C 33.820312 11.433594 32.644531 9.351562 32.902344 8.332031 C 32.96875 8.070312 33.125 7.894531 33.363281 7.800781 C 33.414062 7.785156 33.476562 7.773438 33.558594 7.773438 C 34.65625 7.773438 38.820312 9.59375 40.390625 10.277344 C 40.585938 10.363281 40.738281 10.429688 40.820312 10.464844 C 41.433594 10.722656 40.964844 12.976562 40.332031 15.675781 C 40.21875 16.164062 40.113281 16.625 40.035156 16.992188 Z M 33.558594 7.914062 C 33.496094 7.914062 33.445312 7.917969 33.414062 7.933594 C 33.214844 8.007812 33.09375 8.148438 33.039062 8.367188 C 32.789062 9.339844 33.949219 11.371094 35.167969 12.785156 C 37.191406 15.140625 38.496094 16.109375 39.917969 16.871094 C 39.996094 16.519531 40.09375 16.09375 40.199219 15.644531 C 40.648438 13.726562 41.324219 10.828125 40.765625 10.589844 C 40.683594 10.554688 40.53125 10.492188 40.332031 10.402344 C 38.921875 9.789062 34.628906 7.914062 33.558594 7.914062 Z M 33.558594 7.914062 " fill-opacity="1" fill-rule="nonzero"/><path fill="#231f20" d="M 30.625 55.65625 L 30.488281 55.636719 C 30.492188 55.601562 31.003906 52.050781 29.339844 48.8125 C 28.042969 46.292969 25.875 44.484375 23.234375 43.722656 C 20.933594 43.0625 18.585938 43.292969 16.789062 44.363281 L 16.71875 44.242188 C 18.546875 43.15625 20.9375 42.917969 23.273438 43.589844 C 25.953125 44.363281 28.148438 46.195312 29.460938 48.75 C 31.148438 52.03125 30.628906 55.621094 30.625 55.65625 Z M 30.625 55.65625 " fill-opacity="1" fill-rule="nonzero"/><path fill="#e467a2" d="M 51.503906 44.980469 C 53.054688 43.753906 55.03125 43.332031 56.945312 43.828125 " fill-opacity="1" fill-rule="nonzero"/><path fill="#231f20" d="M 51.546875 45.035156 L 51.460938 44.925781 C 53.027344 43.6875 55.035156 43.261719 56.960938 43.761719 L 56.925781 43.894531 C 55.042969 43.40625 53.082031 43.820312 51.546875 45.035156 Z M 51.546875 45.035156 " fill-opacity="1" fill-rule="nonzero"/><path fill="#5ba2ad" d="M 51.730469 27.046875 C 51.996094 27.019531 52.265625 27.0625 52.503906 27.183594 C 52.792969 27.335938 53.132812 27.777344 53.179688 28.105469 C 53.273438 28.761719 52.917969 29.46875 52.289062 29.691406 C 51.640625 29.921875 50.894531 29.710938 50.5625 29.097656 C 49.941406 27.953125 50.828125 27.128906 51.730469 27.046875 Z M 51.730469 27.046875 " fill-opacity="1" fill-rule="nonzero"/><path fill="#231f20" d="M 51.765625 29.851562 C 51.21875 29.851562 50.746094 29.582031 50.5 29.128906 C 50.167969 28.523438 50.277344 28.058594 50.429688 27.777344 C 50.660156 27.34375 51.167969 27.027344 51.722656 26.976562 C 52.011719 26.949219 52.292969 27 52.535156 27.125 C 52.855469 27.289062 53.203125 27.761719 53.25 28.097656 C 53.351562 28.820312 52.949219 29.53125 52.3125 29.757812 C 52.136719 29.820312 51.953125 29.851562 51.765625 29.851562 Z M 51.875 27.109375 C 51.828125 27.109375 51.78125 27.109375 51.734375 27.113281 C 51.226562 27.160156 50.761719 27.449219 50.550781 27.84375 C 50.359375 28.203125 50.382812 28.625 50.621094 29.0625 C 50.84375 29.46875 51.269531 29.714844 51.765625 29.714844 C 51.9375 29.714844 52.105469 29.683594 52.265625 29.625 C 52.84375 29.421875 53.207031 28.773438 53.113281 28.117188 C 53.070312 27.824219 52.753906 27.394531 52.472656 27.246094 C 52.292969 27.15625 52.09375 27.109375 51.875 27.109375 Z M 51.875 27.109375 " fill-opacity="1" fill-rule="nonzero"/><path fill="#446b9c" d="M 16.765625 39.945312 C 16.765625 39.945312 21.609375 42.363281 34.425781 40.644531 " fill-opacity="1" fill-rule="nonzero"/><path fill="#231f20" d="M 25.980469 41.324219 C 19.476562 41.324219 16.769531 40.023438 16.734375 40.007812 L 16.796875 39.882812 C 16.84375 39.90625 21.777344 42.269531 34.417969 40.574219 L 34.4375 40.710938 C 31.101562 41.160156 28.300781 41.324219 25.980469 41.324219 Z M 25.980469 41.324219 " fill-opacity="1" fill-rule="nonzero"/><path fill="#df8666" d="M 38.015625 14.226562 C 37.980469 14.230469 37.941406 14.234375 37.90625 14.234375 C 37.867188 14.234375 37.835938 14.203125 37.835938 14.164062 C 37.835938 14.125 37.867188 14.09375 37.90625 14.09375 C 38.144531 14.09375 38.328125 14.011719 38.414062 13.875 C 38.464844 13.792969 38.472656 13.695312 38.429688 13.613281 C 38.402344 13.558594 38.335938 13.5 38.261719 13.4375 C 38.050781 13.257812 37.765625 13.011719 37.832031 12.4375 C 37.832031 12.433594 37.832031 12.433594 37.832031 12.433594 C 37.832031 12.429688 37.832031 12.429688 37.832031 12.425781 C 37.835938 12.417969 37.835938 12.410156 37.835938 12.402344 C 37.835938 12.402344 37.835938 12.398438 37.839844 12.398438 C 37.890625 12.085938 37.992188 11.785156 38.09375 11.492188 C 38.183594 11.238281 38.273438 10.972656 38.332031 10.695312 C 38.304688 10.695312 38.28125 10.695312 38.257812 10.691406 C 38.011719 10.648438 37.773438 10.535156 37.527344 10.335938 C 37.417969 10.238281 37.339844 10.113281 37.261719 9.988281 C 37.210938 9.902344 37.15625 9.820312 37.097656 9.75 C 37.046875 10 36.855469 10.136719 36.554688 10.136719 C 36.351562 10.136719 36.105469 10.070312 35.914062 9.964844 C 35.507812 9.699219 35.203125 9.226562 35.042969 8.941406 C 34.785156 8.988281 34.503906 9.09375 34.398438 9.15625 C 34.117188 9.3125 33.640625 9.65625 33.542969 10.230469 C 33.527344 10.332031 33.527344 10.421875 33.53125 10.511719 C 33.929688 11.285156 34.496094 12.113281 35.113281 12.832031 C 36.117188 13.996094 36.9375 14.820312 37.683594 15.445312 C 37.722656 15.375 37.765625 15.300781 37.804688 15.21875 C 37.976562 14.863281 38.03125 14.546875 38.015625 14.226562 Z M 36.59375 12.609375 C 36.582031 12.664062 36.511719 12.691406 36.464844 12.660156 C 36.136719 12.457031 35.613281 12.226562 35.238281 12.425781 C 35.199219 12.449219 35.164062 12.390625 35.203125 12.363281 C 35.429688 12.210938 35.695312 12.199219 35.957031 12.257812 C 35.898438 12.007812 35.960938 11.71875 36.21875 11.675781 C 36.339844 11.65625 36.433594 11.699219 36.496094 11.769531 C 36.492188 11.683594 36.480469 11.59375 36.457031 11.511719 C 36.261719 10.730469 35.546875 11.351562 35.308594 11.757812 C 35.292969 11.785156 35.25 11.765625 35.257812 11.738281 C 35.335938 11.390625 35.511719 11.074219 35.871094 10.957031 C 36.097656 10.882812 36.359375 10.910156 36.507812 11.121094 C 36.792969 11.523438 36.699219 12.15625 36.59375 12.609375 Z M 36.597656 10.976562 C 36.375 10.847656 36.191406 10.707031 35.921875 10.730469 C 35.75 10.746094 35.566406 10.914062 35.398438 10.921875 C 35.394531 10.921875 35.394531 10.925781 35.390625 10.925781 C 35.320312 11.007812 35.171875 10.921875 35.207031 10.820312 C 35.199219 10.84375 35.199219 10.78125 35.199219 10.742188 C 35.203125 10.707031 35.207031 10.671875 35.21875 10.640625 C 35.234375 10.550781 35.335938 10.46875 35.402344 10.414062 C 35.550781 10.289062 35.730469 10.226562 35.921875 10.203125 C 36.324219 10.15625 36.785156 10.308594 36.941406 10.707031 C 37.023438 10.910156 36.761719 11.070312 36.597656 10.976562 Z M 36.597656 10.976562 " fill-opacity="1" fill-rule="nonzero"/><path fill="#231f20" d="M 35.921875 10.203125 C 35.730469 10.226562 35.550781 10.289062 35.402344 10.414062 C 35.335938 10.46875 35.234375 10.550781 35.21875 10.640625 C 35.207031 10.671875 35.203125 10.707031 35.199219 10.742188 C 35.199219 10.78125 35.199219 10.84375 35.207031 10.820312 C 35.171875 10.921875 35.320312 11.007812 35.390625 10.925781 C 35.394531 10.925781 35.394531 10.921875 35.398438 10.921875 C 35.566406 10.914062 35.75 10.746094 35.921875 10.730469 C 36.191406 10.707031 36.375 10.847656 36.597656 10.976562 C 36.761719 11.070312 37.023438 10.910156 36.941406 10.707031 C 36.785156 10.308594 36.324219 10.15625 35.921875 10.203125 Z M 35.921875 10.203125 " fill-opacity="1" fill-rule="nonzero"/><path fill="#231f20" d="M 35.871094 10.957031 C 35.511719 11.074219 35.335938 11.390625 35.257812 11.738281 C 35.25 11.765625 35.292969 11.785156 35.308594 11.757812 C 35.546875 11.351562 36.261719 10.730469 36.457031 11.511719 C 36.480469 11.59375 36.492188 11.683594 36.496094 11.769531 C 36.433594 11.699219 36.339844 11.65625 36.21875 11.675781 C 35.960938 11.71875 35.898438 12.007812 35.957031 12.257812 C 35.695312 12.199219 35.429688 12.210938 35.203125 12.363281 C 35.164062 12.390625 35.199219 12.449219 35.238281 12.425781 C 35.613281 12.226562 36.136719 12.457031 36.464844 12.660156 C 36.511719 12.691406 36.582031 12.664062 36.59375 12.609375 C 36.699219 12.15625 36.792969 11.523438 36.507812 11.121094 C 36.359375 10.910156 36.097656 10.882812 35.871094 10.957031 Z M 35.871094 10.957031 " fill-opacity="1" fill-rule="nonzero"/><path fill="#5ba2ad" d="M 34.328125 9.039062 C 34.449219 8.964844 34.777344 8.839844 35.070312 8.796875 L 35.121094 8.792969 L 35.140625 8.835938 C 35.285156 9.101562 35.585938 9.585938 35.984375 9.84375 C 36.152344 9.9375 36.371094 10 36.554688 10 C 36.832031 10 36.972656 9.867188 36.972656 9.605469 L 36.972656 9.472656 L 37.082031 9.550781 C 37.207031 9.636719 37.296875 9.777344 37.382812 9.917969 C 37.453125 10.03125 37.527344 10.148438 37.617188 10.230469 C 37.839844 10.410156 38.058594 10.515625 38.28125 10.554688 C 38.316406 10.558594 38.351562 10.5625 38.382812 10.5625 C 38.507812 10.5625 38.605469 10.519531 38.683594 10.433594 C 38.824219 10.269531 38.863281 9.96875 38.851562 9.6875 C 36.824219 8.824219 33.925781 7.664062 33.390625 7.867188 C 32.714844 8.121094 32.855469 9.105469 33.402344 10.253906 C 33.40625 10.238281 33.40625 10.226562 33.40625 10.210938 C 33.511719 9.574219 34.03125 9.203125 34.328125 9.039062 Z M 34.328125 9.039062 " fill-opacity="1" fill-rule="nonzero"/><path fill="#231f20" d="M 38.851562 9.6875 C 38.863281 9.96875 38.824219 10.269531 38.683594 10.433594 C 38.605469 10.519531 38.507812 10.5625 38.382812 10.5625 C 38.351562 10.5625 38.316406 10.558594 38.28125 10.554688 C 38.058594 10.515625 37.839844 10.410156 37.617188 10.230469 C 37.527344 10.148438 37.453125 10.03125 37.382812 9.917969 C 37.296875 9.777344 37.207031 9.636719 37.082031 9.550781 L 36.972656 9.472656 L 36.972656 9.605469 C 36.972656 9.867188 36.832031 10 36.554688 10 C 36.371094 10 36.152344 9.9375 35.984375 9.84375 C 35.585938 9.585938 35.285156 9.101562 35.140625 8.835938 L 35.121094 8.792969 L 35.070312 8.796875 C 34.777344 8.839844 34.449219 8.964844 34.328125 9.039062 C 34.03125 9.203125 33.511719 9.574219 33.40625 10.210938 C 33.40625 10.226562 33.40625 10.238281 33.402344 10.253906 C 33.441406 10.339844 33.484375 10.425781 33.53125 10.511719 C 33.527344 10.421875 33.527344 10.332031 33.542969 10.230469 C 33.640625 9.65625 34.117188 9.3125 34.398438 9.15625 C 34.503906 9.09375 34.785156 8.988281 35.042969 8.941406 C 35.203125 9.226562 35.507812 9.699219 35.914062 9.964844 C 36.105469 10.070312 36.351562 10.136719 36.554688 10.136719 C 36.855469 10.136719 37.046875 10 37.097656 9.75 C 37.15625 9.820312 37.210938 9.902344 37.261719 9.988281 C 37.339844 10.113281 37.417969 10.238281 37.527344 10.335938 C 37.773438 10.535156 38.011719 10.648438 38.257812 10.691406 C 38.28125 10.695312 38.304688 10.695312 38.332031 10.695312 C 38.273438 10.972656 38.183594 11.238281 38.09375 11.492188 C 37.992188 11.785156 37.890625 12.085938 37.839844 12.398438 C 37.835938 12.398438 37.835938 12.402344 37.835938 12.402344 C 37.835938 12.410156 37.835938 12.417969 37.835938 12.425781 C 37.832031 12.429688 37.832031 12.429688 37.832031 12.433594 C 37.832031 12.433594 37.832031 12.433594 37.832031 12.4375 C 37.765625 13.011719 38.050781 13.257812 38.261719 13.4375 C 38.335938 13.5 38.402344 13.558594 38.429688 13.613281 C 38.472656 13.695312 38.464844 13.792969 38.414062 13.875 C 38.328125 14.011719 38.144531 14.09375 37.90625 14.09375 C 37.867188 14.09375 37.835938 14.125 37.835938 14.164062 C 37.835938 14.203125 37.867188 14.234375 37.90625 14.234375 C 37.941406 14.234375 37.980469 14.230469 38.015625 14.226562 C 38.03125 14.546875 37.976562 14.863281 37.804688 15.21875 C 37.765625 15.300781 37.722656 15.375 37.683594 15.445312 C 37.71875 15.476562 37.753906 15.503906 37.789062 15.535156 C 37.839844 15.453125 37.886719 15.371094 37.929688 15.28125 C 38.117188 14.890625 38.171875 14.546875 38.152344 14.203125 C 38.324219 14.160156 38.457031 14.070312 38.53125 13.949219 C 38.609375 13.824219 38.617188 13.675781 38.554688 13.550781 C 38.515625 13.46875 38.4375 13.40625 38.351562 13.332031 C 38.152344 13.160156 37.90625 12.949219 37.972656 12.433594 C 38.023438 12.132812 38.121094 11.839844 38.226562 11.539062 C 38.320312 11.265625 38.414062 10.988281 38.472656 10.691406 C 38.597656 10.675781 38.703125 10.621094 38.789062 10.523438 C 38.964844 10.324219 38.996094 9.992188 38.992188 9.746094 C 38.945312 9.726562 38.898438 9.707031 38.851562 9.6875 Z M 38.851562 9.6875 " fill-opacity="1" fill-rule="nonzero"/><path fill="#231f20" d="M 39.96875 17.046875 C 39.957031 17.046875 39.945312 17.042969 39.9375 17.039062 C 38.46875 16.257812 37.140625 15.292969 35.0625 12.875 C 33.820312 11.433594 32.644531 9.351562 32.902344 8.332031 C 32.96875 8.070312 33.125 7.894531 33.363281 7.800781 C 33.414062 7.785156 33.476562 7.773438 33.558594 7.773438 C 34.65625 7.773438 38.820312 9.59375 40.390625 10.277344 C 40.585938 10.363281 40.738281 10.429688 40.820312 10.464844 C 41.433594 10.722656 40.964844 12.976562 40.332031 15.675781 C 40.21875 16.164062 40.113281 16.625 40.035156 16.992188 C 40.03125 17.011719 40.019531 17.03125 40 17.039062 C 39.988281 17.042969 39.980469 17.046875 39.96875 17.046875 Z M 33.558594 7.914062 C 33.496094 7.914062 33.445312 7.917969 33.414062 7.933594 C 33.214844 8.007812 33.09375 8.148438 33.039062 8.367188 C 32.789062 9.339844 33.949219 11.371094 35.167969 12.785156 C 37.191406 15.140625 38.496094 16.109375 39.917969 16.871094 C 39.996094 16.519531 40.09375 16.09375 40.199219 15.644531 C 40.648438 13.726562 41.324219 10.828125 40.765625 10.589844 C 40.683594 10.554688 40.53125 10.492188 40.332031 10.402344 C 38.921875 9.789062 34.628906 7.914062 33.558594 7.914062 Z M 33.558594 7.914062 " fill-opacity="1" fill-rule="nonzero"/><path fill="#231f20" d="M 47.332031 28.988281 C 47.3125 28.988281 47.296875 28.980469 47.28125 28.96875 C 47.253906 28.941406 47.253906 28.898438 47.28125 28.871094 C 47.410156 28.730469 47.472656 27.925781 47.425781 26.914062 C 47.375 25.703125 47.199219 24.699219 47.007812 24.527344 C 46.980469 24.503906 46.976562 24.460938 47 24.429688 C 47.027344 24.402344 47.070312 24.398438 47.097656 24.425781 C 47.375 24.671875 47.523438 25.917969 47.566406 26.910156 C 47.578125 27.207031 47.628906 28.699219 47.378906 28.964844 C 47.367188 28.980469 47.347656 28.988281 47.332031 28.988281 Z M 47.332031 28.988281 " fill-opacity="1" fill-rule="nonzero"/><path fill="#231f20" d="M 48.179688 24.546875 C 48.179688 24.546875 48.179688 24.546875 48.175781 24.546875 C 48.140625 24.542969 48.109375 24.511719 48.113281 24.472656 C 48.152344 23.777344 48.035156 22.917969 47.878906 22.742188 C 47.851562 22.714844 47.855469 22.671875 47.882812 22.644531 C 47.910156 22.621094 47.957031 22.621094 47.980469 22.648438 C 48.199219 22.890625 48.285156 23.878906 48.25 24.480469 C 48.25 24.519531 48.21875 24.546875 48.179688 24.546875 Z M 48.179688 24.546875 " fill-opacity="1" fill-rule="nonzero"/><path fill="#231f20" d="M 40.109375 38.269531 C 39.960938 38.121094 39.804688 37.972656 39.648438 37.832031 C 39.332031 37.535156 39.003906 37.230469 38.722656 36.875 L 38.828125 36.789062 C 39.105469 37.132812 39.429688 37.4375 39.742188 37.730469 C 39.898438 37.871094 40.058594 38.019531 40.207031 38.171875 Z M 40.109375 38.269531 " fill-opacity="1" fill-rule="nonzero"/><path fill="#231f20" d="M 36.09375 28.476562 L 36.058594 28.34375 L 37.96875 27.847656 L 38.003906 27.984375 Z M 36.09375 28.476562 " fill-opacity="1" fill-rule="nonzero"/></svg>