<svg xmlns="http://www.w3.org/2000/svg" xmlns:xlink="http://www.w3.org/1999/xlink" width="90" zoomAndPan="magnify" viewBox="0 0 67.5 67.499996" height="90" preserveAspectRatio="xMidYMid meet" version="1.0"><defs><clipPath id="id1"><path d="M 8.140625 3.449219 L 49.390625 3.449219 L 49.390625 44.699219 L 8.140625 44.699219 Z M 8.140625 3.449219 " clip-rule="nonzero"/></clipPath><clipPath id="id2"><path d="M 4.691406 0 L 54.191406 0 L 54.191406 49.5 L 4.691406 49.5 Z M 4.691406 0 " clip-rule="nonzero"/></clipPath><clipPath id="id3"><path d="M 17.699219 31.246094 L 64.179688 31.246094 L 64.179688 63.480469 L 17.699219 63.480469 Z M 17.699219 31.246094 " clip-rule="nonzero"/></clipPath><clipPath id="id4"><path d="M 17.699219 39.125 L 64.179688 39.125 L 64.179688 63.242188 L 17.699219 63.242188 Z M 17.699219 39.125 " clip-rule="nonzero"/></clipPath><clipPath id="id5"><path d="M 26 29.753906 L 56 29.753906 L 56 59 L 26 59 Z M 26 29.753906 " clip-rule="nonzero"/></clipPath></defs><g clip-path="url(#id1)"><path fill="#ffffff" d="M 49.390625 24.074219 C 49.390625 24.75 49.359375 25.425781 49.292969 26.097656 C 49.226562 26.769531 49.125 27.4375 48.996094 28.097656 C 48.863281 28.761719 48.699219 29.414062 48.503906 30.0625 C 48.308594 30.707031 48.078125 31.34375 47.820312 31.96875 C 47.5625 32.59375 47.273438 33.203125 46.957031 33.796875 C 46.636719 34.394531 46.289062 34.972656 45.914062 35.535156 C 45.539062 36.09375 45.136719 36.636719 44.710938 37.160156 C 44.28125 37.679688 43.828125 38.179688 43.351562 38.660156 C 42.871094 39.136719 42.371094 39.589844 41.851562 40.019531 C 41.328125 40.445312 40.785156 40.847656 40.222656 41.222656 C 39.664062 41.597656 39.085938 41.945312 38.488281 42.265625 C 37.894531 42.582031 37.28125 42.871094 36.660156 43.128906 C 36.035156 43.386719 35.398438 43.617188 34.753906 43.8125 C 34.105469 44.007812 33.453125 44.171875 32.789062 44.304688 C 32.128906 44.433594 31.460938 44.535156 30.789062 44.601562 C 30.117188 44.667969 29.441406 44.699219 28.765625 44.699219 C 28.089844 44.699219 27.417969 44.667969 26.746094 44.601562 C 26.070312 44.535156 25.40625 44.433594 24.742188 44.304688 C 24.078125 44.171875 23.425781 44.007812 22.777344 43.8125 C 22.132812 43.617188 21.496094 43.386719 20.875 43.128906 C 20.25 42.871094 19.640625 42.582031 19.042969 42.265625 C 18.449219 41.945312 17.867188 41.597656 17.308594 41.222656 C 16.746094 40.847656 16.203125 40.445312 15.679688 40.019531 C 15.160156 39.589844 14.660156 39.136719 14.183594 38.660156 C 13.703125 38.179688 13.25 37.679688 12.824219 37.160156 C 12.394531 36.636719 11.992188 36.09375 11.617188 35.535156 C 11.242188 34.972656 10.894531 34.394531 10.578125 33.796875 C 10.257812 33.203125 9.96875 32.59375 9.710938 31.96875 C 9.453125 31.34375 9.226562 30.707031 9.027344 30.0625 C 8.832031 29.414062 8.667969 28.761719 8.539062 28.097656 C 8.40625 27.4375 8.304688 26.769531 8.238281 26.097656 C 8.175781 25.425781 8.140625 24.75 8.140625 24.074219 C 8.140625 23.398438 8.175781 22.726562 8.238281 22.054688 C 8.304688 21.382812 8.40625 20.714844 8.539062 20.050781 C 8.667969 19.390625 8.832031 18.734375 9.027344 18.085938 C 9.226562 17.441406 9.453125 16.804688 9.710938 16.183594 C 9.96875 15.558594 10.257812 14.949219 10.578125 14.351562 C 10.894531 13.757812 11.242188 13.179688 11.617188 12.617188 C 11.992188 12.054688 12.394531 11.511719 12.824219 10.992188 C 13.25 10.46875 13.703125 9.96875 14.183594 9.492188 C 14.660156 9.011719 15.160156 8.558594 15.679688 8.132812 C 16.203125 7.703125 16.746094 7.300781 17.308594 6.925781 C 17.867188 6.550781 18.449219 6.203125 19.042969 5.886719 C 19.640625 5.566406 20.25 5.277344 20.875 5.019531 C 21.496094 4.761719 22.132812 4.535156 22.777344 4.339844 C 23.425781 4.140625 24.078125 3.976562 24.742188 3.847656 C 25.40625 3.714844 26.070312 3.617188 26.746094 3.550781 C 27.417969 3.484375 28.089844 3.449219 28.765625 3.449219 C 29.441406 3.449219 30.117188 3.484375 30.789062 3.550781 C 31.460938 3.617188 32.128906 3.714844 32.789062 3.847656 C 33.453125 3.976562 34.105469 4.140625 34.753906 4.339844 C 35.398438 4.535156 36.035156 4.761719 36.660156 5.019531 C 37.28125 5.277344 37.894531 5.566406 38.488281 5.886719 C 39.085938 6.203125 39.664062 6.550781 40.222656 6.925781 C 40.785156 7.300781 41.328125 7.703125 41.851562 8.132812 C 42.371094 8.558594 42.871094 9.011719 43.351562 9.492188 C 43.828125 9.96875 44.28125 10.46875 44.710938 10.992188 C 45.136719 11.511719 45.539062 12.054688 45.914062 12.617188 C 46.289062 13.179688 46.636719 13.757812 46.957031 14.351562 C 47.273438 14.949219 47.5625 15.558594 47.820312 16.183594 C 48.078125 16.804688 48.308594 17.441406 48.503906 18.085938 C 48.699219 18.734375 48.863281 19.390625 48.996094 20.050781 C 49.125 20.714844 49.226562 21.382812 49.292969 22.054688 C 49.359375 22.726562 49.390625 23.398438 49.390625 24.074219 Z M 49.390625 24.074219 " fill-opacity="1" fill-rule="nonzero"/></g><g clip-path="url(#id2)"><path fill="#0eb843" d="M 29.441406 0 C 15.773438 0 4.691406 11.082031 4.691406 24.75 C 4.691406 38.417969 15.773438 49.5 29.441406 49.5 C 43.109375 49.5 54.191406 38.417969 54.191406 24.75 C 54.191406 11.082031 43.109375 0 29.441406 0 Z M 27.980469 39.742188 C 22.398438 39.722656 18.347656 35.855469 18.355469 33.042969 C 18.359375 32.539062 18.695312 32.292969 19.238281 32.292969 C 21.414062 32.300781 23.335938 35.703125 27.070312 35.714844 C 31.726562 35.730469 33.496094 32.253906 33.5 30.078125 C 33.511719 27.222656 32.640625 25.246094 31.761719 23.945312 C 31.175781 24.066406 30.585938 24.105469 29.957031 24.105469 C 28.195312 24.097656 26.015625 23.714844 26.019531 22.035156 C 26.027344 20.359375 28.207031 20.117188 29.929688 20.121094 C 30.265625 20.121094 30.8125 20.207031 31.433594 20.378906 C 32.320312 19.25 33.207031 17.65625 33.214844 15.308594 C 33.226562 12.75 31.722656 11.277344 29.246094 11.269531 C 23.539062 11.253906 23.652344 15.238281 21.386719 15.230469 C 21.050781 15.230469 20.847656 14.847656 20.847656 14.554688 C 20.855469 11.664062 24.222656 7.226562 30.304688 7.246094 C 36.300781 7.265625 39.816406 9.917969 39.800781 14.828125 C 39.792969 17.554688 38.1875 20.402344 35.707031 22.238281 C 38.179688 23.839844 40.476562 26.488281 40.464844 30.558594 C 40.441406 36.765625 33.683594 39.761719 27.980469 39.742188 Z M 27.980469 39.742188 " fill-opacity="1" fill-rule="nonzero"/></g><g clip-path="url(#id3)"><path fill="#f5ba53" d="M 17.859375 54.976562 L 17.78125 40.046875 L 40.527344 31.648438 L 64.179688 39.289062 L 63.769531 52.363281 L 45.714844 63.480469 L 17.859375 54.976562 " fill-opacity="1" fill-rule="evenodd"/></g><path fill="#fef7e4" d="M 20.195312 46.0625 L 19.863281 53.777344 L 23.761719 55.027344 L 24.386719 47.152344 Z M 28.203125 43.648438 L 36.339844 39.363281 L 40.992188 40.804688 L 33.234375 45.230469 L 32.242188 50.828125 L 27.824219 49.675781 L 28.203125 43.648438 " fill-opacity="1" fill-rule="evenodd"/><path fill="#fef7e4" d="M 43.988281 43.035156 L 40.335938 45.296875 L 45.375 46.957031 L 49.113281 44.625 Z M 59.871094 46.828125 L 59.425781 51.984375 L 47.394531 57.46875 L 47.453125 52.078125 L 59.871094 46.828125 " fill-opacity="1" fill-rule="evenodd"/><path fill="#d13123" d="M 54.59375 51.484375 L 57.355469 49.132812 L 57.75 50.691406 L 57.332031 50.582031 L 57.183594 50.964844 L 56.460938 50.957031 L 57.144531 51.296875 L 57.484375 50.90625 L 57.789062 50.847656 L 58.070312 51.617188 L 54.710938 51.769531 L 50.246094 53.90625 L 48.972656 55.328125 L 49.015625 52.625 L 50.132812 53.210938 Z M 58.828125 51.667969 C 58.429688 51.847656 56.597656 52.671875 54.554688 53.59375 C 51.902344 54.792969 48.894531 56.15625 48.183594 56.476562 L 48.285156 52.480469 C 48.742188 52.285156 52.035156 50.882812 54.914062 49.648438 C 56.824219 48.832031 58.554688 48.089844 59.144531 47.832031 Z M 59.394531 47.488281 C 59.355469 47.457031 59.300781 47.449219 59.253906 47.46875 C 59.253906 47.46875 57.175781 48.378906 54.816406 49.414062 C 51.730469 50.773438 48.164062 52.347656 48.164062 52.347656 L 48.164062 52.34375 C 48.132812 52.359375 48.113281 52.386719 48.113281 52.421875 L 48.109375 52.421875 L 47.964844 56.644531 C 47.960938 56.679688 47.980469 56.714844 48.011719 56.734375 C 48.042969 56.757812 48.082031 56.761719 48.113281 56.746094 C 48.113281 56.746094 51.625 55.195312 54.664062 53.84375 C 56.984375 52.816406 59.027344 51.90625 59.027344 51.90625 C 59.078125 51.882812 59.109375 51.835938 59.117188 51.78125 L 59.453125 47.617188 C 59.457031 47.566406 59.433594 47.515625 59.394531 47.488281 " fill-opacity="1" fill-rule="evenodd"/><g clip-path="url(#id4)"><path fill="#bd651d" d="M 38.253906 55.957031 C 38.207031 55.847656 38.132812 55.753906 38.023438 55.710938 C 37.898438 55.660156 37.714844 55.660156 37.574219 55.726562 C 37.476562 55.773438 37.398438 55.847656 37.371094 55.957031 C 37.371094 55.960938 37.367188 55.964844 37.363281 55.96875 C 37.339844 56.101562 37.292969 56.230469 37.296875 56.363281 C 37.300781 56.4375 37.335938 56.511719 37.410156 56.589844 C 37.460938 56.648438 37.523438 56.675781 37.585938 56.691406 C 37.691406 56.71875 37.800781 56.695312 37.90625 56.652344 C 37.996094 56.617188 38.074219 56.5625 38.144531 56.496094 C 38.207031 56.433594 38.261719 56.367188 38.28125 56.285156 C 38.308594 56.179688 38.296875 56.058594 38.253906 55.957031 Z M 38.515625 55.8125 C 38.621094 55.972656 38.65625 56.171875 38.636719 56.351562 C 38.609375 56.511719 38.53125 56.660156 38.417969 56.777344 C 38.308594 56.882812 38.175781 56.964844 38.03125 57.007812 C 37.941406 57.039062 37.851562 57.050781 37.761719 57.050781 C 37.539062 57.046875 37.328125 56.960938 37.195312 56.753906 C 37.105469 56.601562 37.082031 56.472656 37.105469 56.347656 C 37.136719 56.179688 37.253906 56.03125 37.3125 55.863281 C 37.316406 55.84375 37.332031 55.832031 37.347656 55.832031 C 37.390625 55.71875 37.484375 55.632812 37.597656 55.570312 C 37.75 55.484375 37.9375 55.464844 38.085938 55.492188 C 38.269531 55.527344 38.417969 55.652344 38.515625 55.8125 Z M 37.605469 53.628906 L 37.609375 53.632812 L 37.609375 53.621094 L 37.605469 53.625 C 37.605469 53.628906 37.605469 53.628906 37.605469 53.628906 Z M 36.664062 53.832031 C 36.671875 53.835938 36.671875 53.828125 36.675781 53.816406 C 36.664062 53.820312 36.652344 53.828125 36.664062 53.832031 Z M 37.605469 53.625 C 37.589844 53.632812 37.585938 53.644531 37.597656 53.652344 C 37.605469 53.65625 37.605469 53.644531 37.609375 53.640625 C 37.609375 53.636719 37.609375 53.636719 37.609375 53.632812 C 37.613281 53.636719 37.617188 53.636719 37.625 53.632812 C 37.640625 53.628906 37.640625 53.621094 37.632812 53.613281 C 37.621094 53.613281 37.617188 53.617188 37.609375 53.621094 C 37.609375 53.613281 37.609375 53.605469 37.609375 53.597656 L 37.601562 53.59375 C 37.601562 53.605469 37.601562 53.617188 37.605469 53.625 Z M 36.628906 53.769531 C 36.621094 53.640625 36.640625 53.414062 36.640625 53.398438 C 36.660156 53.222656 36.691406 53.042969 36.738281 52.871094 C 36.769531 52.75 36.8125 52.632812 36.867188 52.523438 C 36.894531 52.460938 36.941406 52.378906 36.996094 52.324219 C 37.035156 52.285156 37.078125 52.257812 37.128906 52.242188 C 37.226562 52.210938 37.3125 52.246094 37.378906 52.316406 C 37.453125 52.390625 37.492188 52.546875 37.507812 52.613281 C 37.53125 52.707031 37.546875 52.800781 37.558594 52.894531 C 37.570312 53.015625 37.574219 53.136719 37.582031 53.253906 C 37.605469 53.25 37.628906 53.242188 37.644531 53.238281 C 37.78125 53.203125 37.929688 53.1875 38.078125 53.199219 C 38.222656 53.207031 38.371094 53.238281 38.5 53.300781 C 38.554688 53.324219 38.59375 53.363281 38.621094 53.417969 C 38.644531 53.339844 38.648438 53.246094 38.640625 53.152344 C 38.621094 52.984375 38.5625 52.824219 38.457031 52.75 C 38.441406 52.738281 38.4375 52.726562 38.429688 52.734375 C 38.421875 52.742188 38.417969 52.757812 38.414062 52.773438 C 38.394531 52.851562 38.410156 52.976562 38.417969 53.007812 C 38.421875 53.019531 38.414062 53.035156 38.402344 53.039062 C 38.390625 53.039062 38.378906 53.035156 38.375 53.023438 C 38.359375 52.980469 38.316406 52.796875 38.34375 52.710938 C 38.363281 52.644531 38.414062 52.609375 38.511719 52.664062 C 38.648438 52.734375 38.753906 52.921875 38.804688 53.121094 C 38.859375 53.339844 38.828125 53.566406 38.722656 53.699219 C 38.585938 53.867188 38.488281 53.785156 38.445312 53.730469 C 38.429688 53.707031 38.414062 53.660156 38.402344 53.605469 C 38.398438 53.589844 38.390625 53.570312 38.386719 53.554688 C 38.289062 53.523438 38.179688 53.511719 38.070312 53.515625 C 37.957031 53.519531 37.847656 53.542969 37.746094 53.578125 C 37.722656 53.585938 37.675781 53.59375 37.640625 53.609375 C 37.648438 53.621094 37.660156 53.636719 37.664062 53.640625 C 37.679688 53.667969 37.6875 53.691406 37.691406 53.710938 C 37.707031 53.78125 37.683594 53.832031 37.65625 53.871094 C 37.628906 53.910156 37.570312 53.964844 37.453125 53.949219 C 37.386719 53.9375 37.324219 53.894531 37.28125 53.816406 C 37.242188 53.738281 37.226562 53.589844 37.222656 53.550781 C 37.199219 53.34375 37.203125 53.132812 37.191406 52.925781 C 37.1875 52.84375 37.183594 52.761719 37.171875 52.679688 C 37.167969 52.660156 37.164062 52.628906 37.15625 52.59375 C 37.136719 52.617188 37.125 52.640625 37.109375 52.660156 C 37.039062 52.773438 36.976562 52.898438 36.925781 53.023438 C 36.875 53.160156 36.832031 53.292969 36.796875 53.429688 C 36.792969 53.445312 36.746094 53.621094 36.730469 53.738281 C 36.746094 53.75 36.75 53.765625 36.746094 53.78125 C 36.742188 53.789062 36.746094 53.839844 36.742188 53.859375 C 36.734375 53.886719 36.710938 53.894531 36.695312 53.894531 C 36.679688 53.894531 36.667969 53.886719 36.65625 53.875 C 36.644531 53.859375 36.632812 53.824219 36.628906 53.769531 Z M 37.546875 54.910156 C 37.550781 54.925781 37.554688 54.933594 37.5625 54.925781 C 37.574219 54.921875 37.5625 54.914062 37.546875 54.910156 Z M 37.125 54.421875 C 37.121094 54.414062 37.113281 54.417969 37.105469 54.429688 L 37.109375 54.429688 C 37.113281 54.425781 37.128906 54.429688 37.125 54.421875 Z M 37.058594 54.417969 C 37.054688 54.410156 37.054688 54.40625 37.050781 54.410156 C 37.046875 54.414062 37.054688 54.414062 37.054688 54.414062 Z M 36.59375 55.105469 C 36.601562 55.136719 36.613281 55.160156 36.628906 55.148438 C 36.664062 55.132812 36.632812 55.117188 36.59375 55.105469 Z M 36.480469 55.101562 C 36.480469 55.101562 36.476562 55.105469 36.472656 55.105469 C 36.46875 55.109375 36.4375 55.117188 36.449219 55.125 C 36.464844 55.132812 36.472656 55.121094 36.480469 55.101562 Z M 38.761719 54.535156 C 38.890625 54.5 39.011719 54.429688 39.148438 54.421875 C 39.160156 54.421875 39.171875 54.429688 39.171875 54.441406 C 39.175781 54.457031 39.164062 54.464844 39.15625 54.464844 C 39.023438 54.492188 38.921875 54.582031 38.800781 54.640625 C 38.742188 54.667969 38.683594 54.683594 38.617188 54.691406 C 38.492188 54.699219 38.355469 54.601562 38.230469 54.574219 C 38.203125 54.570312 38.179688 54.570312 38.152344 54.585938 C 38.09375 54.628906 38.042969 54.730469 37.976562 54.828125 C 37.90625 54.945312 37.824219 55.058594 37.738281 55.132812 C 37.65625 55.207031 37.5625 55.238281 37.46875 55.230469 C 37.402344 55.226562 37.347656 55.191406 37.300781 55.140625 C 37.25 55.082031 37.222656 54.984375 37.203125 54.929688 C 37.183594 54.863281 37.15625 54.691406 37.109375 54.539062 C 37.101562 54.511719 37.089844 54.488281 37.078125 54.464844 C 37.078125 54.46875 37.074219 54.472656 37.070312 54.476562 C 37.039062 54.523438 37.003906 54.582031 36.976562 54.644531 C 36.894531 54.804688 36.832031 54.984375 36.796875 55.0625 C 36.78125 55.089844 36.738281 55.214844 36.695312 55.277344 C 36.648438 55.34375 36.59375 55.375 36.546875 55.378906 C 36.496094 55.378906 36.4375 55.367188 36.402344 55.308594 C 36.386719 55.28125 36.367188 55.242188 36.359375 55.195312 C 36.347656 55.125 36.347656 55.039062 36.34375 55.023438 C 36.339844 54.921875 36.335938 54.820312 36.335938 54.71875 C 36.335938 54.570312 36.34375 54.417969 36.34375 54.269531 C 36.34375 54.242188 36.332031 54.144531 36.335938 54.085938 C 36.335938 54.054688 36.34375 54.03125 36.351562 54.019531 C 36.363281 54.003906 36.386719 54 36.402344 54.011719 C 36.417969 54.023438 36.421875 54.046875 36.410156 54.0625 L 36.457031 54.257812 C 36.488281 54.433594 36.511719 54.601562 36.546875 54.773438 L 36.546875 54.789062 C 36.589844 54.644531 36.648438 54.449219 36.730469 54.304688 C 36.824219 54.140625 36.953125 54.046875 37.078125 54.035156 C 37.195312 54.027344 37.300781 54.082031 37.375 54.195312 C 37.421875 54.269531 37.460938 54.371094 37.488281 54.480469 C 37.519531 54.625 37.53125 54.777344 37.542969 54.839844 C 37.546875 54.847656 37.542969 54.871094 37.546875 54.894531 C 37.5625 54.882812 37.582031 54.863281 37.601562 54.84375 C 37.757812 54.703125 37.914062 54.460938 38.042969 54.394531 C 38.125 54.355469 38.207031 54.351562 38.289062 54.386719 C 38.347656 54.410156 38.410156 54.449219 38.472656 54.488281 C 38.519531 54.515625 38.566406 54.546875 38.617188 54.554688 C 38.667969 54.558594 38.714844 54.550781 38.761719 54.535156 Z M 39.699219 54.777344 C 39.699219 53.839844 39.460938 52.875 39.058594 52.183594 C 38.71875 51.601562 38.265625 51.203125 37.730469 51.203125 L 37.730469 51.195312 C 37.195312 51.199219 36.765625 51.519531 36.457031 52.03125 C 36.09375 52.632812 35.898438 53.496094 35.902344 54.433594 C 35.902344 55.375 36.171875 56.269531 36.605469 56.894531 C 36.960938 57.410156 37.425781 57.738281 37.953125 57.738281 C 38.480469 57.738281 38.886719 57.476562 39.175781 57.03125 C 39.523438 56.496094 39.695312 55.707031 39.699219 54.777344 Z M 39.234375 52.078125 C 39.660156 52.796875 39.914062 53.800781 39.917969 54.777344 C 39.917969 55.761719 39.730469 56.589844 39.367188 57.15625 C 39.035156 57.671875 38.5625 57.96875 37.953125 57.96875 C 37.359375 57.964844 36.824219 57.605469 36.421875 57.023438 C 35.972656 56.363281 35.691406 55.421875 35.695312 54.433594 C 35.699219 53.457031 35.910156 52.554688 36.296875 51.929688 C 36.644531 51.363281 37.132812 51.011719 37.730469 51.015625 L 37.730469 51.007812 C 38.328125 51.007812 38.851562 51.429688 39.234375 52.078125 Z M 40.421875 54.746094 C 40.425781 53.550781 40.105469 52.324219 39.5625 51.445312 C 39.113281 50.714844 38.507812 50.230469 37.808594 50.226562 L 37.808594 50.21875 C 37.109375 50.222656 36.542969 50.621094 36.128906 51.253906 C 35.640625 52.015625 35.375 53.117188 35.378906 54.3125 C 35.382812 55.515625 35.742188 56.65625 36.324219 57.449219 C 36.792969 58.089844 37.410156 58.5 38.101562 58.5 C 38.792969 58.5 39.335938 58.171875 39.71875 57.617188 C 40.183594 56.941406 40.421875 55.9375 40.421875 54.746094 Z M 39.734375 51.335938 C 40.300781 52.238281 40.636719 53.507812 40.640625 54.746094 C 40.644531 55.992188 40.390625 57.042969 39.902344 57.75 C 39.476562 58.371094 38.871094 58.726562 38.101562 58.726562 C 37.34375 58.726562 36.660156 58.289062 36.144531 57.582031 C 35.542969 56.753906 35.167969 55.566406 35.171875 54.3125 C 35.175781 53.074219 35.457031 51.933594 35.972656 51.148438 C 36.421875 50.460938 37.046875 50.039062 37.808594 50.039062 L 37.808594 50.03125 C 38.574219 50.03125 39.238281 50.542969 39.734375 51.335938 Z M 63.960938 39.613281 L 45.8125 48.671875 C 45.839844 48.6875 45.863281 48.714844 45.863281 48.75 C 45.863281 48.75 45.878906 50.640625 45.894531 53.050781 C 45.898438 53.957031 45.902344 54.9375 45.90625 55.917969 C 45.910156 59.503906 45.902344 63.085938 45.902344 63.085938 C 45.902344 63.132812 45.863281 63.175781 45.8125 63.175781 C 45.765625 63.175781 45.726562 63.136719 45.726562 63.085938 C 45.726562 63.085938 45.695312 59.503906 45.679688 55.917969 C 45.671875 54.941406 45.671875 53.960938 45.671875 53.050781 C 45.667969 50.640625 45.671875 48.753906 45.671875 48.753906 C 45.671875 48.71875 45.691406 48.695312 45.714844 48.675781 C 45.433594 48.59375 40.320312 47.070312 34.542969 45.34375 C 26.757812 43.019531 17.769531 40.320312 17.769531 40.320312 C 17.71875 40.304688 17.6875 40.253906 17.703125 40.203125 C 17.71875 40.152344 17.773438 40.121094 17.820312 40.136719 C 17.820312 40.136719 26.816406 42.808594 34.605469 45.125 C 40.246094 46.804688 45.25 48.304688 45.75 48.453125 L 63.882812 39.453125 C 63.925781 39.429688 63.980469 39.449219 64 39.492188 C 64.019531 39.535156 64.003906 39.589844 63.960938 39.613281 " fill-opacity="1" fill-rule="evenodd"/></g><g clip-path="url(#id5)"><path fill="#3b435f" d="M 46.015625 44.644531 L 46.421875 44.644531 L 46.421875 44.820312 L 46.015625 44.820312 Z M 45.574219 44.496094 L 45.796875 44.496094 L 45.796875 44.695312 L 45.574219 44.695312 Z M 44.726562 44.957031 L 45.105469 44.957031 L 45.105469 45.183594 L 44.726562 45.183594 Z M 43.917969 44.734375 L 44.121094 44.953125 L 43.847656 45.214844 L 43.644531 44.996094 Z M 47.65625 44.761719 L 47.902344 44.597656 L 48.222656 44.691406 L 47.992188 44.90625 Z M 44.3125 43.496094 L 44.0625 43.699219 L 43.765625 43.550781 L 43.996094 43.398438 Z M 41.332031 45.15625 L 41.566406 45.003906 L 41.847656 45.152344 L 41.632812 45.304688 Z M 48.503906 44.664062 L 48 45.03125 L 47.402344 44.785156 L 47.875 44.460938 Z M 47.117188 44.816406 L 48.027344 45.144531 L 48.761719 44.632812 L 47.871094 44.355469 Z M 44.078125 43.820312 L 43.507812 43.585938 L 43.980469 43.261719 L 44.546875 43.453125 Z M 43.976562 43.160156 L 43.222656 43.617188 L 44.148438 44.019531 L 44.828125 43.441406 Z M 42.0625 45.117188 L 41.648438 45.425781 L 41.074219 45.191406 L 41.550781 44.871094 Z M 40.792969 45.222656 L 41.703125 45.554688 L 42.363281 45.117188 L 41.546875 44.765625 Z M 39.703125 36.789062 C 39.144531 36.316406 38.003906 35.636719 37.007812 34.800781 C 36.429688 34.3125 35.902344 33.773438 35.582031 33.183594 C 35.296875 32.667969 35.0625 31.695312 35.242188 30.976562 C 35.355469 30.539062 35.636719 30.207031 36.195312 30.1875 C 36.441406 30.179688 36.660156 30.269531 36.863281 30.402344 C 37.191406 30.621094 37.46875 30.960938 37.691406 31.253906 C 38.171875 31.878906 38.605469 32.554688 38.980469 33.265625 C 39.351562 33.972656 39.664062 34.714844 39.902344 35.46875 C 40.035156 35.898438 40.273438 36.921875 40.425781 37.484375 C 40.398438 37.464844 40.375 37.441406 40.347656 37.421875 C 40.125 37.234375 39.917969 36.972656 39.703125 36.789062 Z M 45.066406 34.210938 C 47.253906 33.414062 49.511719 33.398438 50.042969 33.558594 C 50.617188 33.726562 50.914062 34.195312 50.992188 34.742188 C 50.390625 34.726562 49.636719 34.835938 48.816406 35.035156 C 47.679688 35.300781 46.421875 35.71875 45.285156 36.136719 C 43.621094 36.75 42.226562 37.367188 41.882812 37.429688 L 41.105469 37.542969 C 41.152344 37.421875 41.191406 37.308594 41.199219 37.292969 C 42.035156 35.71875 43.535156 34.773438 45.066406 34.210938 Z M 50.902344 35.828125 C 50.636719 36.71875 49.917969 37.496094 48.90625 37.339844 C 48.496094 37.277344 47.738281 37.304688 46.871094 37.375 C 45.1875 37.515625 43.058594 37.808594 42.253906 37.875 C 42.179688 37.878906 42.039062 37.867188 41.851562 37.835938 C 41.882812 37.832031 41.917969 37.828125 41.949219 37.824219 C 42.300781 37.765625 43.738281 37.183594 45.4375 36.558594 C 46.5625 36.148438 47.796875 35.714844 48.910156 35.429688 C 49.707031 35.230469 50.4375 35.101562 51.015625 35.109375 C 51.011719 35.347656 50.976562 35.59375 50.902344 35.828125 Z M 55.171875 44.945312 C 54.988281 44.050781 54.773438 43.402344 54.566406 43.132812 C 54.066406 42.484375 53.097656 41.898438 51.929688 41.378906 C 49.644531 40.359375 46.609375 39.574219 45.175781 38.941406 C 44.914062 38.824219 44.460938 38.6875 43.929688 38.542969 C 43.550781 38.441406 43.136719 38.339844 42.726562 38.238281 C 43.710938 38.136719 45.46875 37.910156 46.90625 37.796875 C 47.734375 37.734375 48.453125 37.707031 48.84375 37.769531 C 50.082031 37.960938 50.988281 37.042969 51.316406 35.957031 C 51.398438 35.691406 51.441406 35.417969 51.445312 35.148438 C 51.605469 35.175781 51.75 35.21875 51.863281 35.289062 C 51.949219 35.335938 52.050781 35.308594 52.101562 35.226562 C 52.152344 35.144531 52.125 35.035156 52.039062 34.984375 C 51.878906 34.886719 51.667969 34.820312 51.429688 34.78125 C 51.351562 34.027344 50.953125 33.363281 50.167969 33.128906 C 49.605469 32.960938 47.222656 32.945312 44.914062 33.789062 C 43.285156 34.386719 41.699219 35.410156 40.8125 37.085938 C 40.808594 37.089844 40.800781 37.113281 40.789062 37.148438 C 40.636719 36.566406 40.433594 35.71875 40.3125 35.335938 C 40.066406 34.558594 39.742188 33.796875 39.355469 33.0625 C 38.964844 32.332031 38.515625 31.636719 38.019531 30.992188 C 37.769531 30.667969 37.457031 30.296875 37.089844 30.050781 C 36.816406 29.871094 36.511719 29.761719 36.183594 29.773438 C 35.398438 29.800781 35.003906 30.261719 34.851562 30.875 C 34.652344 31.691406 34.910156 32.792969 35.238281 33.378906 C 35.582031 34.003906 36.144531 34.582031 36.761719 35.097656 C 37.761719 35.933594 38.90625 36.609375 39.464844 37.078125 C 39.597656 37.1875 39.722656 37.320312 39.851562 37.453125 C 37.722656 37.019531 34.621094 36.367188 32.03125 36.066406 C 30.820312 35.925781 29.71875 35.863281 28.875 35.929688 C 28.28125 35.976562 27.8125 36.09375 27.507812 36.285156 C 27.425781 36.335938 27.402344 36.445312 27.453125 36.527344 C 27.503906 36.609375 27.609375 36.632812 27.691406 36.582031 C 27.960938 36.414062 28.378906 36.324219 28.902344 36.285156 C 29.726562 36.222656 30.804688 36.289062 31.988281 36.433594 C 34.703125 36.761719 37.980469 37.476562 40.101562 37.914062 C 40.078125 37.917969 40.058594 37.921875 40.039062 37.925781 C 39.457031 38.015625 38.824219 37.980469 38.363281 38 C 38.042969 38.011719 37.71875 38.019531 37.398438 38.027344 C 36.914062 38.035156 36.433594 38.042969 35.949219 38.050781 C 35.167969 38.066406 34.089844 38 32.9375 37.992188 C 31.386719 37.988281 29.699219 38.097656 28.40625 38.621094 C 27.289062 39.070312 26.457031 39.828125 26.207031 41.0625 L 26.542969 41.136719 C 26.863281 39.6875 28.074219 39.015625 29.550781 38.699219 C 30.546875 38.484375 31.660156 38.4375 32.722656 38.4375 C 33.957031 38.441406 35.125 38.511719 35.957031 38.492188 C 36.441406 38.480469 36.925781 38.46875 37.410156 38.453125 C 37.734375 38.441406 38.058594 38.425781 38.382812 38.410156 C 38.804688 38.386719 39.375 38.398438 39.914062 38.332031 C 38.257812 39.441406 36.089844 40.800781 34.230469 42.136719 C 33.183594 42.886719 32.234375 43.628906 31.523438 44.3125 C 30.828125 44.988281 30.238281 45.84375 29.75 46.804688 C 29.082031 48.117188 28.597656 49.625 28.265625 51.109375 C 27.621094 53.984375 27.542969 56.773438 27.761719 57.910156 C 27.804688 58.128906 27.863281 58.292969 27.921875 58.394531 C 27.984375 58.5 28.0625 58.554688 28.136719 58.570312 C 28.226562 58.59375 28.332031 58.574219 28.433594 58.476562 C 28.5 58.410156 28.503906 58.296875 28.4375 58.230469 C 28.378906 58.167969 28.289062 58.160156 28.21875 58.203125 C 28.207031 58.175781 28.1875 58.140625 28.175781 58.105469 C 28.140625 58.003906 28.113281 57.867188 28.085938 57.699219 C 27.886719 56.296875 28.097656 52.914062 29.050781 49.761719 C 29.648438 47.777344 30.542969 45.878906 31.832031 44.636719 C 32.523438 43.964844 33.457031 43.234375 34.480469 42.492188 C 36.574219 40.972656 39.050781 39.40625 40.746094 38.210938 C 40.867188 38.28125 41.097656 38.371094 41.132812 38.386719 C 41.488281 38.5625 41.839844 38.75 42.179688 38.953125 C 42.519531 39.152344 42.847656 39.371094 43.164062 39.609375 C 43.824219 40.101562 44.398438 40.683594 44.960938 41.273438 C 45.53125 41.878906 46.089844 42.5 46.699219 43.074219 C 47.222656 43.566406 47.78125 44.019531 48.417969 44.402344 C 48.726562 44.582031 49.371094 45.011719 49.945312 45.214844 C 50.253906 45.324219 50.542969 45.363281 50.765625 45.296875 L 50.664062 44.960938 C 50.453125 45.023438 50.15625 44.921875 49.855469 44.78125 C 49.371094 44.5625 48.875 44.214844 48.621094 44.0625 C 48.015625 43.6875 47.488281 43.238281 46.992188 42.757812 C 46.394531 42.183594 45.847656 41.5625 45.277344 40.964844 C 44.699219 40.355469 44.097656 39.769531 43.410156 39.265625 C 43.078125 39.023438 42.734375 38.804688 42.378906 38.601562 C 42.3125 38.566406 42.242188 38.535156 42.175781 38.5 C 42.722656 38.632812 43.3125 38.777344 43.828125 38.921875 C 44.332031 39.0625 44.765625 39.199219 45.015625 39.3125 C 46.445312 39.953125 49.472656 40.761719 51.75 41.785156 C 52.835938 42.273438 53.753906 42.804688 54.214844 43.40625 C 54.402344 43.648438 54.574219 44.234375 54.742188 45.039062 C 55.117188 46.824219 55.398438 49.644531 55.398438 52.257812 C 55.398438 54.777344 55.148438 57.101562 54.433594 58.085938 C 54.378906 58.164062 54.394531 58.273438 54.472656 58.328125 C 54.550781 58.386719 54.65625 58.371094 54.714844 58.292969 C 55.460938 57.277344 55.777344 54.871094 55.792969 52.261719 C 55.8125 49.617188 55.542969 46.757812 55.171875 44.945312 " fill-opacity="1" fill-rule="evenodd"/></g></svg>