<svg xmlns="http://www.w3.org/2000/svg" xmlns:xlink="http://www.w3.org/1999/xlink" width="90" zoomAndPan="magnify" viewBox="0 0 67.5 67.499996" height="90" preserveAspectRatio="xMidYMid meet" version="1.0"><defs><clipPath id="id1"><path d="M 6.453125 1.761719 L 51.453125 1.761719 L 51.453125 46.761719 L 6.453125 46.761719 Z M 6.453125 1.761719 " clip-rule="nonzero"/></clipPath><clipPath id="id2"><path d="M 4.691406 0 L 53.441406 0 L 53.441406 48.75 L 4.691406 48.75 Z M 4.691406 0 " clip-rule="nonzero"/></clipPath><clipPath id="id3"><path d="M 42 11.550781 L 52 11.550781 L 52 19 L 42 19 Z M 42 11.550781 " clip-rule="nonzero"/></clipPath><clipPath id="id4"><path d="M 48 60 L 56 60 L 56 63.300781 L 48 63.300781 Z M 48 60 " clip-rule="nonzero"/></clipPath><clipPath id="id5"><path d="M 48 59 L 56 59 L 56 63.300781 L 48 63.300781 Z M 48 59 " clip-rule="nonzero"/></clipPath><clipPath id="id6"><path d="M 35.699219 58 L 44 58 L 44 63 L 35.699219 63 Z M 35.699219 58 " clip-rule="nonzero"/></clipPath><clipPath id="id7"><path d="M 48 21 L 63.449219 21 L 63.449219 27 L 48 27 Z M 48 21 " clip-rule="nonzero"/></clipPath><clipPath id="id8"><path d="M 48 21 L 63.449219 21 L 63.449219 28 L 48 28 Z M 48 21 " clip-rule="nonzero"/></clipPath><clipPath id="id9"><path d="M 48 21 L 63.449219 21 L 63.449219 27 L 48 27 Z M 48 21 " clip-rule="nonzero"/></clipPath><clipPath id="id10"><path d="M 48 21 L 63.449219 21 L 63.449219 28 L 48 28 Z M 48 21 " clip-rule="nonzero"/></clipPath><clipPath id="id11"><path d="M 48 26 L 63.449219 26 L 63.449219 37 L 48 37 Z M 48 26 " clip-rule="nonzero"/></clipPath></defs><g clip-path="url(#id1)"><path fill="#ffffff" d="M 51.453125 24.261719 C 51.453125 25 51.417969 25.734375 51.34375 26.46875 C 51.273438 27.203125 51.164062 27.929688 51.019531 28.652344 C 50.878906 29.375 50.699219 30.089844 50.484375 30.792969 C 50.269531 31.5 50.023438 32.191406 49.742188 32.871094 C 49.457031 33.554688 49.144531 34.21875 48.796875 34.867188 C 48.449219 35.519531 48.070312 36.148438 47.660156 36.761719 C 47.253906 37.375 46.8125 37.964844 46.347656 38.535156 C 45.878906 39.105469 45.382812 39.652344 44.863281 40.171875 C 44.34375 40.695312 43.796875 41.1875 43.226562 41.65625 C 42.65625 42.121094 42.066406 42.5625 41.453125 42.96875 C 40.839844 43.378906 40.210938 43.757812 39.558594 44.105469 C 38.910156 44.453125 38.246094 44.769531 37.5625 45.050781 C 36.882812 45.332031 36.191406 45.578125 35.484375 45.792969 C 34.78125 46.007812 34.066406 46.1875 33.34375 46.332031 C 32.621094 46.472656 31.890625 46.582031 31.160156 46.652344 C 30.425781 46.726562 29.691406 46.761719 28.953125 46.761719 C 28.214844 46.761719 27.480469 46.726562 26.746094 46.652344 C 26.015625 46.582031 25.285156 46.472656 24.5625 46.332031 C 23.839844 46.1875 23.128906 46.007812 22.421875 45.792969 C 21.71875 45.578125 21.023438 45.332031 20.34375 45.050781 C 19.664062 44.769531 18.996094 44.453125 18.347656 44.105469 C 17.695312 43.757812 17.066406 43.378906 16.453125 42.96875 C 15.839844 42.5625 15.25 42.121094 14.679688 41.65625 C 14.109375 41.1875 13.566406 40.695312 13.042969 40.171875 C 12.523438 39.652344 12.027344 39.105469 11.5625 38.535156 C 11.09375 37.964844 10.65625 37.375 10.246094 36.761719 C 9.835938 36.148438 9.457031 35.519531 9.109375 34.867188 C 8.761719 34.21875 8.449219 33.554688 8.167969 32.871094 C 7.882812 32.191406 7.636719 31.5 7.421875 30.792969 C 7.207031 30.089844 7.03125 29.375 6.886719 28.652344 C 6.742188 27.929688 6.632812 27.203125 6.5625 26.46875 C 6.488281 25.734375 6.453125 25 6.453125 24.261719 C 6.453125 23.527344 6.488281 22.789062 6.5625 22.058594 C 6.632812 21.324219 6.742188 20.597656 6.886719 19.871094 C 7.03125 19.148438 7.207031 18.4375 7.421875 17.730469 C 7.636719 17.027344 7.882812 16.332031 8.167969 15.652344 C 8.449219 14.972656 8.761719 14.304688 9.109375 13.65625 C 9.457031 13.007812 9.835938 12.375 10.246094 11.761719 C 10.65625 11.148438 11.09375 10.558594 11.5625 9.988281 C 12.027344 9.417969 12.523438 8.875 13.042969 8.351562 C 13.566406 7.832031 14.109375 7.335938 14.679688 6.871094 C 15.25 6.402344 15.839844 5.964844 16.453125 5.554688 C 17.066406 5.144531 17.695312 4.765625 18.347656 4.417969 C 18.996094 4.070312 19.664062 3.757812 20.34375 3.476562 C 21.023438 3.191406 21.71875 2.945312 22.421875 2.730469 C 23.128906 2.515625 23.839844 2.339844 24.5625 2.195312 C 25.285156 2.050781 26.015625 1.941406 26.746094 1.871094 C 27.480469 1.796875 28.214844 1.761719 28.953125 1.761719 C 29.691406 1.761719 30.425781 1.796875 31.160156 1.871094 C 31.890625 1.941406 32.621094 2.050781 33.34375 2.195312 C 34.066406 2.339844 34.78125 2.515625 35.484375 2.730469 C 36.191406 2.945312 36.882812 3.191406 37.5625 3.476562 C 38.246094 3.757812 38.910156 4.070312 39.558594 4.417969 C 40.210938 4.765625 40.839844 5.144531 41.453125 5.554688 C 42.066406 5.964844 42.65625 6.402344 43.226562 6.871094 C 43.796875 7.335938 44.34375 7.832031 44.863281 8.351562 C 45.382812 8.875 45.878906 9.417969 46.347656 9.988281 C 46.8125 10.558594 47.253906 11.148438 47.660156 11.761719 C 48.070312 12.375 48.449219 13.007812 48.796875 13.65625 C 49.144531 14.304688 49.457031 14.972656 49.742188 15.652344 C 50.023438 16.332031 50.269531 17.027344 50.484375 17.730469 C 50.699219 18.4375 50.878906 19.148438 51.019531 19.871094 C 51.164062 20.597656 51.273438 21.324219 51.34375 22.058594 C 51.417969 22.789062 51.453125 23.527344 51.453125 24.261719 Z M 51.453125 24.261719 " fill-opacity="1" fill-rule="nonzero"/></g><path fill="#0eb843" d="M 19.09375 34.535156 C 19.09375 35.363281 19.835938 35.695312 20.496094 35.699219 C 21.199219 35.703125 22.023438 35.042969 22.976562 34.015625 C 22.113281 33.597656 21.328125 33.304688 20.585938 33.304688 C 19.800781 33.300781 19.097656 33.710938 19.09375 34.535156 Z M 19.09375 34.535156 " fill-opacity="1" fill-rule="nonzero"/><g clip-path="url(#id2)"><path fill="#0eb843" d="M 29.066406 0 C 15.605469 0 4.691406 10.914062 4.691406 24.375 C 4.691406 37.835938 15.605469 48.75 29.066406 48.75 C 42.527344 48.75 53.441406 37.835938 53.441406 24.375 C 53.441406 10.914062 42.527344 0 29.066406 0 Z M 32.921875 38.382812 C 30.605469 38.375 28.503906 37.335938 26.609375 36.214844 C 25.117188 37.820312 22.925781 38.925781 20.03125 38.921875 C 16.644531 38.910156 15.078125 37.003906 15.089844 34.277344 C 15.097656 31.429688 17.414062 30.03125 20.59375 30.042969 C 22.660156 30.046875 24.273438 30.304688 25.589844 30.71875 L 26.421875 29.6875 C 29.078125 25.6875 32.273438 20.164062 32.289062 15.085938 C 32.296875 12.566406 30.734375 11.113281 28.378906 11.109375 C 22.761719 11.089844 22.875 15.015625 20.644531 15.007812 C 20.3125 15.003906 20.105469 14.632812 20.109375 14.34375 C 20.117188 11.496094 23.4375 7.125 29.425781 7.144531 C 35.332031 7.164062 38.792969 9.820312 38.78125 14.613281 C 38.757812 21.011719 34.234375 28.226562 30.007812 32.671875 C 31.492188 33.421875 32.890625 34.046875 34.996094 34.054688 C 36.9375 34.058594 38.84375 33.113281 40.210938 31.382812 C 40.832031 30.558594 41.375 30.1875 41.703125 30.1875 C 42.117188 30.191406 42.320312 30.808594 42.316406 31.757812 C 42.304688 35.066406 38.496094 38.402344 32.921875 38.382812 Z M 32.921875 38.382812 " fill-opacity="1" fill-rule="nonzero"/></g><g clip-path="url(#id3)"><path fill="#665857" d="M 45.265625 18.414062 C 43.550781 18.414062 43.242188 16.289062 43.496094 15.765625 C 43.496094 15.765625 43.160156 16.152344 42.710938 15.910156 C 43.605469 14.976562 43.402344 12.796875 45.210938 12.964844 C 45.566406 12.21875 46.292969 11.621094 47.171875 11.734375 C 47.972656 11.828125 48.90625 12.164062 49.632812 11.660156 C 49.746094 11.789062 49.726562 12.011719 49.613281 12.144531 C 50.566406 12.3125 51.347656 13.523438 51.460938 14.402344 C 51.59375 15.410156 51.03125 16.585938 50.175781 17.089844 C 50.007812 17.199219 49.839844 17.351562 49.632812 17.40625 " fill-opacity="1" fill-rule="nonzero"/><path fill="#231f20" d="M 45.265625 18.46875 C 44.457031 18.46875 44 18.007812 43.757812 17.621094 C 43.394531 17.046875 43.308594 16.328125 43.386719 15.925781 C 43.234375 16.023438 42.980469 16.117188 42.683594 15.957031 C 42.667969 15.949219 42.660156 15.933594 42.65625 15.917969 C 42.652344 15.902344 42.660156 15.882812 42.671875 15.871094 C 42.976562 15.550781 43.15625 15.066406 43.332031 14.601562 C 43.65625 13.722656 43.992188 12.816406 45.179688 12.90625 C 45.5 12.253906 46.210938 11.554688 47.175781 11.675781 C 47.351562 11.699219 47.527344 11.726562 47.710938 11.761719 C 48.367188 11.875 49.046875 11.996094 49.601562 11.613281 C 49.625 11.597656 49.65625 11.601562 49.675781 11.621094 C 49.78125 11.746094 49.792969 11.949219 49.707031 12.105469 C 50.679688 12.339844 51.414062 13.574219 51.515625 14.394531 C 51.648438 15.421875 51.074219 16.625 50.203125 17.136719 C 50.164062 17.160156 50.125 17.191406 50.085938 17.21875 C 49.953125 17.316406 49.8125 17.414062 49.648438 17.460938 C 49.617188 17.46875 49.585938 17.449219 49.578125 17.421875 C 49.570312 17.390625 49.589844 17.359375 49.617188 17.351562 C 49.765625 17.3125 49.894531 17.21875 50.023438 17.128906 C 50.0625 17.097656 50.101562 17.070312 50.144531 17.042969 C 50.980469 16.550781 51.535156 15.394531 51.40625 14.410156 C 51.304688 13.601562 50.566406 12.367188 49.605469 12.199219 C 49.585938 12.195312 49.570312 12.179688 49.5625 12.164062 C 49.554688 12.144531 49.558594 12.121094 49.570312 12.105469 C 49.660156 12.003906 49.675781 11.84375 49.617188 11.734375 C 49.039062 12.105469 48.355469 11.988281 47.691406 11.871094 C 47.507812 11.839844 47.335938 11.808594 47.164062 11.789062 C 46.238281 11.671875 45.558594 12.359375 45.261719 12.988281 C 45.253906 13.011719 45.230469 13.023438 45.207031 13.019531 C 44.074219 12.914062 43.765625 13.753906 43.433594 14.640625 C 43.269531 15.089844 43.09375 15.558594 42.804688 15.890625 C 43.175781 16.042969 43.449219 15.734375 43.453125 15.730469 C 43.472656 15.707031 43.503906 15.703125 43.527344 15.71875 C 43.550781 15.734375 43.558594 15.765625 43.546875 15.792969 C 43.402344 16.085938 43.449219 16.925781 43.851562 17.5625 C 44.078125 17.925781 44.507812 18.355469 45.265625 18.355469 C 45.296875 18.355469 45.320312 18.382812 45.320312 18.414062 C 45.320312 18.445312 45.296875 18.46875 45.265625 18.46875 Z M 45.265625 18.46875 " fill-opacity="1" fill-rule="nonzero"/></g><path fill="#e98263" d="M 47.699219 22.371094 C 45.214844 23.582031 45.878906 31.101562 47.921875 34.015625 C 49.964844 36.929688 53.617188 32.191406 52.65625 31.632812 C 51.695312 31.070312 51.148438 29.210938 50.832031 27.117188 C 50.515625 25.023438 50.183594 21.15625 47.699219 22.371094 Z M 47.699219 22.371094 " fill-opacity="1" fill-rule="nonzero"/><path fill="#231f20" d="M 49.527344 35.011719 C 48.882812 35.011719 48.324219 34.6875 47.875 34.046875 C 46.355469 31.875 45.59375 27.179688 46.316406 24.386719 C 46.589844 23.320312 47.046875 22.625 47.675781 22.320312 C 47.996094 22.164062 48.296875 22.082031 48.570312 22.082031 C 50.171875 22.082031 50.542969 24.699219 50.816406 26.605469 C 50.839844 26.78125 50.863281 26.949219 50.886719 27.109375 C 51.265625 29.601562 51.867188 31.105469 52.683594 31.582031 C 52.8125 31.65625 52.941406 31.835938 52.828125 32.25 C 52.5625 33.21875 51.027344 35.011719 49.527344 35.011719 Z M 48.570312 22.195312 C 48.316406 22.195312 48.03125 22.269531 47.726562 22.421875 C 47.136719 22.707031 46.6875 23.398438 46.425781 24.414062 C 45.710938 27.183594 46.460938 31.832031 47.96875 33.984375 C 48.394531 34.59375 48.917969 34.902344 49.527344 34.902344 C 50.976562 34.902344 52.464844 33.164062 52.71875 32.222656 C 52.769531 32.027344 52.796875 31.777344 52.628906 31.679688 C 51.78125 31.183594 51.160156 29.652344 50.777344 27.125 C 50.753906 26.96875 50.730469 26.796875 50.703125 26.621094 C 50.4375 24.753906 50.074219 22.195312 48.570312 22.195312 Z M 48.570312 22.195312 " fill-opacity="1" fill-rule="nonzero"/><path fill="#f7b668" d="M 49.933594 61.832031 C 50.535156 61.671875 51.101562 61.390625 51.605469 61.023438 C 51.765625 60.90625 51.925781 60.78125 52.078125 60.648438 C 51.464844 60.53125 50.964844 60.335938 50.980469 59.960938 C 51.019531 59.109375 51.09375 57.535156 51.09375 56.9375 L 48.574219 56.9375 C 48.574219 56.9375 48.207031 60.488281 48.15625 62.09375 C 48.742188 62.140625 49.382812 61.976562 49.933594 61.832031 Z M 49.933594 61.832031 " fill-opacity="1" fill-rule="nonzero"/><path fill="#231f20" d="M 48.371094 62.15625 C 48.296875 62.15625 48.222656 62.15625 48.152344 62.148438 C 48.121094 62.148438 48.101562 62.121094 48.101562 62.089844 C 48.152344 60.503906 48.515625 56.964844 48.519531 56.929688 C 48.523438 56.902344 48.546875 56.878906 48.574219 56.878906 L 51.09375 56.878906 C 51.125 56.878906 51.148438 56.90625 51.148438 56.9375 C 51.148438 57.460938 51.089844 58.761719 51.054688 59.621094 L 51.039062 59.964844 C 51.023438 60.253906 51.367188 60.457031 52.085938 60.59375 C 52.109375 60.597656 52.125 60.613281 52.128906 60.632812 C 52.136719 60.652344 52.128906 60.675781 52.113281 60.691406 C 51.957031 60.828125 51.796875 60.953125 51.636719 61.070312 C 51.105469 61.457031 50.539062 61.730469 49.945312 61.886719 C 49.488281 62.007812 48.917969 62.15625 48.371094 62.15625 Z M 48.214844 62.042969 C 48.265625 62.042969 48.316406 62.046875 48.371094 62.046875 C 48.902344 62.046875 49.464844 61.898438 49.917969 61.777344 C 50.496094 61.625 51.050781 61.355469 51.570312 60.980469 C 51.699219 60.886719 51.824219 60.785156 51.953125 60.679688 C 51.246094 60.53125 50.910156 60.296875 50.925781 59.957031 L 50.941406 59.617188 C 50.976562 58.785156 51.03125 57.546875 51.035156 56.992188 L 48.625 56.992188 C 48.582031 57.425781 48.269531 60.539062 48.214844 62.042969 Z M 48.214844 62.042969 " fill-opacity="1" fill-rule="nonzero"/><path fill="#e98263" d="M 54.152344 60.894531 C 53.605469 60.753906 51.363281 60.800781 51.027344 60.152344 C 50.808594 60.246094 50.582031 60.316406 50.34375 60.347656 C 49.65625 60.441406 48.960938 60.375 48.265625 60.320312 C 48.171875 61.523438 48.109375 62.632812 48.183594 62.832031 C 48.351562 63.300781 55.421875 62.609375 55.347656 61.9375 C 55.273438 61.265625 54.675781 61.042969 54.152344 60.894531 Z M 54.152344 60.894531 " fill-opacity="1" fill-rule="nonzero"/><g clip-path="url(#id4)"><path fill="#231f20" d="M 49.207031 63.042969 C 48.199219 63.042969 48.152344 62.910156 48.128906 62.851562 C 48.105469 62.785156 48.035156 62.585938 48.210938 60.316406 C 48.210938 60.285156 48.238281 60.261719 48.269531 60.265625 L 48.460938 60.28125 C 48.835938 60.308594 49.222656 60.339844 49.601562 60.339844 C 49.871094 60.339844 50.109375 60.324219 50.335938 60.292969 C 50.554688 60.261719 50.773438 60.199219 51.003906 60.101562 C 51.03125 60.089844 51.0625 60.101562 51.074219 60.128906 C 51.304688 60.570312 52.558594 60.675781 53.390625 60.746094 C 53.722656 60.773438 54.011719 60.800781 54.164062 60.839844 C 54.765625 61.007812 55.328125 61.261719 55.402344 61.929688 C 55.40625 61.980469 55.390625 62.027344 55.347656 62.074219 C 54.882812 62.59375 50.945312 63.042969 49.207031 63.042969 Z M 48.316406 60.382812 C 48.175781 62.191406 48.195312 62.703125 48.234375 62.8125 C 48.238281 62.820312 48.296875 62.929688 49.207031 62.929688 C 51.082031 62.929688 54.851562 62.460938 55.265625 62 C 55.285156 61.980469 55.292969 61.960938 55.292969 61.945312 C 55.21875 61.308594 54.660156 61.09375 54.136719 60.945312 C 53.992188 60.910156 53.710938 60.886719 53.382812 60.859375 C 52.503906 60.785156 51.308594 60.683594 51.003906 60.222656 C 50.777344 60.316406 50.566406 60.375 50.351562 60.40625 C 50.121094 60.4375 49.875 60.453125 49.601562 60.453125 C 49.21875 60.453125 48.828125 60.421875 48.453125 60.390625 Z M 48.316406 60.382812 " fill-opacity="1" fill-rule="nonzero"/></g><path fill="#665857" d="M 54.152344 60.894531 C 53.761719 60.796875 52.519531 60.789062 51.710938 60.5625 C 51.691406 60.414062 51.707031 60.25 51.707031 60.109375 C 51.707031 59.902344 51.824219 59.472656 51.550781 59.398438 C 51.222656 59.304688 50.929688 59.941406 50.796875 60.15625 C 50.433594 60.738281 50.03125 61.257812 49.34375 61.457031 C 49.253906 61.480469 48.171875 61.761719 48.175781 61.679688 C 48.144531 62.273438 48.140625 62.714844 48.183594 62.832031 C 48.351562 63.300781 55.421875 62.609375 55.347656 61.9375 C 55.273438 61.265625 54.675781 61.042969 54.152344 60.894531 Z M 54.152344 60.894531 " fill-opacity="1" fill-rule="nonzero"/><g clip-path="url(#id5)"><path fill="#231f20" d="M 49.207031 63.042969 C 48.199219 63.042969 48.152344 62.910156 48.128906 62.851562 C 48.113281 62.808594 48.066406 62.679688 48.117188 61.675781 C 48.121094 61.644531 48.144531 61.621094 48.179688 61.625 C 48.191406 61.625 48.203125 61.628906 48.210938 61.636719 C 48.214844 61.636719 48.21875 61.636719 48.222656 61.636719 C 48.414062 61.636719 49.234375 61.429688 49.328125 61.402344 C 49.960938 61.222656 50.355469 60.761719 50.75 60.128906 C 50.769531 60.097656 50.792969 60.054688 50.820312 60.007812 C 50.972656 59.738281 51.203125 59.332031 51.484375 59.332031 C 51.511719 59.332031 51.539062 59.335938 51.566406 59.34375 C 51.828125 59.417969 51.796875 59.730469 51.773438 59.960938 C 51.769531 60.015625 51.765625 60.066406 51.765625 60.109375 C 51.765625 60.152344 51.761719 60.199219 51.761719 60.246094 C 51.757812 60.339844 51.753906 60.433594 51.761719 60.519531 C 52.246094 60.648438 52.878906 60.703125 53.390625 60.746094 C 53.722656 60.773438 54.011719 60.800781 54.167969 60.839844 C 54.765625 61.007812 55.328125 61.261719 55.402344 61.933594 C 55.40625 61.980469 55.390625 62.027344 55.347656 62.074219 C 54.882812 62.59375 50.945312 63.042969 49.207031 63.042969 Z M 48.226562 61.75 C 48.191406 62.507812 48.210938 62.746094 48.234375 62.8125 C 48.238281 62.820312 48.296875 62.929688 49.207031 62.929688 C 51.082031 62.929688 54.851562 62.460938 55.265625 62 C 55.285156 61.980469 55.292969 61.960938 55.292969 61.945312 C 55.21875 61.308594 54.660156 61.09375 54.136719 60.945312 C 53.992188 60.910156 53.710938 60.886719 53.382812 60.859375 C 52.851562 60.8125 52.195312 60.757812 51.695312 60.617188 C 51.675781 60.609375 51.660156 60.59375 51.65625 60.570312 C 51.640625 60.464844 51.644531 60.351562 51.648438 60.242188 C 51.652344 60.195312 51.652344 60.152344 51.652344 60.109375 C 51.652344 60.0625 51.65625 60.007812 51.664062 59.949219 C 51.6875 59.703125 51.695312 59.496094 51.535156 59.449219 C 51.304688 59.386719 51.058594 59.8125 50.917969 60.0625 C 50.890625 60.109375 50.863281 60.152344 50.84375 60.1875 C 50.515625 60.714844 50.101562 61.296875 49.359375 61.511719 C 49.296875 61.527344 48.457031 61.746094 48.226562 61.75 Z M 48.226562 61.75 " fill-opacity="1" fill-rule="nonzero"/></g><path fill="#f7b668" d="M 39.742188 59.171875 C 40.074219 58.386719 41.140625 57.183594 41.460938 56.679688 L 39.335938 55.328125 C 39.335938 55.328125 37.03125 58.242188 36.164062 59.53125 C 36.699219 59.753906 39.265625 60.296875 39.742188 59.171875 Z M 39.742188 59.171875 " fill-opacity="1" fill-rule="nonzero"/><path fill="#231f20" d="M 38.125 59.914062 C 37.289062 59.914062 36.421875 59.699219 36.140625 59.582031 C 36.125 59.574219 36.113281 59.5625 36.109375 59.546875 C 36.105469 59.53125 36.105469 59.511719 36.117188 59.5 C 36.972656 58.222656 39.269531 55.320312 39.292969 55.292969 C 39.308594 55.269531 39.34375 55.265625 39.367188 55.28125 L 41.492188 56.632812 C 41.515625 56.648438 41.523438 56.683594 41.507812 56.710938 C 41.398438 56.878906 41.210938 57.125 40.992188 57.410156 C 40.554688 57.972656 40.011719 58.675781 39.792969 59.191406 C 39.59375 59.664062 39.015625 59.914062 38.125 59.914062 Z M 36.246094 59.503906 C 36.574219 59.621094 37.359375 59.804688 38.125 59.804688 C 38.710938 59.804688 39.460938 59.691406 39.691406 59.148438 C 39.914062 58.621094 40.464844 57.910156 40.902344 57.339844 C 41.101562 57.085938 41.273438 56.859375 41.382812 56.695312 L 39.347656 55.402344 C 39.074219 55.75 37.074219 58.285156 36.246094 59.503906 Z M 36.246094 59.503906 " fill-opacity="1" fill-rule="nonzero"/><path fill="#665857" d="M 37.46875 56.59375 C 37.367188 56.675781 36.769531 57.496094 37.25 57.804688 C 37.730469 58.109375 39.605469 58.871094 40.109375 58.726562 C 40.613281 58.578125 40.722656 57.824219 40.722656 57.824219 " fill-opacity="1" fill-rule="nonzero"/><path fill="#231f20" d="M 39.953125 58.796875 C 39.257812 58.796875 37.632812 58.113281 37.21875 57.851562 C 37.089844 57.765625 37.019531 57.644531 37.011719 57.484375 C 36.988281 57.101562 37.34375 56.621094 37.433594 56.550781 C 37.457031 56.53125 37.492188 56.53125 37.511719 56.558594 C 37.53125 56.582031 37.527344 56.617188 37.503906 56.636719 C 37.433594 56.691406 37.101562 57.140625 37.121094 57.480469 C 37.128906 57.601562 37.179688 57.691406 37.28125 57.757812 C 37.757812 58.0625 39.625 58.804688 40.09375 58.671875 C 40.558594 58.539062 40.667969 57.824219 40.667969 57.816406 C 40.671875 57.785156 40.703125 57.765625 40.734375 57.769531 C 40.761719 57.773438 40.785156 57.800781 40.78125 57.832031 C 40.773438 57.863281 40.65625 58.625 40.125 58.777344 C 40.078125 58.792969 40.019531 58.796875 39.953125 58.796875 Z M 39.953125 58.796875 " fill-opacity="1" fill-rule="nonzero"/><path fill="#665857" d="M 47.886719 58.65625 C 47.824219 58.773438 47.589844 59.761719 48.152344 59.859375 C 48.714844 59.957031 50.734375 59.929688 51.144531 59.601562 C 51.550781 59.269531 51.363281 58.53125 51.363281 58.53125 " fill-opacity="1" fill-rule="nonzero"/><path fill="#231f20" d="M 49.046875 59.960938 C 48.65625 59.960938 48.316406 59.945312 48.144531 59.914062 C 47.992188 59.886719 47.878906 59.800781 47.808594 59.660156 C 47.640625 59.3125 47.78125 58.734375 47.835938 58.628906 C 47.851562 58.601562 47.882812 58.59375 47.910156 58.609375 C 47.9375 58.621094 47.949219 58.65625 47.933594 58.683594 C 47.894531 58.761719 47.761719 59.304688 47.910156 59.609375 C 47.964844 59.71875 48.046875 59.78125 48.160156 59.804688 C 48.71875 59.902344 50.726562 59.863281 51.109375 59.554688 C 51.484375 59.253906 51.3125 58.550781 51.308594 58.546875 C 51.300781 58.515625 51.320312 58.484375 51.347656 58.476562 C 51.378906 58.46875 51.410156 58.488281 51.417969 58.515625 C 51.425781 58.550781 51.609375 59.296875 51.179688 59.644531 C 50.882812 59.882812 49.851562 59.960938 49.046875 59.960938 Z M 49.046875 59.960938 " fill-opacity="1" fill-rule="nonzero"/><path fill="#e98263" d="M 37.132812 58.183594 C 36.75 58.695312 36.402344 59.175781 36.164062 59.53125 C 36.636719 59.726562 38.671875 60.171875 39.484375 59.511719 C 38.625 59.265625 37.839844 58.753906 37.132812 58.183594 Z M 37.132812 58.183594 " fill-opacity="1" fill-rule="nonzero"/><path fill="#231f20" d="M 38.125 59.914062 C 37.289062 59.914062 36.417969 59.699219 36.140625 59.582031 C 36.125 59.574219 36.113281 59.5625 36.109375 59.546875 C 36.105469 59.53125 36.105469 59.511719 36.117188 59.5 C 36.332031 59.175781 36.660156 58.722656 37.085938 58.152344 C 37.097656 58.140625 37.109375 58.132812 37.125 58.128906 C 37.140625 58.128906 37.15625 58.132812 37.167969 58.140625 C 38.019531 58.828125 38.761719 59.246094 39.5 59.457031 C 39.519531 59.460938 39.535156 59.476562 39.539062 59.5 C 39.542969 59.519531 39.535156 59.539062 39.519531 59.554688 C 39.222656 59.792969 38.753906 59.914062 38.125 59.914062 Z M 36.246094 59.503906 C 36.574219 59.621094 37.359375 59.804688 38.125 59.804688 C 38.667969 59.804688 39.082031 59.710938 39.359375 59.53125 C 38.65625 59.3125 37.945312 58.90625 37.140625 58.265625 C 36.757812 58.78125 36.457031 59.195312 36.246094 59.503906 Z M 36.246094 59.503906 " fill-opacity="1" fill-rule="nonzero"/><g clip-path="url(#id6)"><path fill="#665857" d="M 42.210938 60.96875 C 41.328125 60.667969 40.59375 60.699219 40.035156 60.070312 C 40.097656 59.9375 40.199219 59.804688 40.277344 59.6875 C 40.386719 59.511719 40.714844 59.210938 40.523438 59 C 40.296875 58.75 39.710938 59.128906 39.480469 59.238281 C 38.863281 59.535156 38.246094 59.753906 37.558594 59.550781 C 37.46875 59.527344 36.40625 59.179688 36.453125 59.113281 C 36.109375 59.597656 35.867188 59.964844 35.839844 60.089844 C 35.78125 60.351562 37.605469 61.414062 39.34375 62.234375 C 40.816406 62.933594 42.777344 62.738281 42.914062 62.460938 C 43.214844 61.851562 43.097656 61.265625 42.210938 60.96875 Z M 42.210938 60.96875 " fill-opacity="1" fill-rule="nonzero"/><path fill="#231f20" d="M 41.660156 62.769531 C 41.167969 62.769531 40.207031 62.707031 39.316406 62.285156 C 38.375 61.839844 35.695312 60.472656 35.785156 60.078125 C 35.792969 60.035156 35.824219 59.898438 36.40625 59.082031 C 36.425781 59.054688 36.460938 59.050781 36.484375 59.066406 C 36.496094 59.074219 36.503906 59.085938 36.507812 59.097656 C 36.617188 59.183594 37.414062 59.453125 37.574219 59.5 C 37.746094 59.550781 37.917969 59.574219 38.097656 59.574219 C 38.582031 59.574219 39.035156 59.386719 39.457031 59.1875 C 39.492188 59.171875 39.53125 59.148438 39.582031 59.121094 C 39.777344 59.019531 40.074219 58.859375 40.308594 58.859375 C 40.417969 58.859375 40.503906 58.894531 40.566406 58.964844 C 40.746094 59.164062 40.554688 59.414062 40.410156 59.597656 C 40.378906 59.640625 40.347656 59.679688 40.324219 59.714844 C 40.300781 59.753906 40.273438 59.792969 40.246094 59.832031 C 40.195312 59.90625 40.140625 59.984375 40.101562 60.0625 C 40.480469 60.46875 40.945312 60.578125 41.484375 60.710938 C 41.722656 60.765625 41.96875 60.824219 42.230469 60.914062 C 42.65625 61.058594 42.933594 61.277344 43.054688 61.5625 C 43.164062 61.824219 43.132812 62.144531 42.964844 62.484375 C 42.867188 62.679688 42.222656 62.769531 41.660156 62.769531 Z M 36.460938 59.195312 C 36.023438 59.816406 35.910156 60.03125 35.894531 60.101562 C 35.863281 60.289062 37.375 61.242188 39.367188 62.183594 C 40.234375 62.597656 41.175781 62.660156 41.660156 62.660156 C 42.375 62.660156 42.820312 62.527344 42.863281 62.433594 C 43.019531 62.121094 43.046875 61.839844 42.949219 61.605469 C 42.84375 61.351562 42.589844 61.152344 42.195312 61.019531 C 41.9375 60.933594 41.695312 60.875 41.457031 60.816406 C 40.890625 60.679688 40.398438 60.5625 39.992188 60.109375 C 39.976562 60.089844 39.972656 60.066406 39.984375 60.046875 C 40.03125 59.949219 40.09375 59.855469 40.15625 59.769531 C 40.179688 59.730469 40.207031 59.691406 40.230469 59.65625 C 40.253906 59.617188 40.289062 59.574219 40.324219 59.527344 C 40.476562 59.332031 40.59375 59.160156 40.484375 59.039062 C 40.441406 58.992188 40.386719 58.972656 40.308594 58.972656 C 40.101562 58.972656 39.820312 59.121094 39.632812 59.222656 C 39.585938 59.246094 39.539062 59.269531 39.503906 59.289062 C 39.074219 59.496094 38.601562 59.6875 38.097656 59.6875 C 37.910156 59.6875 37.722656 59.660156 37.542969 59.605469 C 37.53125 59.601562 36.699219 59.347656 36.460938 59.195312 Z M 36.460938 59.195312 " fill-opacity="1" fill-rule="nonzero"/></g><path fill="#231f20" d="M 37.03125 59.078125 C 37.019531 59.078125 37.007812 59.074219 36.996094 59.066406 C 36.972656 59.046875 36.96875 59.011719 36.988281 58.988281 L 37.425781 58.414062 C 37.445312 58.386719 37.476562 58.382812 37.503906 58.402344 C 37.527344 58.421875 37.53125 58.457031 37.515625 58.480469 L 37.074219 59.054688 C 37.066406 59.070312 37.046875 59.078125 37.03125 59.078125 Z M 37.03125 59.078125 " fill-opacity="1" fill-rule="nonzero"/><path fill="#231f20" d="M 37.546875 59.296875 C 37.539062 59.296875 37.527344 59.292969 37.519531 59.289062 C 37.492188 59.273438 37.484375 59.238281 37.5 59.210938 L 37.828125 58.703125 C 37.847656 58.679688 37.878906 58.671875 37.90625 58.6875 C 37.933594 58.703125 37.941406 58.738281 37.921875 58.765625 L 37.59375 59.273438 C 37.585938 59.289062 37.566406 59.296875 37.546875 59.296875 Z M 37.546875 59.296875 " fill-opacity="1" fill-rule="nonzero"/><path fill="#231f20" d="M 38.234375 59.445312 C 38.226562 59.445312 38.21875 59.441406 38.210938 59.4375 C 38.183594 59.425781 38.171875 59.390625 38.183594 59.363281 L 38.34375 59.027344 C 38.355469 59 38.390625 58.988281 38.417969 59 C 38.445312 59.011719 38.457031 59.046875 38.445312 59.074219 L 38.285156 59.410156 C 38.273438 59.433594 38.253906 59.445312 38.234375 59.445312 Z M 38.234375 59.445312 " fill-opacity="1" fill-rule="nonzero"/><path fill="#231f20" d="M 48.714844 61.242188 C 48.683594 61.242188 48.660156 61.21875 48.660156 61.1875 L 48.660156 60.355469 C 48.660156 60.324219 48.6875 60.300781 48.714844 60.300781 L 48.71875 60.300781 C 48.746094 60.300781 48.773438 60.324219 48.773438 60.355469 L 48.769531 61.1875 C 48.769531 61.21875 48.746094 61.242188 48.714844 61.242188 Z M 48.714844 61.242188 " fill-opacity="1" fill-rule="nonzero"/><path fill="#231f20" d="M 49.597656 61.128906 C 49.566406 61.128906 49.542969 61.109375 49.539062 61.078125 L 49.484375 60.398438 C 49.480469 60.367188 49.503906 60.339844 49.535156 60.339844 C 49.566406 60.335938 49.59375 60.359375 49.597656 60.390625 L 49.652344 61.070312 C 49.652344 61.101562 49.632812 61.128906 49.601562 61.128906 C 49.597656 61.128906 49.597656 61.128906 49.597656 61.128906 Z M 49.597656 61.128906 " fill-opacity="1" fill-rule="nonzero"/><path fill="#231f20" d="M 50.042969 60.789062 C 50.015625 60.789062 49.992188 60.769531 49.988281 60.742188 L 49.933594 60.402344 C 49.925781 60.375 49.949219 60.34375 49.980469 60.339844 C 50.007812 60.335938 50.039062 60.355469 50.042969 60.386719 L 50.097656 60.726562 C 50.105469 60.757812 50.082031 60.785156 50.054688 60.789062 C 50.050781 60.789062 50.046875 60.789062 50.042969 60.789062 Z M 50.042969 60.789062 " fill-opacity="1" fill-rule="nonzero"/><path fill="#665857" d="M 42.425781 20.542969 C 42.425781 20.542969 42.953125 20.511719 43.347656 20.503906 C 43.351562 20.503906 43.351562 20.503906 43.355469 20.503906 C 43.496094 20.507812 43.628906 20.515625 43.753906 20.523438 C 44.761719 21.128906 44.371094 24.585938 44.71875 25.289062 C 45.070312 26 47.9375 26.109375 48.371094 25.738281 C 48.804688 25.363281 48.621094 21.757812 48.621094 21.757812 C 49.273438 22.277344 49.527344 23.03125 49.527344 23.777344 C 49.59375 25 49.597656 35.691406 50.390625 38.539062 C 51.183594 41.382812 52.15625 45.910156 52.398438 46.96875 C 52.75 48.503906 52.867188 57.6875 52.359375 58.445312 C 51.851562 59.207031 47.359375 60.25 47.214844 58.300781 C 47.074219 56.351562 47.492188 49.777344 47.328125 48.550781 C 47.167969 47.320312 46.089844 42.300781 45.535156 42.34375 C 44.976562 42.386719 45.199219 46.785156 45.125 47.511719 C 44.96875 49.078125 42.851562 57.683594 41.726562 58.238281 C 40.605469 58.792969 36.890625 57.542969 36.742188 56.472656 C 36.59375 55.398438 39.566406 49.597656 39.484375 47.269531 C 39.511719 46.027344 39.144531 40.019531 38.894531 38.015625 C 38.234375 32.714844 40.429688 21.6875 41.128906 21.078125 C 41.496094 20.757812 41.960938 20.609375 42.425781 20.542969 Z M 42.425781 20.542969 " fill-opacity="1" fill-rule="nonzero"/><path fill="#e98263" d="M 48.621094 21.757812 C 48.621094 21.757812 48.804688 25.363281 48.371094 25.738281 C 47.9375 26.109375 45.070312 26 44.71875 25.289062 C 44.371094 24.585938 44.761719 21.128906 43.753906 20.523438 C 44.058594 20.542969 44.367188 20.519531 44.367188 20.519531 C 44.367188 20.519531 44.707031 19.910156 44.910156 19.636719 C 47.050781 19.355469 47.574219 19.78125 47.890625 20.226562 C 48.164062 20.613281 48.304688 21.175781 48.246094 21.484375 C 48.292969 21.546875 48.539062 21.691406 48.621094 21.757812 Z M 48.621094 21.757812 " fill-opacity="1" fill-rule="nonzero"/><path fill="#5ba2ad" d="M 43.730469 20.511719 C 43.738281 20.515625 43.746094 20.519531 43.753906 20.523438 C 43.628906 20.515625 43.496094 20.507812 43.355469 20.503906 C 43.519531 20.5 43.664062 20.5 43.730469 20.511719 Z M 43.730469 20.511719 " fill-opacity="1" fill-rule="nonzero"/><path fill="#e98263" d="M 42.425781 20.542969 C 42.742188 20.5 43.0625 20.496094 43.347656 20.503906 C 42.953125 20.511719 42.425781 20.542969 42.425781 20.542969 Z M 42.425781 20.542969 " fill-opacity="1" fill-rule="nonzero"/><path fill="#231f20" d="M 49.125 59.472656 C 48.789062 59.472656 48.46875 59.441406 48.1875 59.367188 C 47.554688 59.199219 47.199219 58.832031 47.160156 58.304688 C 47.085938 57.320312 47.15625 55.179688 47.226562 53.113281 C 47.289062 51.082031 47.351562 49.164062 47.273438 48.554688 C 47.0625 46.960938 45.996094 42.398438 45.542969 42.398438 C 45.539062 42.398438 45.539062 42.398438 45.539062 42.398438 C 45.183594 42.425781 45.195312 45.027344 45.199219 46.273438 C 45.199219 46.859375 45.203125 47.320312 45.179688 47.519531 C 45.023438 49.097656 42.925781 57.710938 41.753906 58.289062 C 40.964844 58.679688 39.042969 58.226562 37.816406 57.574219 C 37.335938 57.320312 36.746094 56.921875 36.683594 56.480469 C 36.617188 56.003906 37.140625 54.648438 37.742188 53.082031 C 38.515625 51.078125 39.472656 48.585938 39.429688 47.273438 C 39.457031 46.058594 39.09375 40.046875 38.839844 38.023438 C 38.167969 32.636719 40.371094 21.664062 41.089844 21.039062 C 41.425781 20.746094 41.859375 20.566406 42.417969 20.488281 C 42.691406 20.449219 42.988281 20.4375 43.351562 20.449219 C 43.351562 20.449219 43.351562 20.449219 43.355469 20.449219 C 43.5 20.453125 43.632812 20.460938 43.757812 20.46875 L 43.820312 20.472656 C 44.050781 20.488281 44.253906 20.5 44.328125 20.476562 C 44.386719 20.371094 44.679688 19.855469 44.867188 19.605469 C 44.875 19.59375 44.890625 19.585938 44.90625 19.582031 C 46.984375 19.308594 47.625 19.777344 47.976562 20.277344 C 48.230469 20.636719 48.292969 21.308594 48.300781 21.453125 C 48.371094 21.503906 48.589844 21.65625 48.65625 21.714844 C 49.253906 22.1875 49.582031 22.921875 49.582031 23.777344 C 49.59375 24.019531 49.605469 24.636719 49.621094 25.492188 C 49.683594 28.984375 49.808594 36.25 50.441406 38.523438 C 51.089844 40.847656 51.84375 44.234375 52.25 46.050781 C 52.339844 46.449219 52.40625 46.761719 52.453125 46.957031 C 52.78125 48.386719 52.957031 57.65625 52.40625 58.476562 C 52.097656 58.941406 50.484375 59.472656 49.125 59.472656 Z M 45.539062 42.289062 C 46.191406 42.289062 47.253906 47.554688 47.382812 48.542969 C 47.464844 49.15625 47.402344 51.078125 47.335938 53.117188 C 47.269531 55.179688 47.199219 57.316406 47.273438 58.296875 C 47.308594 58.777344 47.625 59.101562 48.214844 59.257812 C 49.566406 59.613281 51.953125 58.957031 52.3125 58.414062 C 52.785156 57.710938 52.710938 48.585938 52.34375 46.980469 C 52.296875 46.785156 52.230469 46.472656 52.140625 46.078125 C 51.734375 44.257812 50.980469 40.875 50.335938 38.554688 C 49.699219 36.265625 49.570312 28.992188 49.507812 25.496094 C 49.496094 24.640625 49.484375 24.023438 49.46875 23.78125 C 49.46875 23.195312 49.316406 22.382812 48.585938 21.800781 C 48.507812 21.738281 48.21875 21.53125 48.214844 21.53125 C 48.203125 21.519531 48.191406 21.503906 48.191406 21.488281 C 48.191406 21.480469 48.148438 20.710938 47.886719 20.339844 C 47.554688 19.871094 46.945312 19.429688 44.941406 19.691406 C 44.742188 19.964844 44.421875 20.542969 44.417969 20.546875 C 44.414062 20.558594 44.40625 20.566406 44.394531 20.570312 C 44.304688 20.613281 44.109375 20.601562 43.816406 20.585938 L 43.75 20.582031 C 43.628906 20.574219 43.496094 20.566406 43.351562 20.5625 C 43.351562 20.5625 43.351562 20.5625 43.347656 20.5625 C 42.992188 20.550781 42.699219 20.5625 42.433594 20.601562 C 41.894531 20.675781 41.480469 20.847656 41.164062 21.121094 C 40.46875 21.726562 38.304688 32.835938 38.949219 38.007812 C 39.203125 40.039062 39.570312 46.058594 39.539062 47.273438 C 39.585938 48.605469 38.664062 51.003906 37.847656 53.125 C 37.25 54.675781 36.734375 56.015625 36.796875 56.464844 C 36.839844 56.773438 37.21875 57.132812 37.867188 57.476562 C 39.070312 58.113281 40.964844 58.550781 41.703125 58.1875 C 42.792969 57.652344 44.902344 49.179688 45.070312 47.507812 C 45.089844 47.3125 45.089844 46.855469 45.085938 46.273438 C 45.078125 44.113281 45.105469 42.320312 45.527344 42.289062 C 45.53125 42.289062 45.535156 42.289062 45.539062 42.289062 Z M 45.539062 42.289062 " fill-opacity="1" fill-rule="nonzero"/><path fill="#231f20" d="M 39.15625 30.296875 C 39.132812 30.296875 39.113281 30.28125 39.105469 30.257812 C 39.09375 30.230469 39.109375 30.199219 39.140625 30.1875 C 39.171875 30.175781 42.460938 29.078125 42.894531 28.285156 C 43.304688 27.53125 43.949219 21.667969 42.394531 20.589844 C 42.375 20.578125 42.363281 20.550781 42.371094 20.527344 C 42.378906 20.507812 42.398438 20.488281 42.421875 20.488281 C 42.425781 20.488281 42.957031 20.457031 43.347656 20.449219 C 43.347656 20.449219 43.351562 20.449219 43.351562 20.449219 C 43.484375 20.445312 43.65625 20.445312 43.738281 20.457031 C 43.746094 20.457031 43.753906 20.460938 43.761719 20.464844 C 43.773438 20.472656 43.777344 20.472656 43.785156 20.476562 C 44.453125 20.875 44.527344 22.445312 44.585938 23.707031 C 44.621094 24.410156 44.648438 25.019531 44.769531 25.265625 C 44.871094 25.472656 45.242188 25.648438 45.808594 25.765625 C 46.769531 25.957031 48.066406 25.921875 48.332031 25.695312 C 48.671875 25.402344 48.617188 22.753906 48.566406 21.761719 C 48.566406 21.730469 48.589844 21.703125 48.621094 21.699219 C 48.652344 21.699219 48.675781 21.722656 48.679688 21.753906 C 48.695312 22.125 48.847656 25.398438 48.40625 25.78125 C 48.089844 26.050781 46.703125 26.058594 45.789062 25.875 C 45.359375 25.789062 44.820312 25.621094 44.667969 25.3125 C 44.539062 25.046875 44.507812 24.429688 44.472656 23.710938 C 44.414062 22.476562 44.34375 20.941406 43.722656 20.574219 C 43.71875 20.570312 43.714844 20.566406 43.710938 20.566406 C 43.648438 20.558594 43.523438 20.558594 43.355469 20.5625 C 43.355469 20.5625 43.351562 20.5625 43.351562 20.5625 C 43.351562 20.5625 43.351562 20.5625 43.347656 20.5625 C 43.085938 20.566406 42.761719 20.582031 42.574219 20.59375 C 44.070312 21.929688 43.40625 27.578125 42.992188 28.339844 C 42.539062 29.171875 39.3125 30.25 39.175781 30.292969 C 39.167969 30.296875 39.164062 30.296875 39.15625 30.296875 Z M 39.15625 30.296875 " fill-opacity="1" fill-rule="nonzero"/><path fill="#231f20" d="M 44.769531 42.460938 C 44.746094 42.460938 44.726562 42.449219 44.71875 42.425781 C 44.703125 42.398438 44.71875 42.363281 44.746094 42.351562 C 45.164062 42.179688 45.683594 42.203125 46.097656 42.21875 C 46.257812 42.226562 46.410156 42.234375 46.53125 42.226562 C 46.5625 42.226562 46.589844 42.25 46.589844 42.28125 C 46.589844 42.3125 46.566406 42.335938 46.535156 42.339844 C 46.410156 42.347656 46.257812 42.339844 46.09375 42.332031 C 45.6875 42.3125 45.183594 42.292969 44.789062 42.457031 C 44.78125 42.460938 44.777344 42.460938 44.769531 42.460938 Z M 44.769531 42.460938 " fill-opacity="1" fill-rule="nonzero"/><path fill="#231f20" d="M 43.691406 49.25 C 43.671875 49.25 43.652344 49.238281 43.640625 49.21875 L 43.011719 47.929688 C 43 47.902344 43.011719 47.867188 43.039062 47.855469 C 43.066406 47.839844 43.097656 47.851562 43.113281 47.878906 L 43.742188 49.167969 C 43.753906 49.195312 43.742188 49.230469 43.714844 49.242188 C 43.707031 49.246094 43.699219 49.25 43.691406 49.25 Z M 43.691406 49.25 " fill-opacity="1" fill-rule="nonzero"/><path fill="#231f20" d="M 51.847656 49.25 C 51.828125 49.25 51.808594 49.238281 51.796875 49.21875 L 51.167969 47.929688 C 51.15625 47.902344 51.167969 47.867188 51.195312 47.855469 C 51.222656 47.839844 51.253906 47.851562 51.269531 47.878906 L 51.898438 49.167969 C 51.910156 49.195312 51.898438 49.230469 51.871094 49.242188 C 51.863281 49.246094 51.855469 49.25 51.847656 49.25 Z M 51.847656 49.25 " fill-opacity="1" fill-rule="nonzero"/><path fill="#f7b668" d="M 46.789062 21.597656 C 47.058594 21.769531 47.445312 21.585938 47.601562 21.464844 C 47.757812 21.34375 47.738281 21.109375 47.816406 20.886719 C 47.996094 20.367188 48.246094 19.941406 48.246094 19.941406 L 45.640625 18.113281 C 45.640625 18.777344 45.609375 19.578125 45.328125 20.230469 C 45.515625 20.457031 46.519531 21.429688 46.789062 21.597656 Z M 46.789062 21.597656 " fill-opacity="1" fill-rule="nonzero"/><path fill="#231f20" d="M 47.046875 21.722656 C 46.9375 21.722656 46.839844 21.699219 46.757812 21.644531 C 46.480469 21.472656 45.464844 20.484375 45.285156 20.265625 C 45.273438 20.25 45.269531 20.226562 45.277344 20.207031 C 45.546875 19.582031 45.582031 18.796875 45.582031 18.113281 C 45.582031 18.09375 45.59375 18.074219 45.613281 18.066406 C 45.632812 18.054688 45.65625 18.058594 45.671875 18.070312 L 48.28125 19.894531 C 48.304688 19.914062 48.3125 19.945312 48.296875 19.96875 C 48.292969 19.972656 48.046875 20.394531 47.867188 20.902344 C 47.84375 20.976562 47.828125 21.046875 47.816406 21.117188 C 47.785156 21.273438 47.753906 21.417969 47.632812 21.511719 C 47.53125 21.589844 47.292969 21.722656 47.046875 21.722656 Z M 45.394531 20.21875 C 45.617188 20.476562 46.554688 21.386719 46.816406 21.550781 C 46.882812 21.589844 46.957031 21.613281 47.046875 21.613281 C 47.234375 21.613281 47.449219 21.511719 47.566406 21.421875 C 47.652344 21.355469 47.679688 21.234375 47.707031 21.097656 C 47.71875 21.023438 47.734375 20.945312 47.761719 20.867188 C 47.910156 20.445312 48.105469 20.082031 48.171875 19.957031 L 45.695312 18.222656 C 45.691406 18.878906 45.644531 19.613281 45.394531 20.21875 Z M 45.394531 20.21875 " fill-opacity="1" fill-rule="nonzero"/><path fill="#231f20" d="M 45.722656 18.171875 C 45.933594 18.980469 46.074219 19.835938 46.5625 20.527344 C 46.753906 20.792969 47.011719 21.125 47.339844 21.222656 C 47.5 21.273438 47.628906 21.238281 47.730469 21.160156 C 47.902344 20.523438 48.246094 19.941406 48.246094 19.941406 Z M 45.722656 18.171875 " fill-opacity="1" fill-rule="nonzero"/><path fill="#f7b668" d="M 50.878906 17.621094 C 50.8125 17.484375 50.765625 17.351562 50.734375 17.21875 C 50.550781 16.445312 50.882812 15.707031 50.769531 14.890625 C 50.601562 13.707031 49.105469 13.300781 47.808594 13.429688 C 45.957031 13.613281 45.292969 14.996094 45.265625 16.445312 C 45.261719 16.601562 45.269531 16.761719 45.28125 16.917969 C 44.9375 16.75 44.566406 16.710938 44.441406 17.183594 C 44.214844 18.039062 44.738281 18.074219 44.953125 18.421875 C 45.15625 18.746094 45.523438 18.886719 45.894531 18.878906 C 46.152344 19.339844 46.484375 19.753906 46.878906 20.09375 C 48.082031 21.117188 50.664062 21.347656 51.171875 19.269531 C 51.328125 18.621094 51.15625 18.179688 50.878906 17.621094 Z M 50.878906 17.621094 " fill-opacity="1" fill-rule="nonzero"/><path fill="#231f20" d="M 49.03125 20.910156 C 48.242188 20.910156 47.40625 20.613281 46.84375 20.136719 C 46.460938 19.808594 46.128906 19.402344 45.863281 18.933594 L 45.859375 18.933594 C 45.445312 18.933594 45.097656 18.757812 44.90625 18.449219 C 44.847656 18.359375 44.769531 18.292969 44.683594 18.21875 C 44.464844 18.03125 44.214844 17.816406 44.386719 17.167969 C 44.476562 16.820312 44.699219 16.746094 44.867188 16.746094 C 44.972656 16.746094 45.089844 16.773438 45.21875 16.828125 C 45.210938 16.695312 45.207031 16.566406 45.210938 16.445312 C 45.242188 14.652344 46.1875 13.535156 47.804688 13.375 C 47.957031 13.359375 48.113281 13.351562 48.269531 13.351562 C 49.347656 13.351562 50.664062 13.753906 50.824219 14.882812 C 50.878906 15.273438 50.835938 15.644531 50.789062 16 C 50.742188 16.414062 50.691406 16.804688 50.789062 17.207031 C 50.820312 17.34375 50.867188 17.46875 50.929688 17.597656 C 51.199219 18.140625 51.390625 18.609375 51.226562 19.28125 C 50.972656 20.316406 50.171875 20.910156 49.03125 20.910156 Z M 45.894531 18.824219 C 45.914062 18.824219 45.933594 18.832031 45.941406 18.851562 C 46.207031 19.320312 46.535156 19.722656 46.914062 20.050781 C 47.457031 20.511719 48.269531 20.800781 49.03125 20.800781 C 50.117188 20.800781 50.878906 20.238281 51.117188 19.253906 C 51.273438 18.617188 51.09375 18.1875 50.828125 17.644531 C 50.761719 17.511719 50.714844 17.375 50.679688 17.234375 C 50.578125 16.808594 50.628906 16.390625 50.679688 15.988281 C 50.722656 15.636719 50.765625 15.273438 50.714844 14.898438 C 50.5625 13.839844 49.304688 13.464844 48.269531 13.464844 C 48.117188 13.464844 47.964844 13.472656 47.8125 13.484375 C 45.609375 13.703125 45.335938 15.628906 45.320312 16.445312 C 45.316406 16.59375 45.324219 16.753906 45.339844 16.914062 C 45.339844 16.933594 45.332031 16.953125 45.3125 16.964844 C 45.296875 16.976562 45.277344 16.976562 45.257812 16.96875 C 45.109375 16.894531 44.976562 16.859375 44.867188 16.859375 C 44.675781 16.859375 44.554688 16.96875 44.496094 17.195312 C 44.339844 17.777344 44.542969 17.949219 44.757812 18.132812 C 44.84375 18.207031 44.933594 18.285156 45 18.390625 C 45.171875 18.664062 45.484375 18.824219 45.859375 18.824219 L 45.890625 18.824219 C 45.894531 18.824219 45.894531 18.824219 45.894531 18.824219 Z M 45.894531 18.824219 " fill-opacity="1" fill-rule="nonzero"/><path fill="#231f20" d="M 47.265625 16.195312 C 47.253906 16.195312 47.242188 16.195312 47.226562 16.195312 C 47.253906 16.195312 47.277344 16.191406 47.300781 16.175781 C 47.34375 16.148438 47.375 16.125 47.40625 16.085938 C 47.476562 16.007812 47.578125 15.957031 47.675781 15.921875 C 47.914062 15.839844 48.117188 15.933594 48.335938 16.007812 C 48.492188 16.0625 48.644531 15.867188 48.550781 15.730469 C 48.347656 15.433594 47.9375 15.398438 47.617188 15.496094 C 47.460938 15.542969 47.324219 15.628906 47.21875 15.75 C 47.164062 15.808594 47.109375 15.882812 47.089844 15.960938 C 47.070312 16.019531 47.109375 16.078125 47.101562 16.128906 C 47.089844 16.21875 47.214844 16.292969 47.265625 16.195312 Z M 47.265625 16.195312 " fill-opacity="1" fill-rule="nonzero"/><path fill="#231f20" d="M 50.59375 15.859375 C 50.535156 15.726562 50.5 15.617188 50.367188 15.539062 C 50.253906 15.464844 50.128906 15.429688 49.992188 15.425781 C 49.730469 15.410156 49.386719 15.578125 49.378906 15.871094 C 49.378906 15.984375 49.492188 16.070312 49.597656 16.039062 C 49.75 15.992188 49.851562 15.871094 50.003906 15.828125 C 50.132812 15.792969 50.347656 15.84375 50.429688 15.953125 C 50.503906 16.050781 50.644531 15.972656 50.59375 15.859375 Z M 50.59375 15.859375 " fill-opacity="1" fill-rule="nonzero"/><path fill="#231f20" d="M 45.035156 17.882812 C 44.960938 17.773438 44.894531 17.632812 44.855469 17.511719 C 44.78125 17.289062 45.054688 17.292969 45.175781 17.359375 C 45.382812 17.46875 45.554688 17.710938 45.65625 17.917969 C 45.683594 17.878906 45.714844 17.839844 45.746094 17.800781 C 45.570312 17.765625 45.449219 17.890625 45.449219 18.066406 C 45.453125 18.25 45.664062 18.359375 45.796875 18.21875 C 45.828125 18.183594 45.804688 18.136719 45.757812 18.132812 C 45.699219 18.125 45.632812 18.140625 45.613281 18.070312 C 45.597656 18.011719 45.640625 17.945312 45.703125 17.957031 C 45.777344 17.96875 45.828125 17.902344 45.792969 17.835938 C 45.65625 17.546875 45.367188 17.167969 45.019531 17.152344 C 44.878906 17.148438 44.707031 17.265625 44.703125 17.414062 C 44.695312 17.640625 44.859375 17.761719 44.996094 17.910156 C 45.011719 17.933594 45.046875 17.90625 45.035156 17.882812 Z M 45.035156 17.882812 " fill-opacity="1" fill-rule="nonzero"/><path fill="#231f20" d="M 48.320312 16.785156 C 47.949219 16.785156 48.007812 17.523438 48.292969 17.550781 C 48.617188 17.582031 48.738281 16.785156 48.320312 16.785156 Z M 48.320312 16.785156 " fill-opacity="1" fill-rule="nonzero"/><path fill="#231f20" d="M 47.367188 17.515625 C 47.535156 17.863281 47.953125 18.214844 48.316406 17.875 C 48.632812 17.585938 48.648438 17.117188 48.566406 16.726562 C 48.5 16.414062 48.308594 16.0625 47.953125 16.0625 C 47.511719 16.0625 47.324219 16.574219 47.304688 16.929688 C 47.304688 16.957031 47.34375 16.957031 47.351562 16.933594 C 47.429688 16.679688 47.582031 16.40625 47.820312 16.269531 C 48.125 16.089844 48.316406 16.46875 48.394531 16.695312 C 48.476562 16.941406 48.480469 17.21875 48.414062 17.46875 C 48.371094 17.625 48.277344 17.738281 48.152344 17.828125 C 47.867188 18.027344 47.542969 17.699219 47.417969 17.488281 C 47.398438 17.453125 47.351562 17.484375 47.367188 17.515625 Z M 47.367188 17.515625 " fill-opacity="1" fill-rule="nonzero"/><path fill="#231f20" d="M 50.304688 16.582031 C 49.988281 16.582031 50.039062 17.320312 50.28125 17.347656 C 50.554688 17.378906 50.660156 16.582031 50.304688 16.582031 Z M 50.304688 16.582031 " fill-opacity="1" fill-rule="nonzero"/><path fill="#231f20" d="M 49.535156 17.433594 C 49.660156 17.738281 50.023438 18.160156 50.355469 17.796875 C 50.632812 17.5 50.636719 17.058594 50.574219 16.675781 C 50.53125 16.390625 50.378906 15.972656 50.027344 15.988281 C 49.617188 16.003906 49.492188 16.539062 49.488281 16.851562 C 49.484375 16.878906 49.523438 16.882812 49.53125 16.859375 C 49.601562 16.621094 49.742188 16.261719 49.996094 16.160156 C 50.242188 16.0625 50.363281 16.488281 50.40625 16.644531 C 50.46875 16.878906 50.472656 17.136719 50.421875 17.375 C 50.398438 17.5 50.339844 17.609375 50.257812 17.703125 C 49.988281 18.007812 49.683594 17.59375 49.589844 17.410156 C 49.574219 17.378906 49.523438 17.402344 49.535156 17.433594 Z M 49.535156 17.433594 " fill-opacity="1" fill-rule="nonzero"/><path fill="#f7b668" d="M 49.4375 17.167969 C 49.511719 17.28125 49.550781 17.390625 49.660156 17.5 C 49.847656 17.722656 50.179688 17.761719 50.324219 17.945312 C 50.472656 18.128906 50.371094 18.457031 49.925781 18.554688 C 49.925781 18.554688 49.535156 18.304688 49.347656 17.910156 C 49.160156 17.515625 49.4375 17.167969 49.4375 17.167969 Z M 49.4375 17.167969 " fill-opacity="1" fill-rule="nonzero"/><path fill="#231f20" d="M 49.417969 17.179688 C 49.570312 17.4375 49.679688 17.617188 49.953125 17.757812 C 50.105469 17.835938 50.335938 17.910156 50.34375 18.117188 C 50.351562 18.351562 50.074219 18.441406 49.902344 18.515625 C 49.863281 18.535156 49.882812 18.605469 49.925781 18.597656 C 50.199219 18.570312 50.480469 18.363281 50.421875 18.058594 C 50.394531 17.90625 50.257812 17.816406 50.128906 17.75 C 49.996094 17.679688 49.863281 17.625 49.742188 17.53125 C 49.617188 17.433594 49.542969 17.289062 49.457031 17.15625 C 49.441406 17.132812 49.402344 17.15625 49.417969 17.179688 Z M 49.417969 17.179688 " fill-opacity="1" fill-rule="nonzero"/><path fill="#665857" d="M 44.847656 15.53125 C 44.695312 17.058594 45.535156 17.878906 46.097656 17.863281 C 45.574219 16.835938 46.523438 15.902344 47.289062 15.714844 C 47.761719 15.601562 48.085938 15.269531 48.410156 14.894531 C 48.894531 14.335938 48.949219 12.507812 47.960938 12.523438 C 46.972656 12.542969 44.996094 14 44.847656 15.53125 Z M 44.847656 15.53125 " fill-opacity="1" fill-rule="nonzero"/><path fill="#231f20" d="M 46.078125 17.917969 C 45.566406 17.917969 44.941406 17.3125 44.800781 16.316406 L 44.914062 16.300781 C 45.046875 17.273438 45.613281 17.746094 46.003906 17.800781 C 45.847656 17.4375 45.851562 17.058594 46.019531 16.695312 C 46.238281 16.214844 46.757812 15.789062 47.277344 15.660156 C 47.738281 15.550781 48.054688 15.21875 48.367188 14.859375 C 48.671875 14.507812 48.820312 13.554688 48.554688 12.984375 C 48.425781 12.710938 48.226562 12.578125 47.960938 12.582031 L 47.960938 12.46875 C 48.269531 12.464844 48.507812 12.625 48.65625 12.9375 C 48.941406 13.550781 48.785156 14.546875 48.453125 14.933594 C 48.128906 15.304688 47.796875 15.648438 47.304688 15.769531 C 46.902344 15.867188 46.363281 16.214844 46.121094 16.742188 C 45.957031 17.101562 45.964844 17.480469 46.144531 17.835938 L 46.1875 17.914062 L 46.097656 17.917969 C 46.089844 17.917969 46.082031 17.917969 46.078125 17.917969 Z M 46.078125 17.917969 " fill-opacity="1" fill-rule="nonzero"/><path fill="#f7b668" d="M 60.671875 21.710938 C 60.449219 22.078125 52.914062 21.964844 52.71875 21.710938 C 52.523438 21.457031 52.398438 17.488281 52.71875 16.871094 C 53.039062 16.25 60.5 16.558594 60.671875 16.871094 C 60.839844 17.179688 60.890625 21.34375 60.671875 21.710938 Z M 60.671875 21.710938 " fill-opacity="1" fill-rule="nonzero"/><path fill="#231f20" d="M 57.207031 22 C 56.082031 22 52.835938 21.953125 52.675781 21.746094 C 52.449219 21.457031 52.355469 17.449219 52.667969 16.84375 C 52.835938 16.523438 54.496094 16.457031 55.863281 16.457031 C 57.480469 16.457031 60.578125 16.589844 60.71875 16.84375 C 60.882812 17.136719 60.972656 21.316406 60.71875 21.738281 C 60.589844 21.957031 58.734375 22 57.207031 22 Z M 55.863281 16.566406 C 53.707031 16.566406 52.851562 16.738281 52.769531 16.894531 C 52.441406 17.527344 52.605469 21.472656 52.761719 21.675781 C 52.890625 21.773438 54.820312 21.886719 57.207031 21.886719 C 59.445312 21.886719 60.535156 21.785156 60.621094 21.679688 C 60.839844 21.320312 60.761719 17.148438 60.621094 16.898438 C 60.480469 16.753906 58.144531 16.566406 55.863281 16.566406 Z M 55.863281 16.566406 " fill-opacity="1" fill-rule="nonzero"/><path fill="#231f20" d="M 54.785156 21.949219 C 54.5 19.40625 54.835938 16.546875 54.835938 16.519531 L 54.949219 16.53125 C 54.945312 16.558594 54.613281 19.40625 54.898438 21.9375 Z M 54.785156 21.949219 " fill-opacity="1" fill-rule="nonzero"/><path fill="#665857" d="M 57.785156 21.945312 L 57.785156 16.554688 L 58.214844 16.574219 L 58.214844 21.945312 Z M 57.785156 21.945312 " fill-opacity="1" fill-rule="nonzero"/><path fill="#231f20" d="M 58.269531 22 L 57.730469 22 L 57.730469 16.496094 L 58.269531 16.519531 Z M 57.839844 21.886719 L 58.15625 21.886719 L 58.15625 16.625 L 57.839844 16.613281 Z M 57.839844 21.886719 " fill-opacity="1" fill-rule="nonzero"/><g clip-path="url(#id7)"><path fill="#5ba2ad" d="M 62.773438 26.75 C 62.375 27.117188 48.777344 27.003906 48.425781 26.75 C 48.074219 26.5 47.847656 22.527344 48.425781 21.910156 C 49.003906 21.292969 62.460938 21.601562 62.773438 21.910156 C 63.082031 22.21875 63.167969 26.386719 62.773438 26.75 Z M 62.773438 26.75 " fill-opacity="1" fill-rule="nonzero"/></g><g clip-path="url(#id8)"><path fill="#231f20" d="M 56.519531 27.042969 C 53.378906 27.042969 48.625 26.964844 48.390625 26.796875 C 48.230469 26.679688 48.136719 26.042969 48.085938 25.527344 C 47.960938 24.273438 47.972656 22.3125 48.382812 21.871094 C 48.671875 21.5625 51.648438 21.496094 54.097656 21.496094 C 57.417969 21.496094 62.585938 21.644531 62.8125 21.871094 C 63.03125 22.089844 63.113281 23.789062 63.089844 24.933594 C 63.078125 25.542969 63.023438 26.597656 62.808594 26.792969 C 62.574219 27.007812 58.769531 27.042969 56.519531 27.042969 Z M 54.097656 21.609375 C 50.769531 21.609375 48.664062 21.734375 48.464844 21.949219 C 48.117188 22.320312 48.054688 24.089844 48.195312 25.515625 C 48.269531 26.261719 48.378906 26.652344 48.457031 26.707031 C 48.660156 26.824219 52.5 26.929688 56.519531 26.929688 C 60.910156 26.929688 62.613281 26.8125 62.734375 26.710938 C 62.835938 26.617188 62.953125 26.097656 62.976562 24.929688 C 63.007812 23.550781 62.886719 22.105469 62.730469 21.949219 C 62.523438 21.800781 58.296875 21.609375 54.097656 21.609375 Z M 54.097656 21.609375 " fill-opacity="1" fill-rule="nonzero"/></g><g clip-path="url(#id9)"><path fill="#f7b668" d="M 62.773438 26.753906 C 62.664062 26.847656 61.625 26.914062 60.148438 26.949219 C 59.910156 26.953125 59.65625 26.960938 59.394531 26.964844 C 55.230469 27.035156 48.667969 26.925781 48.425781 26.753906 C 48.074219 26.5 47.847656 22.527344 48.425781 21.910156 C 48.820312 21.488281 55.253906 21.5 59.375 21.644531 C 59.675781 21.65625 59.964844 21.667969 60.238281 21.679688 C 61.683594 21.746094 62.6875 21.828125 62.773438 21.910156 C 63.082031 22.21875 63.167969 26.386719 62.773438 26.753906 Z M 62.773438 26.753906 " fill-opacity="1" fill-rule="nonzero"/></g><g clip-path="url(#id10)"><path fill="#231f20" d="M 56.539062 27.042969 C 53.390625 27.042969 48.625 26.964844 48.394531 26.796875 C 48.222656 26.675781 48.125 25.941406 48.082031 25.519531 C 47.960938 24.269531 47.972656 22.3125 48.382812 21.871094 C 48.675781 21.5625 51.652344 21.496094 54.101562 21.496094 C 55.804688 21.496094 57.726562 21.53125 59.375 21.589844 C 59.679688 21.601562 59.96875 21.613281 60.242188 21.625 C 62.675781 21.734375 62.777344 21.835938 62.8125 21.871094 C 63.03125 22.089844 63.113281 23.789062 63.089844 24.933594 C 63.078125 25.542969 63.023438 26.597656 62.808594 26.792969 C 62.765625 26.835938 62.644531 26.945312 60.148438 27.003906 C 59.910156 27.011719 59.660156 27.015625 59.398438 27.019531 C 58.546875 27.035156 57.585938 27.042969 56.539062 27.042969 Z M 54.101562 21.609375 C 50.773438 21.609375 48.664062 21.734375 48.464844 21.949219 C 48.117188 22.320312 48.054688 24.085938 48.195312 25.507812 C 48.269531 26.257812 48.378906 26.652344 48.457031 26.707031 C 48.660156 26.824219 52.511719 26.929688 56.539062 26.929688 C 57.585938 26.929688 58.546875 26.921875 59.394531 26.90625 C 59.65625 26.902344 59.90625 26.898438 60.148438 26.890625 C 62.410156 26.835938 62.699219 26.738281 62.734375 26.710938 C 62.835938 26.617188 62.953125 26.101562 62.976562 24.929688 C 63.007812 23.554688 62.886719 22.105469 62.730469 21.949219 C 62.707031 21.933594 62.46875 21.839844 60.234375 21.738281 C 59.960938 21.726562 59.671875 21.714844 59.371094 21.703125 C 57.722656 21.644531 55.804688 21.609375 54.101562 21.609375 Z M 54.101562 21.609375 " fill-opacity="1" fill-rule="nonzero"/></g><path fill="#231f20" d="M 51.332031 26.941406 C 50.808594 24.882812 51.441406 21.605469 51.449219 21.574219 L 51.558594 21.59375 C 51.550781 21.628906 50.921875 24.878906 51.441406 26.914062 Z M 51.332031 26.941406 " fill-opacity="1" fill-rule="nonzero"/><path fill="#e98263" d="M 53.527344 21.585938 C 53.351562 21.828125 53.277344 26.957031 53.527344 26.964844 C 53.78125 26.976562 54.171875 26.964844 54.171875 26.964844 C 54.269531 26.8125 54.367188 21.617188 54.242188 21.585938 C 54.117188 21.554688 53.527344 21.585938 53.527344 21.585938 Z M 53.527344 21.585938 " fill-opacity="1" fill-rule="nonzero"/><path fill="#231f20" d="M 53.8125 27.027344 C 53.714844 27.027344 53.613281 27.023438 53.527344 27.023438 C 53.492188 27.019531 53.464844 27 53.445312 26.957031 C 53.242188 26.539062 53.273438 21.839844 53.484375 21.550781 L 53.5 21.53125 L 53.527344 21.527344 C 53.527344 21.527344 53.792969 21.515625 54 21.515625 C 54.128906 21.515625 54.214844 21.519531 54.257812 21.53125 C 54.269531 21.535156 54.289062 21.546875 54.304688 21.578125 C 54.410156 21.851562 54.332031 26.8125 54.21875 26.996094 L 54.203125 27.023438 L 54.171875 27.023438 C 54.171875 27.023438 54 27.027344 53.8125 27.027344 Z M 53.546875 26.910156 C 53.628906 26.914062 53.722656 26.914062 53.8125 26.914062 C 53.945312 26.914062 54.070312 26.914062 54.128906 26.910156 C 54.21875 26.476562 54.285156 22.003906 54.203125 21.632812 C 54.171875 21.628906 54.113281 21.625 54 21.625 C 53.835938 21.625 53.640625 21.636719 53.5625 21.640625 C 53.386719 22.078125 53.371094 26.617188 53.546875 26.910156 Z M 53.546875 26.910156 " fill-opacity="1" fill-rule="nonzero"/><path fill="#e98263" d="M 60.328125 26.945312 C 60.269531 26.945312 60.210938 26.945312 60.148438 26.949219 C 59.949219 26.953125 59.738281 26.957031 59.523438 26.960938 C 59.429688 25.65625 59.425781 22.90625 59.496094 21.652344 C 59.753906 21.660156 60.003906 21.671875 60.238281 21.683594 C 60.296875 21.683594 60.355469 21.6875 60.414062 21.691406 C 60.4375 22.945312 60.386719 25.640625 60.328125 26.945312 Z M 60.328125 26.945312 " fill-opacity="1" fill-rule="nonzero"/><path fill="#231f20" d="M 59.46875 27.019531 L 59.46875 26.964844 C 59.371094 25.617188 59.371094 22.871094 59.441406 21.648438 L 59.445312 21.59375 L 60.242188 21.625 C 60.296875 21.628906 60.351562 21.632812 60.410156 21.632812 L 60.460938 21.636719 L 60.46875 21.6875 C 60.492188 22.964844 60.441406 25.691406 60.386719 26.945312 L 60.382812 27 L 60.148438 27.003906 C 59.949219 27.007812 59.742188 27.015625 59.523438 27.019531 Z M 59.550781 21.710938 C 59.484375 22.9375 59.484375 25.5625 59.574219 26.90625 C 59.773438 26.902344 59.960938 26.898438 60.148438 26.890625 L 60.277344 26.890625 C 60.332031 25.628906 60.378906 23.019531 60.359375 21.742188 C 60.316406 21.742188 60.277344 21.738281 60.238281 21.738281 Z M 59.550781 21.710938 " fill-opacity="1" fill-rule="nonzero"/><path fill="#231f20" d="M 61.636719 24.003906 C 61.394531 24.003906 60.824219 23.996094 60.746094 23.914062 C 60.664062 23.824219 60.636719 23.148438 60.65625 22.722656 C 60.667969 22.421875 60.699219 22.246094 60.75 22.199219 C 60.824219 22.128906 61.226562 22.117188 61.550781 22.117188 C 61.929688 22.117188 62.523438 22.140625 62.605469 22.199219 C 62.65625 22.230469 62.6875 22.429688 62.703125 22.78125 C 62.714844 23.046875 62.71875 23.828125 62.605469 23.917969 C 62.503906 24 61.726562 24.003906 61.636719 24.003906 Z M 61.550781 22.175781 C 61.042969 22.175781 60.824219 22.214844 60.789062 22.246094 C 60.78125 22.253906 60.730469 22.316406 60.714844 22.722656 C 60.695312 23.238281 60.742188 23.820312 60.792969 23.875 C 60.824219 23.90625 61.132812 23.941406 61.636719 23.941406 C 62.164062 23.941406 62.523438 23.90625 62.570312 23.871094 C 62.589844 23.851562 62.636719 23.695312 62.644531 23.238281 C 62.65625 22.71875 62.617188 22.285156 62.570312 22.246094 C 62.523438 22.214844 62.066406 22.175781 61.550781 22.175781 Z M 61.550781 22.175781 " fill-opacity="1" fill-rule="nonzero"/><path fill="#231f20" d="M 61.683594 23.789062 C 61.324219 23.789062 60.960938 23.757812 60.847656 23.695312 C 60.820312 23.679688 60.808594 23.644531 60.824219 23.613281 C 60.84375 23.585938 60.878906 23.574219 60.910156 23.59375 C 61.109375 23.703125 62.324219 23.679688 62.445312 23.59375 C 62.472656 23.574219 62.507812 23.582031 62.527344 23.609375 C 62.546875 23.636719 62.539062 23.675781 62.515625 23.695312 C 62.421875 23.757812 62.054688 23.789062 61.683594 23.789062 Z M 61.683594 23.789062 " fill-opacity="1" fill-rule="nonzero"/><path fill="#231f20" d="M 61.574219 22.867188 C 61.597656 22.832031 61.351562 22.332031 61.269531 22.339844 C 61.1875 22.34375 60.949219 22.839844 60.964844 22.867188 C 60.980469 22.890625 61.136719 22.84375 61.164062 22.867188 C 61.191406 22.886719 61.164062 23.484375 61.164062 23.484375 C 61.164062 23.542969 61.375 23.542969 61.375 23.484375 C 61.375 23.484375 61.355469 22.894531 61.375 22.867188 C 61.390625 22.835938 61.550781 22.898438 61.574219 22.867188 Z M 61.574219 22.867188 " fill-opacity="1" fill-rule="nonzero"/><path fill="#231f20" d="M 62.390625 22.867188 C 62.417969 22.839844 62.160156 22.347656 62.085938 22.339844 C 62.015625 22.332031 61.769531 22.835938 61.78125 22.867188 C 61.796875 22.898438 61.953125 22.839844 61.980469 22.867188 C 62.011719 22.890625 61.949219 23.453125 61.980469 23.484375 C 62.011719 23.515625 62.164062 23.519531 62.191406 23.484375 C 62.21875 23.449219 62.171875 22.894531 62.191406 22.867188 C 62.210938 22.839844 62.363281 22.894531 62.390625 22.867188 Z M 62.390625 22.867188 " fill-opacity="1" fill-rule="nonzero"/><path fill="#231f20" d="M 61.699219 26.195312 C 61.457031 26.195312 60.886719 26.183594 60.808594 26.105469 C 60.726562 26.015625 60.699219 25.339844 60.71875 24.910156 C 60.730469 24.609375 60.761719 24.4375 60.8125 24.390625 C 60.886719 24.320312 61.289062 24.304688 61.613281 24.304688 C 61.988281 24.304688 62.585938 24.332031 62.667969 24.386719 C 62.71875 24.421875 62.75 24.617188 62.765625 24.972656 C 62.773438 25.238281 62.78125 26.019531 62.667969 26.109375 C 62.566406 26.191406 61.789062 26.195312 61.699219 26.195312 Z M 61.613281 24.367188 C 61.105469 24.367188 60.886719 24.402344 60.851562 24.433594 C 60.84375 24.445312 60.792969 24.507812 60.777344 24.914062 C 60.753906 25.429688 60.804688 26.007812 60.855469 26.0625 C 60.886719 26.097656 61.191406 26.132812 61.699219 26.132812 C 62.226562 26.132812 62.585938 26.097656 62.632812 26.0625 C 62.652344 26.042969 62.699219 25.886719 62.707031 25.425781 C 62.71875 24.910156 62.679688 24.476562 62.632812 24.4375 C 62.585938 24.40625 62.128906 24.367188 61.613281 24.367188 Z M 61.613281 24.367188 " fill-opacity="1" fill-rule="nonzero"/><path fill="#231f20" d="M 62.117188 24.648438 C 62.164062 24.714844 62.152344 25.191406 62.003906 25.300781 C 61.863281 25.398438 61.808594 25.324219 61.804688 25.390625 C 61.796875 25.472656 61.769531 25.851562 61.792969 25.878906 C 61.816406 25.910156 62.066406 25.878906 62.054688 25.933594 C 62.039062 25.988281 61.910156 25.984375 61.855469 25.988281 C 61.804688 25.988281 61.695312 25.988281 61.644531 25.988281 C 61.589844 25.984375 61.460938 25.988281 61.445312 25.933594 C 61.429688 25.878906 61.671875 25.882812 61.6875 25.867188 C 61.703125 25.847656 61.699219 25.472656 61.695312 25.390625 C 61.691406 25.324219 61.636719 25.398438 61.496094 25.300781 C 61.347656 25.191406 61.316406 24.660156 61.355469 24.617188 C 61.398438 24.574219 62.070312 24.578125 62.117188 24.648438 Z M 62.117188 24.648438 " fill-opacity="1" fill-rule="nonzero"/><g clip-path="url(#id11)"><path fill="#f7b668" d="M 62.925781 35.910156 C 62.40625 36.386719 49.214844 36.238281 48.757812 35.910156 C 48.296875 35.582031 48.003906 27.863281 48.757812 27.058594 C 49.511719 26.25 62.523438 26.652344 62.925781 27.058594 C 63.328125 27.460938 63.445312 35.433594 62.925781 35.910156 Z M 62.925781 35.910156 " fill-opacity="1" fill-rule="nonzero"/><path fill="#231f20" d="M 56.738281 36.269531 C 53.683594 36.269531 49.023438 36.171875 48.726562 35.957031 C 48.675781 35.921875 48.53125 35.816406 48.394531 34.4375 C 48.171875 32.179688 48.125 27.652344 48.714844 27.019531 C 49.109375 26.597656 52.449219 26.535156 54.40625 26.535156 C 58.0625 26.535156 62.699219 26.75 62.964844 27.015625 C 63.253906 27.304688 63.367188 30.644531 63.316406 32.914062 C 63.292969 34.175781 63.207031 35.726562 62.964844 35.949219 C 62.652344 36.238281 58.507812 36.269531 56.738281 36.269531 Z M 54.40625 26.648438 C 51.15625 26.648438 49.058594 26.816406 48.796875 27.09375 C 48.273438 27.65625 48.257812 31.929688 48.507812 34.425781 C 48.632812 35.691406 48.765625 35.847656 48.789062 35.863281 C 49.003906 36.019531 52.792969 36.160156 56.738281 36.160156 C 60.28125 36.160156 62.695312 36.042969 62.886719 35.867188 C 63.050781 35.71875 63.171875 34.613281 63.207031 32.910156 C 63.261719 30.246094 63.101562 27.3125 62.886719 27.097656 C 62.6875 26.902344 58.539062 26.648438 54.40625 26.648438 Z M 54.40625 26.648438 " fill-opacity="1" fill-rule="nonzero"/></g><path fill="#231f20" d="M 52.554688 36.171875 C 51.945312 32.164062 52.550781 26.660156 52.554688 26.605469 L 52.667969 26.617188 C 52.660156 26.671875 52.058594 32.164062 52.667969 36.15625 Z M 52.554688 36.171875 " fill-opacity="1" fill-rule="nonzero"/><path fill="#665857" d="M 56.9375 31.902344 L 56.9375 26.621094 L 58.898438 26.683594 L 58.753906 31.902344 L 58.363281 31.617188 L 58.148438 31.902344 L 57.757812 31.582031 L 57.507812 31.902344 L 57.25 31.617188 Z M 56.9375 31.902344 " fill-opacity="1" fill-rule="nonzero"/><path fill="#231f20" d="M 56.878906 32.027344 L 56.878906 26.5625 L 58.957031 26.628906 L 58.808594 32.011719 L 58.375 31.695312 L 58.160156 31.984375 L 57.765625 31.660156 L 57.507812 31.988281 L 57.246094 31.695312 Z M 57.746094 31.5 L 58.140625 31.820312 L 58.351562 31.539062 L 58.703125 31.792969 L 58.84375 26.738281 L 56.992188 26.679688 L 56.992188 31.777344 L 57.253906 31.539062 L 57.503906 31.816406 Z M 57.746094 31.5 " fill-opacity="1" fill-rule="nonzero"/><path fill="#231f20" d="M 52.558594 36.183594 C 51.515625 33.574219 50.28125 30.917969 50.023438 30.996094 C 49.707031 31.09375 49.113281 34.066406 48.8125 35.917969 L 48.703125 35.902344 C 48.835938 35.089844 49.515625 31.035156 49.988281 30.890625 C 50.089844 30.859375 50.324219 30.785156 51.535156 33.476562 C 52.121094 34.785156 52.65625 36.128906 52.664062 36.144531 Z M 52.558594 36.183594 " fill-opacity="1" fill-rule="nonzero"/><path fill="#231f20" d="M 49.691406 31.410156 C 49.109375 30.183594 48.71875 27.191406 48.703125 27.0625 L 48.8125 27.050781 C 48.816406 27.082031 49.21875 30.152344 49.792969 31.363281 Z M 49.691406 31.410156 " fill-opacity="1" fill-rule="nonzero"/><path fill="#231f20" d="M 50.472656 31.445312 L 50.402344 31.359375 C 50.949219 30.914062 52.542969 26.632812 52.558594 26.589844 L 52.664062 26.628906 C 52.597656 26.808594 51.046875 30.984375 50.472656 31.445312 Z M 50.472656 31.445312 " fill-opacity="1" fill-rule="nonzero"/><path fill="#e98263" d="M 50.574219 32.476562 C 50.210938 31.992188 49.324219 31.328125 48.882812 30.886719 C 49.082031 30.964844 49.285156 30.964844 49.527344 30.964844 C 49.445312 30.804688 49.40625 30.5625 49.285156 30.402344 C 49.40625 30.441406 49.605469 30.402344 49.726562 30.480469 C 49.6875 30.363281 49.648438 30.121094 49.605469 30 C 50.007812 30.363281 50.855469 31.175781 51.257812 31.578125 L 50.9375 31.648438 L 50.957031 32.132812 L 50.53125 31.984375 Z M 50.574219 32.476562 " fill-opacity="1" fill-rule="nonzero"/><path fill="#231f20" d="M 50.574219 32.53125 C 50.554688 32.53125 50.539062 32.523438 50.527344 32.511719 C 50.304688 32.210938 49.863281 31.832031 49.476562 31.496094 C 49.234375 31.289062 49.007812 31.089844 48.84375 30.925781 C 48.824219 30.90625 48.820312 30.875 48.835938 30.855469 C 48.851562 30.832031 48.878906 30.824219 48.902344 30.832031 C 49.070312 30.902344 49.238281 30.910156 49.441406 30.910156 C 49.421875 30.867188 49.40625 30.820312 49.390625 30.769531 C 49.351562 30.652344 49.308594 30.527344 49.238281 30.433594 C 49.226562 30.414062 49.226562 30.390625 49.238281 30.367188 C 49.253906 30.347656 49.277344 30.339844 49.300781 30.347656 C 49.34375 30.363281 49.402344 30.367188 49.460938 30.367188 C 49.519531 30.371094 49.585938 30.375 49.644531 30.386719 C 49.632812 30.34375 49.621094 30.296875 49.613281 30.253906 C 49.59375 30.164062 49.574219 30.074219 49.554688 30.015625 C 49.546875 29.992188 49.554688 29.964844 49.578125 29.953125 C 49.597656 29.9375 49.625 29.941406 49.644531 29.957031 C 50.042969 30.316406 50.886719 31.125 51.296875 31.539062 C 51.3125 31.550781 51.316406 31.574219 51.3125 31.59375 C 51.304688 31.613281 51.289062 31.628906 51.269531 31.632812 L 50.992188 31.695312 L 51.011719 32.132812 C 51.011719 32.148438 51.003906 32.167969 50.988281 32.179688 C 50.972656 32.191406 50.953125 32.191406 50.9375 32.1875 L 50.597656 32.066406 L 50.628906 32.457031 C 50.628906 32.460938 50.632812 32.46875 50.632812 32.476562 C 50.632812 32.507812 50.605469 32.535156 50.574219 32.53125 Z M 49.082031 31 C 49.21875 31.125 49.378906 31.265625 49.550781 31.410156 C 49.898438 31.714844 50.261719 32.027344 50.503906 32.300781 L 50.476562 31.988281 C 50.476562 31.96875 50.484375 31.953125 50.5 31.941406 C 50.515625 31.929688 50.535156 31.925781 50.550781 31.933594 L 50.898438 32.054688 L 50.878906 31.652344 C 50.878906 31.625 50.898438 31.601562 50.921875 31.59375 L 51.144531 31.542969 C 50.761719 31.164062 50.109375 30.539062 49.707031 30.167969 C 49.710938 30.1875 49.71875 30.207031 49.722656 30.230469 C 49.742188 30.316406 49.761719 30.40625 49.78125 30.464844 C 49.789062 30.488281 49.78125 30.511719 49.761719 30.527344 C 49.742188 30.542969 49.714844 30.542969 49.695312 30.527344 C 49.636719 30.488281 49.546875 30.484375 49.457031 30.480469 C 49.4375 30.480469 49.414062 30.480469 49.394531 30.476562 C 49.4375 30.558594 49.46875 30.648438 49.496094 30.734375 C 49.523438 30.8125 49.546875 30.882812 49.578125 30.941406 C 49.585938 30.957031 49.582031 30.980469 49.574219 30.996094 C 49.5625 31.011719 49.546875 31.023438 49.527344 31.023438 C 49.367188 31.023438 49.222656 31.023438 49.082031 31 Z M 49.082031 31 " fill-opacity="1" fill-rule="nonzero"/><path fill="#231f20" d="M 61.234375 28.148438 C 61.222656 28.148438 61.210938 28.148438 61.203125 28.140625 C 61.167969 28.125 61.15625 28.085938 61.171875 28.050781 C 61.210938 27.96875 61.425781 27.570312 61.652344 27.566406 C 61.738281 27.566406 61.835938 27.613281 61.949219 27.71875 C 61.976562 27.742188 61.976562 27.789062 61.953125 27.816406 C 61.925781 27.84375 61.882812 27.84375 61.855469 27.820312 C 61.746094 27.714844 61.679688 27.703125 61.652344 27.703125 C 61.546875 27.703125 61.375 27.949219 61.292969 28.113281 C 61.28125 28.136719 61.257812 28.148438 61.234375 28.148438 Z M 61.234375 28.148438 " fill-opacity="1" fill-rule="nonzero"/><path fill="#231f20" d="M 61.695312 27.871094 C 61.691406 27.910156 62.066406 28.023438 62.105469 28.003906 C 62.144531 27.984375 62.0625 27.585938 62.015625 27.582031 C 61.972656 27.574219 61.699219 27.828125 61.695312 27.871094 Z M 61.695312 27.871094 " fill-opacity="1" fill-rule="nonzero"/><path fill="#231f20" d="M 62.125 28.960938 C 62.089844 28.960938 62.050781 28.957031 62.011719 28.957031 C 61.972656 28.953125 61.945312 28.921875 61.949219 28.882812 C 61.949219 28.847656 61.984375 28.816406 62.019531 28.820312 C 62.242188 28.832031 62.328125 28.804688 62.359375 28.785156 C 62.359375 28.785156 62.363281 28.78125 62.367188 28.769531 C 62.394531 28.667969 62.253906 28.371094 62.144531 28.191406 C 62.125 28.160156 62.136719 28.117188 62.167969 28.097656 C 62.203125 28.078125 62.242188 28.089844 62.261719 28.121094 C 62.3125 28.199219 62.550781 28.609375 62.5 28.804688 C 62.488281 28.851562 62.460938 28.882812 62.425781 28.90625 C 62.363281 28.941406 62.261719 28.960938 62.125 28.960938 Z M 62.125 28.960938 " fill-opacity="1" fill-rule="nonzero"/><path fill="#231f20" d="M 62.101562 28.675781 C 62.078125 28.632812 61.714844 28.800781 61.707031 28.851562 C 61.699219 28.90625 62.011719 29.121094 62.058594 29.105469 C 62.105469 29.089844 62.125 28.71875 62.101562 28.675781 Z M 62.101562 28.675781 " fill-opacity="1" fill-rule="nonzero"/><path fill="#231f20" d="M 61.191406 28.992188 C 61.035156 28.992188 60.882812 28.964844 60.832031 28.867188 C 60.789062 28.785156 60.816406 28.660156 60.914062 28.476562 C 60.929688 28.441406 60.972656 28.429688 61.003906 28.449219 C 61.039062 28.464844 61.050781 28.507812 61.035156 28.539062 C 60.925781 28.742188 60.949219 28.800781 60.953125 28.804688 C 60.980469 28.863281 61.238281 28.871094 61.492188 28.828125 C 61.53125 28.820312 61.566406 28.84375 61.574219 28.882812 C 61.578125 28.917969 61.554688 28.957031 61.519531 28.960938 C 61.453125 28.972656 61.324219 28.992188 61.191406 28.992188 Z M 61.191406 28.992188 " fill-opacity="1" fill-rule="nonzero"/><path fill="#231f20" d="M 61.128906 28.675781 C 61.171875 28.65625 61.1875 28.28125 61.140625 28.246094 C 61.089844 28.210938 60.765625 28.40625 60.757812 28.453125 C 60.753906 28.496094 61.085938 28.695312 61.128906 28.675781 Z M 61.128906 28.675781 " fill-opacity="1" fill-rule="nonzero"/><path fill="#f7b668" d="M 50.390625 34.816406 C 50.667969 34.890625 50.445312 34.386719 51.613281 34.554688 C 52.554688 34.695312 52.894531 34.21875 53.179688 34.335938 C 53.464844 34.453125 53.222656 34.824219 53.035156 34.96875 C 52.664062 35.253906 51.964844 35.363281 52.210938 35.773438 C 52.582031 36.390625 53.949219 36.121094 54.675781 36.429688 C 55.996094 36.992188 54.71875 36.988281 53.992188 36.96875 C 53.5 36.953125 51.535156 37.164062 50.679688 36.972656 C 49.824219 36.785156 48.503906 35.980469 48.246094 35.695312 C 47.992188 35.40625 48.726562 33.851562 49.019531 34.035156 C 49.308594 34.21875 50.109375 34.746094 50.390625 34.816406 Z M 50.390625 34.816406 " fill-opacity="1" fill-rule="nonzero"/><path fill="#231f20" d="M 51.730469 37.109375 C 51.261719 37.109375 50.910156 37.082031 50.667969 37.027344 C 49.808594 36.839844 48.472656 36.03125 48.207031 35.730469 C 48.054688 35.5625 48.183594 35.09375 48.355469 34.710938 C 48.410156 34.585938 48.703125 33.964844 48.964844 33.964844 C 48.996094 33.964844 49.023438 33.972656 49.046875 33.988281 L 49.148438 34.050781 C 49.476562 34.261719 50.160156 34.699219 50.402344 34.765625 C 50.457031 34.777344 50.472656 34.769531 50.53125 34.703125 C 50.617188 34.609375 50.746094 34.464844 51.183594 34.464844 C 51.308594 34.464844 51.457031 34.476562 51.621094 34.5 C 51.734375 34.515625 51.84375 34.527344 51.949219 34.527344 C 52.308594 34.527344 52.554688 34.429688 52.753906 34.351562 C 52.882812 34.300781 52.984375 34.261719 53.082031 34.261719 C 53.125 34.261719 53.164062 34.269531 53.199219 34.285156 C 53.320312 34.332031 53.355469 34.417969 53.363281 34.480469 C 53.390625 34.671875 53.207031 34.90625 53.070312 35.011719 C 52.953125 35.105469 52.804688 35.175781 52.664062 35.246094 C 52.457031 35.347656 52.261719 35.441406 52.222656 35.566406 C 52.207031 35.617188 52.21875 35.675781 52.257812 35.742188 C 52.46875 36.09375 53.054688 36.140625 53.621094 36.1875 C 54.007812 36.222656 54.402344 36.253906 54.699219 36.378906 C 55.261719 36.621094 55.320312 36.742188 55.300781 36.832031 C 55.28125 36.933594 55.15625 37.03125 54.386719 37.03125 C 54.25 37.03125 54.113281 37.027344 53.992188 37.023438 C 53.847656 37.019531 53.566406 37.035156 53.234375 37.054688 C 52.792969 37.078125 52.238281 37.109375 51.730469 37.109375 Z M 48.964844 34.074219 C 48.867188 34.074219 48.648438 34.332031 48.457031 34.757812 C 48.269531 35.175781 48.199219 35.554688 48.289062 35.65625 C 48.546875 35.949219 49.851562 36.734375 50.691406 36.917969 C 50.929688 36.972656 51.269531 36.996094 51.730469 36.996094 C 52.234375 36.996094 52.785156 36.964844 53.230469 36.941406 C 53.566406 36.921875 53.847656 36.90625 53.996094 36.910156 C 54.117188 36.914062 54.25 36.917969 54.386719 36.917969 C 55.160156 36.917969 55.191406 36.8125 55.191406 36.808594 C 55.191406 36.808594 55.203125 36.714844 54.65625 36.480469 C 54.375 36.363281 53.988281 36.332031 53.613281 36.300781 C 53.019531 36.25 52.402344 36.199219 52.164062 35.800781 C 52.109375 35.707031 52.089844 35.617188 52.117188 35.535156 C 52.167969 35.363281 52.382812 35.257812 52.613281 35.144531 C 52.75 35.078125 52.890625 35.007812 53 34.925781 C 53.132812 34.820312 53.269531 34.621094 53.253906 34.496094 C 53.246094 34.445312 53.214844 34.410156 53.160156 34.386719 C 53.066406 34.351562 52.953125 34.394531 52.792969 34.457031 C 52.597656 34.53125 52.332031 34.636719 51.949219 34.636719 C 51.839844 34.636719 51.722656 34.628906 51.605469 34.613281 C 51.445312 34.589844 51.304688 34.578125 51.183594 34.578125 C 50.796875 34.578125 50.691406 34.695312 50.617188 34.777344 C 50.570312 34.828125 50.523438 34.882812 50.441406 34.882812 C 50.417969 34.882812 50.398438 34.878906 50.375 34.871094 C 50.113281 34.804688 49.445312 34.375 49.085938 34.144531 L 48.988281 34.082031 C 48.980469 34.078125 48.972656 34.074219 48.964844 34.074219 Z M 48.964844 34.074219 " fill-opacity="1" fill-rule="nonzero"/><path fill="#e98263" d="M 48.554688 36.402344 C 48.554688 36.402344 48.980469 36.855469 49.402344 36.746094 C 49.824219 36.636719 50.15625 34.429688 49.941406 34.214844 C 49.730469 34 49.199219 33.800781 49.199219 33.800781 " fill-opacity="1" fill-rule="nonzero"/><path fill="#231f20" d="M 49.265625 36.820312 C 48.875 36.820312 48.53125 36.460938 48.515625 36.441406 L 48.597656 36.367188 C 48.601562 36.371094 49.003906 36.789062 49.386719 36.691406 C 49.5 36.664062 49.628906 36.410156 49.742188 36.007812 C 49.949219 35.265625 50.007812 34.363281 49.902344 34.253906 C 49.699219 34.046875 49.183594 33.855469 49.179688 33.855469 L 49.21875 33.75 C 49.238281 33.757812 49.761719 33.953125 49.980469 34.175781 C 50.15625 34.351562 50.023438 35.410156 49.851562 36.039062 C 49.71875 36.503906 49.574219 36.761719 49.417969 36.800781 C 49.367188 36.8125 49.316406 36.820312 49.265625 36.820312 Z M 49.265625 36.820312 " fill-opacity="1" fill-rule="nonzero"/><path fill="#e98263" d="M 41.558594 20.574219 C 38.820312 21.183594 37.695312 28.75 39.019531 32.109375 C 40.34375 35.46875 47.0625 37.410156 48.429688 36.890625 C 49.792969 36.367188 49.84375 33.71875 49.195312 33.269531 C 48.550781 32.820312 45.0625 31.660156 44.25 30.882812 C 43.4375 30.101562 43.335938 28.140625 43.523438 26 C 43.707031 23.855469 44.296875 19.96875 41.558594 20.574219 Z M 41.558594 20.574219 " fill-opacity="1" fill-rule="nonzero"/><path fill="#231f20" d="M 47.808594 37.03125 C 45.699219 37.03125 40.167969 35.179688 38.964844 32.128906 C 37.980469 29.628906 38.34375 24.820312 39.714844 22.238281 C 40.238281 21.25 40.855469 20.675781 41.546875 20.519531 C 42.246094 20.367188 42.785156 20.492188 43.152344 20.894531 C 43.976562 21.800781 43.773438 23.933594 43.625 25.492188 C 43.609375 25.671875 43.59375 25.839844 43.578125 26.003906 C 43.359375 28.550781 43.597656 30.175781 44.289062 30.839844 C 44.777344 31.3125 46.285156 31.933594 47.496094 32.4375 C 48.289062 32.761719 48.972656 33.046875 49.226562 33.222656 C 49.558594 33.453125 49.726562 34.207031 49.625 35.023438 C 49.511719 35.988281 49.070312 36.703125 48.449219 36.941406 C 48.296875 37 48.078125 37.03125 47.808594 37.03125 Z M 42.09375 20.566406 C 41.933594 20.566406 41.757812 20.589844 41.570312 20.628906 C 40.921875 20.773438 40.316406 21.347656 39.816406 22.289062 C 38.457031 24.847656 38.09375 29.613281 39.070312 32.089844 C 40.253906 35.09375 45.71875 36.917969 47.808594 36.917969 C 48.066406 36.917969 48.269531 36.890625 48.40625 36.835938 C 48.988281 36.613281 49.402344 35.929688 49.515625 35.007812 C 49.605469 34.246094 49.457031 33.519531 49.164062 33.316406 C 48.917969 33.144531 48.238281 32.863281 47.453125 32.539062 C 46.234375 32.035156 44.714844 31.40625 44.210938 30.921875 C 43.496094 30.234375 43.242188 28.574219 43.46875 25.992188 C 43.480469 25.832031 43.496094 25.660156 43.515625 25.480469 C 43.660156 23.945312 43.859375 21.839844 43.070312 20.96875 C 42.824219 20.699219 42.503906 20.566406 42.09375 20.566406 Z M 42.09375 20.566406 " fill-opacity="1" fill-rule="nonzero"/><path fill="#e98263" d="M 47.925781 27.433594 C 47.796875 27.449219 47.242188 27.480469 46.921875 27.476562 C 46.605469 27.476562 45.703125 27.203125 45.59375 27.210938 C 45.484375 27.21875 45.53125 26.3125 45.675781 26.355469 C 45.820312 26.398438 46.742188 26.652344 47.097656 26.632812 C 47.453125 26.609375 47.878906 26.585938 48.007812 26.578125 C 48.132812 26.570312 48.054688 27.417969 47.925781 27.433594 Z M 47.925781 27.433594 " fill-opacity="1" fill-rule="nonzero"/><path fill="#231f20" d="M 46.960938 27.535156 L 46.921875 27.535156 C 46.726562 27.53125 46.332031 27.433594 46.011719 27.355469 C 45.832031 27.3125 45.644531 27.265625 45.597656 27.265625 C 45.574219 27.265625 45.542969 27.257812 45.519531 27.21875 C 45.445312 27.085938 45.476562 26.527344 45.570312 26.367188 C 45.601562 26.308594 45.640625 26.296875 45.667969 26.296875 L 45.691406 26.300781 C 45.957031 26.378906 46.714844 26.578125 47.050781 26.578125 C 47.066406 26.578125 47.082031 26.578125 47.09375 26.578125 L 47.269531 26.566406 C 47.578125 26.546875 47.894531 26.527344 48.003906 26.523438 C 48.109375 26.523438 48.121094 26.679688 48.125 26.738281 C 48.136719 26.910156 48.097656 27.46875 47.933594 27.488281 C 47.800781 27.503906 47.28125 27.535156 46.960938 27.535156 Z M 45.613281 27.15625 C 45.683594 27.160156 45.820312 27.195312 46.039062 27.246094 C 46.351562 27.324219 46.742188 27.421875 46.921875 27.421875 L 46.960938 27.421875 C 47.289062 27.421875 47.804688 27.390625 47.917969 27.378906 C 47.925781 27.367188 47.972656 27.269531 48 27.046875 C 48.027344 26.835938 48.011719 26.679688 47.992188 26.636719 C 47.875 26.640625 47.574219 26.660156 47.277344 26.679688 L 47.101562 26.6875 C 47.085938 26.6875 47.070312 26.691406 47.050781 26.691406 C 46.652344 26.691406 45.78125 26.445312 45.671875 26.414062 C 45.605469 26.492188 45.558594 27.042969 45.613281 27.15625 Z M 45.613281 27.15625 " fill-opacity="1" fill-rule="nonzero"/><path fill="#231f20" d="M 42.175781 31.46875 L 42.113281 31.375 C 42.15625 31.347656 42.203125 31.308594 42.257812 31.269531 C 42.632812 30.992188 43.324219 30.476562 44.269531 30.828125 L 44.230469 30.933594 C 43.34375 30.601562 42.707031 31.074219 42.324219 31.359375 C 42.269531 31.402344 42.21875 31.4375 42.175781 31.46875 Z M 42.175781 31.46875 " fill-opacity="1" fill-rule="nonzero"/><path fill="#231f20" d="M 47.542969 23.035156 C 47.523438 23.03125 47.503906 23.019531 47.496094 23.003906 L 46.894531 21.785156 L 46.308594 22.703125 C 46.292969 22.726562 46.261719 22.734375 46.234375 22.722656 C 45.226562 22.21875 44.355469 20.613281 44.320312 20.546875 C 44.304688 20.519531 44.316406 20.484375 44.34375 20.46875 C 44.371094 20.457031 44.402344 20.464844 44.417969 20.492188 C 44.425781 20.507812 45.285156 22.085938 46.242188 22.597656 L 46.851562 21.640625 C 46.863281 21.625 46.882812 21.617188 46.902344 21.617188 C 46.921875 21.617188 46.941406 21.628906 46.949219 21.648438 L 47.550781 22.859375 C 47.691406 22.621094 48.074219 21.9375 48.195312 21.46875 C 48.203125 21.441406 48.230469 21.421875 48.261719 21.429688 C 48.292969 21.4375 48.308594 21.46875 48.300781 21.5 C 48.148438 22.089844 47.613281 22.96875 47.59375 23.007812 C 47.582031 23.023438 47.5625 23.035156 47.542969 23.035156 Z M 47.542969 23.035156 " fill-opacity="1" fill-rule="nonzero"/><path fill="#231f20" d="M 46.851562 26.003906 C 46.847656 26.003906 46.839844 26 46.835938 26 C 46.808594 25.992188 46.789062 25.960938 46.796875 25.933594 C 47.132812 24.671875 46.800781 21.785156 46.796875 21.753906 C 46.792969 21.722656 46.8125 21.695312 46.84375 21.691406 C 46.875 21.6875 46.902344 21.710938 46.90625 21.742188 C 46.921875 21.863281 47.246094 24.679688 46.90625 25.960938 C 46.898438 25.984375 46.875 26.003906 46.851562 26.003906 Z M 46.851562 26.003906 " fill-opacity="1" fill-rule="nonzero"/><path fill="#231f20" d="M 49.535156 19.511719 C 49.425781 19.511719 49.316406 19.5 49.203125 19.46875 C 48.777344 19.359375 48.453125 19.164062 48.367188 18.964844 C 48.339844 18.898438 48.339844 18.832031 48.371094 18.773438 C 48.402344 18.722656 48.484375 18.699219 48.636719 18.699219 C 49.039062 18.699219 50.144531 18.914062 50.214844 19.09375 C 50.234375 19.144531 50.222656 19.203125 50.183594 19.257812 C 50.097656 19.386719 49.863281 19.511719 49.535156 19.511719 Z M 48.636719 18.808594 C 48.496094 18.808594 48.46875 18.832031 48.46875 18.832031 C 48.457031 18.855469 48.457031 18.886719 48.472656 18.921875 C 48.527344 19.058594 48.785156 19.246094 49.230469 19.359375 C 49.335938 19.386719 49.4375 19.402344 49.535156 19.402344 C 49.808594 19.402344 50.023438 19.296875 50.089844 19.195312 C 50.109375 19.171875 50.117188 19.148438 50.109375 19.132812 C 50.046875 19.042969 49.117188 18.808594 48.636719 18.808594 Z M 48.636719 18.808594 " fill-opacity="1" fill-rule="nonzero"/><path fill="#231f20" d="M 49.066406 19.367188 C 49.042969 19.367188 49.019531 19.351562 49.011719 19.332031 C 48.980469 19.246094 48.980469 19.144531 48.980469 19.050781 C 48.980469 18.960938 48.980469 18.875 48.957031 18.808594 C 48.945312 18.777344 48.960938 18.746094 48.988281 18.734375 C 49.019531 18.726562 49.050781 18.738281 49.0625 18.769531 C 49.09375 18.851562 49.09375 18.953125 49.09375 19.050781 C 49.09375 19.136719 49.09375 19.226562 49.117188 19.292969 C 49.128906 19.320312 49.113281 19.351562 49.085938 19.363281 C 49.078125 19.367188 49.070312 19.367188 49.066406 19.367188 Z M 49.066406 19.367188 " fill-opacity="1" fill-rule="nonzero"/><path fill="#231f20" d="M 49.71875 19.460938 C 49.710938 19.460938 49.703125 19.457031 49.695312 19.457031 C 49.667969 19.445312 49.652344 19.410156 49.664062 19.382812 C 49.703125 19.292969 49.746094 19.070312 49.738281 19.03125 C 49.726562 19.003906 49.738281 18.972656 49.765625 18.957031 C 49.792969 18.945312 49.828125 18.960938 49.84375 18.988281 C 49.878906 19.058594 49.796875 19.359375 49.769531 19.425781 C 49.761719 19.445312 49.738281 19.460938 49.71875 19.460938 Z M 49.71875 19.460938 " fill-opacity="1" fill-rule="nonzero"/><path fill="#231f20" d="M 44.355469 14.160156 C 44.347656 14.160156 44.339844 14.160156 44.332031 14.15625 C 44.304688 14.144531 44.289062 14.109375 44.304688 14.082031 C 44.492188 13.667969 44.785156 13.433594 45.109375 13.433594 C 45.140625 13.433594 45.164062 13.457031 45.164062 13.488281 C 45.164062 13.519531 45.140625 13.542969 45.109375 13.542969 C 44.710938 13.542969 44.484375 13.953125 44.40625 14.128906 C 44.394531 14.148438 44.375 14.160156 44.355469 14.160156 Z M 44.355469 14.160156 " fill-opacity="1" fill-rule="nonzero"/><path fill="#231f20" d="M 44.429688 15.253906 C 44.398438 15.253906 44.375 15.226562 44.375 15.195312 C 44.375 14.492188 44.699219 13.949219 45.34375 13.578125 C 45.367188 13.566406 45.402344 13.574219 45.417969 13.601562 C 45.433594 13.628906 45.425781 13.660156 45.398438 13.675781 C 44.792969 14.023438 44.484375 14.535156 44.484375 15.195312 C 44.484375 15.226562 44.460938 15.253906 44.429688 15.253906 Z M 44.429688 15.253906 " fill-opacity="1" fill-rule="nonzero"/><path fill="#231f20" d="M 51.070312 14.46875 C 51.042969 14.46875 51.019531 14.449219 51.015625 14.421875 C 50.941406 13.976562 50.589844 13.460938 50.082031 13.375 C 50.050781 13.371094 50.03125 13.34375 50.035156 13.3125 C 50.039062 13.28125 50.070312 13.261719 50.101562 13.265625 C 50.660156 13.359375 51.046875 13.921875 51.125 14.402344 C 51.128906 14.433594 51.109375 14.460938 51.078125 14.46875 C 51.078125 14.46875 51.074219 14.46875 51.070312 14.46875 Z M 51.070312 14.46875 " fill-opacity="1" fill-rule="nonzero"/></svg>