<svg xmlns="http://www.w3.org/2000/svg" width="108" height="30" viewBox="0 0 108 30">
    <path fill="#1D1D1B" fill-rule="evenodd" d="M106.537 29.323c-1.532.242-3.4.677-9.097.677-6.224 0-11.06-1.693-11.06-9.913l.003-10.174c0-8.22 4.836-9.913 11.06-9.913 5.697 0 7.565.435 9.097.677.718.097.957.338.957 1.015v3.095a.965.965 0 0 1-.957.967h-9.767c-2.777 0-3.783.967-3.783 4.159v1.933h12.975c.526 0 .957.435.957.967v3.482a.965.965 0 0 1-.957.967H92.99l-.002 2.825c0 3.191 1.005 4.159 3.782 4.159h9.767c.527 0 .957.435.957.967v3.094c0 .677-.238.919-.957 1.016zM49.734 1.929l-4.999 27.13c-.102.495-.512.94-1.024.94h-.513c-.46 0-.717-.346-.717-.742v-.198l4.998-27.13c.103-.495.513-.94 1.025-.94h.513c.461 0 .717.346.717.742v.198zM38.337 1.82l-3.963 24.216C33.938 29.12 32.531 30 30.01 30H27.39c-2.182 0-3.346-1.077-4.025-3.915l-3.832-12.173c-.097-.44-.097-.538-.29-.538-.195 0-.243.098-.34.538l-3.832 12.173C14.392 28.923 13.229 30 11.046 30H8.427c-2.523 0-3.93-.881-4.366-3.964L0 1.82v-.146C0 1.233.388.988.825.988h5.14c.388 0 .777.343.825.881l2.995 21.476c.048.44.048.734.242.734s.194-.294.291-.734l4.17-13.2c.292-1.175.971-2.202 3.057-2.202h3.347c2.085 0 2.764 1.027 3.055 2.201l4.17 13.201c.098.44.098.734.292.734.194 0 .194-.294.243-.734l2.894-21.476c.05-.538.437-.88.824-.88h5.142c.437 0 .825.244.825.685v.146zM79.119.988c.473 0 .662.348.662.743v.199l-4.286 25.595c-.281 1.572-1.308 2.46-2.478 2.475v-.002L72.99 30h-.009c-1.176-.002-1.789-.35-2.166-1.585l-7.718-25a.457.457 0 0 0-.38-.338v-.008c-.015-.001-.03-.008-.046-.008-.013 0-.029.007-.044.011v-.01c-.09.026-.199.124-.24.336l-4.357 25.66c-.094.496-.472.941-.945.941h-.473c-.425 0-.661-.346-.661-.742v-.198l4.357-25.661c.3-1.664 1.38-2.305 2.319-2.41v.01l.09-.01v.008a2.49 2.49 0 0 1 .191-.008c1.228 0 1.843.694 2.127 1.536l7.718 25.049c.042.174.09.301.228.332.013.002.022.01.036.01.007.002.012.006.02.006.047 0 .283-.198.331-.396L77.654 1.93c.094-.496.426-.942.898-.942h.567z"/>
</svg>